<svg width="24" height="25" viewBox="0 0 24 25" fill="none" xmlns="http://www.w3.org/2000/svg">
<mask id="mask0_2635_4596" style="mask-type:alpha" maskUnits="userSpaceOnUse" x="0" y="0" width="24" height="25">
<rect y="0.425079" width="24" height="24" fill="#D9D9D9"/>
</mask>
<g mask="url(#mask0_2635_4596)">
<path d="M12.0007 3.42508C7.21522 3.42508 4 5.16997 4 6.79935C4 8.42947 7.21522 10.1751 12.0007 10.1751C16.7859 10.1751 20 8.42947 20 6.79935C20 5.16997 16.7859 3.42508 12.0007 3.42508ZM4 8.11258V10.6065C4 12.2092 7.21522 13.9251 12.0007 13.9251C16.7859 13.9251 20 12.2092 20 10.6065V8.11258C18.6011 9.52033 15.5859 10.4563 12.0007 10.4563C8.41484 10.4563 5.39924 9.51995 4 8.11258ZM4 11.7063V14.3733C4 15.9757 7.21522 17.6751 12.0007 17.6751C16.7859 17.6751 20 15.9753 20 14.3733V11.7063C18.6011 13.1133 15.5859 14.2063 12.0007 14.2063C8.41484 14.2063 5.39924 13.1133 4 11.7063ZM4 15.4563V18.1065C4 19.7089 7.21522 21.4251 12.0007 21.4251C16.7859 21.4251 20 19.7089 20 18.1065V15.4563C18.6011 16.8637 15.5859 17.9563 12.0007 17.9563C8.41484 17.9563 5.39924 16.8637 4 15.4563Z" fill="black"/>
</g>
</svg>
