<svg width="24" height="25" viewBox="0 0 24 25" fill="none" xmlns="http://www.w3.org/2000/svg">
<path d="M4.89845 6.44778C5.19271 6.09299 5.49163 5.73821 5.81858 5.41218C5.89798 5.33547 5.97738 5.25876 6.06145 5.18684C6.09882 5.15328 6.15021 5.11972 6.18757 5.08136C6.11751 5.15807 6.13619 5.11972 6.16421 5.10054C6.19223 5.08136 6.22026 5.05739 6.25296 5.03342C6.43511 4.89917 6.62662 4.7841 6.83213 4.68821C6.91621 4.64986 6.81345 4.6978 6.79943 4.7026C6.82279 4.6978 6.84146 4.68342 6.86482 4.67863C6.92087 4.65945 6.97225 4.63547 7.02829 4.62109C7.13105 4.58753 7.23847 4.55877 7.3459 4.53479C7.39261 4.5252 7.55141 4.51561 7.39261 4.5252C7.44399 4.5252 7.49537 4.51561 7.54675 4.51082C7.65418 4.50602 7.7616 4.50602 7.86903 4.51082C7.88304 4.51082 7.99514 4.5252 7.89705 4.51082C7.79897 4.49644 7.91107 4.51082 7.92508 4.51561C7.96711 4.5252 8.01382 4.53479 8.05586 4.54438C8.11191 4.55876 8.16329 4.57794 8.21933 4.59712C8.23802 4.60191 8.26136 4.6163 8.28472 4.62109L8.21933 4.59232C8.21933 4.59232 8.26136 4.6115 8.28004 4.62109C8.36411 4.66424 8.44819 4.71218 8.52759 4.76972C8.54627 4.7841 8.56029 4.79369 8.57897 4.80807C8.64903 4.86081 8.55095 4.78889 8.54628 4.7841C8.56963 4.82246 8.64436 4.8704 8.67705 4.89917C8.74712 4.96629 8.81251 5.03821 8.87323 5.11013C8.90593 5.14848 8.93394 5.18684 8.96664 5.2252C8.98065 5.23958 8.98999 5.26356 9.00867 5.27794C8.90592 5.18205 8.98066 5.23958 9.00401 5.27794C9.12545 5.45054 9.23754 5.62794 9.34496 5.81013C9.58317 6.20807 9.81204 6.60601 10.0689 6.98956C10.2091 7.20052 10.3585 7.41148 10.508 7.61764C10.6574 7.8238 10.8209 8.05394 10.9984 8.25051C11.1759 8.44709 11.4048 8.61968 11.6616 8.71078C11.9466 8.81146 12.2642 8.76831 12.5304 8.61968C12.9414 8.38955 13.1469 7.92928 13.3478 7.52175C13.572 7.06628 13.8148 6.62039 14.0671 6.18409C14.3193 5.7478 14.5902 5.32108 14.8751 4.90396C14.9031 4.86561 14.9311 4.82246 14.9592 4.7841C15.0199 4.69301 14.8984 4.86082 14.9452 4.80328C14.9638 4.7841 14.9778 4.76013 14.9965 4.74095C15.0245 4.70739 15.0572 4.67862 15.0853 4.64986C15.16 4.57314 15.0059 4.6978 15.0619 4.66424C15.0806 4.65465 15.1787 4.60671 15.0946 4.64027C14.9965 4.67863 15.1133 4.64027 15.118 4.64027C15.1133 4.64986 14.9872 4.64027 15.0666 4.64986C15.0806 4.64986 15.104 4.64986 15.118 4.64986C15.0105 4.66903 15.0012 4.62589 15.0526 4.64027C15.1787 4.68342 14.9452 4.57315 15.0619 4.64027C15.0759 4.64986 15.0899 4.65945 15.104 4.66904C14.9965 4.6115 15.0292 4.60671 15.0713 4.64986C15.0853 4.66424 15.0946 4.67383 15.1086 4.68821C15.174 4.76013 15.0526 4.59233 15.0853 4.65465C15.104 4.69301 15.132 4.72657 15.1507 4.76013C15.1693 4.7937 15.1927 4.83684 15.2067 4.8752C15.2254 4.91835 15.2254 4.97109 15.1927 4.84164C15.202 4.87041 15.2114 4.89438 15.2207 4.92314C15.2908 5.12931 15.3422 5.34985 15.3935 5.56081C15.529 6.07861 15.6551 6.59642 15.7812 7.11902C16.0241 8.13065 16.2529 9.14708 16.4678 10.1683C16.8975 12.2299 17.2618 16.3011 17.5654 18.3867C17.6028 18.6456 17.6402 18.9045 17.6728 19.1587C17.6915 19.2833 17.8176 19.4223 17.9157 19.4847C18.0278 19.5518 18.196 19.5806 18.3221 19.5374C18.4482 19.4943 18.5743 19.4128 18.6397 19.2881C18.7097 19.1491 18.7144 19.0244 18.6911 18.871C18.4015 16.7374 18.0418 12.6087 17.6121 10.4991C17.4019 9.44913 17.1731 8.40393 16.9255 7.36353C16.8041 6.84093 16.678 6.32313 16.5472 5.80533C16.4258 5.31629 16.323 4.80328 16.1175 4.34301C15.9213 3.90192 15.5056 3.50398 15.0059 3.56151C14.6929 3.59507 14.4267 3.75329 14.2259 3.99301C14.053 4.19918 13.9083 4.42931 13.7588 4.65465C13.4785 5.08136 13.2123 5.52245 12.9601 5.96834C12.7079 6.41422 12.493 6.86491 12.2642 7.31079C12.2221 7.3923 12.1754 7.47381 12.124 7.55532C12.1007 7.58888 12.0493 7.63682 12.1427 7.53134C12.1287 7.54573 12.1194 7.5649 12.1054 7.57928C12.0913 7.59846 12.0727 7.61764 12.054 7.63202C12.04 7.64641 11.9559 7.71832 12.0306 7.656C12.11 7.59367 11.9793 7.67518 11.9652 7.68956C12.0306 7.62723 12.068 7.656 12.0119 7.66559L11.9839 7.67518C11.9279 7.68477 11.9466 7.68477 12.04 7.67518C12.0306 7.67518 11.9839 7.67518 11.9746 7.67518C11.8858 7.67518 12.0119 7.67517 12.0213 7.68476C12.0119 7.67517 11.9606 7.67038 11.9466 7.66559C11.9092 7.6512 11.9279 7.66559 12.0026 7.68956C11.9886 7.68477 11.9746 7.67518 11.9606 7.66559C11.9185 7.64161 11.8812 7.61285 11.8391 7.58408C11.9466 7.64641 11.8905 7.62243 11.8578 7.59367C11.8391 7.57449 11.8158 7.55531 11.7971 7.53613C11.7224 7.45942 11.6523 7.37792 11.5869 7.29162C11.5495 7.24367 11.5122 7.19573 11.4748 7.14778C11.3954 7.0423 11.5215 7.21011 11.4748 7.14778C11.4561 7.11902 11.4328 7.09504 11.4141 7.06628C11.3347 6.956 11.2553 6.85052 11.1806 6.74025C10.8956 6.33272 10.6388 5.9156 10.3865 5.48889C10.1577 5.09574 9.91947 4.70739 9.62988 4.36219C9.31695 3.99302 8.91994 3.70535 8.46688 3.54713C8.01382 3.38891 7.46267 3.3937 6.98159 3.50877C6.01942 3.73411 5.24875 4.41493 4.6042 5.14849C4.45006 5.32588 4.3006 5.50327 4.15114 5.68546C3.97365 5.90122 3.92694 6.24163 4.15114 6.45258C4.34731 6.63957 4.70695 6.68272 4.89845 6.45258V6.44778Z" fill="black"/>
<path d="M20 19.726C20 20.6644 19.259 21.4251 18.3449 21.4251C17.4307 21.4251 16.6897 20.6644 16.6897 19.726C16.6897 18.7877 17.4307 18.027 18.3449 18.027C19.259 18.027 20 18.7877 20 19.726Z" fill="black"/>
</svg>
