<?xml version="1.0" encoding="UTF-8"?>
<svg id="Calque_1" data-name="Calque 1" xmlns="http://www.w3.org/2000/svg" viewBox="0 0 512 512">
  <path d="M229,404v-57.5l1.65-1.35c76.85-5,75.54-123.25-1.65-126.15v-59c93.49.83,146.89,104.66,101.17,184.67-20.38,35.67-59.52,60.19-101.17,59.33Z"/>
  <path d="M223.95,347.05l1.06,57.96c-87.95.39-152.72-97.58-108.03-176.57l50.94,28.04c-22.12,41.37,12.09,87.87,56.04,90.57Z"/>
  <path d="M222,160v59c-21.84-.48-41.53,13.22-51.57,32.06l-50.46-29.58c19.41-36.91,59.94-61.89,102.02-61.48Z"/>
  <path d="M228,118c51.18-1.13,102.46,24.84,131.76,66.51l-30.13,22.41c-22.88-29.63-53.11-46.07-90.25-50.79-3.86-.49-8.61,1.11-11.37-1.63v-36.5Z"/>
  <path d="M380.99,340l-36.07-13.6c13.77-36.56,10.7-79.07-10.75-111.91l31.36-20.51c2,.04,4.87,6.06,5.98,7.99,19.3,33.35,24.34,77.81,15.99,115.03-1.76,7.83-4.79,15.18-6.51,22.99Z"/>
  <path d="M223,410v38c-51.47.07-101.56-25.53-130.94-67.52l30.45-22.47c22.98,32.06,60.79,51.86,100.5,51.98Z"/>
  <path d="M139.98,139c4,10.25,13.95,20.85,17.91,30.63.44,1.1,1.57,2.12.7,3.39-19.14,10.88-33.43,27.66-45.15,45.96l-30.44-16.47c-1.74-1.96-1.23-5.2-.44-7.47,1.22-3.51,12.85-18.49,15.94-22.05,11.42-13.16,26.19-25.64,41.49-33.99Z"/>
  <path d="M436.87,216.88l-46.24,15.05-20.63-41.91,42.98-27.02c6.22,11.68,13.13,23.04,18.19,35.33,1.28,3.11,7.06,16.44,5.7,18.55Z"/>
  <path d="M228,64c19.43-.25,39.47.83,58.02,6.58l-12.1,47.34c-15.19-2.57-30.37-5.92-45.91-4.93v-49Z"/>
</svg>