<?xml version="1.0" encoding="UTF-8"?>
<svg id="Calque_1" data-name="Calque 1" xmlns="http://www.w3.org/2000/svg" viewBox="0 0 512 512">
  <path fill="#ffffff" d="M512,0v512H0V0h512ZM228,64v49c15.54-.99,30.73,2.35,45.91,4.93l12.1-47.34c-18.55-5.75-38.59-6.84-58.02-6.58ZM228,118v36.5c2.76,2.74,7.52,1.14,11.37,1.63,37.14,4.73,67.38,21.16,90.25,50.79l30.13-22.41c-29.3-41.67-80.58-67.64-131.76-66.51ZM139.98,139c-15.3,8.34-30.07,20.83-41.49,33.99-3.09,3.56-14.72,18.54-15.94,22.05-.79,2.27-1.3,5.51.44,7.47l30.44,16.47c11.73-18.3,26.02-35.09,45.15-45.96.88-1.27-.25-2.29-.7-3.39-3.96-9.78-13.91-20.38-17.91-30.63ZM222,160c-42.08-.41-82.61,24.56-102.02,61.48l50.46,29.58c10.03-18.84,29.73-32.54,51.57-32.06v-59ZM229,404c41.66.86,80.79-23.66,101.17-59.33,45.72-80.01-7.68-183.84-101.17-184.67v59c77.19,2.9,78.51,121.16,1.65,126.15l-1.65,1.35v57.5ZM436.87,216.88c1.36-2.11-4.42-15.44-5.7-18.55-5.06-12.29-11.97-23.65-18.19-35.33l-42.98,27.02,20.63,41.91,46.24-15.05ZM380.99,340c1.72-7.81,4.76-15.17,6.51-22.99,8.35-37.22,3.31-81.68-15.99-115.03-1.12-1.93-3.98-7.95-5.98-7.99l-31.36,20.51c21.45,32.83,24.51,75.35,10.75,111.91l36.07,13.6ZM223.95,347.05c-43.95-2.69-78.16-49.2-56.04-90.57l-50.94-28.04c-44.69,78.99,20.08,176.95,108.03,176.57l-1.06-57.96ZM223,410c-39.71-.12-77.52-19.92-100.5-51.98l-30.45,22.47c29.38,41.98,79.48,67.58,130.94,67.52v-38Z"/>
  <path d="M229,404v-57.5l1.65-1.35c76.85-5,75.54-123.25-1.65-126.15v-59c93.49.83,146.89,104.66,101.17,184.67-20.38,35.67-59.52,60.19-101.17,59.33Z"/>
  <path d="M223.95,347.05l1.06,57.96c-87.95.39-152.72-97.58-108.03-176.57l50.94,28.04c-22.12,41.37,12.09,87.87,56.04,90.57Z"/>
  <path d="M222,160v59c-21.84-.48-41.53,13.22-51.57,32.06l-50.46-29.58c19.41-36.91,59.94-61.89,102.02-61.48Z"/>
  <path d="M228,118c51.18-1.13,102.46,24.84,131.76,66.51l-30.13,22.41c-22.88-29.63-53.11-46.07-90.25-50.79-3.86-.49-8.61,1.11-11.37-1.63v-36.5Z"/>
  <path d="M380.99,340l-36.07-13.6c13.77-36.56,10.7-79.07-10.75-111.91l31.36-20.51c2,.04,4.87,6.06,5.98,7.99,19.3,33.35,24.34,77.81,15.99,115.03-1.76,7.83-4.79,15.18-6.51,22.99Z"/>
  <path d="M223,410v38c-51.47.07-101.56-25.53-130.94-67.52l30.45-22.47c22.98,32.06,60.79,51.86,100.5,51.98Z"/>
  <path d="M139.98,139c4,10.25,13.95,20.85,17.91,30.63.44,1.1,1.57,2.12.7,3.39-19.14,10.88-33.43,27.66-45.15,45.96l-30.44-16.47c-1.74-1.96-1.23-5.2-.44-7.47,1.22-3.51,12.85-18.49,15.94-22.05,11.42-13.16,26.19-25.64,41.49-33.99Z"/>
  <path d="M436.87,216.88l-46.24,15.05-20.63-41.91,42.98-27.02c6.22,11.68,13.13,23.04,18.19,35.33,1.28,3.11,7.06,16.44,5.7,18.55Z"/>
  <path d="M228,64c19.43-.25,39.47.83,58.02,6.58l-12.1,47.34c-15.19-2.57-30.37-5.92-45.91-4.93v-49Z"/>
</svg>