<svg width="24" height="25" viewBox="0 0 24 25" fill="none" xmlns="http://www.w3.org/2000/svg">
<mask id="mask0_2635_4600" style="mask-type:alpha" maskUnits="userSpaceOnUse" x="0" y="0" width="24" height="25">
<rect x="0.5" y="0.925079" width="23" height="23" fill="#D9D9D9" stroke="#1F1F1F"/>
</mask>
<g mask="url(#mask0_2635_4600)">
<path d="M7.67089 6.11051C7.67089 6.7652 7.14017 7.29592 6.48547 7.29592C5.83078 7.29592 5.30005 6.76519 5.30005 6.11051C5.30005 5.45582 5.83078 4.92508 6.48547 4.92508C7.14016 4.92508 7.67089 5.45581 7.67089 6.11051Z" fill="#1F1F1F" stroke="#1F1F1F"/>
<path d="M13.6709 16.0519C13.6709 16.7066 13.1402 17.2373 12.4855 17.2373C11.8308 17.2373 11.3 16.7066 11.3 16.0519C11.3 15.3972 11.8308 14.8665 12.4855 14.8665C13.1402 14.8665 13.6709 15.3972 13.6709 16.0519Z" fill="#1F1F1F" stroke="#1F1F1F"/>
<path d="M19.3999 16.4251C19.3999 17.2535 18.7283 17.9251 17.8999 17.9251C17.0715 17.9251 16.3999 17.2535 16.3999 16.4251C16.3999 15.5967 17.0715 14.9251 17.8999 14.9251C18.7283 14.9251 19.3999 15.5967 19.3999 16.4251Z" fill="#1F1F1F" stroke="#1F1F1F"/>
<path d="M13.8999 10.4251C13.8999 11.2535 13.2283 11.9251 12.3999 11.9251C11.5715 11.9251 10.8999 11.2535 10.8999 10.4251C10.8999 9.59666 11.5715 8.92508 12.3999 8.92508C13.2283 8.92508 13.8999 9.59666 13.8999 10.4251Z" fill="#1F1F1F" stroke="#1F1F1F"/>
<path d="M8.5 16.9251C8.5 18.0297 7.60457 18.9251 6.5 18.9251C5.39543 18.9251 4.5 18.0297 4.5 16.9251C4.5 15.8205 5.39543 14.9251 6.5 14.9251C7.60457 14.9251 8.5 15.8205 8.5 16.9251Z" fill="#1F1F1F" stroke="#1F1F1F"/>
<path d="M6.5 3.42508L6.5 21.4251" stroke="#1F1F1F" stroke-width="0.4" stroke-miterlimit="10"/>
<path d="M12.3999 7.42508L12.3999 21.4251" stroke="#1F1F1F" stroke-width="0.4" stroke-miterlimit="10"/>
<path d="M17.8999 16.4251L17.8999 21.4251" stroke="#1F1F1F" stroke-width="0.4" stroke-miterlimit="10"/>
</g>
</svg>
