<?xml version="1.0" encoding="UTF-8"?>
<svg xmlns="http://www.w3.org/2000/svg" viewBox="0 0 24 24">
  <g transform="translate(6.7404, 9.4007) scale(0.01776891)">
    <path fill="currentColor" d="M736 369.714c21.143 0 42.286 4 61.143 13.143 54.857 24.571 80.571 69.714 80.571 129.143v101.143c0 36-4.571 72-13.143 106.286l-48.571 193.714c-16 65.143-74.286 110.857-141.714 110.857h-381.714c-80.571 0-146.286-65.714-146.286-146.286v-229.143l-136.571-358.857c-6.286-16.571-9.714-34.286-9.714-52 0-80.571 65.714-146.286 146.286-146.286 60.571 0 115.429 37.714 136.571 94.286l9.714 25.143v-64.571c0-80.571 65.714-146.286 146.286-146.286s146.286 65.714 146.286 146.286v149.143c9.143-1.714 18.286-2.857 27.429-2.857 52.571 0 100.571 30.286 123.429 77.143zM612.571 365.714c-25.143 0-48 14.857-58.286 37.714l-42.286 93.143-40.571 88.571h31.429c38.286 0 72 26.857 80 64l88-193.143c4-8 5.714-17.143 5.714-26.286 0-35.429-28.571-64-64-64zM738.857 442.857c-43.429 0-57.143 34.857-72.571 69.143l-75.429 165.714c-4 8-5.714 17.143-5.714 26.286 0 35.429 28.571 64 64 64 25.143 0 48-14.857 58.286-37.714l91.429-201.143c2.857-5.714 5.143-14.857 5.143-21.714 0-38.286-27.429-64.571-65.143-64.571zM73.143 237.714c0 9.143 1.714 17.714 4.571 26.286l141.714 371.429v39.429l58.286-63.429c15.429-16.571 37.714-26.286 60.571-26.286h113.143l60.571-133.143v-305.714c0-40.571-32.571-73.143-73.143-73.143s-73.143 32.571-73.143 73.143v365.714h-36.571l-114.286-300.571c-10.857-28-38.286-46.857-68.571-46.857-40.571 0-73.143 33.143-73.143 73.143zM674.286 950.857c33.714 0 62.857-22.857 70.857-55.429l48.571-193.714c7.429-28.571 10.857-58.857 10.857-88.571v-52l-80.571 177.143c-13.143 29.143-42.857 48-74.857 48-40 0-74.857-29.143-81.143-69.143-15.429 20-39.429 32.571-65.143 32.571h-118.857v-18.286h118.857c34.857 0 66.286-28.571 66.286-64 0-34.857-26.286-64-61.714-64h-169.143c-17.714 0-34.857 7.429-46.857 20.571l-72 77.714v176c0 40.571 32.571 73.143 73.143 73.143h381.714z"/>
  </g>
</svg>
