<?xml version="1.0" encoding="UTF-8"?>
<svg id="csv" xmlns="http://www.w3.org/2000/svg" version="1.1" viewBox="0 0 64 64">
  <path fill="#000000" d="M56.4,17.6l-14-14c-.3-.4-.9-.6-1.4-.6H13c-1.1,0-2,.9-2,2v28c0,1.1.9,2,2,2h26v14H13c-1.1,0-2,.9-2,2v8c0,1.1.9,2,2,2h42c1.1,0,2-.9,2-2V19c0-.5-.2-1-.6-1.4Z"/>
  <g>
    <rect fill="#ffffff" x="8" y="32" width="34" height="20" rx="1" ry="1"/>
    <path fill="#000000" d="M41,53H9c-1.1,0-2-.9-2-2v-18c0-1.1.9-2,2-2h32c1.1,0,2,.9,2,2v18c0,1.1-.9,2-2,2ZM9,33h0v18h32v-18H9Z"/>
  </g>
  <path d="M19,43.3h1.8c0,.6-.3,1.1-.6,1.5-.3.4-.7.7-1.2,1-.5.2-1.1.4-1.6.3-1,0-2.1-.4-2.8-1.1-.7-.8-1.1-1.9-1.1-3s.3-2.2,1.1-3c.7-.8,1.7-1.2,2.7-1.2s2,.4,2.7,1.2c.4.5.7,1.1.8,1.8h-1.8c0-.4-.3-.7-.6-.9-.3-.2-.7-.3-1.1-.3-.6,0-1.1.2-1.5.7s-.6,1.1-.6,1.8.2,1.3.6,1.8c.4.4.9.7,1.5.7s1.4-.4,1.7-1.1v-.2ZM22.4,43.6h1.6c.1.7.8,1.2,1.5,1.1.3,0,.6,0,.9-.2.2-.2.3-.4.3-.7s-.2-.7-.5-.8c0,0-.4,0-1-.3-.6,0-1.2-.4-1.8-.7-.5-.4-.8-1-.8-1.7s.2-1.3.8-1.8c.6-.5,1.3-.7,2-.7s1.4.2,2,.6c.5.4.8,1,.8,1.6h-1.7c-.1-.5-.6-.9-1.1-.8-.3,0-.5,0-.8.2-.2,0-.3.4-.3.6,0,.3.1.5.4.6.4.2.8.3,1.2.4.6,0,1.1.3,1.6.6.6.4,1,1.1,1,1.9s-.4,1.7-1.1,2.1c-.6.3-1.2.5-1.9.5-1,0-2-.3-2.6-1.1-.3-.4-.4-.9-.5-1.4ZM32.3,46l-3-8h1.8l2,5.4,1.7-5.4h1.8l-2.7,8h-1.6Z"/>
</svg>