<?xml version="1.0" encoding="UTF-8"?>
<svg id="Calque_1" xmlns="http://www.w3.org/2000/svg" version="1.1" viewBox="0 0 800 800">
  <g>
    <path fill="none" d="M720.2,75H242.6c-16.5,0-29.8,13.3-29.8,29.8h0v590.5c0,16.5,13.4,29.8,29.8,29.8h477.5c16.5,0,29.8-13.3,29.9-29.7h0V104.8c0-16.5-13.4-29.8-29.8-29.8Z"/>
    <path d="M720.1,742.6H242.6c-26.1,0-47.3-21.2-47.3-47.3V104.8c0-26.1,21.2-47.3,47.3-47.3h477.6c26.1,0,47.3,21.2,47.3,47.3v590.7c-.2,26-21.4,47.1-47.4,47.1ZM242.6,92.5c-6.8,0-12.3,5.5-12.3,12.3v590.5c0,6.8,5.5,12.3,12.3,12.3h477.5c6.8,0,12.3-5.5,12.4-12.3V104.8c0-6.8-5.5-12.3-12.3-12.3H242.6Z"/>
  </g>
  <g>
    <path d="M79.9,221.3h298.4c16.5,0,29.8,13.3,29.9,29.8v297.9c0,16.5-13.4,29.8-29.9,29.8H79.9c-16.5,0-29.8-13.3-29.8-29.7h0V251c0-16.5,13.4-29.8,29.8-29.8h0Z"/>
    <path d="M378.3,596.3H79.9c-26.1,0-47.3-21.2-47.3-47.2V251c0-26.1,21.2-47.3,47.3-47.3h298.4c26,0,47.2,21.2,47.4,47.2v298c0,26.1-21.3,47.3-47.4,47.3h0ZM78.3,238.8c-6,.8-10.7,5.9-10.7,12.2v298.1c0,6.7,5.5,12.2,12.3,12.2h298.4c6.8,0,12.4-5.5,12.4-12.3V251.2c0-6.9-5.5-12.4-12.4-12.4H78.3Z"/>
  </g>
  <path fill="#ffffff" d="M142.5,496.8l62.8-97.1-57.5-96.6h46.2l31.4,61.8c2.9,5.9,5,10.2,5.9,13.1h.4c2-4.7,4.2-9.2,6.5-13.6l33.6-61.2h42.5l-59,96,60.5,97.6h-45.2l-36.2-67.8c-1.7-2.9-3.1-6-4.3-9.1h-.6c-1.1,3.1-2.5,6-4.2,8.8l-37.3,68.1h-45.5,0Z"/>
</svg>