<?xml version="1.0" encoding="UTF-8"?>
<svg id="Layer_1" xmlns="http://www.w3.org/2000/svg" version="1.1" viewBox="0 0 1920 817">
  <!-- Generator: Adobe Illustrator 29.5.1, SVG Export Plug-In . SVG Version: 2.1.0 Build 141)  -->
  <defs>
    <style>
      .st0 {
        fill: #228dec;
      }

      .st1 {
        fill: #23be42;
      }

      .st2 {
        fill: #0ba3b3;
      }

      .st3 {
        fill: #ff6031;
      }

      .st4 {
        fill: #fccd05;
      }

      .st5 {
        fill: #288af4;
      }

      .st6 {
        fill: #5cc214;
      }

      .st7 {
        fill: #28bf3c;
      }

      .st8 {
        fill: #50c219;
      }

      .st9 {
        fill: #f0cc05;
      }

      .st10 {
        fill: #35c02e;
      }

      .st11 {
        fill: #fece0a;
      }

      .st12 {
        fill: #74c30a;
      }

      .st13 {
        fill: #1298d1;
      }

      .st14 {
        fill: #48c11f;
      }

      .st15 {
        fill: #ff6f29;
      }

      .st16 {
        fill: #26bf3f;
      }

      .st17 {
        fill: #08b089;
      }

      .st18 {
        fill: #0d9dc4;
      }

      .st19 {
        fill: #ff5935;
      }

      .st20 {
        fill: #fd4a4f;
      }

      .st21 {
        fill: #fe4746;
      }

      .st22 {
        fill: #e3cb03;
      }

      .st23 {
        fill: #ffad0f;
      }

      .st24 {
        fill: #09aa9c;
      }

      .st25 {
        fill: #7bc408;
      }

      .st26 {
        fill: #ffa611;
      }

      .st27 {
        fill: #b8c802;
      }

      .st28 {
        fill: #ff891d;
      }

      .st29 {
        fill: #a2c600;
      }

      .st30 {
        fill: #ffc20b;
      }

      .st31 {
        fill: #1099cd;
      }

      .st32 {
        fill: #19bd4f;
      }

      .st33 {
        fill: #ffb60c;
      }

      .st34 {
        fill: #3086ff;
      }

      .st35 {
        fill: #ff4b3c;
      }

      .st36 {
        fill: #ff5139;
      }

      .st37 {
        fill: #ff7527;
      }

      .st38 {
        fill: #12bc58;
      }

      .st39 {
        fill: #ff9517;
      }

      .st40 {
        fill: #dbca03;
      }

      .st41 {
        fill: #1ebe49;
      }

      .st42 {
        fill: #ff6a2b;
      }

      .st43 {
        fill: #c3c903;
      }

      .st44 {
        fill: #0fbc5d;
      }

      .st45 {
        fill: #91c501;
      }

      .st46 {
        fill: #ffba0c;
      }

      .st47 {
        fill: #fb4d58;
      }

      .st48 {
        fill: #3dc027;
      }

      .st49 {
        fill: #96c601;
      }

      .st50 {
        fill: #0ab574;
      }

      .st51 {
        fill: #b3c701;
      }

      .st52 {
        fill: #0bb86b;
      }

      .st53 {
        fill: #09b280;
      }

      .st54 {
        fill: #0aa6a8;
      }

      .st55 {
        fill: #cec903;
      }

      .st56 {
        fill: #ff8320;
      }

      .st57 {
        fill: #0c9fbe;
      }

      .st58 {
        fill: #ff7c23;
      }

      .st59 {
        fill: #d6ca03;
      }

      .st60 {
        fill: #1595d7;
      }

      .st61 {
        fill: #08ad93;
      }

      .st62 {
        fill: #1992df;
      }

      .st63 {
        fill: #abc701;
      }

      .st64 {
        fill: #6ac30e;
      }

      .st65 {
        fill: #0e9bc8;
      }

      .st66 {
        fill: #0cba64;
      }

      .st67 {
        fill: #ff4640;
      }

      .st68 {
        fill: #8bc502;
      }

      .st69 {
        fill: #82c405;
      }

      .st70 {
        fill: #1e90e6;
      }

      .st71 {
        fill: #2fbf35;
      }

      .st72 {
        fill: #ff9d14;
      }

      .st73 {
        fill: #ffb20d;
      }
    </style>
  </defs>
  <path class="st34" d="M1189,495.9v-4.9h-219.7v-157.8h384.9c1.6,13.6,3.2,27.2,4.8,40.8.1.9.8,1.7,1.6,2.3.4,28.7.4,57.8,0,86.9-1.1,4.6-2,9-2.6,13.5-1.4,10.2-2.2,20.5-4.3,30.5-4.7,23.3-10,46.6-18.9,68.8-6.5,16.2-14.3,31.9-21.6,47.5-28.2-37.5-55.9-74.9-84.3-111.8-11.9-15.5-9-14.9-30.8-14.8-3.1,0-6.2-.7-9.2-1.1Z"/>
  <path class="st67" d="M833.9,24c9-3,17.8-6.5,27-8.8,14.9-3.8,30-6.9,45-10,6.2-1.2,12.7-1.4,19-2.2,1.2-.1,2.4-.8,3.3-1.6,27.1-.4,54.5-.4,82.3-.4,1.2.7,1.8,1.8,2.6,1.9,6,.8,12,1.4,18.4,2.5,0,1.5-.4,2.6-1,3.6-19.2,32.4-34.2,66.7-43,103.4-4.1,16.9-6.4,34.3-9.5,51.4-16.4,0-32.9,0-49.6,2.7-4.1-4.3-7.8-8.1-11.3-12.1-17.5-20.6-34.7-41.6-48.4-65.1-8.9-15.4-17.1-31.2-25.4-46.8-3.3-6.1-6.3-12.4-9.4-18.6Z"/>
  <path class="st4" d="M581.9,540c-4-13.9-8.7-27.5-11.7-41.6-3.2-15.2-4.9-30.7-7.3-46.1-.2-1-.8-2-1.6-2.7-.3-26.3-.3-53-.3-80.2.7-1.5,1.3-2.6,2.4-4,30.8,20.5,63.1,37.9,96.3,54,11.7,5.7,23.6,6.6,35.9,4.7,10.8-1.7,21.5-4.1,32.2-6.3,2,14.4,4.1,28.8,6.1,43.1.1,1,0,2-.3,3.4-3.2,1.3-6.1,2.1-8.9,3-48.8,14.6-94,36.2-134.5,67.5-2.5,2-5.6,3.3-8.4,5Z"/>
  <path class="st44" d="M928.5,818c-1.1-.7-1.7-1.8-2.4-1.9-13.7-2.1-27.4-3.9-41.1-6.2-6.5-1.1-12.9-3.1-19.7-5.3,1.2-5.1,2.4-9.8,4.5-14.1,12.8-27.3,28.4-52.9,46.8-76.8,1.5-1.9,2.6-4.3,3.2-6.6,1.6-7.1,2.6-14.3,4.3-21.4,1.8-7.1,2.4-14.6,8-20.5,3-3.1,4.7-7.5,6.9-11.3,10,.7,20.1,1.4,30.5,2.7,0,54.2-.2,107.8-.6,161.4h-40.5Z"/>
  <path class="st66" d="M969.5,818c-.1-53.6.2-107.3.5-161.4,7.4-.8,14.7-1.2,22.6-1.2,1.5,2.9,1.9,5.7,3.4,7.8,3.9,5.4,7.9,10.7,12.5,15.5,3.8,3.9,4.3,8.6,5.7,13.4,3.3,11.2,3.5,23.1,12.1,33,15.6,18.1,28.6,38.3,40.2,59.3,3.8,6.9,7,14.3,10.5,21.4-9.5,2.1-19,4.5-28.6,6.1-11.1,1.8-22.4,2.9-33.6,4.3-.4,0-.7.6-.9,1.4-14.6.4-29.3.4-44.4.4Z"/>
  <path class="st11" d="M727.9,417.5c-10.8,2.6-21.5,5-32.3,6.7-12.3,1.9-24.2,1-35.9-4.7-33.1-16.1-65.5-33.5-96.2-54.5.6-8.3,1-16.7,2.7-24.8,3.2-15.6,6.8-31.3,11-46.7,2.9-10.5,7.1-20.7,11.2-31.2,6.2,4.5,11.9,9.2,17.6,14.1,26.3,22.4,54.9,41.2,85.5,57.1,14,7.3,28.4,13.7,42.6,20.5-1.2,7.2-2.3,14.4-3.4,21.7-.6,3.7-1.4,7.4-1.5,11.1-.5,10.1-.7,20.1-1.2,30.7Z"/>
  <path class="st47" d="M1157,45.9c11.5,6.7,23.3,13,34.4,20.2,18,11.7,34.8,25,50.3,39.9.6.6.8,2.1.6,3-.2.8-1.3,1.4-2,2.2-37.2,37.2-74.4,74.4-111.6,111.6-.8.8-1.7,1.6-2.7,2.5-14-13.1-28.8-24.9-45.8-34.2.5-5.5.8-10.3,1.7-15,8.2-46.1,25.9-87.5,60.7-120.2,4.3-4.1,8-8.9,14.4-9.9Z"/>
  <path class="st35" d="M833.5,24c3.5,6.2,6.5,12.5,9.8,18.6,8.4,15.7,16.5,31.5,25.4,46.8,13.6,23.5,30.8,44.4,48.4,65.1,3.4,4,7.2,7.8,10.8,12-7.7,2.4-15.6,4.3-23.3,6.5-5.3,1.5-10.5,3.3-16.3,4.8-2-1.7-3.6-3-4.6-4.7-2.8-5.1-7.1-8.5-12.7-9.6-8.6-1.7-16.8-4.2-23.5-9.9-15.4-13.1-31.2-26-45.9-39.8-12.7-12-24.1-25.3-36.2-37.8-4.9-5.1-9.4-10.1-5.3-17.8,22.6-13.8,46.4-24.7,71.2-33.8.6-.2,1.3-.3,2.3-.4Z"/>
  <path class="st20" d="M1156.9,45.6c-6.2,1.3-9.9,6.2-14.2,10.2-34.8,32.7-52.5,74.1-60.7,120.2-.8,4.7-1.1,9.5-1.8,14.7-18.1-9.3-36.8-16.7-56.8-21.6.5-4,1.1-7.2,1.6-10.5,6.3-39.3,19.8-75.9,40.1-110,6.5-10.8,14-21,21.1-31.4,24.1,6.5,47,16,69.1,27.6.4.2.9.3,1.6.8Z"/>
  <path class="st21" d="M1085.8,17.1c-6.7,10.6-14.3,20.7-20.8,31.5-20.3,34.1-33.9,70.7-40.1,110-.5,3.3-1.1,6.5-1.8,10.2-7-.7-13.9-1.9-20.8-2.7-7.8-.9-15.6-1.4-23.8-2.1,2.7-17.2,5-34.6,9.1-51.5,8.8-36.7,23.9-70.9,43-103.4.6-1,.9-2.1,1.4-3.5,17.9,3.6,35.7,7.5,53.9,11.5Z"/>
  <path class="st9" d="M581.9,540.4c2.8-2,5.8-3.4,8.3-5.4,40.4-31.3,85.7-52.8,134.5-67.5,2.9-.9,5.7-1.7,9-2.6,2.7,7.6,5,15.2,7.3,22.9.6,1.8,1.3,3.6,1.5,5.8-13.9,5.3-27.5,9.6-40.7,14.9-38.3,15.4-72.7,37.1-102.6,65.7-1,1-1.5,2.5-2.3,3.7-5-12.4-10-24.9-15-37.7Z"/>
  <path class="st30" d="M734.4,353.9c-14.6-6.6-29-13-43-20.3-30.6-15.9-59.3-34.7-85.5-57.1-5.7-4.8-11.4-9.6-17.4-14.4,2.4-7.1,5.1-14.1,8-21,1.8-4.3,3.8-8.5,6.4-12.8,2.7,1.6,4.8,3.2,6.8,4.9,14.4,12.8,28.1,26.5,43.4,38.1,16.2,12.3,33.7,23.2,51.2,33.6,12.4,7.3,25.9,12.9,38.8,19.2-2.5,8.6-5,17.3-7.5,25.9-.4,1.2-.6,2.5-1.2,4Z"/>
  <path class="st50" d="M1142,784.1c-10.1,4-20.2,7.9-30.7,11.6-.8-1.2-1.1-2.2-1.6-3-12.4-19.7-24.2-39.8-37.5-58.8-12.7-18.2-27.2-35.1-40.6-52.9-3.9-5.2-10.5-8.6-11.2-16-.4-4.6-1-9.2-1.5-13.8,8-1.7,16.1-3.5,24.7-5,4.9,5.3,9.2,10.4,13.4,15.6,25.4,31.3,49.4,63.6,70.8,97.8,5,8,9.4,16.4,14.1,24.6Z"/>
  <path class="st52" d="M1018.6,651.3c.9,4.5,1.4,9.1,1.9,13.7.7,7.4,7.3,10.8,11.2,16,13.3,17.8,27.8,34.7,40.6,52.9,13.3,19,25.1,39.1,37.5,58.8.5.8.8,1.8,1.2,3.1-11,3.6-22.1,6.9-33.6,10.1-3.9-7.2-7-14.5-10.9-21.5-11.6-21-24.6-41.2-40.2-59.3-8.6-9.9-8.8-21.8-12.1-33-1.4-4.8-2-9.5-5.7-13.4-4.6-4.8-8.6-10.1-12.5-15.5-1.5-2.1-1.9-4.9-2.9-7.7,4.8-1.1,9.8-1.8,14.7-2.5,3.5-.5,7-1.1,10.9-1.7Z"/>
  <path class="st5" d="M1313.2,623.5c-4.3,8.5-8.8,16.7-13.7,24.7-1.9-2.1-3.5-4-4.9-6-11.7-16.1-23.2-32.5-35.2-48.3-19.1-25.1-38.5-50-58-74.8-4.2-5.4-9.4-10.1-14.1-15.1.4-2.6.7-5.1,1.4-7.9,3.4.2,6.5.9,9.6.8,21.8-.1,18.8-.7,30.8,14.8,28.3,36.9,56.1,74.3,84.3,111.8Z"/>
  <path class="st38" d="M938.8,653.5c-2,4.1-3.7,8.5-6.7,11.7-5.6,5.9-6.2,13.4-8,20.5-1.7,7-2.7,14.3-4.3,21.4-.5,2.3-1.7,4.7-3.2,6.6-18.5,23.9-34,49.5-46.8,76.8-2,4.3-3.2,9-4.8,13.9-9.8-2.5-19.6-5.4-29.6-8.8,5.5-13,11-25.6,17.3-37.8,15.9-30.6,35-59.1,57.9-84.9,5.2-5.8,9.4-12.1,9.6-20.2,0-.6.6-1.2.9-1.7,5.8.8,11.6,1.5,17.7,2.6Z"/>
  <path class="st3" d="M715,89.2c4.8-3.7,9.5-7.3,14.6-10.7,1.2,3.4,1.3,7.1,3.1,9.5,3.9,5.1,8.6,9.7,13.1,14.4,30.8,31.8,63,62,98.5,88.7,1.8,1.3,2.5,4,3.8,6.1-5.5,3.9-10.9,7.8-16.7,11.3-1.5-2.3-2.3-4.7-3.9-6.1-16.5-14.1-33.6-27.6-49.5-42.3-18.5-17-36.2-34.7-53.7-52.8-4.6-4.8-12.4-9-9.2-18.2Z"/>
  <path class="st32" d="M920.9,650.6c0,.9-.6,1.5-.7,2.1-.3,8.2-4.5,14.4-9.6,20.2-22.9,25.8-41.9,54.4-57.9,84.9-6.4,12.2-11.8,24.8-17.7,37.7-.2.4-.4.4-1,.3-.7-.4-.9-.6-1.2-.7-5.2-1.8-10.3-3.6-15.6-6,9.2-19.6,18-38.9,28.1-57.4,13.1-24,29.3-46,46.6-67.1,4.7-5.8,9.4-11.6,14-17.3,4.9,1,9.8,2.1,14.9,3.5Z"/>
  <path class="st17" d="M1176,766.8c-5.7,3.1-11.5,6.1-17.7,8.9-1.1-1.6-1.6-3-2.4-4.3-11.5-17.7-22.5-35.8-34.8-52.9-17.3-23.9-35.7-47.1-53.6-70.6-1.8-2.4-3.1-5.3-4.6-8,5.3-2.4,10.6-4.8,16.4-7,9.7,11.6,19.1,22.8,27.8,34.5,14.7,19.9,29.3,39.9,43.5,60.2,8.9,12.8,17,26.2,25.4,39.3Z"/>
  <path class="st46" d="M743.4,323.9c-13.3-6.2-26.8-11.7-39.2-19-17.6-10.4-35-21.2-51.2-33.6-15.3-11.6-29-25.3-43.4-38.1-2-1.7-4.1-3.3-6.5-5.1-.3-.3-.2-.5,0-1,.4-.6.6-.9.7-1.2,2.8-5.6,5.6-11.1,8.8-16.5,14.5,16,29.7,30.6,46.2,43.9,27.9,22.5,58.6,40.4,90.9,55.8-2,4.9-4,9.8-6.4,14.9Z"/>
  <path class="st70" d="M1291,661.1c-3.1,4.5-6.2,9.1-9.9,13.6-5.4-6.6-10-13.3-14.9-19.8-24.9-33.2-49.7-66.4-74.7-99.5-4.9-6.4-10.5-12.4-15.7-18.5,2.1-5.9,4.2-11.7,7-17.7,1.6.5,2.8,1,3.4,1.9,13.9,17.6,28,35,41.6,52.9,17.1,22.5,33.7,45.3,50.5,68.1,4.5,6.1,8.5,12.7,12.7,19Z"/>
  <path class="st48" d="M749,754.1c-5.2-3.5-10.5-6.9-15.7-11,6.2-12.7,12.4-24.9,18.7-37,13.5-26.4,29.6-51.2,46.3-75.7,5.4-7.9,11.4-12.3,21.6-11.8,5.3.3,10.8-3.1,16.2-4.8,2.9,1.8,5.8,3.7,8.5,5.8-5.2,1.3-10.3,2.2-15.3,3.5-1.4.4-2.9,1.6-3.8,2.8-6.2,8.2-12.5,16.4-18.3,24.9-22.4,32.7-41.8,67.2-58.2,103.3Z"/>
  <path class="st53" d="M1062.6,639.9c1.9,2.6,3.1,5.6,5,8,17.8,23.5,36.3,46.7,53.6,70.6,12.4,17.1,23.3,35.2,34.8,52.9.8,1.2,1.3,2.7,2.1,4.3-5,3-10.1,5.6-15.6,8.3-5.1-8.2-9.4-16.6-14.5-24.6-21.5-34.1-45.4-66.5-70.8-97.8-4.2-5.2-8.5-10.2-13-15.6,5.8-2.2,11.9-4.2,18.4-6.2Z"/>
  <path class="st1" d="M805,784.1c-5.6-2.5-11.1-5-16.5-7.9.9-1.5,1.9-2.4,2.5-3.6,7-14,13.6-28.1,20.8-42,15.1-28.8,33.4-55.5,53.4-81.1,3.6-4.6,7.6-8.7,11.5-13,4.9,1.8,9.8,3.7,15,5.9-2.6,4.6-5.5,8.7-8.4,12.9-14.4,20.2-30,39.6-42.7,60.7-13.2,21.8-23.8,45.3-35.5,68.1Z"/>
  <path class="st36" d="M759.7,58.2c-3.7,7.7.7,12.6,5.7,17.7,12.1,12.6,23.5,25.9,36.2,37.8,14.7,13.9,30.5,26.7,45.9,39.8,6.7,5.7,14.9,8.2,23.5,9.9,5.6,1.1,9.8,4.5,12.7,9.6.9,1.7,2.6,3,4.2,4.7-7.2,3.5-14.6,6.9-22.6,9.9-2.3-2.2-3.8-4.4-5.8-6.1-20.5-16.9-41.7-32.9-61.4-50.6-16.7-15-31.7-31.7-47.2-48-3.9-4.1-8.4-8.4-5.8-15.2,4.8-3.2,9.6-6.4,14.7-9.7Z"/>
  <path class="st19" d="M744.6,67.9c-2.2,6.7,2.3,11.1,6.2,15.2,15.5,16.2,30.6,33,47.2,48,19.7,17.7,40.9,33.8,61.4,50.6,2,1.6,3.5,3.9,5.4,6.1-5.2,3.2-10.7,6.2-16.5,9.3-1.6-2-2.4-4.7-4.1-6-35.4-26.7-67.6-56.9-98.5-88.7-4.5-4.7-9.2-9.2-13.1-14.4-1.8-2.4-1.9-6.1-2.8-9.6,4.8-3.7,9.5-7,14.6-10.4Z"/>
  <path class="st54" d="M1216.1,740c-4.8,3.6-9.6,7.2-14.8,10.6-18.5-26.7-36.3-53.4-54.9-79.5-12.9-18.1-26.9-35.5-40.4-53.2,4.5-3.2,8.9-6.5,13.8-9.5,8.9,11.1,17.6,21.7,25.6,32.9,22.4,31.2,44.4,62.5,66.6,93.8,1.2,1.7,2.7,3.3,4,5Z"/>
  <path class="st24" d="M1105.6,618c13.8,17.5,27.8,34.9,40.7,53,18.6,26.1,36.4,52.9,54.6,79.7-4.3,3.3-8.7,6.3-13.8,9-14-20.1-26.7-40.4-40.8-59.8-18-24.7-37-48.7-55.5-73,4.8-2.9,9.6-5.8,14.7-8.9Z"/>
  <path class="st71" d="M774.9,769c-4.5-2.4-9.1-4.9-13.6-8,2.5-5.9,4.9-11.2,7.4-16.4,17.4-35.7,37.4-69.9,61.4-101.7,5.6-7.4,11.7-14.3,17.6-21.5,4,2.3,8,4.5,12.2,7.5-.9,2.7-1.7,5-3.1,6.7-28.8,35.5-52.6,74.2-72.7,115.2-3,6.1-6.1,12.1-9.2,18.2Z"/>
  <path class="st55" d="M620.9,623c-3.3-5.4-6.6-10.8-9.6-16.7,3.5-4,6.7-7.6,10-11.1,21.2-22.8,46-41.1,73.9-54.6,18.7-9,38.4-15.9,57.7-23.7,2.1,4.1,4.1,8.2,5.9,12.7-2.1,1.3-3.9,2.2-5.8,2.8-28.3,9.2-54.9,21.8-79.1,39.3-15.1,10.9-29.3,22.7-40.9,37.6-3.7,4.8-8,9.1-12.1,13.7Z"/>
  <path class="st62" d="M1175.6,537.1c5.6,6,11.1,11.9,16,18.4,25,33.1,49.9,66.3,74.7,99.5,4.9,6.5,9.5,13.2,14.6,19.9-2.8,4.1-6,8-9.7,11.8-2-1.4-3.6-2.7-4.8-4.3-27.5-37.2-54.9-74.4-82.4-111.5-4.9-6.6-10.6-12.7-16-19,2.5-4.9,4.9-9.8,7.7-14.8Z"/>
  <path class="st26" d="M631.9,179c2.5-3.9,4.9-7.8,8-11.8,4.3,3.3,8.1,6.5,11.5,10.1,13.1,13.5,25.2,28,39.2,40.5,24,21.5,51.1,38.8,80.5,52.3-2.5,4.3-5,8.5-7.9,12.6-1.9-1-3.2-2.1-4.6-2.8-24.5-11.8-47.5-26.1-68.8-43-18.9-15-36.2-31.7-50.9-50.9-2-2.6-4.6-4.6-7-6.9Z"/>
  <path class="st57" d="M1238.1,722c-4.2,3.6-8.3,7.2-12.9,10.6-13.1-18.6-25.5-37.3-38.6-55.5-14.4-20.1-29.5-39.6-44.3-59.4-4.4-5.9-8.9-11.9-13.3-17.8,3.5-3.2,6.9-6.5,10.8-9.5,1.3,1.4,2,2.7,3,3.9,8.1,10.3,16.6,20.3,24.3,31,22.4,31,44.4,62.2,66.7,93.2,1.1,1.5,2.9,2.4,4.4,3.6Z"/>
  <path class="st42" d="M714.7,89.2c-2.9,9.2,4.9,13.4,9.5,18.2,17.5,18,35.2,35.8,53.7,52.8,16,14.7,33.1,28.1,49.5,42.3,1.6,1.4,2.4,3.8,3.5,6.1-3.8,3.4-7.5,6.4-11.6,9.1-1.3-2.1-1.8-4.3-3.2-5.7-3.5-3.3-7.5-6.1-11.1-9.3-20.5-18.2-41.3-36.1-61.4-54.7-12.3-11.4-23.4-24.1-35.4-35.9-3.9-3.8-6.1-7.7-5.3-13.1,3.8-3.2,7.6-6.4,11.7-9.7Z"/>
  <path class="st0" d="M1291.4,661c-4.5-6.2-8.5-12.7-13-18.8-16.7-22.8-33.4-45.6-50.5-68.1-13.5-17.9-27.7-35.3-41.6-52.9-.7-.9-1.8-1.3-3.1-2.1,1-4.8,2.3-9.6,3.8-14.7,4.9,4.7,10,9.3,14.3,14.7,19.5,24.8,38.9,49.7,58,74.8,12.1,15.9,23.5,32.2,35.2,48.3,1.5,2,3,4,4.7,6.3-2.4,4.3-5,8.3-7.8,12.4Z"/>
  <path class="st39" d="M650,153.9c2.8-3.6,5.6-7.1,8.8-10.5,3.5,4.3,6.1,8.8,9.7,12.4,10,10.2,21,19.5,30.6,30,11.6,12.8,24.2,24.2,38.9,33.1,14.5,8.7,29.4,16.7,44.1,25.2,2,1.1,3.4,3.3,5,5-2.4,3.2-4.9,6.4-7.9,9.7-20.6-9.7-39.6-21-57.3-34.5-22-16.8-42.6-35.1-60.8-55.9-4-4.5-7.4-9.7-11-14.5Z"/>
  <path class="st72" d="M649.6,154.1c4,4.7,7.3,9.8,11.3,14.3,18.3,20.8,38.9,39.1,60.8,55.9,17.6,13.5,36.6,24.8,57,34.6-2.1,3.7-4.6,7.3-7.4,11-29.7-13.4-56.7-30.7-80.8-52.2-14-12.5-26.1-27-39.2-40.5-3.4-3.6-7.2-6.8-11.2-10.2,2.8-4.3,6-8.6,9.4-13Z"/>
  <path class="st60" d="M1167.6,552.1c5.7,6.2,11.4,12.2,16.3,18.8,27.6,37.1,55,74.3,82.4,111.5,1.2,1.6,2.8,2.8,4.5,4.4-2.5,3.7-5.3,7.3-8.7,10.8-1.7-1.2-3-2.3-4-3.6-26.6-36.4-53.1-72.8-79.8-109.1-5.4-7.3-11.6-14.1-17.4-21.1,2.1-3.9,4.3-7.8,6.7-11.8Z"/>
  <path class="st10" d="M847.4,621.3c-5.6,7.3-11.8,14.3-17.3,21.7-24,31.8-44,66-61.4,101.7-2.5,5.2-4.9,10.5-7.6,16.1-4-1.8-7.9-4-12-6.4,16.2-36.4,35.6-70.8,58-103.5,5.8-8.5,12.1-16.7,18.3-24.9.9-1.2,2.4-2.4,3.8-2.8,5-1.2,10-2.1,15.5-3.2,1.1.4,1.8.7,2.7,1.3Z"/>
  <path class="st22" d="M597,578.5c.7-1.6,1.2-3.1,2.3-4.1,29.9-28.6,64.2-50.3,102.6-65.7,13.2-5.3,26.9-9.7,40.7-14.6,1.7,3.3,3.1,6.7,4.2,10.6-8.7,3.3-17.1,6-25.3,9.1-28.2,10.6-55,23.9-78.8,42.4-13.9,10.8-26.4,23.2-39.6,34.9-2-4.1-4-8.2-6-12.6Z"/>
  <path class="st28" d="M787.4,249c-2-1.6-3.4-3.7-5.4-4.9-14.6-8.5-29.5-16.5-44.1-25.2-14.8-8.8-27.3-20.3-38.9-33.1-9.6-10.6-20.6-19.9-30.6-30-3.6-3.6-6.2-8.1-9.4-12.6,3.1-3.9,6.2-7.5,9.7-10.8,1.9,2.7,3,5.7,5,7.7,21.6,21.2,43.5,42.1,65.1,63.3,16.4,16.1,34.2,30,56.3,37.6-2.5,2.6-4.9,5.2-7.7,7.9Z"/>
  <path class="st41" d="M805.2,784.4c11.5-23.1,22-46.6,35.3-68.4,12.8-21.1,28.4-40.5,42.7-60.7,2.9-4.1,5.9-8.3,8.8-12.8,4.5,1.2,8.9,2.7,13.7,4.5-4.3,6-9,11.8-13.7,17.5-17.3,21.2-33.5,43.2-46.6,67.1-10.2,18.5-18.9,37.8-28.3,57.1-3.9-1.1-7.8-2.6-11.9-4.3Z"/>
  <path class="st6" d="M713,728.1c-3.9-3.1-7.8-6.3-11.7-10,10.4-20.1,20.7-39.7,31.3-59.1,5.4-9.9,11.6-19.4,17.4-29,0,0,0,0,.4,0,6.7-2.6,13.5-4.4,19.2-7.9,13.9-8.7,28.9-14.2,44.4-18.8,1.5-.5,2.7-1.9,4.1-2.9,2.6,2,5.2,4.1,7.7,6.7-.4.8-.6,1-.9,1.1-12.3,4.4-24.6,8.9-36.9,13.3-1,.3-2.3,0-3.3-.3-6.8-2.3-8.5-1.6-12.7,4.4-22.5,32.6-41.8,67.1-58.9,102.8Z"/>
  <path class="st61" d="M1090.5,627c18.9,24.3,37.9,48.3,55.9,73,14.1,19.4,26.8,39.7,40.4,59.8-3.2,2.5-6.7,4.7-10.5,7-8.8-13.1-16.8-26.5-25.8-39.2-14.2-20.3-28.7-40.3-43.5-60.2-8.7-11.7-18.1-22.9-27.4-34.7,3.3-2.1,6.9-3.9,10.9-5.7Z"/>
  <path class="st49" d="M664,681.1c-3.7-4.1-7.3-8.2-10.8-13,2.3-6.1,4.1-11.7,6.8-16.8,16.2-31.3,41.4-53.6,72.1-69.6,15.5-8,32-13.9,48.1-20.8,1.9,2.4,3.8,4.9,5.6,7.9-3.9,2.1-7.7,3.9-11.6,5.2-25.9,9.3-49.8,22.2-70.2,40.7-19.9,18-34.1,39.7-39.9,66.4Z"/>
  <path class="st37" d="M686,114.9c3.1-3,6.2-5.9,9.7-8.5,1.1,3,1,6.2,2.6,8.1,5.5,6.5,11.3,12.7,17.4,18.6,16.2,15.8,32.4,31.6,49,46.9,11.2,10.4,23.2,19.9,34.6,30,4.7,4.2,11.3,6.9,12.7,14.1-2.8,2.6-5.6,5.2-8.7,7.5-2.5-3-4.4-6.3-7-8.6-17.5-15.5-35.6-30.4-52.8-46.2-16.6-15.3-32.6-31.4-48.5-47.5-4-4-8.8-7.9-9-14.4Z"/>
  <path class="st58" d="M685.7,115c.5,6.4,5.4,10.3,9.3,14.3,15.9,16,31.9,32.1,48.5,47.5,17.2,15.9,35.3,30.8,52.8,46.2,2.6,2.3,4.5,5.6,6.7,8.7-1.8,2.3-3.6,4.2-5.8,5.9-9.6-7.3-19-14.1-27.7-21.8-17.7-15.6-35.2-31.4-52.5-47.5-11-10.2-21.2-21.2-31.9-31.7-3.7-3.7-7.3-7.3-8.1-12.8,2.8-2.9,5.6-5.8,8.7-8.9Z"/>
  <path class="st8" d="M713.1,728.4c16.9-36,36.2-70.5,58.7-103.1,4.1-6,5.8-6.6,12.7-4.4,1,.3,2.4.7,3.3.3,12.3-4.3,24.6-8.8,36.9-13.3.3-.1.5-.4,1.1-.8,1.5.5,2.7,1.3,3.8,2.7-1.9,1.1-3.6,1.7-5.3,2.3-7.1,2.3-14.1,5-21.4,6.6-10.8,2.3-16.9,9.5-22.2,18.5-11.3,19.1-23.7,37.7-34.6,57.1-7.8,13.8-14.2,28.5-21.1,42.9-3.9-2.8-7.8-5.6-11.9-8.7Z"/>
  <path class="st2" d="M1128.7,600c4.7,5.8,9.2,11.7,13.6,17.7,14.8,19.8,29.9,39.4,44.3,59.4,13.1,18.2,25.5,36.9,38.3,55.7-2.6,2.5-5.4,4.8-8.5,7.1-1.7-1.5-3.1-3.1-4.4-4.8-22.2-31.3-44.3-62.7-66.6-93.8-8-11.2-16.8-21.8-25.3-33,2.6-2.9,5.4-5.5,8.6-8.2Z"/>
  <path class="st33" d="M749.9,308.6c-32.3-15-63.1-32.9-90.9-55.4-16.5-13.3-31.7-27.9-45.8-44.1,1.6-3.5,3.4-6.7,5.8-10,2.2,1.1,4,2.2,5.2,3.6,14.1,17.6,30.8,32.5,48.4,46.5,25.1,19.9,52.6,36.1,81.6,49.7-1.4,3.1-2.8,6.2-4.2,9.6Z"/>
  <path class="st23" d="M631.6,179.1c2.7,2.2,5.3,4.2,7.3,6.8,14.7,19.2,32,35.9,50.9,50.9,21.3,16.9,44.3,31.2,68.8,43,1.5.7,2.8,1.8,4.3,3-1.1,2.7-2.4,5.1-4.2,7.8-16.3-8.4-32.8-16.3-47.9-26.1-15.8-10.3-30.7-22.1-45.4-33.9-7.8-6.3-14.5-14-21.6-21.3-6.4-6.7-12.6-13.6-18.9-20.4,2.1-3.2,4.2-6.5,6.7-9.9Z"/>
  <path class="st27" d="M633,642.1c-2.3-3.4-4.6-6.9-6.8-10.9,10.3-16.1,22.1-30.1,36.3-42.2,19.9-17,41.8-30.6,65.8-40.8,11.2-4.7,22.6-8.8,33.9-13.2,1.6,2.5,3.1,4.9,4.5,7.8-1.7,1.1-3.3,1.7-4.8,2.4-16.7,7.3-33.8,13.9-50,22.1-17.4,8.8-32.8,20.6-47,34.1-12.6,12.1-22.5,26.1-31.9,40.6Z"/>
  <path class="st12" d="M689.9,708c-2.9-2.8-5.8-5.6-8.7-9,7.3-14.7,14.6-28.7,21.8-42.7,3.4-6.7,9-10.9,15.5-14.3,3.5-1.8,6.8-4.2,9.6-6.9,15.3-15,33.1-26.1,52.8-34.3,8.6-3.6,17.4-6.6,26.1-9.9,2.6,2.1,5.1,4.3,7.5,6.8-17.6,5.2-34.5,11.4-49.8,21-5.2,3.3-9.9,7.5-14.8,11.3,0,0,0,0-.4,0-3,1-5.6,2.1-8.3,3-7,2.3-12.7,5.9-16.3,12.7-9.9,18.8-20.2,37.4-30.5,56-1.2,2.3-3.1,4.2-4.7,6.3Z"/>
  <path class="st56" d="M676.6,124c1.2,5.3,4.7,9,8.4,12.6,10.7,10.5,21,21.5,31.9,31.7,17.2,16.1,34.7,32,52.5,47.5,8.7,7.6,18.1,14.4,27.4,21.9-.3,1.2-.7,2.1-1.5,3.1-22.3-7.5-40.1-21.4-56.5-37.5-21.6-21.2-43.5-42.2-65.1-63.3-2-2-3.1-5-4.7-7.8,2.4-2.9,4.9-5.5,7.6-8.2Z"/>
  <path class="st73" d="M624.6,189.1c6.6,6.6,12.8,13.5,19.2,20.2,7,7.3,13.7,15,21.6,21.3,14.7,11.9,29.6,23.7,45.4,33.9,15.1,9.8,31.6,17.6,47.7,26.4-1,2.6-2.4,5.2-4.1,8-29.3-13.5-56.8-29.6-81.9-49.6-17.6-14-34.3-28.9-48.4-46.5-1.2-1.5-3-2.5-4.9-3.8,1.4-3.3,3.2-6.5,5.3-9.9Z"/>
  <path class="st14" d="M725.1,737.4c6.8-14.6,13.2-29.3,21-43.2,11-19.3,23.3-37.9,34.6-57.1,5.3-9,11.4-16.1,22.2-18.5,7.3-1.6,14.3-4.3,21.4-6.6,1.7-.5,3.4-1.2,5.4-2,2.2.9,4,2,6.1,3.5-5.2,2-10.7,5.3-16.1,5.1-10.2-.5-16.2,4-21.6,11.8-16.7,24.4-32.8,49.3-46.3,75.7-6.2,12.1-12.4,24.2-18.8,36.7-2.7-1.5-5.3-3.3-8-5.4Z"/>
  <path class="st29" d="M780,560.6c-15.9,7.2-32.5,13.1-47.9,21.1-30.7,16-56,38.3-72.1,69.6-2.7,5.2-4.5,10.7-6.8,16.5-2.8-2.8-5.4-5.9-8-9.6,11.7-26.6,29.5-47.6,52.1-64.5,20.9-15.7,43.9-27.4,68.7-35.8,3-1,5.7-3.1,8.5-4.7,1.8,2.4,3.6,4.8,5.6,7.5Z"/>
  <path class="st13" d="M1160.6,564.1c6.1,6.9,12.3,13.6,17.7,20.9,26.7,36.3,53.2,72.7,79.8,109.1,1,1.3,2.3,2.4,3.7,3.8-1.8,2.4-4,4.7-6.7,6.9-1-.4-1.4-.7-1.7-1.1-26.3-36-52.4-72.1-78.8-108-6.1-8.3-13.1-15.8-19.8-23.7,1.8-2.6,3.6-5.1,5.7-7.9Z"/>
  <path class="st15" d="M812.4,224c-1.8-7-8.3-9.8-13-14-11.4-10.1-23.4-19.6-34.6-30-16.6-15.4-32.8-31.2-49-46.9-6.1-5.9-11.9-12.1-17.4-18.6-1.6-1.9-1.6-5.1-2.3-8.2,2.1-2.7,4.2-4.9,6.7-7.3-.5,5.3,1.8,9.1,5.6,13,12,11.8,23.1,24.5,35.4,35.9,20.1,18.6,40.8,36.6,61.4,54.7,3.6,3.2,7.6,6,11.1,9.3,1.4,1.3,2,3.6,2.9,5.8-2.1,2.3-4.2,4.2-6.7,6.2Z"/>
  <path class="st63" d="M774.2,552.9c-2.7,1.8-5.3,3.9-8.4,4.9-24.8,8.4-47.8,20.1-68.7,35.8-22.5,17-40.4,37.9-52.1,64.2-2.7-2.8-5.3-6-7.7-9.5,1.2-1.4,2.5-2.3,3.2-3.5,9.6-17.1,21.5-32.2,36.3-45.3,18.8-16.6,39.9-29.4,62.7-39.4,10-4.4,20.3-8.1,30.5-12.2,1.3,1.6,2.7,3.2,4.2,5Z"/>
  <path class="st68" d="M677,695.1c-2.6-2.5-5.2-5-7.6-7.9,1-1.9,2.1-3.4,2.6-5,1-3.2,1.4-6.5,2.4-9.7,8.3-26.5,24.7-47,46.6-63.5,19.2-14.4,40.4-24.9,63.2-32.3,2.2-.7,3.9-2.5,5.9-3.8,1.9,2.2,3.9,4.3,5.6,6.9-3.6,1.7-7,3.1-10.5,4.3-28.5,9.9-54.5,24-75.2,46.5-14.3,15.5-24.9,33.2-31,53.8-.7,3.8-1.4,7.3-2,10.7Z"/>
  <path class="st31" d="M1154.6,572.1c6.9,7.7,14,15.3,20.1,23.5,26.4,35.9,52.6,72,78.8,108,.3.4.7.7,1.4,1.2-1.5,2.1-3.3,4-5.7,5.9-1.4-.9-2.3-1.6-3-2.6-26.9-36.9-53.6-73.9-80.6-110.8-4.8-6.5-10.4-12.3-15.6-18.5,1.5-2.2,2.9-4.5,4.7-6.9Z"/>
  <path class="st40" d="M603,591.5c13.1-12.1,25.7-24.5,39.5-35.3,23.8-18.5,50.7-31.8,78.8-42.4,8.2-3.1,16.7-5.8,25.4-8.7,1.3,2,2.3,4.1,2.9,6.6-25.2,8.1-49.1,18-71.8,30.9-22.8,13-43.4,28.8-61.7,47.7-3,3.1-6.2,5.9-9.3,8.8-1.3-2.4-2.6-4.8-3.9-7.6Z"/>
  <path class="st65" d="M1149.6,579.1c5.5,6,11.2,11.8,15.9,18.3,27,36.8,53.8,73.8,80.6,110.8.7.9,1.6,1.7,2.7,2.7-1.5,2.1-3.3,4-5.7,5.9-6.2-7.9-11.6-15.8-17.3-23.5-23.5-32-47.2-63.8-70.7-95.8-3.4-4.6-6.1-9.7-9.1-14.5,1.1-1.2,2.2-2.5,3.6-3.8Z"/>
  <path class="st16" d="M876.3,636.3c-3.6,4.5-7.7,8.7-11.2,13.2-20,25.6-38.3,52.3-53.4,81.1-7.2,13.8-13.9,28-20.8,42-.6,1.1-1.6,2.1-2.7,3.3-2.2-.6-4-1.4-6-2.8.5-2,1.2-3.3,1.8-4.7,12.5-28.3,27-55.6,44.4-81.2,12.6-18.5,26.4-36.2,39.6-54.3,2.7,1.1,5.3,2.1,8.3,3.4Z"/>
  <path class="st18" d="M1145.6,583c3.3,4.7,6,9.8,9.4,14.4,23.5,32,47.1,63.9,70.7,95.8,5.7,7.7,11.2,15.7,17,23.7-1.2,1.7-2.6,3.3-4.4,5-1.8-1.1-3.6-2-4.7-3.5-22.3-31.1-44.3-62.3-66.7-93.2-7.7-10.6-16.2-20.6-24.3-31-.9-1.2-1.7-2.5-2.7-4,1.6-2.6,3.4-4.8,5.5-7.2Z"/>
  <path class="st7" d="M867.9,632.6c-13.1,18.4-26.8,36.1-39.4,54.6-17.4,25.6-31.9,52.9-44.4,81.2-.6,1.4-1.3,2.7-2,4.4-2.3-.8-4.5-2-7-3.4,2.9-6.4,6-12.4,9-18.5,20.1-41,43.8-79.7,72.7-115.2,1.4-1.7,2.2-4,3.3-6.4,2.6.8,5.1,1.9,7.8,3.3Z"/>
  <path class="st45" d="M789.9,572.6c-1.8,1.6-3.6,3.4-5.8,4.1-22.8,7.4-44,17.9-63.2,32.3-21.9,16.5-38.3,37.1-46.6,63.5-1,3.2-1.4,6.5-2.4,9.7-.5,1.6-1.6,3.1-2.7,4.7-1.9-1.7-3.5-3.4-5.1-5.5,5.7-26.9,19.8-48.6,39.8-66.7,20.5-18.5,44.3-31.4,70.2-40.7,3.9-1.4,7.7-3.1,11.7-4.9,1.5.9,2.7,2,4.1,3.4Z"/>
  <path class="st25" d="M677.1,695.4c.5-3.7,1.2-7.2,2.2-11.1,1.9-3,3.7-5.4,5-8,5.4-11.2,11.1-22,22.4-28.6,1.1-.6,2-1.8,2.8-2.9,13.8-18.2,31.3-32.2,51.6-42.2,13.2-6.5,27.3-11.2,41-16.7,1.6,1.5,3.1,2.9,4.9,4.7-8.6,3.6-17.3,6.7-25.9,10.2-19.7,8.2-37.5,19.3-52.8,34.3-2.8,2.7-6.1,5.1-9.6,6.9-6.5,3.4-12.1,7.6-15.5,14.3-7.2,14.1-14.5,28.1-22,42.4-1.4-.8-2.6-1.9-4-3.4Z"/>
  <path class="st69" d="M802,585.7c-13.6,5.8-27.7,10.6-40.9,17-20.4,9.9-37.8,23.9-51.6,42.2-.8,1.1-1.7,2.2-2.8,2.9-11.3,6.6-17,17.4-22.4,28.6-1.3,2.6-3.1,5-5,7.6,5.8-20.2,16.4-37.9,30.7-53.3,20.7-22.5,46.6-36.6,75.2-46.5,3.5-1.2,6.9-2.5,10.6-4,2.2,1.6,4.1,3.4,6.2,5.5Z"/>
  <path class="st59" d="M606.9,599.4c3.1-3.3,6.3-6.1,9.2-9.1,18.3-18.9,38.9-34.7,61.7-47.7,22.6-12.9,46.6-22.8,71.8-30.5,1.3,1.4,2.2,2.8,3.1,4.6-19.2,8.2-39,15-57.6,24-27.9,13.5-52.7,31.8-73.9,54.6-3.3,3.5-6.5,7.1-10.1,10.7-1.6-2-2.9-4.1-4.3-6.5Z"/>
  <path class="st51" d="M770,547.6c-10.2,4.4-20.5,8.1-30.5,12.5-22.8,10.1-43.9,22.8-62.7,39.4-14.7,13.1-26.7,28.2-36.3,45.3-.7,1.2-2,2.1-3.3,3.2-1.6-1.7-2.8-3.5-4.1-5.5,9.3-14.8,19.1-28.9,31.8-40.9,14.2-13.5,29.6-25.4,47-34.1,16.3-8.2,33.3-14.8,50-22.1,1.5-.7,3.1-1.3,4.9-2.1,1.3,1.3,2.3,2.7,3.2,4.4Z"/>
  <path class="st43" d="M762.1,534.6c-11.2,4.7-22.7,8.8-33.8,13.5-24,10.2-45.9,23.8-65.8,40.8-14.2,12.1-25.9,26.1-36.3,41.9-1.8-2.2-3.5-4.6-5.2-7.4,4-4.9,8.3-9.2,12-14,11.5-14.8,25.8-26.7,40.9-37.6,24.2-17.5,50.8-30.1,79.1-39.3,1.9-.6,3.7-1.5,5.9-2.4,1.3,1.3,2.3,2.7,3.3,4.5Z"/>
  <path class="st64" d="M750.4,629.9c4.5-3.7,9.2-7.9,14.4-11.2,15.3-9.6,32.2-15.8,50-20.7,1.2.6,1.9,1.2,3,2-1.1,1.2-2.3,2.6-3.8,3.1-15.5,4.7-30.5,10.2-44.4,18.8-5.7,3.6-12.5,5.3-19.2,7.9Z"/>
  <path class="st30" d="M603.7,226c.1.2,0,.4-.4.8,0-.1,0-.4.4-.8Z"/>
  <path class="st64" d="M690,708.4c1.4-2.4,3.3-4.3,4.5-6.6,10.2-18.6,20.5-37.2,30.5-56,3.6-6.9,9.3-10.4,16.3-12.7,2.7-.9,5.3-1.9,8.3-3-5.5,9.6-11.6,19.1-17.1,28.9-10.7,19.4-20.9,39-31.5,58.8-3.7-2.8-7.3-6-11.1-9.4Z"/>
  <path class="st38" d="M833,795.3c.2-.1.4,0,.8.4-.1,0-.4,0-.8-.4Z"/>
</svg>