<svg version="1.1" id="Layer_1" xmlns="http://www.w3.org/2000/svg" xmlns:xlink="http://www.w3.org/1999/xlink" x="0px" y="0px"
	 width="100%" viewBox="0 0 800 817" enable-background="new 0 0 800 817" xml:space="preserve">
<path fill="#000000" opacity="1.000000" stroke="none" 
	d="
M451.000000,0.999994 
	C567.597107,1.000000 684.194214,1.000000 801.000000,1.000000 
	C801.000000,125.689232 801.000000,250.378586 800.625488,375.817902 
	C799.836975,375.719391 799.156738,374.903381 799.048645,374.017578 
	C797.391418,360.435638 795.808777,346.844604 794.209167,333.258789 
	C665.452393,333.258789 537.424072,333.258789 409.279846,333.258789 
	C409.279846,385.894073 409.279846,438.269836 409.279846,491.044556 
	C482.630219,491.044556 555.702087,491.044556 628.950439,491.044556 
	C628.950439,492.927551 628.950439,494.411560 628.611145,496.099792 
	C627.903931,498.868408 627.535950,501.432739 626.995178,504.347015 
	C625.509155,509.450867 624.195923,514.204834 622.560059,519.146851 
	C620.120300,525.209229 618.003174,531.083557 615.575317,537.125610 
	C612.805420,542.181641 610.346191,547.069946 607.579529,552.123291 
	C605.143982,556.178040 603.015808,560.067566 600.578125,564.096313 
	C598.475098,566.809265 596.681641,569.383118 594.578857,572.096802 
	C592.807373,574.478577 591.345032,576.720398 589.593445,579.083191 
	C588.188904,580.432739 587.073669,581.661316 585.649536,583.035645 
	C583.544250,585.418396 581.747925,587.655396 579.645508,590.032837 
	C575.880859,593.412109 572.422363,596.650940 568.656860,600.032471 
	C565.550293,602.747620 562.750610,605.320068 559.635132,608.038208 
	C554.863098,611.420898 550.406799,614.657898 545.630859,618.044373 
	C540.504211,621.114258 535.697205,624.034790 530.528503,626.981201 
	C526.578613,628.799316 522.990417,630.591553 519.092285,632.561340 
	C513.507019,635.120972 508.231750,637.503113 502.565247,639.931641 
	C496.078156,641.965454 489.982391,643.952881 483.488220,645.966064 
	C475.061340,647.717285 467.032776,649.442688 458.614105,651.256104 
	C454.737396,651.897217 451.254059,652.471680 447.763458,652.997986 
	C442.846527,653.739441 437.924255,654.445374 432.540222,655.100647 
	C424.717377,655.411987 417.358521,655.789246 409.567627,656.101196 
	C399.104523,655.311096 389.073456,654.586243 378.790894,653.534058 
	C372.724365,652.453796 366.909363,651.700806 360.868103,650.630859 
	C355.760651,649.265320 350.879395,648.216797 345.662964,646.991943 
	C340.881805,645.271240 336.435822,643.726807 331.617859,642.096069 
	C326.370148,640.176025 321.494476,638.342285 316.336243,636.297180 
	C313.383942,635.020142 310.714172,633.954407 307.861328,632.595093 
	C305.132050,631.162048 302.585907,630.022522 299.882751,628.577393 
	C295.703339,626.006226 291.680939,623.740784 287.425720,621.289124 
	C286.493439,620.721313 285.793915,620.339722 284.910522,619.664856 
	C281.836334,617.541687 278.946045,615.711731 275.884033,613.595398 
	C273.828949,612.170776 271.945618,611.032654 269.922516,609.603149 
	C268.541290,608.506592 267.299835,607.701233 265.909180,606.593262 
	C263.174469,604.263794 260.589020,602.236938 257.730469,600.065308 
	C256.677856,599.268005 255.898331,598.615601 254.968964,597.657471 
	C252.248596,595.218567 249.678101,593.085266 246.969269,590.656250 
	C245.256058,588.891479 243.681198,587.422424 241.965652,585.653564 
	C239.919693,583.553894 238.014420,581.754089 235.965347,579.650635 
	C233.894119,577.189880 231.966675,575.032715 229.910614,572.586365 
	C228.538986,571.163940 227.296005,570.030701 225.912109,568.591370 
	C223.886688,565.841187 222.002182,563.397156 219.968124,560.642883 
	C218.013290,557.931519 216.207993,555.530334 214.227356,552.873901 
	C212.717850,551.043335 211.383713,549.468140 210.020844,547.554810 
	C209.031662,545.796021 208.071198,544.375244 206.963928,542.635925 
	C205.250961,539.863159 203.684784,537.408997 202.061935,534.615356 
	C201.039154,532.835632 200.073044,531.395325 199.051407,529.589111 
	C196.942566,525.147644 194.889252,521.072083 192.811447,516.662048 
	C191.896988,514.872498 191.006989,513.417419 190.059601,511.598022 
	C189.040787,509.143341 188.079361,507.053009 187.057602,504.585632 
	C185.609100,500.803711 184.220917,497.398895 182.901596,493.612732 
	C182.311478,491.438080 181.565979,489.671173 181.008652,487.846832 
	C178.681244,480.228210 176.410370,472.592346 174.063187,464.538605 
	C173.990021,463.123535 174.076004,462.118164 173.939346,461.143982 
	C171.921463,446.759521 169.873993,432.379150 167.906647,417.534454 
	C168.320419,407.002686 168.554138,396.928955 169.057465,386.868683 
	C169.243576,383.149170 170.027267,379.455658 170.602707,375.760315 
	C171.727051,368.539795 172.896637,361.326385 174.395325,353.916565 
	C175.016953,352.466888 175.219955,351.190247 175.575851,349.957794 
	C178.072220,341.312988 180.600128,332.677307 183.441696,323.870972 
	C185.788254,318.802673 187.811050,313.902100 189.911575,308.636414 
	C191.365021,305.194214 192.740753,302.117126 194.428223,298.885925 
	C196.107239,296.152405 197.474518,293.573029 198.993286,290.671112 
	C200.446457,287.934540 201.748138,285.520538 203.365662,282.949188 
	C206.159653,278.541412 208.637833,274.290985 211.429337,269.906799 
	C214.197693,266.197998 216.652710,262.622955 219.417969,258.916260 
	C222.165741,255.560516 224.603271,252.336426 227.356125,248.972290 
	C230.146378,246.234802 232.621323,243.637360 235.380173,240.916382 
	C236.125259,239.897995 236.586426,239.003143 237.351883,237.976227 
	C239.450974,235.935226 241.245758,234.026260 243.350967,231.978516 
	C246.454803,229.264084 249.248230,226.688400 252.350739,223.975189 
	C254.786316,221.930969 256.912811,220.024277 259.353546,217.974426 
	C263.444275,214.831802 267.220795,211.832367 271.339478,208.801727 
	C277.135284,204.885147 282.588867,200.999725 288.406250,197.059464 
	C294.214813,194.020126 299.659607,191.035645 305.469116,188.020538 
	C313.260498,184.676285 320.687134,181.362656 328.493164,178.015640 
	C334.105896,176.314209 339.297699,174.498276 344.582428,173.013016 
	C352.352936,170.829147 360.189789,168.881332 368.424683,166.903442 
	C385.102234,163.864212 401.551422,163.851746 418.460022,163.902740 
	C426.712982,164.634521 434.526672,165.117279 442.292999,166.011536 
	C449.203094,166.807205 456.060699,168.058716 463.145355,169.443878 
	C483.313354,173.975250 502.040894,181.453659 520.116577,191.415894 
	C537.298950,200.385437 552.100891,212.102295 566.084412,225.249344 
	C567.100830,224.295853 567.955261,223.537796 568.761597,222.731674 
	C605.954346,185.547775 643.143005,148.359695 680.331421,111.171501 
	C681.036743,110.466179 682.120361,109.850670 682.331482,109.016945 
	C682.564087,108.098831 682.348450,106.607498 681.717468,105.997627 
	C666.265625,91.062370 649.407288,77.829269 631.441040,66.111794 
	C620.312378,58.853741 608.532043,52.594975 596.877136,45.575981 
	C596.242920,45.103214 595.745605,44.999641 595.312927,44.772728 
	C573.218018,33.184692 550.304565,23.649517 525.840698,17.053732 
	C507.673431,13.015401 489.836853,9.091204 471.575928,5.095913 
	C465.155975,4.347239 459.151642,3.733531 453.175232,2.915784 
	C452.377716,2.806663 451.721619,1.664016 451.000000,0.999994 
z"/>
<path fill="#3086FF" opacity="1.000000" stroke="none" 
	d="
M628.950439,495.895569 
	C628.950439,494.411560 628.950439,492.927551 628.950439,491.044556 
	C555.702087,491.044556 482.630219,491.044556 409.279846,491.044556 
	C409.279846,438.269836 409.279846,385.894073 409.279846,333.258789 
	C537.424072,333.258789 665.452393,333.258789 794.209167,333.258789 
	C795.808777,346.844604 797.391418,360.435638 799.048645,374.017578 
	C799.156738,374.903381 799.836975,375.719391 800.625488,376.283936 
	C801.000000,405.020905 801.000000,434.041779 800.630005,463.229736 
	C799.507141,467.836823 798.652161,472.262482 798.022095,476.719940 
	C796.582947,486.901306 795.807434,497.210419 793.768799,507.266235 
	C789.036499,530.609253 783.760376,553.895020 774.818848,576.038879 
	C768.278076,592.237549 760.551086,607.957214 753.188232,623.529602 
	C725.033020,585.996216 697.282959,548.638855 668.937683,511.738739 
	C657.013428,496.215637 659.949646,496.819153 638.177490,496.945587 
	C635.103943,496.963440 632.026245,496.263336 628.950439,495.895569 
z"/>
<path fill="#000000" opacity="1.000000" stroke="none" 
	d="
M0.999999,369.000000 
	C1.000000,246.405487 1.000000,123.810966 1.000000,1.000000 
	C123.022560,1.000000 245.045242,1.000000 367.749664,1.396822 
	C367.256622,2.195578 366.108398,2.816296 364.902588,2.962814 
	C358.578888,3.731215 352.147003,3.913224 345.925995,5.162236 
	C330.853058,8.188494 315.791504,11.358440 300.891418,15.127025 
	C291.733276,17.443336 282.881104,20.969416 273.501129,23.973837 
	C272.476288,24.116213 271.810455,24.151247 271.211914,24.370205 
	C246.431488,33.435570 222.554932,44.408409 199.654663,58.201351 
	C194.525070,61.452545 189.741714,64.668663 184.601837,67.940948 
	C179.485397,71.292038 174.725464,74.586960 169.649353,78.026398 
	C164.562927,81.839455 159.792679,85.508011 154.684998,89.201538 
	C150.550659,92.444366 146.753754,95.662216 142.649811,99.014816 
	C140.215637,101.393791 138.088455,103.638016 135.615082,105.941696 
	C132.165390,108.962669 129.061890,111.924187 125.650650,115.023483 
	C122.546707,118.070869 119.750511,120.980476 116.647118,124.026482 
	C113.880569,126.733635 111.421211,129.304382 108.646683,132.016296 
	C105.210495,135.725433 102.089470,139.293411 98.655228,143.016510 
	C95.547638,146.745193 92.753265,150.318756 89.649391,154.050751 
	C86.188721,158.457855 83.037552,162.706543 79.577667,167.111404 
	C76.808342,171.163651 74.347733,175.059723 71.571915,179.094421 
	C69.132149,182.471329 67.007591,185.709610 64.569717,189.102844 
	C62.466198,192.490921 60.675983,195.724060 58.574219,199.113007 
	C56.493000,202.476013 54.723328,205.683197 52.631680,209.054504 
	C49.526585,214.773666 46.743465,220.328720 43.711903,225.973831 
	C43.364628,226.367966 43.265789,226.672028 43.086105,227.216187 
	C42.968033,227.621002 42.930809,227.785736 42.570614,228.119293 
	C40.317875,232.539337 38.266594,236.740417 36.486023,241.053268 
	C33.618759,247.998322 30.930092,255.017105 28.005175,262.342560 
	C24.227098,272.990692 20.007036,283.136322 17.135170,293.650238 
	C12.926353,309.058655 9.379096,324.668121 6.153217,340.316284 
	C4.485680,348.405212 4.118414,356.762177 3.089628,365.423523 
	C2.343722,366.899353 1.671860,367.949677 0.999999,369.000000 
z"/>
<path fill="#000000" opacity="1.000000" stroke="none" 
	d="
M368.000000,818.000000 
	C245.738617,818.000000 123.477242,818.000000 1.000000,818.000000 
	C1.000000,695.644104 1.000000,573.288086 1.340757,450.122131 
	C2.119030,450.316528 2.795429,451.283752 2.958175,452.330811 
	C5.349248,467.713531 6.973573,483.255829 10.215266,498.454102 
	C13.213080,512.508972 17.925634,526.198059 21.931326,540.441711 
	C26.973202,553.261292 31.966770,565.687439 36.983135,578.481873 
	C38.989819,582.938538 40.973709,587.026855 42.991280,591.471924 
	C44.312943,594.234680 45.600918,596.640747 46.942436,599.401733 
	C48.290455,601.852356 49.584930,603.947998 50.933815,606.408081 
	C54.288567,612.195862 57.588909,617.619080 60.940720,623.399902 
	C62.645386,626.208923 64.298584,628.660461 65.977196,631.467224 
	C68.321388,635.253479 70.640160,638.684448 73.090668,642.423401 
	C74.442192,644.500977 75.661987,646.270691 77.026489,648.353882 
	C79.764755,651.813416 82.358299,654.959412 84.978371,658.455261 
	C87.653587,661.907410 90.302277,665.009705 92.976578,668.460571 
	C96.656250,672.912781 100.310303,677.016357 104.096237,681.423340 
	C105.779938,683.497864 107.331757,685.268860 109.025177,687.345215 
	C111.765121,690.136230 114.363457,692.621887 117.086891,695.399780 
	C118.457649,696.830688 119.703308,697.969299 121.087021,699.408936 
	C124.115097,702.489807 127.005135,705.269775 130.040192,708.355896 
	C133.773041,711.809631 137.360840,714.957153 141.092407,718.410400 
	C145.143311,721.847290 149.050446,724.978516 153.103424,728.416504 
	C157.153839,731.521484 161.058441,734.319763 165.107895,737.420288 
	C167.819397,739.518921 170.386063,741.315186 173.104279,743.417175 
	C178.489960,747.179688 183.724091,750.636414 189.140137,754.384521 
	C193.197601,756.819092 197.073151,758.962280 201.102829,761.414612 
	C205.803055,764.165649 210.349152,766.607666 215.075348,769.345154 
	C217.489502,770.798340 219.723572,771.956055 222.136078,773.403503 
	C224.179810,774.476807 226.045090,775.260315 228.103668,776.341919 
	C233.848694,779.129822 239.400452,781.619690 245.153976,784.409058 
	C249.224945,786.173767 253.094147,787.639038 257.169800,789.404480 
	C262.540771,791.483093 267.705261,793.261536 272.971039,795.276001 
	C273.371582,795.623291 273.670837,795.734558 274.228699,795.888428 
	C274.658905,795.898132 274.830475,795.865051 275.337341,796.006592 
	C285.449249,799.065063 295.225861,801.948975 305.348572,805.015137 
	C312.136871,806.794312 318.509552,808.804626 325.035736,809.902222 
	C338.681061,812.197205 352.411133,813.985962 366.089386,816.093140 
	C366.807159,816.203735 367.366760,817.340759 368.000000,818.000000 
z"/>
<path fill="#000000" opacity="1.000000" stroke="none" 
	d="
M753.352783,623.890442 
	C760.551086,607.957214 768.278076,592.237549 774.818848,576.038879 
	C783.760376,553.895020 789.036499,530.609253 793.768799,507.266235 
	C795.807434,497.210419 796.582947,486.901306 798.022095,476.719940 
	C798.652161,472.262482 799.507141,467.836823 800.630005,463.698364 
	C801.000000,581.926331 801.000000,699.852722 801.000000,818.000000 
	C685.645874,818.000000 570.291565,818.000000 454.353729,817.579346 
	C454.119568,816.835938 454.438324,816.274597 454.822906,816.225159 
	C466.013824,814.785400 477.265228,813.725159 488.391449,811.900330 
	C498.001190,810.324219 507.469818,807.887878 517.401367,805.893433 
	C528.879822,802.676941 539.957764,799.398865 551.413452,796.056152 
	C561.874451,792.032166 571.957642,788.072815 582.403198,784.051697 
	C587.856018,781.366333 592.946533,778.742798 598.399963,776.058105 
	C604.508301,772.943237 610.253601,769.889526 616.343628,766.785156 
	C620.159241,764.507629 623.630127,762.280884 627.456543,760.019775 
	C632.219971,757.030518 636.627869,754.075745 641.351562,750.968445 
	C646.481628,747.225525 651.296021,743.635193 656.419189,739.903320 
	C659.500610,737.541809 662.273315,735.321838 665.352905,732.957520 
	C669.812378,729.221252 673.965027,725.629456 678.412720,721.907043 
	C680.173645,720.201416 681.639465,718.626343 683.404663,716.918091 
	C685.504150,714.873474 687.304321,712.962097 689.404175,710.918091 
	C691.503967,708.873779 693.304077,706.962158 695.405762,704.916748 
	C697.838379,702.537292 699.969421,700.291565 702.401917,697.888794 
	C705.503784,694.171631 708.304138,690.611450 711.411987,686.912354 
	C714.862488,682.871643 718.005493,678.969910 721.456909,674.912781 
	C724.857422,670.210571 727.949585,665.663696 731.352417,660.951294 
	C734.228516,656.819092 736.793945,652.852417 739.630615,648.623901 
	C744.385559,640.204834 748.869202,632.047607 753.352783,623.890442 
z"/>
<path fill="#FF4640" opacity="1.000000" stroke="none" 
	d="
M273.891541,23.952278 
	C282.881104,20.969416 291.733276,17.443336 300.891418,15.127025 
	C315.791504,11.358440 330.853058,8.188494 345.925995,5.162236 
	C352.147003,3.913224 358.578888,3.731215 364.902588,2.962814 
	C366.108398,2.816296 367.256622,2.195578 368.215698,1.396822 
	C395.354218,1.000000 422.708466,1.000000 450.531342,0.999994 
	C451.721619,1.664016 452.377716,2.806663 453.175232,2.915784 
	C459.151642,3.733531 465.155975,4.347239 471.553772,5.452393 
	C471.506989,6.936600 471.171814,8.060581 470.592468,9.040138 
	C451.402405,41.484837 436.376495,75.731415 427.549469,112.414696 
	C423.476746,129.339981 421.129669,146.680496 418.000183,163.832748 
	C401.551422,163.851746 385.102234,163.864212 368.350922,166.578598 
	C364.259399,162.290207 360.525726,158.517944 357.100403,154.483795 
	C339.570526,133.838058 322.374207,112.896606 308.739258,89.399361 
	C299.827850,74.042168 291.679077,58.240135 283.294098,42.580914 
	C280.011597,36.450783 277.017181,30.166405 273.891541,23.952278 
z"/>
<path fill="#FCCD05" opacity="1.000000" stroke="none" 
	d="
M21.883015,540.048218 
	C17.925634,526.198059 13.213080,512.508972 10.215266,498.454102 
	C6.973573,483.255829 5.349248,467.713531 2.958175,452.330811 
	C2.795429,451.283752 2.119030,450.316528 1.340757,449.656097 
	C1.000000,423.312439 1.000000,396.624878 0.999999,369.468658 
	C1.671860,367.949677 2.343722,366.899353 3.418233,365.499634 
	C34.213852,386.039246 66.555794,403.440277 99.693321,419.535065 
	C111.411728,425.226624 123.263329,426.177307 135.590591,424.252777 
	C146.400284,422.565216 157.090530,420.112579 167.833542,417.997833 
	C169.873993,432.379150 171.921463,446.759521 173.939346,461.143982 
	C174.076004,462.118164 173.990021,463.123535 173.667023,464.566406 
	C170.456818,465.870514 167.584930,466.715088 164.717926,467.575897 
	C115.954376,482.217743 70.672379,503.781219 30.252131,535.064758 
	C27.703453,537.037354 24.683645,538.401184 21.883015,540.048218 
z"/>
<path fill="#0FBC5D" opacity="1.000000" stroke="none" 
	d="
M368.468658,818.000000 
	C367.366760,817.340759 366.807159,816.203735 366.089386,816.093140 
	C352.411133,813.985962 338.681061,812.197205 325.035736,809.902222 
	C318.509552,808.804626 312.136871,806.794312 305.354004,804.627197 
	C306.593567,799.536621 307.788269,794.834656 309.816742,790.525208 
	C322.659210,763.241272 338.180847,737.575256 356.658722,713.708740 
	C358.133789,711.803528 359.288147,709.406433 359.823151,707.062622 
	C361.439667,699.980774 362.403656,692.745178 364.139343,685.696838 
	C365.893372,678.573975 366.496185,671.068237 372.109711,665.194702 
	C375.099854,662.066162 376.774170,657.679993 379.042358,653.861450 
	C389.073456,654.586243 399.104523,655.311096 409.567596,656.558838 
	C409.666382,710.721252 409.333191,764.360596 409.000000,818.000000 
	C395.645782,818.000000 382.291534,818.000000 368.468658,818.000000 
z"/>
<path fill="#0CBA64" opacity="1.000000" stroke="none" 
	d="
M409.468658,818.000000 
	C409.333191,764.360596 409.666382,710.721252 409.999634,656.624146 
	C417.358521,655.789246 424.717377,655.411987 432.614563,655.458740 
	C434.072601,658.353882 434.516998,661.168091 436.004364,663.229736 
	C439.883392,668.606445 443.896301,673.963196 448.473694,678.735291 
	C452.228546,682.649841 452.797211,687.317810 454.215698,692.104553 
	C457.531281,703.293152 457.737152,715.180542 466.314758,725.112061 
	C481.958954,743.225586 494.921387,763.460205 506.549377,784.433105 
	C510.393341,791.366333 513.536987,798.687805 517.000793,805.831787 
	C507.469818,807.887878 498.001190,810.324219 488.391449,811.900330 
	C477.265228,813.725159 466.013824,814.785400 454.822906,816.225159 
	C454.438324,816.274597 454.119568,816.835938 453.885071,817.579346 
	C439.312439,818.000000 424.624878,818.000000 409.468658,818.000000 
z"/>
<path fill="#FECE0A" opacity="1.000000" stroke="none" 
	d="
M167.906647,417.534454 
	C157.090530,420.112579 146.400284,422.565216 135.590591,424.252777 
	C123.263329,426.177307 111.411728,425.226624 99.693321,419.535065 
	C66.555794,403.440277 34.213852,386.039246 3.492276,365.074158 
	C4.118414,356.762177 4.485680,348.405212 6.153217,340.316284 
	C9.379096,324.668121 12.926353,309.058655 17.135170,293.650238 
	C20.007036,283.136322 24.227098,272.990692 28.331676,262.416016 
	C34.526249,266.924530 40.275356,271.648346 45.933655,276.478546 
	C72.188568,298.891113 100.870430,317.711212 131.438919,333.620056 
	C145.411774,340.891998 159.830811,347.306580 174.047485,354.110016 
	C172.896637,361.326385 171.727051,368.539795 170.602707,375.760315 
	C170.027267,379.455658 169.243576,383.149170 169.057465,386.868683 
	C168.554138,396.928955 168.320419,407.002686 167.906647,417.534454 
z"/>
<path fill="#FB4D58" opacity="1.000000" stroke="none" 
	d="
M597.044189,45.887638 
	C608.532043,52.594975 620.312378,58.853741 631.441040,66.111794 
	C649.407288,77.829269 666.265625,91.062370 681.717468,105.997627 
	C682.348450,106.607498 682.564087,108.098831 682.331482,109.016945 
	C682.120361,109.850670 681.036743,110.466179 680.331421,111.171501 
	C643.143005,148.359695 605.954346,185.547775 568.761597,222.731674 
	C567.955261,223.537796 567.100830,224.295853 566.084412,225.249344 
	C552.100891,212.102295 537.298950,200.385437 520.282959,191.028763 
	C520.824036,185.567520 521.111877,180.759018 521.947021,176.047531 
	C530.126648,129.904053 547.820679,88.548485 582.633484,55.823055 
	C586.955872,51.759815 590.637329,46.879898 597.044189,45.887638 
z"/>
<path fill="#FF4B3C" opacity="1.000000" stroke="none" 
	d="
M273.501129,23.973833 
	C277.017181,30.166405 280.011597,36.450783 283.294098,42.580914 
	C291.679077,58.240135 299.827850,74.042168 308.739258,89.399361 
	C322.374207,112.896606 339.570526,133.838058 357.100403,154.483795 
	C360.525726,158.517944 364.259399,162.290207 367.924622,166.508118 
	C360.189789,168.881332 352.352936,170.829147 344.582428,173.013016 
	C339.297699,174.498276 334.105896,176.314209 328.235077,177.791443 
	C326.270630,176.119415 324.616791,174.819138 323.677826,173.123093 
	C320.836700,167.990891 316.543640,164.637589 310.988251,163.536957 
	C302.402679,161.836014 294.214355,159.359467 287.469971,153.610718 
	C272.048706,140.465942 256.299133,127.654549 241.563568,113.772896 
	C228.873062,101.817757 217.486481,88.486549 205.349228,75.932114 
	C200.402496,70.815346 195.950027,65.852852 200.000900,58.166271 
	C222.554932,44.408409 246.431488,33.435570 271.211914,24.370205 
	C271.810455,24.151247 272.476288,24.116213 273.501129,23.973833 
z"/>
<path fill="#FD4A4F" opacity="1.000000" stroke="none" 
	d="
M596.877136,45.575974 
	C590.637329,46.879898 586.955872,51.759815 582.633484,55.823055 
	C547.820679,88.548485 530.126648,129.904053 521.947021,176.047531 
	C521.111877,180.759018 520.824036,185.567520 520.115906,190.718140 
	C502.040894,181.453659 483.313354,173.975250 463.309326,169.069992 
	C463.832153,165.097122 464.431305,161.838776 464.952179,158.567963 
	C471.204254,119.308632 484.755219,82.668083 505.074738,48.587334 
	C511.525635,37.767586 519.107178,27.621958 526.171387,17.167860 
	C550.304565,23.649517 573.218018,33.184692 595.312927,44.772728 
	C595.745605,44.999641 596.242920,45.103214 596.877136,45.575974 
z"/>
<path fill="#FE4746" opacity="1.000000" stroke="none" 
	d="
M525.840698,17.053726 
	C519.107178,27.621958 511.525635,37.767586 505.074738,48.587334 
	C484.755219,82.668083 471.204254,119.308632 464.952179,158.567963 
	C464.431305,161.838776 463.832153,165.097122 463.105408,168.735153 
	C456.060699,168.058716 449.203094,166.807205 442.292999,166.011536 
	C434.526672,165.117279 426.712982,164.634521 418.460022,163.902740 
	C421.129669,146.680496 423.476746,129.339981 427.549469,112.414696 
	C436.376495,75.731415 451.402405,41.484837 470.592468,9.040138 
	C471.171814,8.060581 471.506989,6.936600 471.978149,5.523487 
	C489.836853,9.091204 507.673431,13.015401 525.840698,17.053726 
z"/>
<path fill="#F0CC05" opacity="1.000000" stroke="none" 
	d="
M21.931324,540.441711 
	C24.683645,538.401184 27.703453,537.037354 30.252131,535.064758 
	C70.672379,503.781219 115.954376,482.217743 164.717926,467.575897 
	C167.584930,466.715088 170.456818,465.870514 173.722595,464.990601 
	C176.410370,472.592346 178.681244,480.228210 181.008652,487.846832 
	C181.565979,489.671173 182.311478,491.438080 182.540085,493.690369 
	C168.659683,498.949463 155.031662,503.307190 141.793243,508.633270 
	C103.481827,524.046753 69.108444,545.747559 39.237129,574.382751 
	C38.220379,575.357422 37.707874,576.858032 36.960342,578.113525 
	C31.966770,565.687439 26.973202,553.261292 21.931324,540.441711 
z"/>
<path fill="#FFC20B" opacity="1.000000" stroke="none" 
	d="
M174.395325,353.916565 
	C159.830811,347.306580 145.411774,340.891998 131.438919,333.620056 
	C100.870430,317.711212 72.188568,298.891113 45.933655,276.478546 
	C40.275356,271.648346 34.526249,266.924530 28.492477,262.078186 
	C30.930092,255.017105 33.618759,247.998322 36.486023,241.053268 
	C38.266594,236.740417 40.317875,232.539337 42.882744,228.268204 
	C45.579922,229.900269 47.716702,231.467880 49.692123,233.217636 
	C64.097336,245.977325 77.757736,259.713562 93.047638,271.301727 
	C109.284981,283.607941 126.719055,294.460480 144.276520,304.856873 
	C156.665741,312.193054 170.132355,317.709747 183.117950,324.038727 
	C180.600128,332.677307 178.072220,341.312988 175.575851,349.957794 
	C175.219955,351.190247 175.016953,352.466888 174.395325,353.916565 
z"/>
<path fill="#0AB574" opacity="1.000000" stroke="none" 
	d="
M582.040833,784.113464 
	C571.957642,788.072815 561.874451,792.032166 551.347717,795.697144 
	C550.523682,794.484985 550.267395,793.488586 549.744568,792.660583 
	C537.335693,773.008850 525.575928,752.901123 512.270752,733.874573 
	C499.554443,715.690125 485.053802,698.762329 471.710358,681.002014 
	C467.813416,675.815125 461.208435,672.434204 460.493286,664.987061 
	C460.050446,660.375549 459.504120,655.774048 459.004242,651.168030 
	C467.032776,649.442688 475.061340,647.717285 483.743134,646.190857 
	C488.637451,651.505371 492.922791,656.584961 497.112366,661.742371 
	C522.520630,693.020264 546.463562,725.368958 567.924255,759.498596 
	C572.955017,767.499084 577.352173,775.897888 582.040833,784.113464 
z"/>
<path fill="#0BB86B" opacity="1.000000" stroke="none" 
	d="
M458.614105,651.256104 
	C459.504120,655.774048 460.050446,660.375549 460.493286,664.987061 
	C461.208435,672.434204 467.813416,675.815125 471.710358,681.002014 
	C485.053802,698.762329 499.554443,715.690125 512.270752,733.874573 
	C525.575928,752.901123 537.335693,773.008850 549.744568,792.660583 
	C550.267395,793.488586 550.523682,794.484985 550.969910,795.761841 
	C539.957764,799.398865 528.879822,802.676941 517.401367,805.893433 
	C513.536987,798.687805 510.393341,791.366333 506.549377,784.433105 
	C494.921387,763.460205 481.958954,743.225586 466.314758,725.112061 
	C457.737152,715.180542 457.531281,703.293152 454.215698,692.104553 
	C452.797211,687.317810 452.228546,682.649841 448.473694,678.735291 
	C443.896301,673.963196 439.883392,668.606445 436.004364,663.229736 
	C434.516998,661.168091 434.072601,658.353882 433.078583,655.524536 
	C437.924255,654.445374 442.846527,653.739441 447.763458,652.997986 
	C451.254059,652.471680 454.737396,651.897217 458.614105,651.256104 
z"/>
<path fill="#288AF4" opacity="1.000000" stroke="none" 
	d="
M753.188232,623.529602 
	C748.869202,632.047607 744.385559,640.204834 739.465332,648.263550 
	C737.522705,646.185059 735.979675,644.231873 734.516479,642.220581 
	C722.785645,626.095520 711.349487,609.746887 699.285217,593.875610 
	C680.194092,568.760315 660.776062,543.891235 641.281799,519.086487 
	C637.041809,513.691528 631.896362,509.008209 627.167969,503.997101 
	C627.535950,501.432739 627.903931,498.868408 628.611145,496.099792 
	C632.026245,496.263336 635.103943,496.963440 638.177490,496.945587 
	C659.949646,496.819153 657.013428,496.215637 668.937683,511.738739 
	C697.282959,548.638855 725.033020,585.996216 753.188232,623.529602 
z"/>
<path fill="#12BC58" opacity="1.000000" stroke="none" 
	d="
M378.790894,653.534058 
	C376.774170,657.679993 375.099854,662.066162 372.109711,665.194702 
	C366.496185,671.068237 365.893372,678.573975 364.139343,685.696838 
	C362.403656,692.745178 361.439667,699.980774 359.823151,707.062622 
	C359.288147,709.406433 358.133789,711.803528 356.658722,713.708740 
	C338.180847,737.575256 322.659210,763.241272 309.816742,790.525208 
	C307.788269,794.834656 306.593567,799.536621 305.007935,804.444946 
	C295.225861,801.948975 285.449249,799.065063 275.359192,795.640381 
	C280.900879,782.656921 286.336151,769.995178 292.693787,757.814819 
	C308.641632,727.260803 327.654175,698.732056 350.571320,672.897766 
	C355.728333,667.084351 359.929077,660.833679 360.201904,652.682068 
	C360.221527,652.094727 360.784149,651.525452 361.094330,650.947815 
	C366.909363,651.700806 372.724365,652.453796 378.790894,653.534058 
z"/>
<path fill="#FF6031" opacity="1.000000" stroke="none" 
	d="
M155.022415,89.176559 
	C159.792679,85.508011 164.562927,81.839455 169.656799,78.460175 
	C170.847031,81.849770 170.934906,85.538155 172.740616,87.929291 
	C176.626694,93.075233 181.309326,97.638374 185.819275,102.291443 
	C216.636871,134.087036 248.863541,164.316833 284.269836,191.035156 
	C286.045410,192.375061 286.808136,195.057159 288.042480,197.114319 
	C282.588867,200.999725 277.135284,204.885147 271.319153,208.443634 
	C269.800995,206.184158 269.047974,203.782608 267.427521,202.391434 
	C250.954071,188.248932 233.855194,174.797226 217.890961,160.109207 
	C199.436356,143.129898 181.678192,125.362236 164.217514,107.355186 
	C159.605179,102.598526 151.800613,98.352798 155.022415,89.176559 
z"/>
<path fill="#19BD4F" opacity="1.000000" stroke="none" 
	d="
M360.868103,650.630859 
	C360.784149,651.525452 360.221527,652.094727 360.201904,652.682068 
	C359.929077,660.833679 355.728333,667.084351 350.571320,672.897766 
	C327.654175,698.732056 308.641632,727.260803 292.693787,757.814819 
	C286.336151,769.995178 280.900879,782.656921 275.023926,795.465820 
	C274.830475,795.865051 274.658905,795.898132 274.069397,795.723206 
	C273.416962,795.313965 273.156372,795.155579 272.869720,795.040039 
	C267.705261,793.261536 262.540771,791.483093 257.239624,789.037354 
	C266.472778,769.438416 275.217194,750.163696 285.368195,731.660583 
	C298.512848,707.700500 314.661499,685.669434 331.968719,664.515564 
	C336.677826,658.759827 341.323425,652.952087 345.998169,647.168213 
	C350.879395,648.216797 355.760651,649.265320 360.868103,650.630859 
z"/>
<path fill="#08B089" opacity="1.000000" stroke="none" 
	d="
M615.998962,766.835815 
	C610.253601,769.889526 604.508301,772.943237 598.334045,775.699585 
	C597.246948,774.068665 596.717651,772.651123 595.911194,771.414429 
	C584.381775,753.734009 573.458801,735.612366 561.102051,718.528381 
	C543.793823,694.598572 525.381042,671.468628 507.533447,647.926270 
	C505.686249,645.489685 504.467072,642.577026 502.956512,639.885254 
	C508.231750,637.503113 513.507019,635.120972 519.363098,632.862427 
	C529.023560,644.423706 538.415161,655.629944 547.113098,667.350891 
	C561.860413,687.223694 576.414246,707.250854 590.574829,727.544312 
	C599.496338,740.329773 607.553833,753.718018 615.998962,766.835815 
z"/>
<path fill="#FFBA0C" opacity="1.000000" stroke="none" 
	d="
M183.441711,323.870972 
	C170.132355,317.709747 156.665741,312.193054 144.276520,304.856873 
	C126.719055,294.460480 109.284981,283.607941 93.047638,271.301727 
	C77.757736,259.713562 64.097336,245.977325 49.692123,233.217636 
	C47.716702,231.467880 45.579922,229.900269 43.205711,228.099396 
	C42.930809,227.785736 42.968033,227.621002 43.247490,227.056671 
	C43.683552,226.421783 43.840424,226.164017 43.960342,225.883759 
	C46.743465,220.328720 49.526585,214.773666 52.799999,209.349548 
	C67.265244,225.375549 82.509010,239.974289 98.970749,253.245712 
	C126.849930,275.721924 157.592850,293.598785 189.833862,309.001526 
	C187.811050,313.902100 185.788254,318.802673 183.441711,323.870972 
z"/>
<path fill="#1E90E6" opacity="1.000000" stroke="none" 
	d="
M731.041748,661.116882 
	C727.949585,665.663696 724.857422,670.210571 721.155579,674.740356 
	C715.800781,668.140503 711.155579,661.483032 706.293762,654.987610 
	C681.440857,621.783997 656.595154,588.574524 631.588257,555.487061 
	C626.714478,549.038391 621.138184,543.120544 615.885986,536.957825 
	C618.003174,531.083557 620.120300,525.209229 622.905579,519.217773 
	C624.507080,519.758118 625.662292,520.240295 626.341248,521.098999 
	C640.247070,538.686646 654.350952,556.125916 667.897156,573.987671 
	C684.971619,596.501526 701.646362,619.320190 718.349731,642.112732 
	C722.848267,648.251160 726.825317,654.771729 731.041748,661.116882 
z"/>
<path fill="#3DC027" opacity="1.000000" stroke="none" 
	d="
M188.958221,754.093140 
	C183.724091,750.636414 178.489960,747.179688 173.277512,743.112915 
	C179.512421,730.378784 185.720413,718.251953 191.939972,706.131104 
	C205.478012,679.747742 221.507233,654.902405 238.229324,630.454651 
	C243.599731,622.603149 249.646591,618.151367 259.833008,618.648560 
	C265.150360,618.908142 270.642578,615.586182 276.055786,613.881836 
	C278.946045,615.711731 281.836334,617.541687 284.512848,619.694336 
	C279.272461,621.034119 274.209991,621.908691 269.241852,623.158264 
	C267.820770,623.515686 266.364014,624.727051 265.449646,625.942627 
	C259.259918,634.171570 252.978607,642.347046 247.158188,650.835510 
	C224.733017,683.540527 205.387039,717.999207 188.958221,754.093140 
z"/>
<path fill="#09B280" opacity="1.000000" stroke="none" 
	d="
M502.565247,639.931641 
	C504.467072,642.577026 505.686249,645.489685 507.533447,647.926270 
	C525.381042,671.468628 543.793823,694.598572 561.102051,718.528381 
	C573.458801,735.612366 584.381775,753.734009 595.911194,771.414429 
	C596.717651,772.651123 597.246948,774.068665 597.971069,775.760620 
	C592.946533,778.742798 587.856018,781.366333 582.403198,784.051697 
	C577.352173,775.897888 572.955017,767.499084 567.924255,759.498596 
	C546.463562,725.368958 522.520630,693.020264 497.112366,661.742371 
	C492.922791,656.584961 488.637451,651.505371 484.141479,646.165039 
	C489.982391,643.952881 496.078156,641.965454 502.565247,639.931641 
z"/>
<path fill="#23BE42" opacity="1.000000" stroke="none" 
	d="
M244.952209,784.109497 
	C239.400452,781.619690 233.848694,779.129822 228.406143,776.162415 
	C229.325211,774.662476 230.343994,773.744202 230.913162,772.601929 
	C237.880615,758.618774 244.515564,744.463440 251.756241,730.624512 
	C266.826538,701.821045 285.143829,675.107178 305.124084,649.521057 
	C308.679565,644.967957 312.773499,640.835327 316.618805,636.508545 
	C321.494476,638.342285 326.370148,640.176025 331.599213,642.452148 
	C329.022156,647.039062 326.103760,651.192139 323.159180,655.326660 
	C308.800079,675.488403 293.203339,694.899475 280.410645,716.010010 
	C267.174927,737.851562 256.658264,761.340942 244.952209,784.109497 
z"/>
<path fill="#FF5139" opacity="1.000000" stroke="none" 
	d="
M199.654663,58.201351 
	C195.950027,65.852852 200.402496,70.815346 205.349228,75.932114 
	C217.486481,88.486549 228.873062,101.817757 241.563568,113.772896 
	C256.299133,127.654549 272.048706,140.465942 287.469971,153.610718 
	C294.214355,159.359467 302.402679,161.836014 310.988251,163.536957 
	C316.543640,164.637589 320.836700,167.990891 323.677826,173.123093 
	C324.616791,174.819138 326.270630,176.119415 327.855682,177.824829 
	C320.687134,181.362656 313.260498,184.676285 305.233215,187.773148 
	C302.917542,185.594696 301.436676,183.348389 299.451385,181.715240 
	C278.953461,164.852905 257.732910,148.802963 238.014267,131.079666 
	C221.353989,116.105247 206.294144,99.332352 190.784348,83.108429 
	C186.910355,79.056053 182.375626,74.673988 184.958344,67.884781 
	C189.741714,64.668663 194.525070,61.452545 199.654663,58.201351 
z"/>
<path fill="#FF5935" opacity="1.000000" stroke="none" 
	d="
M184.601837,67.940948 
	C182.375626,74.673988 186.910355,79.056053 190.784348,83.108429 
	C206.294144,99.332352 221.353989,116.105247 238.014267,131.079666 
	C257.732910,148.802963 278.953461,164.852905 299.451385,181.715240 
	C301.436676,183.348389 302.917542,185.594696 304.868469,187.803772 
	C299.659607,191.035645 294.214813,194.020126 288.406250,197.059464 
	C286.808136,195.057159 286.045410,192.375061 284.269836,191.035156 
	C248.863541,164.316833 216.636871,134.087036 185.819275,102.291443 
	C181.309326,97.638374 176.626694,93.075233 172.740616,87.929291 
	C170.934906,85.538155 170.847031,81.849770 169.972977,78.315666 
	C174.725464,74.586960 179.485397,71.292038 184.601837,67.940948 
z"/>
<path fill="#0AA6A8" opacity="1.000000" stroke="none" 
	d="
M656.110352,740.044800 
	C651.296021,743.635193 646.481628,747.225525 641.281555,750.617859 
	C622.761536,723.943848 604.971558,697.222961 586.374634,671.076050 
	C573.475342,652.939819 559.464661,635.593933 545.950562,617.894958 
	C550.406799,614.657898 554.863098,611.420898 559.785095,608.352661 
	C568.660461,619.415771 577.396790,630.075562 585.417236,641.249207 
	C607.787109,672.413696 629.854492,703.795349 652.065979,735.073730 
	C653.300110,736.811646 654.757080,738.391418 656.110352,740.044800 
z"/>
<path fill="#09AA9C" opacity="1.000000" stroke="none" 
	d="
M545.630859,618.044373 
	C559.464661,635.593933 573.475342,652.939819 586.374634,671.076050 
	C604.971558,697.222961 622.761536,723.943848 640.965820,750.770386 
	C636.627869,754.075745 632.219971,757.030518 627.202515,759.788696 
	C613.247864,739.687866 600.480164,719.364685 586.413086,699.984680 
	C568.454285,675.243225 549.446106,651.263367 530.890198,626.955322 
	C535.697205,624.034790 540.504211,621.114258 545.630859,618.044373 
z"/>
<path fill="#2FBF35" opacity="1.000000" stroke="none" 
	d="
M214.895248,769.049622 
	C210.349152,766.607666 205.803055,764.165649 201.257019,761.092529 
	C203.724792,755.201843 206.123840,749.908813 208.671280,744.688171 
	C226.110046,708.949463 246.112183,674.744568 270.088593,642.963135 
	C275.656464,635.582703 281.786926,628.626648 287.658508,621.475342 
	C291.680939,623.740784 295.703339,626.006226 299.856537,628.948853 
	C298.908813,631.647217 298.126434,633.909180 296.708038,635.654175 
	C267.860291,671.144836 244.111511,709.838501 224.056122,750.869751 
	C221.076462,756.965881 217.952484,762.991455 214.895248,769.049622 
z"/>
<path fill="#CEC903" opacity="1.000000" stroke="none" 
	d="
M60.889256,623.042358 
	C57.588909,617.619080 54.288567,612.195862 51.263412,606.316040 
	C54.779785,602.321045 57.995575,598.758789 61.266262,595.247803 
	C82.497948,572.455933 107.240158,554.163940 135.169205,540.696533 
	C153.855865,531.685791 173.577469,524.821411 192.835922,516.996521 
	C194.889252,521.072083 196.942566,525.147644 198.720184,529.745728 
	C196.601059,531.021362 194.797028,531.895813 192.908295,532.509460 
	C164.599197,541.707092 137.980942,554.323914 113.804115,571.808105 
	C98.718803,582.717529 84.478043,594.556091 72.945244,609.379944 
	C69.222832,614.164551 64.924263,618.500916 60.889256,623.042358 
z"/>
<path fill="#1992DF" opacity="1.000000" stroke="none" 
	d="
M615.575317,537.125610 
	C621.138184,543.120544 626.714478,549.038391 631.588257,555.487061 
	C656.595154,588.574524 681.440857,621.783997 706.293762,654.987610 
	C711.155579,661.483032 715.800781,668.140503 720.847168,674.895752 
	C718.005493,678.969910 714.862488,682.871643 711.115723,686.740967 
	C709.109497,685.297607 707.504761,684.036194 706.334045,682.453674 
	C678.842407,645.293457 651.462402,608.050354 623.884155,570.954590 
	C618.954102,564.323303 613.239319,558.275452 607.886902,551.958191 
	C610.346191,547.069946 612.805420,542.181641 615.575317,537.125610 
z"/>
<path fill="#FFA611" opacity="1.000000" stroke="none" 
	d="
M71.887131,178.955795 
	C74.347733,175.059723 76.808342,171.163651 79.921722,167.181549 
	C84.210083,170.465485 88.008728,173.677536 91.452316,177.233444 
	C104.526649,190.734192 116.700043,205.224518 130.663330,217.721298 
	C154.693024,239.227203 181.762756,256.498077 211.115997,270.040558 
	C208.637833,274.290985 206.159653,278.541412 203.181244,282.654053 
	C201.310638,281.606445 200.025162,280.520599 198.557297,279.813080 
	C174.050461,268.000366 151.068192,253.735947 129.764725,236.822708 
	C110.854210,221.809280 93.589096,205.127609 78.863495,185.899185 
	C76.886597,183.317795 74.229340,181.257431 71.887131,178.955795 
z"/>
<path fill="#0C9FBE" opacity="1.000000" stroke="none" 
	d="
M678.117676,722.037659 
	C673.965027,725.629456 669.812378,729.221252 665.203613,732.642883 
	C652.063293,714.004883 639.696045,695.308899 626.609863,677.130493 
	C612.175903,657.079956 597.080566,637.505493 582.276917,617.721008 
	C577.833008,611.781921 573.401184,605.833801 568.963806,599.889771 
	C572.422363,596.650940 575.880859,593.412109 579.794800,590.346619 
	C581.080322,591.756348 581.835449,593.051392 582.752075,594.219727 
	C590.843933,604.533691 599.332397,614.559082 607.006775,625.173523 
	C629.392517,656.135315 651.438843,687.342407 673.699768,718.394897 
	C674.774658,719.894348 676.627258,720.836182 678.117676,722.037659 
z"/>
<path fill="#FF6A2B" opacity="1.000000" stroke="none" 
	d="
M154.684998,89.201538 
	C151.800613,98.352798 159.605179,102.598526 164.217514,107.355186 
	C181.678192,125.362236 199.436356,143.129898 217.890961,160.109207 
	C233.855194,174.797226 250.954071,188.248932 267.427521,202.391434 
	C269.047974,203.782608 269.800995,206.184158 270.976959,208.474823 
	C267.220795,211.832367 263.444275,214.831802 259.341431,217.587372 
	C258.069763,215.502151 257.519165,213.243774 256.101227,211.901840 
	C252.611465,208.599152 248.616577,205.837936 245.012421,202.647079 
	C224.492661,184.480499 203.735229,166.567108 183.652740,147.927536 
	C171.348557,136.507416 160.267715,123.779251 148.298004,111.983002 
	C144.419479,108.160683 142.182663,104.296242 142.956833,98.880066 
	C146.753754,95.662216 150.550659,92.444366 154.684998,89.201538 
z"/>
<path fill="#228DEC" opacity="1.000000" stroke="none" 
	d="
M731.352417,660.951294 
	C726.825317,654.771729 722.848267,648.251160 718.349731,642.112732 
	C701.646362,619.320190 684.971619,596.501526 667.897156,573.987671 
	C654.350952,556.125916 640.247070,538.686646 626.341248,521.098999 
	C625.662292,520.240295 624.507080,519.758118 623.228149,519.029663 
	C624.195923,514.204834 625.509155,509.450867 626.995178,504.347015 
	C631.896362,509.008209 637.041809,513.691528 641.281799,519.086487 
	C660.776062,543.891235 680.194092,568.760315 699.285217,593.875610 
	C711.349487,609.746887 722.785645,626.095520 734.516479,642.220581 
	C735.979675,644.231873 737.522705,646.185059 739.194092,648.525391 
	C736.793945,652.852417 734.228516,656.819092 731.352417,660.951294 
z"/>
<path fill="#FF9517" opacity="1.000000" stroke="none" 
	d="
M89.958893,153.892319 
	C92.753265,150.318756 95.547638,146.745193 98.725403,143.367371 
	C102.186722,147.656189 104.853447,152.155731 108.420959,155.764877 
	C118.469177,165.930344 129.437119,175.231705 139.019180,185.801392 
	C150.607773,198.584412 163.183319,210.024506 177.940567,218.864838 
	C192.459030,227.562103 207.368530,235.604675 222.005585,244.108124 
	C223.985001,245.258087 225.376892,247.419373 227.040833,249.112366 
	C224.603271,252.336426 222.165741,255.560516 219.095764,258.763184 
	C198.481567,249.071884 179.467285,237.763931 161.834854,224.282608 
	C139.882019,207.498032 119.272568,189.183105 100.993439,168.391220 
	C96.993347,163.841263 93.620567,158.739807 89.958893,153.892319 
z"/>
<path fill="#FF9D14" opacity="1.000000" stroke="none" 
	d="
M89.649399,154.050751 
	C93.620567,158.739807 96.993347,163.841263 100.993439,168.391220 
	C119.272568,189.183105 139.882019,207.498032 161.834854,224.282608 
	C179.467285,237.763931 198.481567,249.071884 218.785522,258.894836 
	C216.652710,262.622955 214.197693,266.197998 211.429321,269.906799 
	C181.762756,256.498077 154.693024,239.227203 130.663330,217.721298 
	C116.700043,205.224518 104.526649,190.734192 91.452316,177.233444 
	C88.008728,173.677536 84.210083,170.465485 80.230438,167.025391 
	C83.037552,162.706543 86.188721,158.457855 89.649399,154.050751 
z"/>
<path fill="#1595D7" opacity="1.000000" stroke="none" 
	d="
M607.579529,552.123291 
	C613.239319,558.275452 618.954102,564.323303 623.884155,570.954590 
	C651.462402,608.050354 678.842407,645.293457 706.334045,682.453674 
	C707.504761,684.036194 709.109497,685.297607 710.808289,686.879944 
	C708.304138,690.611450 705.503784,694.171631 702.104980,697.717163 
	C700.362854,696.508667 699.065735,695.427246 698.097778,694.104797 
	C671.488586,657.751587 644.985474,621.320312 618.270691,585.044922 
	C612.876831,577.720703 606.702271,570.971497 600.887634,563.957153 
	C603.015808,560.067566 605.143982,556.178040 607.579529,552.123291 
z"/>
<path fill="#35C02E" opacity="1.000000" stroke="none" 
	d="
M287.425720,621.289124 
	C281.786926,628.626648 275.656464,635.582703 270.088593,642.963135 
	C246.112183,674.744568 226.110046,708.949463 208.671280,744.688171 
	C206.123840,749.908813 203.724792,755.201843 201.102905,760.783447 
	C197.073151,758.962280 193.197601,756.819092 189.140137,754.384521 
	C205.387039,717.999207 224.733017,683.540527 247.158188,650.835510 
	C252.978607,642.347046 259.259918,634.171570 265.449646,625.942627 
	C266.364014,624.727051 267.820770,623.515686 269.241852,623.158264 
	C274.209991,621.908691 279.272461,621.034119 284.696777,619.987671 
	C285.793915,620.339722 286.493439,620.721313 287.425720,621.289124 
z"/>
<path fill="#E3CB03" opacity="1.000000" stroke="none" 
	d="
M36.983139,578.481873 
	C37.707874,576.858032 38.220379,575.357422 39.237129,574.382751 
	C69.108444,545.747559 103.481827,524.046753 141.793243,508.633270 
	C155.031662,503.307190 168.659683,498.949463 182.471237,494.071716 
	C184.220917,497.398895 185.609100,500.803711 186.680359,504.656586 
	C178.024246,507.980225 169.607803,510.651398 161.359894,513.768555 
	C133.209396,524.407471 106.338486,537.679932 82.531944,556.183411 
	C68.666504,566.960205 56.105503,579.415222 42.957588,591.115173 
	C40.973709,587.026855 38.989819,582.938538 36.983139,578.481873 
z"/>
<path fill="#FF891D" opacity="1.000000" stroke="none" 
	d="
M227.356140,248.972305 
	C225.376892,247.419373 223.985001,245.258087 222.005585,244.108124 
	C207.368530,235.604675 192.459030,227.562103 177.940567,218.864838 
	C163.183319,210.024506 150.607773,198.584412 139.019180,185.801392 
	C129.437119,175.231705 118.469177,165.930344 108.420959,155.764877 
	C104.853447,152.155731 102.186722,147.656189 99.038620,143.212250 
	C102.089470,139.293411 105.210495,135.725433 108.713989,132.380661 
	C110.611107,135.116043 111.680107,138.083191 113.708931,140.070419 
	C135.345367,161.263123 157.244431,182.188095 178.844711,203.417191 
	C195.249542,219.540115 213.086990,233.369156 235.096252,241.039917 
	C232.621323,243.637360 230.146378,246.234802 227.356140,248.972305 
z"/>
<path fill="#1EBE49" opacity="1.000000" stroke="none" 
	d="
M245.153992,784.409058 
	C256.658264,761.340942 267.174927,737.851562 280.410645,716.010010 
	C293.203339,694.899475 308.800079,675.488403 323.159180,655.326660 
	C326.103760,651.192139 329.022156,647.039062 331.971252,642.538452 
	C336.435822,643.726807 340.881805,645.271240 345.662964,646.991943 
	C341.323425,652.952087 336.677826,658.759827 331.968719,664.515564 
	C314.661499,685.669434 298.512848,707.700500 285.368195,731.660583 
	C275.217194,750.163696 266.472778,769.438416 257.033173,788.737183 
	C253.094147,787.639038 249.224945,786.173767 245.153992,784.409058 
z"/>
<path fill="#5CC214" opacity="1.000000" stroke="none" 
	d="
M152.957596,728.109741 
	C149.050446,724.978516 145.143311,721.847290 141.246582,718.088623 
	C151.676056,697.965088 161.928436,678.377380 172.583649,659.011292 
	C178.016830,649.136353 184.173279,639.659302 190.001404,630.001221 
	C190.000000,630.000000 190.002792,630.002441 190.368851,629.937561 
	C197.041275,627.299622 203.859985,625.546753 209.552368,621.990845 
	C223.415146,613.331055 238.458649,607.836243 253.937927,603.157288 
	C255.451767,602.699646 256.655762,601.216980 258.003571,600.210083 
	C260.589020,602.236938 263.174469,604.263794 265.655731,606.860474 
	C265.284485,607.627136 265.045532,607.901489 264.746399,608.009705 
	C252.450378,612.455994 240.159836,616.918274 227.826920,621.260193 
	C226.862198,621.599854 225.530762,621.283081 224.481445,620.934814 
	C217.653091,618.668457 215.943848,619.294250 211.810333,625.286560 
	C189.306091,657.910583 170.033966,692.380859 152.957596,728.109741 
z"/>
<path fill="#08AD93" opacity="1.000000" stroke="none" 
	d="
M530.528503,626.981140 
	C549.446106,651.263367 568.454285,675.243225 586.413086,699.984680 
	C600.480164,719.364685 613.247864,739.687866 626.846924,759.823120 
	C623.630127,762.280884 620.159241,764.507629 616.343628,766.785156 
	C607.553833,753.718018 599.496338,740.329773 590.574829,727.544312 
	C576.414246,707.250854 561.860413,687.223694 547.113098,667.350891 
	C538.415161,655.629944 529.023560,644.423706 519.673096,632.684937 
	C522.990417,630.591553 526.578613,628.799316 530.528503,626.981140 
z"/>
<path fill="#96C601" opacity="1.000000" stroke="none" 
	d="
M103.964348,681.119934 
	C100.310303,677.016357 96.656250,672.912781 93.128998,668.121704 
	C95.460960,662.044739 97.275139,656.453491 99.935318,651.298828 
	C116.091942,619.991821 141.301224,597.716125 172.044998,581.737610 
	C187.496307,573.707153 204.058075,567.813232 220.117661,560.953125 
	C222.002182,563.397156 223.886688,565.841187 225.672699,568.851807 
	C221.750076,570.987366 217.979050,572.704041 214.093201,574.101379 
	C188.216232,583.406006 164.338943,596.273804 143.870499,614.768250 
	C123.934464,632.781616 109.748505,654.482300 103.964348,681.119934 
z"/>
<path fill="#FF7527" opacity="1.000000" stroke="none" 
	d="
M125.958389,114.885704 
	C129.061890,111.924187 132.165390,108.962669 135.623489,106.372421 
	C136.691757,109.364632 136.662811,112.614975 138.253906,114.492310 
	C143.729828,120.953438 149.565659,127.146698 155.638504,133.057602 
	C171.852554,148.839264 188.054611,164.644424 204.664581,180.004272 
	C215.874725,190.370712 227.877243,199.875320 239.305557,210.013184 
	C244.036301,214.209763 250.557831,216.934830 252.041656,224.112732 
	C249.248230,226.688400 246.454803,229.264084 243.326019,231.609802 
	C240.777542,228.569901 238.930038,225.345810 236.292145,223.016968 
	C218.750122,207.530029 200.685974,192.617767 183.483810,176.767410 
	C166.852509,161.443100 150.925217,145.343109 134.977020,129.297256 
	C131.006897,125.302841 126.178619,121.416344 125.958389,114.885704 
z"/>
<path fill="#FF7C23" opacity="1.000000" stroke="none" 
	d="
M125.650650,115.023483 
	C126.178619,121.416344 131.006897,125.302841 134.977020,129.297256 
	C150.925217,145.343109 166.852509,161.443100 183.483810,176.767410 
	C200.685974,192.617767 218.750122,207.530029 236.292145,223.016968 
	C238.930038,225.345810 240.777542,228.569901 243.015625,231.748581 
	C241.245758,234.026260 239.450974,235.935226 237.168625,237.681473 
	C227.584961,230.340057 218.152939,223.543381 209.463135,215.902603 
	C191.742767,200.321442 174.243027,184.477356 157.001953,168.367477 
	C146.049362,158.133469 135.782257,147.168869 125.090073,136.651535 
	C121.360207,132.982666 117.808044,129.332077 116.954308,123.890083 
	C119.750511,120.980476 122.546707,118.070869 125.650650,115.023483 
z"/>
<path fill="#50C219" opacity="1.000000" stroke="none" 
	d="
M153.103424,728.416504 
	C170.033966,692.380859 189.306091,657.910583 211.810333,625.286560 
	C215.943848,619.294250 217.653091,618.668457 224.481445,620.934814 
	C225.530762,621.283081 226.862198,621.599854 227.826920,621.260193 
	C240.159836,616.918274 252.450378,612.455994 264.746399,608.009705 
	C265.045532,607.901489 265.284485,607.627136 265.804932,607.163086 
	C267.299835,607.701233 268.541290,608.506592 269.647156,609.850708 
	C267.789642,610.971741 266.076996,611.583130 264.344238,612.130981 
	C257.222717,614.382507 250.211563,617.151855 242.942413,618.728088 
	C232.115829,621.075867 226.051331,628.252747 220.749710,637.207703 
	C209.415253,656.352722 197.084595,674.920105 186.110519,694.262268 
	C178.262650,708.094360 171.956894,722.801331 164.963043,737.117981 
	C161.058441,734.319763 157.153839,731.521484 153.103424,728.416504 
z"/>
<path fill="#0BA3B3" opacity="1.000000" stroke="none" 
	d="
M568.656860,600.032471 
	C573.401184,605.833801 577.833008,611.781921 582.276917,617.721008 
	C597.080566,637.505493 612.175903,657.079956 626.609863,677.130493 
	C639.696045,695.308899 652.063293,714.004883 664.896729,732.787354 
	C662.273315,735.321838 659.500610,737.541809 656.419189,739.903320 
	C654.757080,738.391418 653.300110,736.811646 652.065979,735.073730 
	C629.854492,703.795349 607.787109,672.413696 585.417236,641.249207 
	C577.396790,630.075562 568.660461,619.415771 560.100891,608.207031 
	C562.750610,605.320068 565.550293,602.747620 568.656860,600.032471 
z"/>
<path fill="#FFB60C" opacity="1.000000" stroke="none" 
	d="
M189.911591,308.636414 
	C157.592850,293.598785 126.849930,275.721924 98.970749,253.245712 
	C82.509010,239.974289 67.265244,225.375549 53.121975,209.185425 
	C54.723328,205.683197 56.493000,202.476013 58.919098,199.183075 
	C61.106163,200.330734 62.921844,201.335297 64.123947,202.832520 
	C78.247742,220.423767 94.905708,235.364044 112.509598,249.319229 
	C137.659592,269.256500 165.113113,285.422516 194.116486,299.040039 
	C192.740753,302.117126 191.365021,305.194214 189.911591,308.636414 
z"/>
<path fill="#FFAD0F" opacity="1.000000" stroke="none" 
	d="
M71.571915,179.094421 
	C74.229340,181.257431 76.886597,183.317795 78.863495,185.899185 
	C93.589096,205.127609 110.854210,221.809280 129.764725,236.822708 
	C151.068192,253.735947 174.050461,268.000366 198.557297,279.813080 
	C200.025162,280.520599 201.310638,281.606445 202.865402,282.811401 
	C201.748138,285.520538 200.446457,287.934540 198.649429,290.601288 
	C182.300583,282.152252 165.877518,274.327820 150.750290,264.507324 
	C134.936615,254.241180 120.079674,242.414536 105.374489,230.562836 
	C97.552147,224.258423 90.831512,216.558517 83.806274,209.301971 
	C77.363998,202.647522 71.180534,195.742508 64.883034,188.947891 
	C67.007591,185.709610 69.132149,182.471329 71.571915,179.094421 
z"/>
<path fill="#B8C802" opacity="1.000000" stroke="none" 
	d="
M72.958939,642.115479 
	C70.640160,638.684448 68.321388,635.253479 66.147507,631.166748 
	C76.480118,615.039612 88.263237,601.039246 102.422966,588.933167 
	C122.303970,571.935608 144.217529,558.354187 168.226242,548.161255 
	C179.381912,543.425110 190.812607,539.336792 202.118607,534.954773 
	C203.684784,537.408997 205.250961,539.863159 206.632568,542.792664 
	C204.918472,543.912659 203.381302,544.539856 201.860626,545.204773 
	C185.144150,552.513550 168.078079,559.129822 151.811432,567.331421 
	C134.419342,576.100403 119.003426,587.935059 104.843399,601.479614 
	C92.222488,613.552002 82.343292,627.596863 72.958939,642.115479 
z"/>
<path fill="#74C30A" opacity="1.000000" stroke="none" 
	d="
M129.895172,708.049683 
	C127.005135,705.269775 124.115097,702.489807 121.237656,699.075928 
	C128.531815,684.416992 135.850937,670.411316 143.078583,656.358704 
	C146.518982,649.669495 152.061752,645.480530 158.587006,642.090454 
	C162.062088,640.284973 165.415512,637.917542 168.204727,635.174255 
	C183.504364,620.126770 201.345520,609.040222 221.052567,600.867981 
	C229.632751,597.309814 238.416397,594.242310 247.107635,590.951965 
	C249.678101,593.085266 252.248596,595.218567 254.587540,597.729614 
	C236.958801,602.895020 220.111618,609.086487 204.770752,618.727112 
	C199.548553,622.008911 194.908722,626.217407 190.002777,630.002441 
	C190.002792,630.002441 190.000000,630.000000 189.638519,630.066101 
	C186.628540,631.107056 184.003677,632.152893 181.327011,633.043030 
	C174.368332,635.357239 168.659836,638.915588 165.022156,645.788940 
	C155.083099,664.568665 144.798172,683.166138 134.551865,701.781677 
	C133.308304,704.040955 131.462097,705.968445 129.895172,708.049683 
z"/>
<path fill="#FF8320" opacity="1.000000" stroke="none" 
	d="
M116.647118,124.026482 
	C117.808044,129.332077 121.360207,132.982666 125.090073,136.651535 
	C135.782257,147.168869 146.049362,158.133469 157.001953,168.367477 
	C174.243027,184.477356 191.742767,200.321442 209.463135,215.902603 
	C218.152939,223.543381 227.584961,230.340057 236.864334,237.813507 
	C236.586426,239.003143 236.125259,239.897995 235.380173,240.916382 
	C213.086990,233.369156 195.249542,219.540115 178.844711,203.417191 
	C157.244431,182.188095 135.345367,161.263123 113.708931,140.070419 
	C111.680107,138.083191 110.611107,135.116043 109.029160,132.239502 
	C111.421211,129.304382 113.880569,126.733635 116.647118,124.026482 
z"/>
<path fill="#FFB20D" opacity="1.000000" stroke="none" 
	d="
M64.569717,189.102844 
	C71.180534,195.742508 77.363998,202.647522 83.806274,209.301971 
	C90.831512,216.558517 97.552147,224.258423 105.374489,230.562836 
	C120.079674,242.414536 134.936615,254.241180 150.750290,264.507324 
	C165.877518,274.327820 182.300583,282.152252 198.497955,290.923828 
	C197.474518,293.573029 196.107239,296.152405 194.428223,298.885925 
	C165.113113,285.422516 137.659592,269.256500 112.509598,249.319229 
	C94.905708,235.364044 78.247742,220.423767 64.123947,202.832520 
	C62.921844,201.335297 61.106163,200.330734 59.230652,199.027237 
	C60.675983,195.724060 62.466198,192.490921 64.569717,189.102844 
z"/>
<path fill="#48C11F" opacity="1.000000" stroke="none" 
	d="
M165.107910,737.420288 
	C171.956894,722.801331 178.262650,708.094360 186.110519,694.262268 
	C197.084595,674.920105 209.415253,656.352722 220.749710,637.207703 
	C226.051331,628.252747 232.115829,621.075867 242.942413,618.728088 
	C250.211563,617.151855 257.222717,614.382507 264.344238,612.130981 
	C266.076996,611.583130 267.789642,610.971741 269.786926,610.142029 
	C271.945618,611.032654 273.828949,612.170776 275.884033,613.595398 
	C270.642578,615.586182 265.150360,618.908142 259.833008,618.648560 
	C249.646591,618.151367 243.599731,622.603149 238.229324,630.454651 
	C221.507233,654.902405 205.478012,679.747742 191.939972,706.131104 
	C185.720413,718.251953 179.512421,730.378784 173.125946,742.807129 
	C170.386063,741.315186 167.819397,739.518921 165.107910,737.420288 
z"/>
<path fill="#A2C600" opacity="1.000000" stroke="none" 
	d="
M219.968124,560.642883 
	C204.058075,567.813232 187.496307,573.707153 172.044998,581.737610 
	C141.301224,597.716125 116.091942,619.991821 99.935318,651.298828 
	C97.275139,656.453491 95.460960,662.044739 93.103378,667.773132 
	C90.302277,665.009705 87.653587,661.907410 85.131676,658.133240 
	C96.827347,631.500793 114.648750,610.568726 137.191727,593.583740 
	C158.068329,577.854309 181.107803,566.172485 205.867752,557.799866 
	C208.893234,556.776794 211.566315,554.711487 214.402710,553.129211 
	C216.207993,555.530334 218.013290,557.931519 219.968124,560.642883 
z"/>
<path fill="#1298D1" opacity="1.000000" stroke="none" 
	d="
M600.578125,564.096313 
	C606.702271,570.971497 612.876831,577.720703 618.270691,585.044922 
	C644.985474,621.320312 671.488586,657.751587 698.097778,694.104797 
	C699.065735,695.427246 700.362854,696.508667 701.803467,697.874146 
	C699.969421,700.291565 697.838379,702.537292 695.114807,704.736084 
	C694.164062,704.343872 693.744690,704.043091 693.456116,703.647034 
	C667.203674,667.621704 641.065491,631.512390 614.639954,595.614685 
	C608.561157,587.356873 601.498169,579.823669 594.888123,571.956970 
	C596.681641,569.383118 598.475098,566.809265 600.578125,564.096313 
z"/>
<path fill="#FF6F29" opacity="1.000000" stroke="none" 
	d="
M252.350754,223.975189 
	C250.557831,216.934830 244.036301,214.209763 239.305557,210.013184 
	C227.877243,199.875320 215.874725,190.370712 204.664581,180.004272 
	C188.054611,164.644424 171.852554,148.839264 155.638504,133.057602 
	C149.565659,127.146698 143.729828,120.953438 138.253906,114.492310 
	C136.662811,112.614975 136.691757,109.364632 135.969696,106.312958 
	C138.088455,103.638016 140.215637,101.393791 142.649811,99.014816 
	C142.182663,104.296242 144.419479,108.160683 148.298004,111.983002 
	C160.267715,123.779251 171.348557,136.507416 183.652740,147.927536 
	C203.735229,166.567108 224.492661,184.480499 245.012421,202.647079 
	C248.616577,205.837936 252.611465,208.599152 256.101227,211.901840 
	C257.519165,213.243774 258.069763,215.502151 259.027161,217.730560 
	C256.912811,220.024277 254.786316,221.930969 252.350754,223.975189 
z"/>
<path fill="#ABC701" opacity="1.000000" stroke="none" 
	d="
M214.227356,552.873901 
	C211.566315,554.711487 208.893234,556.776794 205.867752,557.799866 
	C181.107803,566.172485 158.068329,577.854309 137.191727,593.583740 
	C114.648750,610.568726 96.827347,631.500793 85.105148,657.783386 
	C82.358299,654.959412 79.764755,651.813416 77.373505,648.279541 
	C78.585602,646.860352 79.878822,645.988708 80.562523,644.773926 
	C90.178955,627.688416 102.097389,612.564636 116.845642,599.498657 
	C135.613708,582.871338 156.729080,570.148010 179.515274,560.070557 
	C189.529816,555.641541 199.861740,551.930115 210.049561,547.892883 
	C211.383713,549.468140 212.717850,551.043335 214.227356,552.873901 
z"/>
<path fill="#8BC502" opacity="1.000000" stroke="none" 
	d="
M116.961792,695.107544 
	C114.363457,692.621887 111.765121,690.136230 109.378647,687.234314 
	C110.405251,685.288757 111.488289,683.840210 111.977608,682.213013 
	C112.930832,679.043274 113.348824,675.709778 114.341766,672.555237 
	C122.670044,646.097107 139.086121,625.526672 160.978287,609.032166 
	C180.140747,594.594360 201.336472,584.108826 224.129715,576.713440 
	C226.287460,576.013245 228.078156,574.181824 230.039246,572.875549 
	C231.966675,575.032715 233.894119,577.189880 235.633987,579.807617 
	C232.021790,581.546509 228.621674,582.895630 225.168610,584.091919 
	C196.643188,593.973816 170.701263,608.105042 150.009369,630.563660 
	C135.749832,646.040649 125.126701,663.745911 118.980545,684.399414 
	C118.291840,688.233154 117.626816,691.670349 116.961792,695.107544 
z"/>
<path fill="#1099CD" opacity="1.000000" stroke="none" 
	d="
M594.578857,572.096802 
	C601.498169,579.823669 608.561157,587.356873 614.639954,595.614685 
	C641.065491,631.512390 667.203674,667.621704 693.456116,703.647034 
	C693.744690,704.043091 694.164062,704.343872 694.813232,704.869812 
	C693.304077,706.962158 691.503967,708.873779 689.106812,710.744751 
	C687.713440,709.868347 686.809326,709.111145 686.136292,708.185852 
	C659.274719,671.255981 632.507080,634.257446 605.522217,597.418030 
	C600.769104,590.929077 595.118774,585.097473 589.882751,578.962280 
	C591.345032,576.720398 592.807373,574.478577 594.578857,572.096802 
z"/>
<path fill="#DBCA03" opacity="1.000000" stroke="none" 
	d="
M42.991272,591.471924 
	C56.105503,579.415222 68.666504,566.960205 82.531944,556.183411 
	C106.338486,537.679932 133.209396,524.407471 161.359894,513.768555 
	C169.607803,510.651398 178.024246,507.980225 186.740692,505.033691 
	C188.079361,507.053009 189.040787,509.143341 189.682404,511.669037 
	C164.465790,519.733398 140.539948,529.630676 117.892128,542.550354 
	C95.078789,555.564392 74.464943,571.396240 56.188419,590.276123 
	C53.227821,593.334473 49.995575,596.129883 46.888901,599.046814 
	C45.600918,596.640747 44.312943,594.234680 42.991272,591.471924 
z"/>
<path fill="#0E9BC8" opacity="1.000000" stroke="none" 
	d="
M589.593445,579.083191 
	C595.118774,585.097473 600.769104,590.929077 605.522217,597.418030 
	C632.507080,634.257446 659.274719,671.255981 686.136292,708.185852 
	C686.809326,709.111145 687.713440,709.868347 688.807129,710.877319 
	C687.304321,712.962097 685.504150,714.873474 683.107300,716.744751 
	C676.933777,708.867249 671.466003,700.949585 665.761108,693.206604 
	C642.220459,661.256165 618.564453,629.390625 595.070496,597.405945 
	C591.697449,592.813843 588.979553,587.740540 585.958435,582.889954 
	C587.073669,581.661316 588.188904,580.432739 589.593445,579.083191 
z"/>
<path fill="#26BF3F" opacity="1.000000" stroke="none" 
	d="
M316.336243,636.297180 
	C312.773499,640.835327 308.679565,644.967957 305.124084,649.521057 
	C285.143829,675.107178 266.826538,701.821045 251.756241,730.624512 
	C244.515564,744.463440 237.880615,758.618774 230.913162,772.601929 
	C230.343994,773.744202 229.325211,774.662476 228.212860,775.864319 
	C226.045090,775.260315 224.179810,774.476807 222.211823,773.045349 
	C222.750626,771.052734 223.426437,769.723206 224.028625,768.361145 
	C236.549377,740.042297 251.011490,712.730469 268.436188,687.151428 
	C281.036987,668.653748 294.799774,650.947693 308.044373,632.888672 
	C310.714172,633.954407 313.383942,635.020142 316.336243,636.297180 
z"/>
<path fill="#0D9DC4" opacity="1.000000" stroke="none" 
	d="
M585.649536,583.035645 
	C588.979553,587.740540 591.697449,592.813843 595.070496,597.405945 
	C618.564453,629.390625 642.220459,661.256165 665.761108,693.206604 
	C671.466003,700.949585 676.933777,708.867249 682.807861,716.877930 
	C681.639465,718.626343 680.173645,720.201416 678.412720,721.907043 
	C676.627258,720.836182 674.774658,719.894348 673.699768,718.394897 
	C651.438843,687.342407 629.392517,656.135315 607.006775,625.173523 
	C599.332397,614.559082 590.843933,604.533691 582.752075,594.219727 
	C581.835449,593.051392 581.080322,591.756348 580.100952,590.206238 
	C581.747925,587.655396 583.544250,585.418396 585.649536,583.035645 
z"/>
<path fill="#28BF3C" opacity="1.000000" stroke="none" 
	d="
M307.861298,632.595093 
	C294.799774,650.947693 281.036987,668.653748 268.436188,687.151428 
	C251.011490,712.730469 236.549377,740.042297 224.028625,768.361145 
	C223.426437,769.723206 222.750626,771.052734 222.033356,772.755554 
	C219.723572,771.956055 217.489502,770.798340 215.075348,769.345154 
	C217.952484,762.991455 221.076462,756.965881 224.056122,750.869751 
	C244.111511,709.838501 267.860291,671.144836 296.708038,635.654175 
	C298.126434,633.909180 298.908813,631.647217 300.013550,629.254517 
	C302.585907,630.022522 305.132050,631.162048 307.861298,632.595093 
z"/>
<path fill="#91C501" opacity="1.000000" stroke="none" 
	d="
M229.910614,572.586365 
	C228.078156,574.181824 226.287460,576.013245 224.129715,576.713440 
	C201.336472,584.108826 180.140747,594.594360 160.978287,609.032166 
	C139.086121,625.526672 122.670044,646.097107 114.341766,672.555237 
	C113.348824,675.709778 112.930832,679.043274 111.977608,682.213013 
	C111.488289,683.840210 110.405251,685.288757 109.237045,686.928955 
	C107.331757,685.268860 105.779938,683.497864 104.096230,681.423340 
	C109.748505,654.482300 123.934464,632.781616 143.870499,614.768250 
	C164.338943,596.273804 188.216232,583.406006 214.093201,574.101379 
	C217.979050,572.704041 221.750076,570.987366 225.813614,569.157959 
	C227.296005,570.030701 228.538986,571.163940 229.910614,572.586365 
z"/>
<path fill="#7BC408" opacity="1.000000" stroke="none" 
	d="
M117.086884,695.399780 
	C117.626816,691.670349 118.291840,688.233154 119.307983,684.301392 
	C121.219200,681.311035 123.026123,678.934143 124.296539,676.298645 
	C129.681259,665.127869 135.398483,654.279968 146.669540,647.707336 
	C147.771713,647.064636 148.624771,645.898010 149.423080,644.845337 
	C163.239365,626.627136 180.682632,612.633179 201.063828,602.689453 
	C214.312729,596.225403 228.396561,591.472778 242.106323,585.953369 
	C243.681198,587.422424 245.256058,588.891479 246.969284,590.656250 
	C238.416397,594.242310 229.632751,597.309814 221.052567,600.867981 
	C201.345520,609.040222 183.504364,620.126770 168.204727,635.174255 
	C165.415512,637.917542 162.062088,640.284973 158.587006,642.090454 
	C152.061752,645.480530 146.518982,649.669495 143.078583,656.358704 
	C135.850937,670.411316 128.531815,684.416992 121.099602,698.774902 
	C119.703308,697.969299 118.457649,696.830688 117.086884,695.399780 
z"/>
<path fill="#82C405" opacity="1.000000" stroke="none" 
	d="
M241.965668,585.653564 
	C228.396561,591.472778 214.312729,596.225403 201.063828,602.689453 
	C180.682632,612.633179 163.239365,626.627136 149.423080,644.845337 
	C148.624771,645.898010 147.771713,647.064636 146.669540,647.707336 
	C135.398483,654.279968 129.681259,665.127869 124.296539,676.298645 
	C123.026123,678.934143 121.219200,681.311035 119.331657,683.904846 
	C125.126701,663.745911 135.749832,646.040649 150.009369,630.563660 
	C170.701263,608.105042 196.643188,593.973816 225.168610,584.091919 
	C228.621674,582.895630 232.021790,581.546509 235.777786,580.111206 
	C238.014420,581.754089 239.919693,583.553894 241.965668,585.653564 
z"/>
<path fill="#D6CA03" opacity="1.000000" stroke="none" 
	d="
M46.942440,599.401733 
	C49.995575,596.129883 53.227821,593.334473 56.188419,590.276123 
	C74.464943,571.396240 95.078789,555.564392 117.892128,542.550354 
	C140.539948,529.630676 164.465790,519.733398 189.739807,512.033386 
	C191.006989,513.417419 191.896988,514.872498 192.811447,516.662048 
	C173.577469,524.821411 153.855865,531.685791 135.169205,540.696533 
	C107.240158,554.163940 82.497948,572.455933 61.266262,595.247803 
	C57.995575,598.758789 54.779785,602.321045 51.209007,605.951599 
	C49.584930,603.947998 48.290455,601.852356 46.942440,599.401733 
z"/>
<path fill="#B3C701" opacity="1.000000" stroke="none" 
	d="
M210.020844,547.554810 
	C199.861740,551.930115 189.529816,555.641541 179.515274,560.070557 
	C156.729080,570.148010 135.613708,582.871338 116.845642,599.498657 
	C102.097389,612.564636 90.178955,627.688416 80.562523,644.773926 
	C79.878822,645.988708 78.585602,646.860352 77.228783,647.965942 
	C75.661987,646.270691 74.442192,644.500977 73.090668,642.423401 
	C82.343292,627.596863 92.222488,613.552002 104.843399,601.479614 
	C119.003426,587.935059 134.419342,576.100403 151.811432,567.331421 
	C168.078079,559.129822 185.144150,552.513550 201.860626,545.204773 
	C203.381302,544.539856 204.918472,543.912659 206.779358,543.111206 
	C208.071198,544.375244 209.031662,545.796021 210.020844,547.554810 
z"/>
<path fill="#C3C903" opacity="1.000000" stroke="none" 
	d="
M202.061935,534.615356 
	C190.812607,539.336792 179.381912,543.425110 168.226242,548.161255 
	C144.217529,558.354187 122.303970,571.935608 102.422966,588.933167 
	C88.263237,601.039246 76.480118,615.039612 66.122086,630.811523 
	C64.298584,628.660461 62.645386,626.208923 60.940720,623.399902 
	C64.924263,618.500916 69.222832,614.164551 72.945244,609.379944 
	C84.478043,594.556091 98.718803,582.717529 113.804115,571.808105 
	C137.980942,554.323914 164.599197,541.707092 192.908295,532.509460 
	C194.797028,531.895813 196.601059,531.021362 198.775711,530.111633 
	C200.073044,531.395325 201.039154,532.835632 202.061935,534.615356 
z"/>
<path fill="#6AC30E" opacity="1.000000" stroke="none" 
	d="
M190.368835,629.937561 
	C194.908722,626.217407 199.548553,622.008911 204.770752,618.727112 
	C220.111618,609.086487 236.958801,602.895020 254.737396,598.035278 
	C255.898331,598.615601 256.677856,599.268005 257.730469,600.065308 
	C256.655762,601.216980 255.451767,602.699646 253.937927,603.157288 
	C238.458649,607.836243 223.415146,613.331055 209.552368,621.990845 
	C203.859985,625.546753 197.041275,627.299622 190.368835,629.937561 
z"/>
<path fill="#FFC20B" opacity="1.000000" stroke="none" 
	d="
M43.711906,225.973831 
	C43.840424,226.164017 43.683552,226.421783 43.328339,226.816589 
	C43.265789,226.672028 43.364628,226.367966 43.711906,225.973831 
z"/>
<path fill="#6AC30E" opacity="1.000000" stroke="none" 
	d="
M130.040207,708.355896 
	C131.462097,705.968445 133.308304,704.040955 134.551865,701.781677 
	C144.798172,683.166138 155.083099,664.568665 165.022156,645.788940 
	C168.659836,638.915588 174.368332,635.357239 181.327011,633.043030 
	C184.003677,632.152893 186.628540,631.107056 189.639923,630.067322 
	C184.173279,639.659302 178.016830,649.136353 172.583649,659.011292 
	C161.928436,678.377380 151.676056,697.965088 141.102814,717.782959 
	C137.360840,714.957153 133.773041,711.809631 130.040207,708.355896 
z"/>
<path fill="#12BC58" opacity="1.000000" stroke="none" 
	d="
M272.971039,795.276001 
	C273.156372,795.155579 273.416962,795.313965 273.810791,795.680542 
	C273.670837,795.734558 273.371582,795.623291 272.971039,795.276001 
z"/>
</svg>