<?xml version="1.0" encoding="utf-8"?>
<!-- Uploaded to: SVG Repo, www.svgrepo.com, Generator: SVG Repo Mixer Tools -->
<svg fill="#000000" width="800px" height="800px" viewBox="0 0 32 32" version="1.1" xmlns="http://www.w3.org/2000/svg">
<title>metabase</title>
<path d="M26.063 22.232c-0.009-0-0.019-0-0.029-0-1.008 0-1.826 0.818-1.826 1.826s0.818 1.826 1.826 1.826c1.008 0 1.826-0.818 1.826-1.826 0-0 0-0 0-0v0c0-0.004 0-0.009 0-0.014 0-0.995-0.803-1.803-1.796-1.812h-0.001zM22.391 24.058c-0.016-0.739-0.619-1.332-1.36-1.332-0.751 0-1.36 0.609-1.36 1.36s0.609 1.36 1.36 1.36c0 0 0 0 0 0v0c0.753-0.009 1.36-0.621 1.36-1.375 0-0.005-0-0.009-0-0.014v0.001zM22.828 24.058c-0.016 0.98-0.814 1.769-1.797 1.769-0.993 0-1.797-0.805-1.797-1.797s0.805-1.797 1.797-1.797v0c0.994 0.008 1.797 0.816 1.797 1.812 0 0.005-0 0.010-0 0.015v-0.001zM17.36 29.17c-0.016-0.739-0.619-1.332-1.36-1.332-0.751 0-1.36 0.609-1.36 1.36s0.609 1.36 1.36 1.36c0 0 0 0 0 0v0c0.753-0.009 1.36-0.621 1.36-1.375 0-0.005-0-0.009-0-0.014v0.001zM17.797 29.17c-0.016 0.98-0.814 1.769-1.797 1.769-0.993 0-1.797-0.805-1.797-1.797s0.805-1.797 1.797-1.797v0c0.994 0.008 1.797 0.816 1.797 1.812 0 0.005-0 0.010-0 0.015v-0.001zM17.36 24.058c-0.016-0.739-0.619-1.332-1.36-1.332-0.751 0-1.36 0.609-1.36 1.36s0.609 1.36 1.36 1.36c0 0 0 0 0 0v0c0.753-0.009 1.36-0.621 1.36-1.375 0-0.005-0-0.009-0-0.014v0.001zM17.797 24.058c-0.016 0.98-0.814 1.769-1.797 1.769-0.993 0-1.797-0.805-1.797-1.797s0.805-1.797 1.797-1.797v0c0.994 0.008 1.797 0.816 1.797 1.812 0 0.005-0 0.010-0 0.015v-0.001zM12.329 24.058c-0.016-0.739-0.619-1.332-1.36-1.332-0.751 0-1.36 0.609-1.36 1.36s0.609 1.36 1.36 1.36c0 0 0 0 0 0v0c0.753-0.009 1.36-0.621 1.36-1.375 0-0.005-0-0.009-0-0.014v0.001zM12.766 24.058c-0.016 0.98-0.814 1.769-1.797 1.769-0.993 0-1.797-0.805-1.797-1.797s0.805-1.797 1.797-1.797v0c0.994 0.008 1.797 0.816 1.797 1.812 0 0.005-0 0.010-0 0.015v-0.001zM5.937 22.183c-0.009-0-0.019-0-0.029-0-1.008 0-1.826 0.818-1.826 1.826s0.818 1.826 1.826 1.826c1.008 0 1.826-0.818 1.826-1.826 0-0 0-0 0-0v0c0-0.004 0-0.009 0-0.014 0-0.995-0.803-1.803-1.796-1.812h-0.001zM26.063 17.12c-0.009-0-0.019-0-0.029-0-1.008 0-1.826 0.818-1.826 1.826s0.818 1.826 1.826 1.826c1.008 0 1.826-0.818 1.826-1.826 0-0 0-0 0-0v0c0-0.004 0-0.009 0-0.014 0-0.995-0.803-1.803-1.796-1.812h-0.001zM22.391 18.945c-0.016-0.739-0.619-1.332-1.36-1.332-0.751 0-1.36 0.609-1.36 1.36s0.609 1.36 1.36 1.36c0 0 0 0 0 0v0c0.753-0.009 1.36-0.621 1.36-1.375 0-0.005-0-0.009-0-0.014v0.001zM22.828 18.945c-0.016 0.98-0.814 1.769-1.797 1.769-0.993 0-1.797-0.805-1.797-1.797s0.805-1.797 1.797-1.797v0c0.994 0.008 1.797 0.816 1.797 1.812 0 0.005-0 0.010-0 0.015v-0.001zM16 17.12c-0.009-0-0.019-0-0.029-0-1.008 0-1.826 0.818-1.826 1.826s0.818 1.826 1.826 1.826c1.008 0 1.826-0.818 1.826-1.826 0-0 0-0 0-0v0c0-0.004 0-0.009 0-0.014 0-0.995-0.803-1.803-1.796-1.812h-0.001zM12.329 18.945c-0.016-0.739-0.619-1.332-1.36-1.332-0.751 0-1.36 0.609-1.36 1.36s0.609 1.36 1.36 1.36c0 0 0 0 0 0v0c0.753-0.009 1.36-0.621 1.36-1.375 0-0.005-0-0.009-0-0.014v0.001zM12.766 18.945c-0.016 0.98-0.814 1.769-1.797 1.769-0.993 0-1.797-0.805-1.797-1.797s0.805-1.797 1.797-1.797v0c0.994 0.008 1.797 0.816 1.797 1.812 0 0.005-0 0.010-0 0.015v-0.001zM5.937 17.071c-0.004-0-0.010-0-0.015-0-1.001 0-1.812 0.811-1.812 1.812s0.811 1.812 1.812 1.812c1.001 0 1.812-0.811 1.812-1.812 0-0.495-0.199-0.944-0.521-1.271l0 0c-0.325-0.331-0.776-0.537-1.276-0.541h-0.001zM26.063 12.009c-0.009-0-0.019-0-0.029-0-1.008 0-1.826 0.818-1.826 1.826s0.818 1.826 1.826 1.826c1.008 0 1.826-0.818 1.826-1.826 0-0 0-0 0-0v0c0-0.004 0-0.009 0-0.014 0-0.995-0.803-1.803-1.796-1.812h-0.001zM21.031 12.009c-0.009-0-0.019-0-0.029-0-1.008 0-1.826 0.818-1.826 1.826s0.818 1.826 1.826 1.826c1.008 0 1.826-0.818 1.826-1.826 0-0 0-0 0-0v0c0-0.004 0-0.009 0-0.014 0-0.995-0.803-1.803-1.796-1.812h-0.001zM26.063 10.498c0.009 0 0.019 0 0.029 0 1.008 0 1.826-0.818 1.826-1.826s-0.818-1.826-1.826-1.826c-1.008 0-1.826 0.818-1.826 1.826 0 0 0 0 0 0v0c-0 0.004-0 0.009-0 0.014 0 0.995 0.803 1.803 1.796 1.812h0.001zM22.391 8.672c-0.016-0.739-0.619-1.332-1.36-1.332-0.751 0-1.36 0.609-1.36 1.36s0.609 1.36 1.36 1.36c0 0 0 0 0 0v0c0.753-0.009 1.36-0.621 1.36-1.375 0-0.005-0-0.009-0-0.014v0.001zM22.828 8.672c-0.016 0.98-0.814 1.769-1.797 1.769-0.993 0-1.797-0.805-1.797-1.797s0.805-1.797 1.797-1.797v0c0.994 0.008 1.797 0.816 1.797 1.812 0 0.005-0 0.010-0 0.015v-0.001zM17.36 13.834c-0.016-0.739-0.619-1.332-1.36-1.332-0.751 0-1.36 0.609-1.36 1.36s0.609 1.36 1.36 1.36c0 0 0 0 0 0v0c0.753-0.009 1.36-0.621 1.36-1.375 0-0.005-0-0.009-0-0.014v0.001zM17.797 13.834c-0.016 0.98-0.814 1.769-1.797 1.769-0.993 0-1.797-0.805-1.797-1.797s0.805-1.797 1.797-1.797v0c0.994 0.008 1.797 0.816 1.797 1.812 0 0.005-0 0.010-0 0.015v-0.001zM17.36 2.83c-0.016-0.739-0.619-1.332-1.36-1.332-0.751 0-1.36 0.609-1.36 1.36s0.609 1.36 1.36 1.36c0 0 0 0 0 0v0c0.753-0.009 1.36-0.621 1.36-1.375 0-0.005-0-0.009-0-0.014v0.001zM17.797 2.83c0 0.008 0 0.017 0 0.027 0 0.993-0.805 1.797-1.797 1.797s-1.797-0.805-1.797-1.797c0-0.009 0-0.019 0-0.028l-0 0.001c-0-0.008-0-0.017-0-0.027 0-0.993 0.805-1.797 1.797-1.797s1.797 0.805 1.797 1.797c0 0.009-0 0.019-0 0.028l0-0.001zM17.36 8.672c-0.016-0.739-0.619-1.332-1.36-1.332-0.751 0-1.36 0.609-1.36 1.36s0.609 1.36 1.36 1.36c0 0 0 0 0 0v0c0.753-0.009 1.36-0.621 1.36-1.375 0-0.005-0-0.009-0-0.014v0.001zM17.797 8.672c-0.016 0.98-0.814 1.769-1.797 1.769-0.993 0-1.797-0.805-1.797-1.797s0.805-1.797 1.797-1.797v0c0.994 0.008 1.797 0.816 1.797 1.812 0 0.005-0 0.010-0 0.015v-0.001zM10.969 15.66c0.009 0 0.019 0 0.029 0 1.008 0 1.826-0.818 1.826-1.826s-0.818-1.826-1.826-1.826c-1.008 0-1.826 0.818-1.826 1.826 0 0 0 0 0 0v0c-0 0.004-0 0.009-0 0.014 0 0.995 0.803 1.803 1.796 1.812h0.001zM12.329 8.672c-0.016-0.739-0.619-1.332-1.36-1.332-0.751 0-1.36 0.609-1.36 1.36s0.609 1.36 1.36 1.36c0 0 0 0 0 0v0c0.753-0.009 1.36-0.621 1.36-1.375 0-0.005-0-0.009-0-0.014v0.001zM12.766 8.672c-0.016 0.98-0.814 1.769-1.797 1.769-0.993 0-1.797-0.805-1.797-1.797s0.805-1.797 1.797-1.797v0c0.994 0.008 1.797 0.816 1.797 1.812 0 0.005-0 0.010-0 0.015v-0.001zM5.937 11.959c-0.009-0-0.019-0-0.029-0-1.008 0-1.826 0.818-1.826 1.826s0.818 1.826 1.826 1.826c1.008 0 1.826-0.818 1.826-1.826 0-0 0-0 0-0v0c0-0.004 0-0.009 0-0.014 0-0.995-0.803-1.803-1.796-1.812h-0.001zM7.734 8.672c-0.016 0.98-0.814 1.769-1.797 1.769-0.993 0-1.797-0.805-1.797-1.797s0.805-1.797 1.797-1.797v0c0.994 0.008 1.797 0.816 1.797 1.812 0 0.005-0 0.010-0 0.015v-0.001z"></path>
</svg>