<svg width="27" height="24" viewBox="0 0 27 24" fill="none" xmlns="http://www.w3.org/2000/svg">
<rect x="14.4706" y="20.7151" width="12.7935" height="4.58823" transform="rotate(-53.5 14.4706 20.7151)" fill="#DEDFE2"/>
<rect x="14.3647" y="2.29411" width="4.58823" height="19.5882" fill="url(#paint0_linear_201_20)"/>
<rect x="0.370575" y="20.4516" width="24.442" height="4.58823" transform="rotate(-53.5 0.370575 20.4516)" fill="#DEDFE2"/>
<ellipse cx="2.29412" cy="21.7059" rx="2.29412" ry="2.29412" fill="url(#paint1_linear_201_20)"/>
<ellipse cx="9.59999" cy="11.8235" rx="2.29412" ry="2.29412" fill="url(#paint2_linear_201_20)"/>
<ellipse cx="16.6588" cy="2.29412" rx="2.29412" ry="2.29412" fill="url(#paint3_linear_201_20)"/>
<ellipse cx="23.8941" cy="11.8235" rx="2.29412" ry="2.29412" fill="url(#paint4_linear_201_20)"/>
<ellipse cx="16.6588" cy="21.7059" rx="2.29412" ry="2.29412" fill="url(#paint5_linear_201_20)"/>
<defs>
<linearGradient id="paint0_linear_201_20" x1="16.6588" y1="2.29411" x2="16.6588" y2="21.8823" gradientUnits="userSpaceOnUse">
<stop stop-color="#878B9B"/>
<stop offset="1" stop-color="#D9DADE"/>
</linearGradient>
<linearGradient id="paint1_linear_201_20" x1="0" y1="21.7059" x2="4.58823" y2="21.7059" gradientUnits="userSpaceOnUse">
<stop stop-color="#525A62"/>
<stop offset="1" stop-color="#4B525B"/>
</linearGradient>
<linearGradient id="paint2_linear_201_20" x1="7.30588" y1="11.8235" x2="11.8941" y2="11.8235" gradientUnits="userSpaceOnUse">
<stop stop-color="#454B54"/>
<stop offset="1" stop-color="#3E434B"/>
</linearGradient>
<linearGradient id="paint3_linear_201_20" x1="14.3647" y1="2.29412" x2="18.9529" y2="2.29412" gradientUnits="userSpaceOnUse">
<stop stop-color="#393D45"/>
<stop offset="1" stop-color="#31353D"/>
</linearGradient>
<linearGradient id="paint4_linear_201_20" x1="21.6" y1="11.8235" x2="26.1882" y2="11.8235" gradientUnits="userSpaceOnUse">
<stop stop-color="#2B2E36"/>
<stop offset="1" stop-color="#24262E"/>
</linearGradient>
<linearGradient id="paint5_linear_201_20" x1="14.3647" y1="21.7059" x2="18.9529" y2="21.7059" gradientUnits="userSpaceOnUse">
<stop stop-color="#393E45"/>
<stop offset="1" stop-color="#31353D"/>
</linearGradient>
</defs>
</svg>
