<?xml version="1.0" encoding="UTF-8"?>
<svg id="Calque_2" xmlns="http://www.w3.org/2000/svg" version="1.1" viewBox="0 0 80 80">
  <g>
    <path d="M32.6,38.9c-2.7,0-5.1,2.3-5.1,5.1s.5,2.5,1.3,3.4l-2.3,5.5h-.2c-2.8,0-5.1,2.3-5.1,5.1s2.3,5.1,5.1,5.1,5.1-2.3,5.1-5.1-1-3.4-2.4-4.3l2.1-4.8c.5.2,1,.3,1.6.3,2,0,3.7-1.2,4.6-2.9l5.7,1.3c.5,2.3,2.5,4.1,5,4.1s5.1-2.3,5.1-5.1-.7-2.9-1.7-3.8l2.5-6.4h.5c2.8,0,5.1-2.3,5.1-5.1s-2.3-5.1-5.1-5.1h-.2c-2.8-.1-5.1,2.2-5.1,5s.9,3.3,2.2,4.2l-2.4,6.1c-.3,0-.7,0-1,0-2.2,0-4.1,1.5-4.8,3.5l-5.4-1.2c-.2-2.7-2.4-4.8-5.1-4.8ZM26.2,60.4c-1.4,0-2.5-1.1-2.5-2.5s1.1-2.5,2.5-2.5,2.5,1.1,2.5,2.5-1.1,2.5-2.5,2.5ZM32.5,46.4c-1.4,0-2.5-1.1-2.5-2.5s1.1-2.5,2.5-2.5,2.5,1.1,2.5,2.5-1.1,2.5-2.5,2.5ZM54.2,28.7c1.4,0,2.5,1.1,2.5,2.5s-1.1,2.5-2.5,2.5-2.5-1.1-2.5-2.5,1.1-2.5,2.5-2.5ZM47.8,43.9c1.4,0,2.5,1.1,2.5,2.5s-1.1,2.5-2.5,2.5-2.5-1.1-2.5-2.5,1.1-2.5,2.5-2.5Z"/>
    <path d="M26.3,63.3c-2.9,0-5.3-2.4-5.3-5.3s2.4-5.3,5.3-5.3h0l2.2-5.2c-.1-.1-.2-.2-.3-.3-.6-.5-.9-.9-.9-3.1s2.5-5.4,5.4-5.4,5,2.1,5.3,4.8l5,1.1c.8-2.1,2.8-3.5,5-3.5s.3,0,.5,0c.1,0,.2,0,.3,0l2.3-5.7c-1.2-.9-2.1-1.5-2.1-4.3s2.4-5.4,5.4-5.4h.1s.1.1.1.1c2.9,0,5.3,2.4,5.3,5.3s-2.4,5.4-5.3,5.4h-.3l-2.4,6.1c0,0,.2.2.3.2.8.7,1.4,1.1,1.4,3.6s-2.8,5.4-5.3,5.4-4.6-1.7-5.2-4.1l-5.4-1.2c-1,1.8-2.8,2.9-4.7,2.9s-1,0-1.5-.2l-1.9,4.4c1.3.8,2.3,1.6,2.3,4.4s-2.4,5.3-5.4,5.3ZM26.3,53.2c-2.7,0-4.8,2.2-4.8,4.8s2.2,4.8,4.8,4.8,4.9-2.2,4.9-4.8-.9-3.2-2.2-4l-.2-.2,2.3-5.2h.2c.5.3,1,.4,1.5.4,1.8,0,3.5-1.1,4.4-2.8v-.2c0,0,6.1,1.4,6.1,1.4v.2c.5,2.3,2.5,3.9,4.8,3.9s4.8-2.1,4.8-4.9-.4-2.6-1.2-3.3c-.1-.1-.3-.2-.4-.4h-.1c0-.1,2.6-6.8,2.6-6.8h.7c2.7,0,4.8-2.2,4.8-4.9s-2.2-4.8-4.8-4.8h-.1s-.1,0-.1,0c-2.6,0-4.8,2.2-4.8,4.8s.7,3.1,1.9,3.9l.3.2-2.5,6.4h-.2c-.2,0-.3,0-.5,0-.2,0-.3,0-.5,0-2,0-3.9,1.4-4.6,3.3v.2c0,0-5.9-1.3-5.9-1.3v-.2c-.2-2.6-2.3-4.6-4.9-4.6s-4.9,2.2-4.9,4.9.3,2.3.8,2.8c.1.1.3.3.5.5h.1c0,.1-2.4,5.9-2.4,5.9h-.4ZM26.2,60.7c-1.5,0-2.8-1.2-2.8-2.8s1.2-2.8,2.8-2.8,2.8,1.2,2.8,2.8-1.2,2.8-2.8,2.8ZM26.2,55.7c-1.3,0-2.2,1-2.2,2.2s1,2.2,2.2,2.2,2.2-1,2.2-2.2-1-2.2-2.2-2.2ZM47.8,49.2c-1.5,0-2.8-1.2-2.8-2.8s1.2-2.8,2.8-2.8,2.8,1.2,2.8,2.8-1.2,2.8-2.8,2.8ZM47.8,44.2c-1.3,0-2.2,1-2.2,2.2s1,2.2,2.2,2.2,2.2-1,2.2-2.2-1-2.2-2.2-2.2ZM32.5,46.7c-1.5,0-2.8-1.2-2.8-2.8s1.2-2.8,2.8-2.8,2.8,1.2,2.8,2.8-1.2,2.8-2.8,2.8ZM32.5,41.7c-1.3,0-2.2,1-2.2,2.2s1,2.2,2.2,2.2,2.2-1,2.2-2.2-1-2.2-2.2-2.2ZM54.2,34c-1.5,0-2.8-1.2-2.8-2.8s1.2-2.8,2.8-2.8,2.8,1.2,2.8,2.8-1.2,2.8-2.8,2.8ZM54.2,29c-1.3,0-2.2,1-2.2,2.2s1,2.2,2.2,2.2,2.2-1,2.2-2.2-1-2.2-2.2-2.2Z"/>
  </g>
  <g>
    <path d="M64.9,13.4c0-6.5-12.8-10-24.8-10S15.2,6.9,15.2,13.4s0,2.9,0,2.9v50.5c0,6.4,12.8,9.8,24.9,9.8s24.9-3.5,24.9-9.8V13.4h0ZM40,6c13.1,0,22.2,3.9,22.2,7.4s-9.1,7.4-22.2,7.4-22.2-3.9-22.2-7.4,9.1-7.4,22.2-7.4ZM62.3,66.9c0,3.4-9.5,7.2-22.2,7.2h0c-12.7,0-22.2-3.9-22.2-7.3V18c4.3,3.5,13.5,5.4,22.3,5.4s17.9-1.8,22.2-5.3v48.8Z"/>
    <path d="M40.1,77.1c-12.6,0-25.4-3.5-25.4-10.3V13.4c0-6.8,13.1-10.5,25.4-10.5s24.7,5,25.3,10h.1v53.9c0,6.7-13.1,10.3-25.4,10.3ZM15.7,16.3v50.5c0,4.5,8.6,9.3,24.4,9.3s24.4-3.5,24.4-9.3V13.4c0-5.9-12.5-9.5-24.4-9.5S15.7,7.5,15.7,13.4v2.9ZM40.1,74.6h-.3c-12-.1-22.5-3.7-22.5-7.8V16.9l.8.7c3.9,3.2,12.6,5.3,22,5.3s18-2,21.9-5.2l.8-.7v49.9c0,4.1-10.6,7.7-22.7,7.7ZM18.3,19v47.8c0,2.7,8.5,6.7,21.7,6.7h.3c13.1,0,21.5-3.9,21.5-6.6V19.1c-5.1,3.5-14.4,4.8-21.7,4.8s-17.4-1.9-21.8-4.9ZM40,21.3c-13.6,0-22.7-4.1-22.7-7.9s9.1-7.9,22.7-7.9,22.7,4.1,22.7,7.9-9.1,7.9-22.7,7.9ZM40,6.5c-13.4,0-21.7,4-21.7,6.9s8.3,6.9,21.7,6.9,21.7-4,21.7-6.9-8.3-6.9-21.7-6.9Z"/>
  </g>
</svg>