<?xml version="1.0" encoding="UTF-8"?>
<svg id="Calque_1" xmlns="http://www.w3.org/2000/svg" version="1.1" viewBox="0 0 80 80">
  <!-- Generator: Adobe Illustrator 29.5.1, SVG Export Plug-In . SVG Version: 2.1.0 Build 141)  -->
  <defs>
    <style>
      .st0 {
        fill-rule: evenodd;
      }
    </style>
  </defs>
  <g id="icon-redshift">
    <path id="Amazon-Redshift_Icon_64_Squid" class="st0" d="M54.2,33.7c-1.4,0-2.5-1.1-2.5-2.5s1.1-2.5,2.5-2.5,2.5,1.1,2.5,2.5-1.1,2.5-2.5,2.5M47.8,48.9c-1.4,0-2.5-1.1-2.5-2.5s1.1-2.5,2.5-2.5,2.5,1.1,2.5,2.5-1.1,2.5-2.5,2.5M32.5,46.4c-1.4,0-2.5-1.1-2.5-2.5s1.1-2.5,2.5-2.5,2.5,1.1,2.5,2.5-1.1,2.5-2.5,2.5M26.2,60.4c-1.4,0-2.5-1.1-2.5-2.5s1.1-2.5,2.5-2.5,2.5,1.1,2.5,2.5-1.1,2.5-2.5,2.5M54.2,26.1c-2.8,0-5.1,2.3-5.1,5.1s.9,3.3,2.2,4.2l-2.4,6.1c-.3,0-.7-.1-1-.1-2.2,0-4.1,1.5-4.8,3.5l-5.4-1.2c-.2-2.7-2.4-4.8-5.1-4.8s-5.1,2.3-5.1,5.1.5,2.5,1.3,3.4l-2.3,5.5c0,0-.2,0-.2,0-2.8,0-5.1,2.3-5.1,5.1s2.3,5.1,5.1,5.1,5.1-2.3,5.1-5.1-1-3.4-2.4-4.3l2.1-4.8c.5.2,1,.3,1.6.3,2,0,3.7-1.2,4.6-2.9l5.7,1.3c.5,2.3,2.5,4.1,5,4.1s5.1-2.3,5.1-5.1-.7-2.9-1.7-3.8l2.5-6.4c.2,0,.3,0,.5,0,2.8,0,5.1-2.3,5.1-5.1s-2.3-5.1-5.1-5.1M40,74c-12.7,0-22.2-3.8-22.2-7.2V18c4.3,3.5,13.5,5.4,22.3,5.4s17.9-1.8,22.2-5.3v48.8c0,3.4-9.5,7.2-22.2,7.2M40,6c13.1,0,22.2,3.9,22.2,7.4s-9.1,7.4-22.2,7.4-22.2-3.9-22.2-7.4,9.1-7.4,22.2-7.4M64.9,13.4c0-6.5-12.8-10-24.8-10S15.2,6.9,15.2,13.4s0,0,0,0h0v53.4c0,6.4,12.8,9.8,24.9,9.8s24.9-3.5,24.9-9.8V13.4h0s0,0,0,0"/>
  </g>
</svg>