<svg width="24" height="25" viewBox="0 0 24 25" fill="none" xmlns="http://www.w3.org/2000/svg">
<mask id="mask0_2635_4598" style="mask-type:alpha" maskUnits="userSpaceOnUse" x="0" y="0" width="24" height="25">
<rect y="0.425079" width="24" height="24" fill="#D9D9D9"/>
</mask>
<g mask="url(#mask0_2635_4598)">
<path d="M21 21.5373H20.3231C20.3231 21.5373 18.2582 22.3033 17.1336 15.3383C16.009 8.37399 15.3609 3.92508 14.6811 3.92508C14.0013 3.92508 13.3532 8.37337 12.2286 15.3383C11.104 22.3026 9.03904 21.5373 9.03904 21.5373H8.04002H21Z" fill="#1F1F1F"/>
<path d="M14.9421 21.5295H14.5952C14.5952 21.5295 12.6041 22.1184 11.0581 18.7332C9.53816 15.405 9.32628 14.9055 8.64522 14.8261H8.67867C7.99762 14.9055 7.92957 15.3521 6.34248 18.7332C4.78998 22.0405 3.69786 21.6109 3.69786 21.6109L3.00004 21.616L14.9421 21.5295Z" fill="#1F1F1F"/>
</g>
</svg>
