<svg width="25" height="25" viewBox="0 0 25 25" fill="none" xmlns="http://www.w3.org/2000/svg">
<mask id="mask0_3525_6722" style="mask-type:alpha" maskUnits="userSpaceOnUse" x="0" y="0" width="25" height="25">
<rect x="0.857178" y="0.425079" width="24" height="24" fill="#D9D9D9"/>
</mask>
<g mask="url(#mask0_3525_6722)">
<path d="M6.18218 21.4251V19.7887H18.7822V21.4251H6.18218ZM6.18218 5.06144V3.42508H18.7822V5.06144H6.18218ZM12.4822 13.2433C13.1384 13.2433 13.6962 13.0046 14.1556 12.5274C14.615 12.0501 14.8447 11.4705 14.8447 10.7887C14.8447 10.1069 14.615 9.52735 14.1556 9.05008C13.6962 8.57281 13.1384 8.33417 12.4822 8.33417C11.8259 8.33417 11.2681 8.57281 10.8087 9.05008C10.3494 9.52735 10.1197 10.1069 10.1197 10.7887C10.1197 11.4705 10.3494 12.0501 10.8087 12.5274C11.2681 13.0046 11.8259 13.2433 12.4822 13.2433ZM6.18218 18.9705C5.74905 18.9705 5.37827 18.8103 5.06983 18.4899C4.7614 18.1694 4.60718 17.7842 4.60718 17.3342V7.51599C4.60718 7.06599 4.7614 6.68076 5.06983 6.36031C5.37827 6.03985 5.74905 5.87962 6.18218 5.87962H18.7822C19.2153 5.87962 19.5861 6.03985 19.8945 6.36031C20.203 6.68076 20.3572 7.06599 20.3572 7.51599V17.3342C20.3572 17.7842 20.203 18.1694 19.8945 18.4899C19.5861 18.8103 19.2153 18.9705 18.7822 18.9705H6.18218ZM7.5603 17.3342H17.4041C16.8134 16.5705 16.0981 15.9705 15.2581 15.5342C14.4181 15.0978 13.4928 14.8796 12.4822 14.8796C11.4716 14.8796 10.5462 15.0978 9.70624 15.5342C8.86624 15.9705 8.15093 16.5705 7.5603 17.3342Z" fill="black"/>
</g>
</svg>
