<svg width="25" height="25" viewBox="0 0 25 25" fill="none" xmlns="http://www.w3.org/2000/svg">
<mask id="mask0_4674_1460" style="mask-type:alpha" maskUnits="userSpaceOnUse" x="0" y="0" width="25" height="25">
<rect x="0.428467" y="0.425079" width="24" height="24" fill="#D9D9D9"/>
</mask>
<g mask="url(#mask0_4674_1460)">
<path d="M18.8287 7.625H9.22867C8.34467 7.625 7.62866 8.341 7.62866 9.22501V18.8251C7.62866 19.7091 8.34467 20.4251 9.22867 20.4251H18.8287C19.7127 20.4251 20.4287 19.7091 20.4287 18.8251V9.22501C20.4287 8.341 19.7127 7.625 18.8287 7.625ZM18.8287 18.8251H9.22867V9.22501H18.8287V18.8251Z" fill="black"/>
<path d="M6.02848 6.02509H17.2286V4.42508H6.02848C5.14447 4.42508 4.42847 5.14108 4.42847 6.02509V17.2252H6.02848V6.02509Z" fill="black"/>
</g>
</svg>
