<svg width="25" height="25" viewBox="0 0 25 25" fill="none" xmlns="http://www.w3.org/2000/svg">
<mask id="mask0_3525_6724" style="mask-type:alpha" maskUnits="userSpaceOnUse" x="0" y="0" width="25" height="25">
<rect x="0.857178" y="0.425079" width="24" height="24" fill="#D9D9D9"/>
</mask>
<g mask="url(#mask0_3525_6724)">
<path d="M6.69928 19.5664H19.8572C20.9617 19.5664 21.8572 18.671 21.8572 17.5664V4.67508C21.8572 3.57051 20.9617 2.67508 19.8572 2.67508H6.69928C5.13205 2.67508 3.85718 3.90376 3.85718 5.41421V21.1268C3.85718 22.532 5.13205 23.6751 6.69928 23.6751H21.4007C21.6528 23.6751 21.8572 23.4707 21.8572 23.2186C21.8572 22.9664 21.6528 22.762 21.4007 22.762H6.69928C5.67235 22.762 4.80455 22.0131 4.80455 21.1268C4.80455 20.2512 5.63719 19.5664 6.69928 19.5664ZM7.64665 6.55551C7.64665 6.4289 7.75212 6.32725 7.88349 6.32725H18.3045C18.4359 6.32725 18.5414 6.4289 18.5414 6.55551V8.83812C18.5414 8.96474 18.4359 9.06638 18.3045 9.06638H7.88349C7.75212 9.06638 7.64665 8.96474 7.64665 8.83812V6.55551Z" fill="black"/>
</g>
</svg>
