<svg width="25" height="24" viewBox="0 0 25 24" fill="none" xmlns="http://www.w3.org/2000/svg">
<mask id="mask0_3973_6087" style="mask-type:alpha" maskUnits="userSpaceOnUse" x="0" y="0" width="25" height="24">
<rect x="0.425049" width="24" height="24" fill="#D9D9D9"/>
</mask>
<g mask="url(#mask0_3973_6087)">
<path d="M12.013 15.2845C12.0589 15.3511 12.1202 15.4056 12.1918 15.4432C12.2634 15.4809 12.3431 15.5005 12.424 15.5005C12.5049 15.5005 12.5845 15.4809 12.6561 15.4432C12.7277 15.4056 12.7891 15.3511 12.835 15.2845L17.335 8.7845C17.3871 8.70953 17.4176 8.62172 17.4233 8.5306C17.429 8.43949 17.4096 8.34856 17.3672 8.2677C17.3249 8.18683 17.2611 8.11912 17.183 8.07193C17.1049 8.02473 17.0153 7.99986 16.924 8H7.92398C7.8329 8.00038 7.74365 8.02557 7.66582 8.07288C7.58799 8.12019 7.52453 8.18782 7.48226 8.2685C7.44 8.34917 7.42052 8.43985 7.42593 8.53077C7.43135 8.62168 7.46144 8.70941 7.51298 8.7845L12.013 15.2845Z" fill="black"/>
</g>
</svg>
