<svg width="24" height="25" viewBox="0 0 24 25" fill="none" xmlns="http://www.w3.org/2000/svg">
<path d="M7.22706 21.7692V12.4252C7.22706 11.3704 6.37179 10.5161 5.31797 10.5161H1.68115" stroke="#1C4749" stroke-width="1.27273" stroke-linecap="round" stroke-linejoin="round"/>
<path d="M16.7727 3.08011V3.8342V7.06247C16.7727 7.91488 16.0806 8.60693 15.2282 8.60693C14.9886 8.60693 14.7519 8.55061 14.5371 8.4437L13.281 7.81561C13.0662 7.7087 12.8295 7.65238 12.5899 7.65238C11.7375 7.65238 11.0454 8.34443 11.0454 9.19684V10.8807C11.0454 11.7331 11.7375 12.4251 12.5899 12.4251H15.1815C16.5875 12.4251 17.7272 13.5639 17.7272 14.9709C17.7272 15.7717 17.3502 16.5258 16.7097 17.0069C14.9466 18.329 13.909 20.4032 13.909 22.6072V22.7437" stroke="#1C4749" stroke-width="1.27273" stroke-linecap="round" stroke-linejoin="round"/>
<path fill-rule="evenodd" clip-rule="evenodd" d="M22.5 12.4251C22.5 18.2239 17.7989 22.9251 12 22.9251C6.20114 22.9251 1.5 18.2239 1.5 12.4251C1.5 6.62622 6.20114 1.92508 12 1.92508C17.7989 1.92508 22.5 6.62622 22.5 12.4251Z" stroke="#1C4749" stroke-width="1.27273" stroke-linecap="round" stroke-linejoin="round"/>
</svg>
