<svg width="25" height="25" viewBox="0 0 25 25" fill="none" xmlns="http://www.w3.org/2000/svg">
<path d="M11.7219 13.1638L12.5379 11.3687L19.9415 3.9557L21.3376 5.34283L13.934 12.7468L12.0755 13.5264C11.867 13.6078 11.6311 13.3723 11.7219 13.1638ZM21.9901 4.68058L22.6798 3.97408C23.0244 3.61145 23.0514 3.1127 22.7071 2.76845L22.4713 2.52358C22.163 2.21533 21.6463 2.2607 21.311 2.59595L20.6086 3.2897L21.9901 4.68058Z" fill="black"/>
<path d="M19.194 9.07745L20.694 7.57745V18.0422C20.694 19.2831 19.6848 20.2922 18.444 20.2922H7.20972C5.96884 20.2922 4.95972 19.2831 4.95972 18.0422V6.80795C4.95972 5.56708 5.96884 4.55795 7.20972 4.55795H17.7502L16.2521 6.05795H7.20972C6.79609 6.05795 6.45972 6.39433 6.45972 6.80795V18.0422C6.45972 18.4558 6.79609 18.7922 7.20972 18.7922H18.4443C18.858 18.7922 19.1943 18.4558 19.1943 18.0422L19.194 9.07745Z" fill="black"/>
</svg>
