<svg width="25" height="25" viewBox="0 0 25 25" fill="none" xmlns="http://www.w3.org/2000/svg">
<mask id="mask0_4674_1458" style="mask-type:alpha" maskUnits="userSpaceOnUse" x="0" y="0" width="25" height="25">
<rect x="0.428711" y="0.425079" width="24" height="24" fill="#D9D9D9"/>
</mask>
<g mask="url(#mask0_4674_1458)">
<path d="M12.4287 16.4251C13.6787 16.4251 14.7412 15.9876 15.6162 15.1126C16.4912 14.2376 16.9287 13.1751 16.9287 11.9251C16.9287 10.6751 16.4912 9.61258 15.6162 8.73758C14.7412 7.86258 13.6787 7.42508 12.4287 7.42508C11.1787 7.42508 10.1162 7.86258 9.24121 8.73758C8.36621 9.61258 7.92871 10.6751 7.92871 11.9251C7.92871 13.1751 8.36621 14.2376 9.24121 15.1126C10.1162 15.9876 11.1787 16.4251 12.4287 16.4251ZM12.4287 14.6251C11.6787 14.6251 11.0412 14.3626 10.5162 13.8376C9.99121 13.3126 9.72871 12.6751 9.72871 11.9251C9.72871 11.1751 9.99121 10.5376 10.5162 10.0126C11.0412 9.48758 11.6787 9.22508 12.4287 9.22508C13.1787 9.22508 13.8162 9.48758 14.3412 10.0126C14.8662 10.5376 15.1287 11.1751 15.1287 11.9251C15.1287 12.6751 14.8662 13.3126 14.3412 13.8376C13.8162 14.3626 13.1787 14.6251 12.4287 14.6251ZM12.4287 19.4251C9.99538 19.4251 7.77871 18.7459 5.77871 17.3876C3.77871 16.0292 2.32871 14.2084 1.42871 11.9251C2.32871 9.64175 3.77871 7.82091 5.77871 6.46258C7.77871 5.10425 9.99538 4.42508 12.4287 4.42508C14.862 4.42508 17.0787 5.10425 19.0787 6.46258C21.0787 7.82091 22.5287 9.64175 23.4287 11.9251C22.5287 14.2084 21.0787 16.0292 19.0787 17.3876C17.0787 18.7459 14.862 19.4251 12.4287 19.4251Z" fill="black"/>
</g>
</svg>
