<svg width="24" height="25" viewBox="0 0 24 25" fill="none" xmlns="http://www.w3.org/2000/svg">
<mask id="mask0_3525_6715" style="mask-type:alpha" maskUnits="userSpaceOnUse" x="0" y="0" width="24" height="25">
<rect y="0.425079" width="24" height="24" fill="#D9D9D9"/>
</mask>
<g mask="url(#mask0_3525_6715)">
<path d="M4 20.4251C3.45 20.4251 2.97917 20.2292 2.5875 19.8376C2.19583 19.4459 2 18.9751 2 18.4251V6.42508C2 5.87508 2.19583 5.40425 2.5875 5.01258C2.97917 4.62091 3.45 4.42508 4 4.42508H9.58579C9.851 4.42508 10.1054 4.53044 10.2929 4.71797L12 6.42508H20C20.55 6.42508 21.0208 6.62091 21.4125 7.01258C21.5534 7.15345 21.6689 7.30456 21.7591 7.46592C22.0286 7.94799 21.5523 8.42508 21 8.42508H5C4.44772 8.42508 4 8.87279 4 9.42508V18.4251L6.1862 11.1377C6.3131 10.7147 6.70242 10.4251 7.14403 10.4251H22.1556C22.8256 10.4251 23.306 11.071 23.1133 11.7127L20.925 19.0001C20.7917 19.4334 20.5458 19.7792 20.1875 20.0376C19.8292 20.2959 19.4333 20.4251 19 20.4251H4Z" fill="black"/>
</g>
</svg>
