<svg width="24" height="25" viewBox="0 0 24 25" fill="none" xmlns="http://www.w3.org/2000/svg">
<mask id="mask0_4673_16303" style="mask-type:alpha" maskUnits="userSpaceOnUse" x="0" y="0" width="24" height="25">
<rect y="0.425079" width="24" height="24" fill="#D9D9D9"/>
</mask>
<g mask="url(#mask0_4673_16303)">
<path d="M0 19.4251V17.8501C0 17.1167 0.370833 16.5292 1.1125 16.0876C1.85417 15.6459 2.81667 15.4251 4 15.4251C4.21667 15.4251 4.425 15.4292 4.625 15.4376C4.825 15.4459 5.01667 15.4667 5.2 15.5001C4.96667 15.8334 4.79167 16.1917 4.675 16.5751C4.55833 16.9584 4.5 17.3667 4.5 17.8001V19.4251H0ZM6 19.4251V17.8001C6 16.7167 6.55417 15.8417 7.6625 15.1751C8.77083 14.5084 10.2167 14.1751 12 14.1751C13.8 14.1751 15.25 14.5084 16.35 15.1751C17.45 15.8417 18 16.7167 18 17.8001V19.4251H6ZM19.5 19.4251V17.8001C19.5 17.3667 19.4458 16.9584 19.3375 16.5751C19.2292 16.1917 19.0667 15.8334 18.85 15.5001C19.0333 15.4667 19.2208 15.4459 19.4125 15.4376C19.6042 15.4292 19.8 15.4251 20 15.4251C21.2 15.4251 22.1667 15.6459 22.9 16.0876C23.6333 16.5292 24 17.1167 24 17.8501V19.4251H19.5ZM4 14.4251C3.45 14.4251 2.97917 14.2292 2.5875 13.8376C2.19583 13.4459 2 12.9751 2 12.4251C2 11.8584 2.19583 11.3834 2.5875 11.0001C2.97917 10.6167 3.45 10.4251 4 10.4251C4.56667 10.4251 5.04167 10.6167 5.425 11.0001C5.80833 11.3834 6 11.8584 6 12.4251C6 12.9751 5.80833 13.4459 5.425 13.8376C5.04167 14.2292 4.56667 14.4251 4 14.4251ZM20 14.4251C19.45 14.4251 18.9792 14.2292 18.5875 13.8376C18.1958 13.4459 18 12.9751 18 12.4251C18 11.8584 18.1958 11.3834 18.5875 11.0001C18.9792 10.6167 19.45 10.4251 20 10.4251C20.5667 10.4251 21.0417 10.6167 21.425 11.0001C21.8083 11.3834 22 11.8584 22 12.4251C22 12.9751 21.8083 13.4459 21.425 13.8376C21.0417 14.2292 20.5667 14.4251 20 14.4251ZM12 13.4251C11.1667 13.4251 10.4583 13.1334 9.875 12.5501C9.29167 11.9667 9 11.2584 9 10.4251C9 9.57508 9.29167 8.86258 9.875 8.28758C10.4583 7.71258 11.1667 7.42508 12 7.42508C12.85 7.42508 13.5625 7.71258 14.1375 8.28758C14.7125 8.86258 15 9.57508 15 10.4251C15 11.2584 14.7125 11.9667 14.1375 12.5501C13.5625 13.1334 12.85 13.4251 12 13.4251Z" fill="#1C1B1F"/>
</g>
</svg>
