<svg width="24" height="25" viewBox="0 0 24 25" fill="none" xmlns="http://www.w3.org/2000/svg">
<mask id="mask0_3525_6711" style="mask-type:alpha" maskUnits="userSpaceOnUse" x="0" y="0" width="24" height="25">
<rect y="0.425079" width="24" height="24" fill="#D9D9D9"/>
</mask>
<g mask="url(#mask0_3525_6711)">
<path d="M20.6806 21.4251H15.9306C15.2017 21.4251 14.6111 20.8799 14.6111 20.2071V15.8225C14.6111 15.2842 14.1388 14.8482 13.5556 14.8482H11.4444C10.8613 14.8482 10.3889 15.2842 10.3889 15.8225V20.2071C10.3889 20.8799 9.79831 21.4251 9.06944 21.4251H4.31944C3.59058 21.4251 3 20.8799 3 20.2071V10.9083C3 9.78831 3.55628 8.73016 4.50892 8.03739L12.0097 2.58146C12.2973 2.37295 12.7027 2.37295 12.9898 2.58146L20.4916 8.03739C21.4443 8.73016 22 9.78782 22 10.9074V20.2071C22 20.8799 21.4094 21.4251 20.6806 21.4251Z" fill="#1F1F1F"/>
</g>
</svg>
