<svg width="24" height="24" viewBox="0 0 24 24" fill="none" xmlns="http://www.w3.org/2000/svg">
<mask id="mask0_4673_16301" style="mask-type:alpha" maskUnits="userSpaceOnUse" x="0" y="0" width="24" height="24">
<rect width="24" height="24" fill="#D9D9D9"/>
</mask>
<g mask="url(#mask0_4673_16301)">
<path d="M17.5362 5.9305L7.73799 5.93075C7.23541 5.93075 6.75368 6.13908 6.39859 6.5096L3.55665 9.47511C2.81668 10.2473 2.81668 11.4988 3.55665 12.2709L11.0314 20.0706C11.9181 20.9959 13.3563 20.9959 14.2431 20.0706L21.7175 12.2712C22.4575 11.499 22.4575 10.2475 21.7175 9.47537L18.8756 6.50986C18.5205 6.13882 18.0385 5.93075 17.5362 5.9305Z" fill="#0B7174"/>
<path d="M3.00192 10.8733C3.00192 11.3796 3.18691 11.8851 3.55665 12.2709L11.043 20.0833C11.9233 21.0019 13.3506 21.0019 14.2309 20.0833L21.7175 12.2712C22.0873 11.8854 22.2723 11.3793 22.2723 10.8736L3.00192 10.8733Z" fill="#00484A"/>
<path d="M7.90039 10.8732L12.0224 20.3358C12.2623 20.8862 13.0117 20.8862 13.2515 20.3358L17.3735 10.8732H7.90039Z" fill="#0B7174"/>
<path opacity="0.65" d="M7.90064 10.873H17.3733L18.2888 6.09681C18.0532 5.98979 17.7979 5.93072 17.5357 5.93072L7.73799 5.93098C7.47577 5.93098 7.22076 5.99031 6.98486 6.09706L7.90064 10.873Z" fill="url(#paint0_linear_4673_16301)"/>
<path d="M7.90039 10.8732L12.637 5.93066L17.3735 10.8732H7.90039Z" fill="#00484A"/>
<path d="M1.27334 6.72128L4.34912 7.3659L5.00765 10.568L5.61994 7.35194L8.68866 6.66478L5.60656 6.02586L4.9535 2.83032L4.33574 6.03982L1.27334 6.72128Z" fill="#E4D680"/>
<path d="M8.99493 3.6395L9.95974 3.8417L10.1663 4.84615L10.3584 3.83732L11.321 3.62177L10.3542 3.42136L10.1493 2.41898L9.95554 3.42574L8.99493 3.6395Z" fill="#E4D680"/>
<path d="M6.76422 11.0462L7.72903 11.2484L7.93559 12.2529L8.12766 11.2441L9.09026 11.0285L8.12346 10.8281L7.91861 9.82572L7.72483 10.8325L6.76422 11.0462Z" fill="#E4D680"/>
</g>
<defs>
<linearGradient id="paint0_linear_4673_16301" x1="16.3783" y1="4.10322" x2="8.57736" y2="11.5791" gradientUnits="userSpaceOnUse">
<stop stop-color="#00484A"/>
<stop offset="1" stop-color="#00484A"/>
</linearGradient>
</defs>
</svg>
