<svg width="24" height="24" viewBox="0 0 24 24" fill="none" xmlns="http://www.w3.org/2000/svg">
<mask id="mask0_3477_5872" style="mask-type:alpha" maskUnits="userSpaceOnUse" x="0" y="0" width="24" height="24">
<rect width="24" height="24" fill="#D9D9D9"/>
</mask>
<g mask="url(#mask0_3477_5872)">
<g filter="url(#filter0_d_3477_5872)">
<path opacity="0.5" d="M10.5971 7.23934V8.01152H2V7.23934C2 7.13327 2.08609 7.04718 2.19216 7.04718H10.4049C10.511 7.04718 10.5971 7.13327 10.5971 7.23934Z" fill="#4B87FF"/>
<path d="M10.5971 8.0116V16.3316C10.5971 16.4376 10.511 16.5237 10.4049 16.5237H2.19216C2.08609 16.5237 2 16.4376 2 16.3316V8.0116H10.5971Z" fill="white"/>
<path d="M2.80718 7.67369C2.8815 7.67369 2.94175 7.61344 2.94175 7.53911C2.94175 7.46479 2.8815 7.40454 2.80718 7.40454C2.73286 7.40454 2.67261 7.46479 2.67261 7.53911C2.67261 7.61344 2.73286 7.67369 2.80718 7.67369Z" fill="white"/>
<path d="M3.32988 7.67369C3.40421 7.67369 3.46446 7.61344 3.46446 7.53911C3.46446 7.46479 3.40421 7.40454 3.32988 7.40454C3.25556 7.40454 3.19531 7.46479 3.19531 7.53911C3.19531 7.61344 3.25556 7.67369 3.32988 7.67369Z" fill="white"/>
<path d="M3.85283 7.67369C3.92716 7.67369 3.98741 7.61344 3.98741 7.53911C3.98741 7.46479 3.92716 7.40454 3.85283 7.40454C3.77851 7.40454 3.71826 7.46479 3.71826 7.53911C3.71826 7.61344 3.77851 7.67369 3.85283 7.67369Z" fill="white"/>
</g>
<path d="M3.00254 9.84649C3.00254 9.93933 2.92762 10.0143 2.83477 10.0143C2.74192 10.0143 2.66699 9.93933 2.66699 9.84649C2.66699 9.75364 2.74192 9.67871 2.83477 9.67871H3.00254V9.84649ZM3.08628 9.84649C3.08628 9.75364 3.16121 9.67871 3.25406 9.67871C3.34691 9.67871 3.42183 9.75364 3.42183 9.84649V10.2658C3.42183 10.3586 3.34691 10.4336 3.25406 10.4336C3.16121 10.4336 3.08628 10.3586 3.08628 10.2658V9.84649Z" fill="#16D0B4"/>
<path d="M3.25406 9.17271C3.16121 9.17271 3.08629 9.09778 3.08629 9.00493C3.08629 8.91208 3.16121 8.83716 3.25406 8.83716C3.34691 8.83716 3.42184 8.91208 3.42184 9.00493V9.17271H3.25406ZM3.25406 9.25792C3.34691 9.25792 3.42184 9.33284 3.42184 9.42569C3.42184 9.51854 3.34691 9.59347 3.25406 9.59347H2.8333C2.74045 9.59347 2.66553 9.51854 2.66553 9.42569C2.66553 9.33284 2.74045 9.25792 2.8333 9.25792H3.25406Z" fill="#16D0B4"/>
<path d="M3.92661 9.42569C3.92661 9.33284 4.00154 9.25792 4.09439 9.25792C4.18724 9.25792 4.26216 9.33284 4.26216 9.42569C4.26216 9.51854 4.18724 9.59347 4.09439 9.59347H3.92661V9.42569ZM3.84287 9.42569C3.84287 9.51854 3.76795 9.59347 3.6751 9.59347C3.58225 9.59347 3.50732 9.51854 3.50732 9.42569V9.00493C3.50732 8.91208 3.58225 8.83716 3.6751 8.83716C3.76795 8.83716 3.84287 8.91208 3.84287 9.00493V9.42569Z" fill="#16D0B4"/>
<path d="M3.67485 10.098C3.7677 10.098 3.84263 10.1729 3.84263 10.2658C3.84263 10.3586 3.7677 10.4336 3.67485 10.4336C3.58201 10.4336 3.50708 10.3586 3.50708 10.2658V10.098H3.67485ZM3.67485 10.0143C3.58201 10.0143 3.50708 9.93933 3.50708 9.84649C3.50708 9.75364 3.58201 9.67871 3.67485 9.67871H4.09561C4.18846 9.67871 4.26339 9.75364 4.26339 9.84649C4.26339 9.93933 4.18846 10.0143 4.09561 10.0143H3.67485Z" fill="#16D0B4"/>
<g filter="url(#filter1_d_3477_5872)">
<path d="M13.0489 5.5293H8.78926C8.65944 5.5293 8.5542 5.63454 8.5542 5.76436V8.7987C8.5542 8.92852 8.65944 9.03376 8.78926 9.03376H13.0489C13.1787 9.03376 13.2839 8.92852 13.2839 8.7987V5.76436C13.2839 5.63454 13.1787 5.5293 13.0489 5.5293Z" fill="white"/>
</g>
<path d="M11.9882 8.03325C12.0018 8.04912 12.0279 8.03943 12.0279 8.01856L12.0264 7.58223V6.75776C12.0264 6.67137 11.9565 6.60144 11.8701 6.60144H9.96906C9.88267 6.60144 9.81274 6.67137 9.81274 6.75776V7.64247C9.81274 7.72885 9.88267 7.79878 9.96906 7.79878H11.7873L11.9882 8.03355V8.03325Z" fill="#16D0B4"/>
<path d="M10.5466 7.18647C10.5466 7.24142 10.5023 7.28637 10.4473 7.28637C10.3924 7.28637 10.3474 7.242 10.3474 7.18706C10.3474 7.13211 10.3918 7.08716 10.4467 7.08716C10.5017 7.08716 10.5466 7.13153 10.5466 7.18647Z" fill="white"/>
<path d="M10.9741 7.18501C10.9741 7.23995 10.9297 7.28491 10.8748 7.28491C10.8199 7.28491 10.7749 7.24054 10.7749 7.18559C10.7749 7.13065 10.8193 7.08569 10.8742 7.08569C10.9292 7.08569 10.9741 7.13006 10.9741 7.18501Z" fill="white"/>
<path d="M11.4016 7.18385C11.4016 7.23879 11.3572 7.28375 11.3023 7.28375C11.2473 7.28375 11.2024 7.23938 11.2024 7.18443C11.2024 7.12949 11.2468 7.08453 11.3017 7.08453C11.3566 7.08453 11.4016 7.1289 11.4016 7.18385Z" fill="white"/>
<g filter="url(#filter2_d_3477_5872)">
<path d="M19.3346 7.48115V9.09455C19.3346 9.21296 19.2389 9.30904 19.1204 9.30904H16.7787C16.6605 9.30904 16.5645 9.21296 16.5645 9.09455V8.78133H18.3151C18.4335 8.78133 18.5293 8.68525 18.5293 8.56684V7.26019H19.1137C19.2359 7.26019 19.3346 7.35892 19.3346 7.48115Z" fill="white"/>
</g>
<g opacity="0.4">
<path d="M18.5207 6.86837L17.1442 7.8853L15.7676 6.86837C15.7934 6.77934 15.8757 6.71411 15.9733 6.71411H18.3148C18.4123 6.71411 18.4946 6.77905 18.5204 6.86837H18.5207Z" fill="#16D0B4"/>
<path d="M18.5292 7.14191V8.56696C18.5292 8.68537 18.4334 8.78146 18.315 8.78146H15.9732C15.8548 8.78146 15.759 8.68537 15.759 8.56696V7.14191L17.1441 8.16501L18.5292 7.14191Z" fill="#16D0B4"/>
</g>
<g filter="url(#filter3_d_3477_5872)">
<path opacity="0.5" d="M21.9999 4.15646V4.78517H13.113V4.15646C13.113 4.0701 13.1824 4 13.2678 4H21.8451C21.9305 4 21.9999 4.0701 21.9999 4.15646Z" fill="#4B87FF"/>
<path d="M21.9999 4.78522V11.5594C21.9999 11.6458 21.9305 11.7159 21.8451 11.7159H13.2678C13.1824 11.7159 13.113 11.6458 13.113 11.5594V4.78522H21.9999Z" fill="white"/>
<path d="M13.7629 4.51009C13.8228 4.51009 13.8713 4.46104 13.8713 4.40052C13.8713 4.34001 13.8228 4.29095 13.7629 4.29095C13.7031 4.29095 13.6545 4.34001 13.6545 4.40052C13.6545 4.46104 13.7031 4.51009 13.7629 4.51009Z" fill="white"/>
<path d="M14.1838 4.51009C14.2437 4.51009 14.2922 4.46104 14.2922 4.40052C14.2922 4.34001 14.2437 4.29095 14.1838 4.29095C14.124 4.29095 14.0754 4.34001 14.0754 4.40052C14.0754 4.46104 14.124 4.51009 14.1838 4.51009Z" fill="white"/>
<path d="M14.605 4.51009C14.6648 4.51009 14.7133 4.46104 14.7133 4.40052C14.7133 4.34001 14.6648 4.29095 14.605 4.29095C14.5451 4.29095 14.4966 4.34001 14.4966 4.40052C14.4966 4.46104 14.5451 4.51009 14.605 4.51009Z" fill="white"/>
</g>
<path opacity="0.7" d="M9.5641 14.4601C9.5641 14.9137 9.19596 15.2818 8.74239 15.2818C8.57403 15.2818 8.41698 15.2316 8.28631 15.1436L8.62303 14.8081C8.65947 14.8207 8.69967 14.827 8.74113 14.827C8.94467 14.827 9.10927 14.6624 9.10927 14.4588C9.10927 14.2553 8.94467 14.0907 8.74113 14.0907C8.53759 14.0907 8.373 14.2553 8.373 14.4588C8.373 14.5041 8.3818 14.5481 8.39687 14.5883L8.06141 14.92C7.9722 14.788 7.91943 14.6297 7.91943 14.4588C7.91943 14.0053 8.28756 13.6371 8.74113 13.6371C9.1947 13.6371 9.56284 14.0053 9.56284 14.4588L9.5641 14.4601Z" fill="#4285F4"/>
<path opacity="0.2" d="M13.7341 18.0466H17.2098" stroke="#00484A" stroke-width="0.137454" stroke-miterlimit="10"/>
<path d="M16.3521 7.69318H16.4666" stroke="#4B87FF" stroke-width="0.293867" stroke-linecap="round" stroke-linejoin="round"/>
<path d="M16.5811 7.69318H16.6956" stroke="#4B87FF" stroke-width="0.293867" stroke-linecap="round" stroke-linejoin="round"/>
<path d="M16.8098 7.69318H16.9244" stroke="#4B87FF" stroke-width="0.293867" stroke-linecap="round" stroke-linejoin="round"/>
<path d="M17.0388 7.69318H17.1534" stroke="#4B87FF" stroke-width="0.293867" stroke-linecap="round" stroke-linejoin="round"/>
<path d="M17.2676 7.69318H17.3821" stroke="#4B87FF" stroke-width="0.293867" stroke-linecap="round" stroke-linejoin="round"/>
<path d="M17.4966 7.69318H17.6111" stroke="#4B87FF" stroke-width="0.293867" stroke-linecap="round" stroke-linejoin="round"/>
<path d="M17.7253 7.69318H17.8399" stroke="#4B87FF" stroke-width="0.293867" stroke-linecap="round" stroke-linejoin="round"/>
<path d="M17.9543 7.69318H18.0689" stroke="#4B87FF" stroke-width="0.293867" stroke-linecap="round" stroke-linejoin="round"/>
<path d="M18.1831 7.69318H18.2977" stroke="#4B87FF" stroke-width="0.293867" stroke-linecap="round" stroke-linejoin="round"/>
<path d="M18.4121 7.69318H18.5267" stroke="#4B87FF" stroke-width="0.293867" stroke-linecap="round" stroke-linejoin="round"/>
<path d="M18.447 16.8404L17.9866 17.273L17.1348 16.5282C17.4029 16.3613 17.6438 16.1541 17.8491 15.9157L18.447 16.8406V16.8404Z" fill="#005A5A"/>
<path d="M21.1878 19.5058L20.2943 20.2452L17.6448 17.1577L17.71 17.1006L18.4034 16.4683L18.4552 16.424L21.1878 19.5058Z" fill="url(#paint0_linear_3477_5872)"/>
<path d="M15.1486 9.55554C12.9861 9.55554 11.2332 11.3085 11.2332 13.4709C11.2332 15.6332 12.9861 17.3863 15.1486 17.3863C15.9094 17.3863 16.62 17.1696 17.2216 16.7928C17.5569 16.5841 17.8581 16.3251 18.1147 16.0269C18.7068 15.3417 19.0647 14.4485 19.0647 13.4709C19.0647 11.3084 17.3111 9.55554 15.1486 9.55554ZM15.1503 16.5663C13.441 16.5663 12.0551 15.1803 12.0551 13.471C12.0551 11.7617 13.441 10.3758 15.1503 10.3758C16.8597 10.3758 18.2463 11.7617 18.2463 13.471C18.2463 15.1803 16.8604 16.5663 15.1503 16.5663Z" fill="url(#paint1_linear_3477_5872)"/>
<circle cx="15.1362" cy="13.4784" r="3.09563" fill="#16D0B4" fill-opacity="0.35"/>
<g filter="url(#filter4_dd_3477_5872)">
<path d="M10.875 14.0597C10.9346 14.6346 11.2632 14.9928 11.7706 14.9928C12.3455 14.9928 12.7262 14.9928 12.7262 14.9928V12.8448C12.7262 12.3169 12.2983 11.8892 11.7706 11.8892C11.3005 11.8892 10.9793 12.1878 10.8896 12.7254L10.8748 14.0599L10.875 14.0597Z" fill="white"/>
<path d="M8.85962 11.6843C8.85962 10.8137 10.4767 10.8137 10.4767 11.6843H8.85962Z" fill="#16D0B4"/>
<path d="M11.1091 11.6843C11.2781 10.761 12.5832 10.8137 12.7263 11.6843H11.1091Z" fill="#16D0B4"/>
<path d="M8.75193 14.0597C8.81159 14.6346 9.1402 14.9928 9.6476 14.9928C10.2225 14.9928 10.6032 14.9928 10.6032 14.9928V12.8448C10.6032 12.3169 10.1752 11.8892 9.6476 11.8892C9.17744 11.8892 8.85624 12.1878 8.76652 12.7254L8.75171 14.0599L8.75193 14.0597Z" fill="white"/>
<g style="mix-blend-mode:multiply">
<path d="M9.35713 14.1378C9.64902 14.1378 9.88565 13.9012 9.88565 13.6093C9.88565 13.3174 9.64902 13.0808 9.35713 13.0808C9.06524 13.0808 8.82861 13.3174 8.82861 13.6093C8.82861 13.9012 9.06524 14.1378 9.35713 14.1378Z" fill="#00484A"/>
</g>
<g style="mix-blend-mode:multiply">
<path d="M11.4914 14.1378C11.7833 14.1378 12.0199 13.9012 12.0199 13.6093C12.0199 13.3174 11.7833 13.0808 11.4914 13.0808C11.1995 13.0808 10.9629 13.3174 10.9629 13.6093C10.9629 13.9012 11.1995 14.1378 11.4914 14.1378Z" fill="#00484A"/>
</g>
<path d="M11.6208 13.3792C11.6922 13.3792 11.7502 13.3213 11.7502 13.2498C11.7502 13.1784 11.6922 13.1205 11.6208 13.1205C11.5494 13.1205 11.4915 13.1784 11.4915 13.2498C11.4915 13.3213 11.5494 13.3792 11.6208 13.3792Z" fill="white"/>
<path d="M9.51168 13.3792C9.58312 13.3792 9.64103 13.3213 9.64103 13.2498C9.64103 13.1784 9.58312 13.1205 9.51168 13.1205C9.44024 13.1205 9.38232 13.1784 9.38232 13.2498C9.38232 13.3213 9.44024 13.3792 9.51168 13.3792Z" fill="white"/>
</g>
</g>
<defs>
<filter id="filter0_d_3477_5872" x="-18.7629" y="-13.7157" width="50.123" height="51.0024" filterUnits="userSpaceOnUse" color-interpolation-filters="sRGB">
<feFlood flood-opacity="0" result="BackgroundImageFix"/>
<feColorMatrix in="SourceAlpha" type="matrix" values="0 0 0 0 0 0 0 0 0 0 0 0 0 0 0 0 0 0 127 0" result="hardAlpha"/>
<feOffset/>
<feGaussianBlur stdDeviation="10.3815"/>
<feColorMatrix type="matrix" values="0 0 0 0 0.294118 0 0 0 0 0.529412 0 0 0 0 1 0 0 0 0.2 0"/>
<feBlend mode="normal" in2="BackgroundImageFix" result="effect1_dropShadow_3477_5872"/>
<feBlend mode="normal" in="SourceGraphic" in2="effect1_dropShadow_3477_5872" result="shape"/>
</filter>
<filter id="filter1_d_3477_5872" x="-11.9803" y="-15.0052" width="45.7988" height="44.5735" filterUnits="userSpaceOnUse" color-interpolation-filters="sRGB">
<feFlood flood-opacity="0" result="BackgroundImageFix"/>
<feColorMatrix in="SourceAlpha" type="matrix" values="0 0 0 0 0 0 0 0 0 0 0 0 0 0 0 0 0 0 127 0" result="hardAlpha"/>
<feOffset/>
<feGaussianBlur stdDeviation="10.2673"/>
<feColorMatrix type="matrix" values="0 0 0 0 0.294118 0 0 0 0 0.529412 0 0 0 0 1 0 0 0 0.2 0"/>
<feBlend mode="normal" in2="BackgroundImageFix" result="effect1_dropShadow_3477_5872"/>
<feBlend mode="normal" in="SourceGraphic" in2="effect1_dropShadow_3477_5872" result="shape"/>
</filter>
<filter id="filter2_d_3477_5872" x="-9.7837" y="-19.088" width="55.4666" height="54.7451" filterUnits="userSpaceOnUse" color-interpolation-filters="sRGB">
<feFlood flood-opacity="0" result="BackgroundImageFix"/>
<feColorMatrix in="SourceAlpha" type="matrix" values="0 0 0 0 0 0 0 0 0 0 0 0 0 0 0 0 0 0 127 0" result="hardAlpha"/>
<feOffset/>
<feGaussianBlur stdDeviation="13.1741"/>
<feColorMatrix type="matrix" values="0 0 0 0 0.294118 0 0 0 0 0.529412 0 0 0 0 1 0 0 0 0.2 0"/>
<feBlend mode="normal" in2="BackgroundImageFix" result="effect1_dropShadow_3477_5872"/>
<feBlend mode="normal" in="SourceGraphic" in2="effect1_dropShadow_3477_5872" result="shape"/>
</filter>
<filter id="filter3_d_3477_5872" x="-7.53569" y="-16.6487" width="50.1844" height="49.0133" filterUnits="userSpaceOnUse" color-interpolation-filters="sRGB">
<feFlood flood-opacity="0" result="BackgroundImageFix"/>
<feColorMatrix in="SourceAlpha" type="matrix" values="0 0 0 0 0 0 0 0 0 0 0 0 0 0 0 0 0 0 127 0" result="hardAlpha"/>
<feOffset/>
<feGaussianBlur stdDeviation="10.3244"/>
<feColorMatrix type="matrix" values="0 0 0 0 0.294118 0 0 0 0 0.529412 0 0 0 0 1 0 0 0 0.2 0"/>
<feBlend mode="normal" in2="BackgroundImageFix" result="effect1_dropShadow_3477_5872"/>
<feBlend mode="normal" in="SourceGraphic" in2="effect1_dropShadow_3477_5872" result="shape"/>
</filter>
<filter id="filter4_dd_3477_5872" x="-25.2483" y="-8.98859" width="71.9746" height="71.9814" filterUnits="userSpaceOnUse" color-interpolation-filters="sRGB">
<feFlood flood-opacity="0" result="BackgroundImageFix"/>
<feColorMatrix in="SourceAlpha" type="matrix" values="0 0 0 0 0 0 0 0 0 0 0 0 0 0 0 0 0 0 127 0" result="hardAlpha"/>
<feOffset dy="14"/>
<feGaussianBlur stdDeviation="17"/>
<feComposite in2="hardAlpha" operator="out"/>
<feColorMatrix type="matrix" values="0 0 0 0 0 0 0 0 0 0.282353 0 0 0 0 0.290196 0 0 0 0.16 0"/>
<feBlend mode="normal" in2="BackgroundImageFix" result="effect1_dropShadow_3477_5872"/>
<feColorMatrix in="SourceAlpha" type="matrix" values="0 0 0 0 0 0 0 0 0 0 0 0 0 0 0 0 0 0 127 0" result="hardAlpha"/>
<feOffset dy="4"/>
<feGaussianBlur stdDeviation="4"/>
<feComposite in2="hardAlpha" operator="out"/>
<feColorMatrix type="matrix" values="0 0 0 0 0 0 0 0 0 0.282353 0 0 0 0 0.290196 0 0 0 0.1 0"/>
<feBlend mode="normal" in2="effect1_dropShadow_3477_5872" result="effect2_dropShadow_3477_5872"/>
<feBlend mode="normal" in="SourceGraphic" in2="effect2_dropShadow_3477_5872" result="shape"/>
</filter>
<linearGradient id="paint0_linear_3477_5872" x1="16.6456" y1="18.5405" x2="22.2326" y2="18.1189" gradientUnits="userSpaceOnUse">
<stop stop-color="#16D0B4"/>
<stop offset="1" stop-color="#0A8C78"/>
</linearGradient>
<linearGradient id="paint1_linear_3477_5872" x1="20.8694" y1="8.84695" x2="13.6373" y2="14.6928" gradientUnits="userSpaceOnUse">
<stop stop-color="#16D0B4"/>
<stop offset="1" stop-color="#0A8C8C"/>
</linearGradient>
</defs>
</svg>
