<svg width="27" height="25" viewBox="0 0 27 25" fill="none" xmlns="http://www.w3.org/2000/svg">
<path d="M13.9196 3.13834C11.2728 3.13834 8.73448 4.17422 6.86292 6.01812C4.99137 7.86201 3.93994 10.3629 3.93994 12.9705C3.93994 15.5782 4.99137 18.079 6.86292 19.9229C8.73448 21.7668 11.2728 22.8027 13.9196 22.8027C16.5664 22.8027 19.1048 21.7668 20.9763 19.9229C22.8479 18.079 23.8993 15.5782 23.8993 12.9705C23.8993 10.3629 22.8479 7.86201 20.9763 6.01812C19.1048 4.17422 16.5664 3.13834 13.9196 3.13834Z" fill="#EDF5F3"/>
<path d="M18.9095 12.273C18.8351 12.273 18.7747 12.2135 18.7747 12.1402V11.1104C18.7747 11.0371 18.8351 10.9776 18.9095 10.9776C18.984 10.9776 19.0444 11.0371 19.0444 11.1104V12.1402C19.0444 12.2135 18.984 12.273 18.9095 12.273Z" fill="#00484A"/>
<path d="M18.9095 10.446C18.8351 10.446 18.7747 10.3865 18.7747 10.3132V9.7817C18.7747 9.70836 18.8351 9.64883 18.9095 9.64883C18.984 9.64883 19.0444 9.70836 19.0444 9.7817V10.3132C19.0444 10.3865 18.984 10.446 18.9095 10.446Z" fill="#00484A"/>
<path d="M17.6957 18.0196H10.1435C9.39991 18.0196 8.79492 17.4235 8.79492 16.6909V9.25034C8.79492 8.5177 9.39991 7.92166 10.1435 7.92166H16.9877C17.0621 7.92166 17.1226 7.98119 17.1226 8.05453C17.1226 8.12787 17.0621 8.1874 16.9877 8.1874H10.1435C9.54852 8.1874 9.06464 8.66412 9.06464 9.25034V16.6909C9.06464 17.2771 9.54852 17.7539 10.1435 17.7539H17.6957C18.2907 17.7539 18.7746 17.2771 18.7746 16.6909V12.871C18.7746 12.7976 18.835 12.7381 18.9095 12.7381C18.9839 12.7381 19.0443 12.7976 19.0443 12.871V16.6909C19.0443 17.4235 18.4393 18.0196 17.6957 18.0196Z" fill="#00484A"/>
<path d="M12.9757 11.9077C12.9012 11.9077 12.8408 11.8482 12.8408 11.7748V10.7119C12.8408 10.6385 12.9012 10.579 12.9757 10.579H14.8637C14.9382 10.579 14.9986 10.6385 14.9986 10.7119C14.9986 10.7852 14.9382 10.8447 14.8637 10.8447H13.1105V11.7748C13.1105 11.8482 13.0501 11.9077 12.9757 11.9077Z" fill="#00484A"/>
<path d="M14.8637 15.6279H12.9757C12.9012 15.6279 12.8408 15.5684 12.8408 15.495V14.4321C12.8408 14.3587 12.9012 14.2992 12.9757 14.2992C13.0501 14.2992 13.1105 14.3587 13.1105 14.4321V15.3622H14.8637C14.9382 15.3622 14.9986 15.4217 14.9986 15.495C14.9986 15.5684 14.9382 15.6279 14.8637 15.6279Z" fill="#00484A"/>
<path d="M16.7296 15.5456L14.3245 16.4252V9.25034L16.7296 10.1299V15.5456Z" fill="#00484A"/>
<path d="M14.3243 16.558C14.2971 16.558 14.2704 16.55 14.2474 16.5341C14.211 16.5094 14.1895 16.4687 14.1895 16.4251V9.25027C14.1895 9.20669 14.211 9.16603 14.2474 9.14132C14.2839 9.11634 14.3297 9.11129 14.3712 9.12564L16.7763 10.0055C16.8292 10.0249 16.8643 10.0746 16.8643 10.1301V15.5455C16.8643 15.6011 16.8292 15.6508 16.7763 15.6702L14.3712 16.55C14.3559 16.5551 14.3402 16.558 14.3243 16.558ZM14.4592 9.44133V16.2343L16.5946 15.4533V10.2223L14.4592 9.44133Z" fill="#00484A"/>
<path d="M11.5145 14.613C11.4363 14.613 11.3629 14.5833 11.3079 14.529L11.2825 14.5041C11.1687 14.3919 11.1687 14.2096 11.2825 14.0975L12.0102 13.3805H10.2667C10.0868 13.3805 9.94092 13.2365 9.94092 13.0593C9.94092 12.8823 10.0871 12.7383 10.2667 12.7383H12.0086L11.2825 12.0229C11.2275 11.9687 11.1973 11.8964 11.1973 11.8193C11.1973 11.7426 11.2275 11.6703 11.2825 11.6161L11.3079 11.5911C11.3629 11.5369 11.4363 11.5071 11.5145 11.5071C11.5927 11.5071 11.6658 11.5369 11.7208 11.5911L12.9836 12.8353C13.0432 12.894 13.0724 12.9748 13.0656 13.0601C13.0724 13.1454 13.0432 13.2264 12.9836 13.2851L11.7208 14.5293C11.6661 14.583 11.5927 14.613 11.5145 14.613Z" fill="#16D0B4"/>
<path d="M15.1335 12.5719C15.062 12.5719 14.9934 12.5999 14.9428 12.6498C14.8922 12.6996 14.8638 12.7672 14.8638 12.8377C14.8638 12.9081 14.8922 12.9757 14.9428 13.0256C14.9934 13.0754 15.062 13.1034 15.1335 13.1034C15.205 13.1034 15.2736 13.0754 15.3242 13.0256C15.3748 12.9757 15.4032 12.9081 15.4032 12.8377C15.4032 12.7672 15.3748 12.6996 15.3242 12.6498C15.2736 12.5999 15.205 12.5719 15.1335 12.5719Z" fill="#16D0B4"/>
<path d="M15.1335 13.1697C14.9477 13.1697 14.7964 13.0207 14.7964 12.8376C14.7964 12.6545 14.9477 12.5054 15.1335 12.5054C15.3194 12.5054 15.4707 12.6545 15.4707 12.8376C15.4707 13.0207 15.3194 13.1697 15.1335 13.1697ZM15.1335 12.6383C15.0221 12.6383 14.9312 12.7278 14.9312 12.8376C14.9312 12.9473 15.0221 13.0369 15.1335 13.0369C15.2449 13.0369 15.3358 12.9473 15.3358 12.8376C15.3358 12.7278 15.2449 12.6383 15.1335 12.6383Z" fill="#16D0B4"/>
<path d="M3.93983 6.85867C3.79676 6.85867 3.65955 6.91467 3.55839 7.01434C3.45722 7.11401 3.40039 7.24919 3.40039 7.39014C3.40039 7.5311 3.45722 7.66628 3.55839 7.76595C3.65955 7.86562 3.79676 7.92161 3.93983 7.92161C4.0829 7.92161 4.22011 7.86562 4.32128 7.76595C4.42244 7.66628 4.47927 7.5311 4.47927 7.39014C4.47927 7.24919 4.42244 7.11401 4.32128 7.01434C4.22011 6.91467 4.0829 6.85867 3.93983 6.85867Z" fill="#637879"/>
<path d="M21.2018 2.87259C21.1303 2.87259 21.0617 2.90059 21.0111 2.95042C20.9605 3.00026 20.9321 3.06785 20.9321 3.13832C20.9321 3.2088 20.9605 3.27639 21.0111 3.32623C21.0617 3.37606 21.1303 3.40406 21.2018 3.40406C21.2734 3.40406 21.342 3.37606 21.3926 3.32623C21.4432 3.27639 21.4716 3.2088 21.4716 3.13832C21.4716 3.06785 21.4432 3.00026 21.3926 2.95042C21.342 2.90059 21.2734 2.87259 21.2018 2.87259Z" fill="#00484A"/>
<path d="M22.8203 2.60684C22.5342 2.60684 22.2598 2.71883 22.0575 2.91817C21.8551 3.11751 21.7415 3.38787 21.7415 3.66978C21.7415 3.95169 21.8551 4.22205 22.0575 4.42139C22.2598 4.62073 22.5342 4.73272 22.8203 4.73272C23.1065 4.73272 23.3809 4.62073 23.5832 4.42139C23.7856 4.22205 23.8992 3.95169 23.8992 3.66978C23.8992 3.38787 23.7856 3.11751 23.5832 2.91817C23.3809 2.71883 23.1065 2.60684 22.8203 2.60684Z" fill="#00484A"/>
<path d="M23.8993 5.52994C23.7562 5.52994 23.619 5.58593 23.5179 5.6856C23.4167 5.78527 23.3599 5.92045 23.3599 6.06141C23.3599 6.20236 23.4167 6.33754 23.5179 6.43721C23.619 6.53688 23.7562 6.59288 23.8993 6.59288C24.0424 6.59288 24.1796 6.53688 24.2807 6.43721C24.3819 6.33754 24.4387 6.20236 24.4387 6.06141C24.4387 5.92045 24.3819 5.78527 24.2807 5.6856C24.1796 5.58593 24.0424 5.52994 23.8993 5.52994Z" fill="#637879"/>
<path d="M22.2809 19.3481C22.1378 19.3481 22.0006 19.4041 21.8994 19.5038C21.7983 19.6034 21.7414 19.7386 21.7414 19.8796C21.7414 20.0205 21.7983 20.1557 21.8994 20.2554C22.0006 20.3551 22.1378 20.4111 22.2809 20.4111C22.4239 20.4111 22.5611 20.3551 22.6623 20.2554C22.7635 20.1557 22.8203 20.0205 22.8203 19.8796C22.8203 19.7386 22.7635 19.6034 22.6623 19.5038C22.5611 19.4041 22.4239 19.3481 22.2809 19.3481ZM4.47927 15.3621C4.19314 15.3621 3.91872 15.4741 3.71639 15.6734C3.51406 15.8728 3.40039 16.1431 3.40039 16.425C3.40039 16.7069 3.51406 16.9773 3.71639 17.1766C3.91872 17.376 4.19314 17.488 4.47927 17.488C4.76541 17.488 5.03983 17.376 5.24216 17.1766C5.44449 16.9773 5.55816 16.7069 5.55816 16.425C5.55816 16.1431 5.44449 15.8728 5.24216 15.6734C5.03983 15.4741 4.76541 15.3621 4.47927 15.3621Z" fill="#00484A"/>
<path d="M7.17665 22.2713C7.03358 22.2713 6.89637 22.3273 6.79521 22.4269C6.69404 22.5266 6.63721 22.6618 6.63721 22.8027C6.63721 22.9437 6.69404 23.0789 6.79521 23.1785C6.89637 23.2782 7.03358 23.3342 7.17665 23.3342C7.31972 23.3342 7.45693 23.2782 7.55809 23.1785C7.65926 23.0789 7.71609 22.9437 7.71609 22.8027C7.71609 22.6618 7.65926 22.5266 7.55809 22.4269C7.45693 22.3273 7.31972 22.2713 7.17665 22.2713Z" fill="#637879"/>
<path d="M5.42333 13.2364C5.24449 13.2364 5.07298 13.3064 4.94652 13.4309C4.82007 13.5555 4.74902 13.7245 4.74902 13.9007C4.74902 14.0769 4.82007 14.2459 4.94652 14.3705C5.07298 14.495 5.24449 14.565 5.42333 14.565C5.60216 14.565 5.77367 14.495 5.90013 14.3705C6.02659 14.2459 6.09763 14.0769 6.09763 13.9007C6.09763 13.7245 6.02659 13.5555 5.90013 13.4309C5.77367 13.3064 5.60216 13.2364 5.42333 13.2364Z" fill="#637879"/>
<path d="M6.0976 17.2223C6.02607 17.2223 5.95746 17.2503 5.90688 17.3002C5.8563 17.35 5.82788 17.4176 5.82788 17.4881C5.82788 17.5585 5.8563 17.6261 5.90688 17.676C5.95746 17.7258 6.02607 17.7538 6.0976 17.7538C6.16914 17.7538 6.23774 17.7258 6.28832 17.676C6.33891 17.6261 6.36732 17.5585 6.36732 17.4881C6.36732 17.4176 6.33891 17.35 6.28832 17.3002C6.23774 17.2503 6.16914 17.2223 6.0976 17.2223Z" fill="#00484A"/>
<path d="M22.0112 8.45291C21.9396 8.45291 21.871 8.48091 21.8205 8.53074C21.7699 8.58058 21.7415 8.64817 21.7415 8.71865C21.7415 8.78912 21.7699 8.85671 21.8205 8.90655C21.871 8.95638 21.9396 8.98438 22.0112 8.98438C22.0827 8.98438 22.1513 8.95638 22.2019 8.90655C22.2525 8.85671 22.2809 8.78912 22.2809 8.71865C22.2809 8.64817 22.2525 8.58058 22.2019 8.53074C22.1513 8.48091 22.0827 8.45291 22.0112 8.45291Z" fill="#16D0B4"/>
<path d="M4.80918 3.37782C4.98228 3.08813 5.41504 3.08813 5.58814 3.37782L8.50925 8.26634C8.68235 8.55603 8.46598 8.91814 8.11977 8.91814H2.27755C1.93135 8.91814 1.71497 8.55603 1.88807 8.26634L4.80918 3.37782Z" fill="#F8663C"/>
<path d="M5.04755 7.28516L4.9417 5.48575H5.4729L5.36706 7.28516H5.04755ZM5.19848 8.1431C5.10178 8.1431 5.02141 8.11583 4.95738 8.06131C4.89334 8.00562 4.86133 7.93543 4.86133 7.85074C4.86133 7.76604 4.89269 7.69644 4.95542 7.64191C5.01945 7.58738 5.10047 7.56012 5.19848 7.56012C5.29649 7.56012 5.37686 7.58738 5.43958 7.64191C5.50361 7.69644 5.53563 7.76604 5.53563 7.85074C5.53563 7.93543 5.50361 8.00562 5.43958 8.06131C5.37686 8.11583 5.29649 8.1431 5.19848 8.1431Z" fill="white"/>
</svg>
