<svg width="24" height="24" viewBox="0 0 24 24" fill="none" xmlns="http://www.w3.org/2000/svg">
<mask id="mask0_3477_6083" style="mask-type:alpha" maskUnits="userSpaceOnUse" x="0" y="0" width="24" height="24">
<rect width="24" height="24" fill="#D9D9D9"/>
</mask>
<g mask="url(#mask0_3477_6083)">
<path d="M12.0007 3C7.51427 3 4.5 4.6695 4.5 6.22847C4.5 7.78815 7.51427 9.45833 12.0007 9.45833C16.4868 9.45833 19.5 7.78815 19.5 6.22847C19.5 4.6695 16.4868 3 12.0007 3ZM4.5 7.88299V9.87109C4.5 11.4046 7.51427 13.0463 12.0007 13.0463C16.4868 13.0463 19.5 11.4046 19.5 9.87109V7.88299C18.1886 9.22991 15.3618 10.1759 12.0007 10.1759C8.63891 10.1759 5.81179 9.22956 4.5 7.88299ZM4.5 11.5789V13.4752C4.5 15.0083 7.51427 16.6343 12.0007 16.6343C16.4868 16.6343 19.5 15.0079 19.5 13.4752V11.5789C18.1886 12.9251 15.3618 13.7639 12.0007 13.7639C8.63891 13.7639 5.81179 12.9251 4.5 11.5789ZM4.5 15.183V17.047C4.5 18.5802 7.51427 20.2222 12.0007 20.2222C16.4868 20.2222 19.5 18.5802 19.5 17.047V15.183C18.1886 16.5295 15.3618 17.3519 12.0007 17.3519C8.63891 17.3519 5.81179 16.5295 4.5 15.183Z" fill="#16D0B4"/>
</g>
</svg>
