<svg width="24" height="25" viewBox="0 0 24 25" fill="none" xmlns="http://www.w3.org/2000/svg">
<mask id="mask0_3525_6718" style="mask-type:alpha" maskUnits="userSpaceOnUse" x="0" y="0" width="24" height="25">
<rect y="0.425079" width="24" height="24" fill="#D9D9D9"/>
</mask>
<g mask="url(#mask0_3525_6718)">
<path d="M8.45455 17.4251C6.93939 17.4251 5.65152 16.8904 4.59091 15.8209C3.5303 14.7515 3 13.4529 3 11.9251C3 10.3973 3.5303 9.09869 4.59091 8.02925C5.65152 6.9598 6.93939 6.42508 8.45455 6.42508C9.68182 6.42508 10.7538 6.77265 11.6705 7.46779C12.5871 8.16293 13.2273 9.03758 13.5909 10.0917H21.1667C22.1792 10.0917 23 10.9202 23 11.9327C23 12.9368 22.186 13.7584 21.1818 13.7584V15.6069C21.1818 16.6111 20.3678 17.4251 19.3636 17.4251C18.3595 17.4251 17.5455 16.6111 17.5455 15.6069V13.7584H13.5909C13.2273 14.8126 12.5871 15.6872 11.6705 16.3824C10.7538 17.0775 9.68182 17.4251 8.45455 17.4251ZM8.45455 13.7584C8.95455 13.7584 9.38258 13.5789 9.73864 13.2199C10.0947 12.8608 10.2727 12.4292 10.2727 11.9251C10.2727 11.4209 10.0947 10.9893 9.73864 10.6303C9.38258 10.2713 8.95455 10.0917 8.45455 10.0917C7.95455 10.0917 7.52652 10.2713 7.17045 10.6303C6.81439 10.9893 6.63636 11.4209 6.63636 11.9251C6.63636 12.4292 6.81439 12.8608 7.17045 13.2199C7.52652 13.5789 7.95455 13.7584 8.45455 13.7584Z" fill="black"/>
</g>
</svg>
