<svg width="25" height="25" viewBox="0 0 25 25" fill="none" xmlns="http://www.w3.org/2000/svg">
<mask id="mask0_3525_6728" style="mask-type:alpha" maskUnits="userSpaceOnUse" x="0" y="0" width="25" height="25">
<rect x="0.857178" y="0.425079" width="24" height="24" fill="#D9D9D9"/>
</mask>
<g mask="url(#mask0_3525_6728)">
<path d="M5.85718 21.4251C5.30718 21.4251 4.83634 21.2292 4.44468 20.8376C4.05301 20.4459 3.85718 19.9751 3.85718 19.4251V5.42508C3.85718 4.87508 4.05301 4.40425 4.44468 4.01258C4.83634 3.62091 5.30718 3.42508 5.85718 3.42508H12.8572V5.42508H5.85718V19.4251H19.8572V12.4251H21.8572V19.4251C21.8572 19.9751 21.6613 20.4459 21.2697 20.8376C20.878 21.2292 20.4072 21.4251 19.8572 21.4251H5.85718ZM10.5572 16.1251L9.15718 14.7251L17.4572 6.42508L15.6172 5.7174C15.1593 5.54129 14.8572 5.10136 14.8572 4.61076C14.8572 3.95593 15.388 3.42508 16.0429 3.42508H20.9822C21.4654 3.42508 21.8572 3.81683 21.8572 4.30008V9.2394C21.8572 9.89423 21.3263 10.4251 20.6715 10.4251C20.1809 10.4251 19.741 10.1229 19.5649 9.66504L18.8572 7.82508L10.5572 16.1251Z" fill="#1F1F1F"/>
</g>
</svg>
