<svg width="24" height="25" viewBox="0 0 24 25" fill="none" xmlns="http://www.w3.org/2000/svg">
<mask id="mask0_3525_6717" style="mask-type:alpha" maskUnits="userSpaceOnUse" x="0" y="0" width="24" height="25">
<rect y="0.425079" width="24" height="24" fill="#D9D9D9"/>
</mask>
<g mask="url(#mask0_3525_6717)">
<path d="M7.5 20.4251C7.0875 20.4251 6.73438 20.2759 6.44063 19.9775C6.14688 19.679 6 19.3203 6 18.9013V11.2822C6 10.8632 6.14688 10.5044 6.44063 10.206C6.73438 9.90762 7.0875 9.75841 7.5 9.75841H8.25V8.2346C8.25 7.18063 8.61563 6.28222 9.34688 5.53937C10.0781 4.79651 10.9625 4.42508 12 4.42508C13.0375 4.42508 13.9219 4.79651 14.6531 5.53937C15.3844 6.28222 15.75 7.18063 15.75 8.2346V9.75841H16.5C16.9125 9.75841 17.2656 9.90762 17.5594 10.206C17.8531 10.5044 18 10.8632 18 11.2822V18.9013C18 19.3203 17.8531 19.679 17.5594 19.9775C17.2656 20.2759 16.9125 20.4251 16.5 20.4251H7.5ZM12 16.6156C12.4125 16.6156 12.7656 16.4663 13.0594 16.1679C13.3531 15.8695 13.5 15.5108 13.5 15.0917C13.5 14.6727 13.3531 14.314 13.0594 14.0156C12.7656 13.7171 12.4125 13.5679 12 13.5679C11.5875 13.5679 11.2344 13.7171 10.9406 14.0156C10.6469 14.314 10.5 14.6727 10.5 15.0917C10.5 15.5108 10.6469 15.8695 10.9406 16.1679C11.2344 16.4663 11.5875 16.6156 12 16.6156ZM9.75 9.75841H14.25V8.2346C14.25 7.59968 14.0312 7.06 13.5938 6.61556C13.1562 6.17111 12.625 5.94889 12 5.94889C11.375 5.94889 10.8438 6.17111 10.4062 6.61556C9.96875 7.06 9.75 7.59968 9.75 8.2346V9.75841Z" fill="black"/>
</g>
</svg>
