<svg width="25" height="25" viewBox="0 0 25 25" fill="none" xmlns="http://www.w3.org/2000/svg">
<mask id="mask0_4673_16296" style="mask-type:alpha" maskUnits="userSpaceOnUse" x="0" y="0" width="25" height="25">
<rect x="0.826904" y="0.425079" width="24" height="24" fill="#D9D9D9"/>
</mask>
<g mask="url(#mask0_4673_16296)">
<path d="M12.8269 12.4251C11.7269 12.4251 10.7852 12.0334 10.0019 11.2501C9.21857 10.4667 8.8269 9.52508 8.8269 8.42508C8.8269 7.32508 9.21857 6.38341 10.0019 5.60008C10.7852 4.81675 11.7269 4.42508 12.8269 4.42508C13.9269 4.42508 14.8686 4.81675 15.6519 5.60008C16.4352 6.38341 16.8269 7.32508 16.8269 8.42508C16.8269 9.52508 16.4352 10.4667 15.6519 11.2501C14.8686 12.0334 13.9269 12.4251 12.8269 12.4251ZM4.8269 20.4251V17.6251C4.8269 17.0584 4.97274 16.5376 5.2644 16.0626C5.55607 15.5876 5.94357 15.2251 6.4269 14.9751C7.46024 14.4584 8.51024 14.0709 9.5769 13.8126C10.6436 13.5542 11.7269 13.4251 12.8269 13.4251C13.9269 13.4251 15.0102 13.5542 16.0769 13.8126C17.1436 14.0709 18.1936 14.4584 19.2269 14.9751C19.7102 15.2251 20.0977 15.5876 20.3894 16.0626C20.6811 16.5376 20.8269 17.0584 20.8269 17.6251V20.4251H4.8269Z" fill="black"/>
</g>
</svg>
