<svg width="24" height="24" viewBox="0 0 24 24" fill="none" xmlns="http://www.w3.org/2000/svg">
<mask id="mask0_4673_16309" style="mask-type:alpha" maskUnits="userSpaceOnUse" x="0" y="0" width="24" height="24">
<rect width="24" height="24" fill="#D9D9D9"/>
</mask>
<g mask="url(#mask0_4673_16309)">
<path d="M12.5 3C10.8189 3 9.17547 3.49852 7.77766 4.43251C6.37984 5.3665 5.29037 6.69402 4.64703 8.24719C4.00368 9.80036 3.83535 11.5094 4.16333 13.1583C4.4913 14.8071 5.30085 16.3217 6.4896 17.5104C7.67834 18.6992 9.1929 19.5087 10.8417 19.8367C12.4906 20.1646 14.1996 19.9963 15.7528 19.353C17.306 18.7096 18.6335 17.6202 19.5675 16.2223C20.5015 14.8245 21 13.1811 21 11.5C21 9.24566 20.1045 7.08365 18.5104 5.48959C16.9163 3.89553 14.7543 3 12.5 3Z" fill="#C4D2D3"/>
<path d="M16 10.5C16 11.1922 15.7947 11.8689 15.4101 12.4445C15.0256 13.0201 14.4789 13.4687 13.8394 13.7336C13.1999 13.9985 12.4961 14.0678 11.8172 13.9327C11.1383 13.7977 10.5146 13.4644 10.0251 12.9749C9.53564 12.4854 9.2023 11.8617 9.06725 11.1828C8.9322 10.5039 9.00152 9.80015 9.26642 9.16061C9.53133 8.52107 9.97993 7.97444 10.5555 7.58986C11.1311 7.20527 11.8078 7 12.5 7C12.9596 6.99994 13.4148 7.09043 13.8395 7.2663C14.2641 7.44217 14.65 7.69998 14.975 8.025C15.3 8.35001 15.5578 8.73587 15.7337 9.16054C15.9096 9.5852 16.0001 10.0404 16 10.5Z" fill="#00484A"/>
<path d="M12.5 15.0001C11.4426 14.9931 10.3975 15.2381 9.44445 15.7164C8.49136 16.1948 7.65533 16.8939 7 17.7606C8.49969 19.2008 10.4627 20 12.5 20C14.5373 20 16.5003 19.2008 18 17.7606C17.3447 16.8939 16.5086 16.1948 15.5556 15.7164C14.6025 15.2381 13.5574 14.9931 12.5 15.0001Z" fill="#00484A"/>
</g>
</svg>
