<svg width="25" height="25" viewBox="0 0 25 25" fill="none" xmlns="http://www.w3.org/2000/svg">
<path d="M12.3572 3.42508C7.66263 3.42508 3.85718 7.24007 3.85718 11.9464C3.85718 16.3647 7.21213 19.9973 11.5072 20.4251V14.5028H10.3172C10.0426 14.5028 9.79443 14.3366 9.68903 14.0818C9.58448 13.8262 9.64228 13.5339 9.83608 13.3388L11.8761 11.2937C12.1421 11.0269 12.5722 11.0269 12.8374 11.2937L14.8774 13.3388C15.0075 13.4691 15.0763 13.6438 15.0763 13.8211C15.0763 13.9088 15.0593 13.9975 15.0245 14.0818C14.9199 14.3366 14.6717 14.5028 14.3972 14.5028H13.2072V20.4251C17.5022 19.9973 20.8572 16.3655 20.8572 11.9464C20.8572 7.24007 17.0517 3.42508 12.3572 3.42508Z" fill="black"/>
<mask id="mask0_3525_6723" style="mask-type:alpha" maskUnits="userSpaceOnUse" x="0" y="0" width="25" height="25">
<rect x="0.857178" y="0.425079" width="24" height="24" fill="#D9D9D9"/>
</mask>
<g mask="url(#mask0_3525_6723)">
</g>
</svg>
