<svg width="24" height="25" viewBox="0 0 24 25" fill="none" xmlns="http://www.w3.org/2000/svg">
<mask id="mask0_4673_16290" style="mask-type:alpha" maskUnits="userSpaceOnUse" x="0" y="0" width="24" height="25">
<rect y="0.425079" width="24" height="24" fill="#D9D9D9"/>
</mask>
<g mask="url(#mask0_4673_16290)">
<path d="M5.85 12.4251L5.55 10.9251C5.35 10.8417 5.1625 10.7542 4.9875 10.6626C4.8125 10.5709 4.63333 10.4584 4.45 10.3251L3 10.7751L2 9.07508L3.15 8.07508C3.11667 7.85841 3.1 7.64175 3.1 7.42508C3.1 7.20841 3.11667 6.99175 3.15 6.77508L2 5.77508L3 4.07508L4.45 4.52508C4.63333 4.39175 4.8125 4.27925 4.9875 4.18758C5.1625 4.09591 5.35 4.00841 5.55 3.92508L5.85 2.42508H7.85L8.15 3.92508C8.35 4.00841 8.5375 4.09591 8.7125 4.18758C8.8875 4.27925 9.06667 4.39175 9.25 4.52508L10.7 4.07508L11.7 5.77508L10.55 6.77508C10.5833 6.99175 10.6 7.20841 10.6 7.42508C10.6 7.64175 10.5833 7.85841 10.55 8.07508L11.7 9.07508L10.7 10.7751L9.25 10.3251C9.06667 10.4584 8.8875 10.5709 8.7125 10.6626C8.5375 10.7542 8.35 10.8417 8.15 10.9251L7.85 12.4251H5.85ZM6.85 9.42508C7.4 9.42508 7.87083 9.22925 8.2625 8.83758C8.65417 8.44591 8.85 7.97508 8.85 7.42508C8.85 6.87508 8.65417 6.40425 8.2625 6.01258C7.87083 5.62091 7.4 5.42508 6.85 5.42508C6.3 5.42508 5.82917 5.62091 5.4375 6.01258C5.04583 6.40425 4.85 6.87508 4.85 7.42508C4.85 7.97508 5.04583 8.44591 5.4375 8.83758C5.82917 9.22925 6.3 9.42508 6.85 9.42508ZM14.8 23.4251L14.35 21.3251C14.0667 21.2251 13.8042 21.1042 13.5625 20.9626C13.3208 20.8209 13.0833 20.6584 12.85 20.4751L10.85 21.1251L9.45 18.7251L11.05 17.3251C11.0167 17.0251 11 16.7251 11 16.4251C11 16.1251 11.0167 15.8251 11.05 15.5251L9.45 14.1251L10.85 11.7251L12.85 12.3751C13.0833 12.1917 13.3208 12.0292 13.5625 11.8876C13.8042 11.7459 14.0667 11.6251 14.35 11.5251L14.8 9.42508H17.6L18.05 11.5251C18.3333 11.6251 18.5958 11.7459 18.8375 11.8876C19.0792 12.0292 19.3167 12.1917 19.55 12.3751L21.55 11.7251L22.95 14.1251L21.35 15.5251C21.3833 15.8251 21.4 16.1251 21.4 16.4251C21.4 16.7251 21.3833 17.0251 21.35 17.3251L22.95 18.7251L21.55 21.1251L19.55 20.4751C19.3167 20.6584 19.0792 20.8209 18.8375 20.9626C18.5958 21.1042 18.3333 21.2251 18.05 21.3251L17.6 23.4251H14.8ZM16.2 19.4251C17.0333 19.4251 17.7417 19.1334 18.325 18.5501C18.9083 17.9667 19.2 17.2584 19.2 16.4251C19.2 15.5917 18.9083 14.8834 18.325 14.3001C17.7417 13.7167 17.0333 13.4251 16.2 13.4251C15.3667 13.4251 14.6583 13.7167 14.075 14.3001C13.4917 14.8834 13.2 15.5917 13.2 16.4251C13.2 17.2584 13.4917 17.9667 14.075 18.5501C14.6583 19.1334 15.3667 19.4251 16.2 19.4251Z" fill="#1F1F1F"/>
</g>
</svg>
