<svg width="25" height="24" viewBox="0 0 25 24" fill="none" xmlns="http://www.w3.org/2000/svg">
<g filter="url(#filter0_d_3477_5857)">
<path d="M22.176 11.656L22.8016 11.4202L22.958 12.1277" stroke="#00484A" stroke-width="0.767613"/>
</g>
<path opacity="0.5" d="M13.1798 11.0568H12.9697V11.4106H13.1798V11.0568Z" fill="#7C92F1"/>
<path d="M13.1798 10.9788H12.9697V11.0588H13.1798V10.9788Z" fill="#7C92F1"/>
<path d="M13.1798 10.939H12.9697V10.9789H13.1798V10.939Z" fill="#4B87FF"/>
<path opacity="0.5" d="M13.1798 10.9241H12.9697V10.9391H13.1798V10.9241Z" fill="#4B87FF"/>
<path opacity="0.5" d="M12.9057 11.1313H12.6956V11.4107H12.9057V11.1313Z" fill="#7C92F1"/>
<path d="M12.9057 11.0703H12.6956V11.1334H12.9057V11.0703Z" fill="#7C92F1"/>
<path d="M12.9057 11.0388H12.6956V11.0703H12.9057V11.0388Z" fill="#4B87FF"/>
<path opacity="0.5" d="M12.9057 11.0267H12.6956V11.0386H12.9057V11.0267Z" fill="#4B87FF"/>
<path opacity="0.5" d="M13.9977 11.1001H13.7876V11.4108H13.9977V11.1001Z" fill="#7C92F1"/>
<path d="M13.9977 10.9513H13.7876V11.1019H13.9977V10.9513Z" fill="#7C92F1"/>
<path d="M13.9977 10.8825H13.7876V10.9514H13.9977V10.8825Z" fill="#4B87FF"/>
<path opacity="0.5" d="M13.9977 10.8433H13.7876V10.8824H13.9977V10.8433Z" fill="#4B87FF"/>
<path opacity="0.5" d="M14.2814 11.0003H14.0713V11.4127H14.2814V11.0003Z" fill="#7C92F1"/>
<path d="M14.2814 10.8005H14.0713V11.0004H14.2814V10.8005Z" fill="#7C92F1"/>
<path d="M14.2814 10.7091H14.0713V10.8006H14.2814V10.7091Z" fill="#4B87FF"/>
<path opacity="0.5" d="M14.2814 10.657H14.0713V10.7091H14.2814V10.657Z" fill="#4B87FF"/>
<path opacity="0.5" d="M13.7291 10.8992H13.519V11.4108H13.7291V10.8992Z" fill="#7C92F1"/>
<path d="M13.7291 10.7856H13.519V10.9012H13.7291V10.7856Z" fill="#7C92F1"/>
<path d="M13.7291 10.7277H13.519V10.7855H13.7291V10.7277Z" fill="#4B87FF"/>
<path opacity="0.5" d="M13.7291 10.706H13.519V10.7278H13.7291V10.706Z" fill="#4B87FF"/>
<path opacity="0.5" d="M13.4484 10.9817H13.2383V11.4106H13.4484V10.9817Z" fill="#7C92F1"/>
<path d="M13.4484 10.8639H13.2383V10.9838H13.4484V10.8639Z" fill="#7C92F1"/>
<path d="M13.4484 10.7954H13.2383V10.8656H13.4484V10.7954Z" fill="#4B87FF"/>
<path opacity="0.5" d="M13.4484 10.7708H13.2383V10.7955H13.4484V10.7708Z" fill="#4B87FF"/>
<g opacity="0.5">
<path opacity="0.3" d="M7.06177 13.2748L7.23561 13.0233C7.27098 12.9722 7.34134 12.9599 7.39196 12.9961L7.41639 13.0136C7.47707 13.0569 7.56238 13.0296 7.58652 12.959L7.67095 12.7121C7.70525 12.6116 7.84733 12.6116 7.88163 12.7121L7.92248 12.8316C7.95521 12.9275 8.0886 12.9333 8.12964 12.8407L8.16502 12.7608C8.20039 12.681 8.30945 12.6711 8.3587 12.7431C8.41039 12.8187 8.52629 12.803 8.55599 12.7163L8.59547 12.6008C8.63173 12.4947 8.78446 12.5027 8.80938 12.612L8.96045 13.2749C8.96045 13.2749 7.06724 13.2696 7.06196 13.2749L7.06177 13.2748Z" fill="#4B87FF"/>
</g>
<g opacity="0.5">
<path d="M7.05688 13.2813L7.19809 12.8681C7.23122 12.7713 7.36753 12.7696 7.40301 12.8656L7.47063 13.0486C7.49994 13.1279 7.60441 13.1449 7.65737 13.0791L7.71219 13.011C7.74864 12.9658 7.81421 12.9571 7.86111 12.9914L7.98874 13.0847C8.0074 13.0983 8.02988 13.1057 8.05294 13.1057H8.21535C8.23841 13.1057 8.26088 13.113 8.27955 13.1267L8.40043 13.2151C8.44997 13.2514 8.51974 13.2395 8.55443 13.1888L8.66788 13.0228C8.66935 13.0207 8.67082 13.0186 8.67238 13.0167C8.71792 12.959 8.80909 12.9712 8.84222 13.0368L8.96358 13.2775C8.96358 13.2775 7.05688 13.2736 7.05688 13.2814V13.2813Z" fill="#4B87FF"/>
</g>
<g opacity="0.5">
<path opacity="0.5" d="M8.96305 13.2773L8.81549 13.1572C8.61312 13.0082 8.51706 13.2917 8.35797 13.079L8.30315 13.0109C8.2667 12.9656 8.20113 12.9569 8.15423 12.9912L8.09081 13.0376C8.03042 13.0818 7.95762 13.1056 7.88286 13.1056H7.79999C7.77693 13.1056 7.75446 13.1129 7.73579 13.1266L7.61491 13.215C7.56537 13.2513 7.53078 13.2561 7.45143 13.1895C7.45143 13.1895 7.36534 13.1195 7.36329 13.117C7.32107 13.0656 7.23283 13.0656 7.19482 13.117C7.18573 13.1293 7.17615 13.1403 7.1658 13.1517L7.05176 13.2773C7.05176 13.2773 8.96305 13.2695 8.96305 13.2773Z" fill="#7C92F1"/>
</g>
<path opacity="0.2" d="M9.55786 15.3099H11.7517" stroke="#00484A" stroke-width="0.0263779" stroke-miterlimit="10"/>
<path opacity="0.2" d="M9.55786 15.2159H11.7517" stroke="#00484A" stroke-width="0.0263779" stroke-miterlimit="10"/>
<path opacity="0.2" d="M9.55786 15.1222H11.7517" stroke="#00484A" stroke-width="0.0263779" stroke-miterlimit="10"/>
<path opacity="0.2" d="M9.55786 15.0285H11.7517" stroke="#00484A" stroke-width="0.0263779" stroke-miterlimit="10"/>
<path opacity="0.2" d="M9.55786 14.9348H11.7517" stroke="#00484A" stroke-width="0.0263779" stroke-miterlimit="10"/>
<path opacity="0.2" d="M9.55786 14.8411H11.7517" stroke="#00484A" stroke-width="0.0263779" stroke-miterlimit="10"/>
<path opacity="0.2" d="M9.55786 14.7473H11.7517" stroke="#00484A" stroke-width="0.0263779" stroke-miterlimit="10"/>
<path opacity="0.1" d="M9.65942 15.3097L10.0575 15.064L10.4557 15.1658L10.8538 14.9196L11.2521 14.7808L11.6502 15.064V15.4034H9.65942V15.3097Z" fill="#4B87FF"/>
<path d="M9.65934 15.3385C9.67521 15.3385 9.68807 15.3256 9.68807 15.3097C9.68807 15.2939 9.67521 15.281 9.65934 15.281C9.64348 15.281 9.63062 15.2939 9.63062 15.3097C9.63062 15.3256 9.64348 15.3385 9.65934 15.3385Z" fill="#4B87FF"/>
<path d="M10.0575 15.0928C10.0734 15.0928 10.0863 15.0799 10.0863 15.0641C10.0863 15.0482 10.0734 15.0353 10.0575 15.0353C10.0417 15.0353 10.0288 15.0482 10.0288 15.0641C10.0288 15.0799 10.0417 15.0928 10.0575 15.0928Z" fill="#4B87FF"/>
<path d="M10.8537 14.9484C10.8695 14.9484 10.8824 14.9355 10.8824 14.9197C10.8824 14.9038 10.8695 14.8909 10.8537 14.8909C10.8378 14.8909 10.825 14.9038 10.825 14.9197C10.825 14.9355 10.8378 14.9484 10.8537 14.9484Z" fill="#4B87FF"/>
<path d="M11.2521 14.8097C11.268 14.8097 11.2808 14.7968 11.2808 14.7809C11.2808 14.7651 11.268 14.7522 11.2521 14.7522C11.2363 14.7522 11.2234 14.7651 11.2234 14.7809C11.2234 14.7968 11.2363 14.8097 11.2521 14.8097Z" fill="#4B87FF"/>
<path d="M11.6501 15.0928C11.6659 15.0928 11.6788 15.0799 11.6788 15.0641C11.6788 15.0482 11.6659 15.0353 11.6501 15.0353C11.6342 15.0353 11.6213 15.0482 11.6213 15.0641C11.6213 15.0799 11.6342 15.0928 11.6501 15.0928Z" fill="#4B87FF"/>
<path d="M10.4557 15.1945C10.4716 15.1945 10.4845 15.1817 10.4845 15.1658C10.4845 15.1499 10.4716 15.1371 10.4557 15.1371C10.4399 15.1371 10.427 15.1499 10.427 15.1658C10.427 15.1817 10.4399 15.1945 10.4557 15.1945Z" fill="#4B87FF"/>
<path d="M9.65942 15.3097L10.0575 15.064L10.4557 15.1658L10.8538 14.9196L11.2521 14.7808L11.6502 15.064" stroke="#4B87FF" stroke-width="0.105511" stroke-miterlimit="10"/>
<path d="M9.55786 15.4034H11.7517" stroke="#00484A" stroke-width="0.050027" stroke-miterlimit="10"/>
<g opacity="0.3">
<path d="M13.1548 13.4805V13.1589C12.9785 13.1589 12.8333 13.3041 12.8333 13.4805C12.8333 13.6569 12.9785 13.8021 13.1548 13.8021C13.3285 13.8021 13.4723 13.6614 13.4763 13.4879L13.1548 13.4805Z" fill="#7C92F1"/>
</g>
<g opacity="0.5">
<path d="M13.2332 13.3936L13.5547 13.4008C13.5547 13.3171 13.522 13.2293 13.4637 13.1693C13.4052 13.1093 13.3219 13.0744 13.2381 13.072L13.2332 13.3935V13.3936Z" fill="#4B87FF"/>
</g>
<path opacity="0.5" d="M15.0346 10.0658L14.9811 9.99681C15.0099 9.97453 15.0365 9.94854 15.0602 9.91883C15.2204 9.71802 15.1873 9.42545 14.9866 9.26529C14.9458 9.23275 14.9011 9.20812 14.8545 9.19131L14.8785 9.10718C14.9359 9.12711 14.9908 9.15701 15.0409 9.19698C15.2794 9.38714 15.3186 9.73463 15.1283 9.97317C15.1002 10.0083 15.0686 10.0393 15.0345 10.0657L15.0346 10.0658Z" fill="#4B87FF"/>
<path d="M14.8894 10.1466L14.8621 10.0636C14.9044 10.0476 14.9445 10.0253 14.9812 9.99689L15.0346 10.0659C14.9889 10.1013 14.9424 10.1274 14.8894 10.1466Z" fill="#4B87FF"/>
<path opacity="0.1" d="M14.3522 10.0606C14.1138 9.87046 14.0746 9.52287 14.2648 9.28444C14.415 9.09613 14.6633 9.03213 14.8786 9.10727L14.8545 9.19141C14.6722 9.12555 14.4606 9.1789 14.333 9.33887C14.1728 9.53968 14.2059 9.83225 14.4067 9.99241C14.5399 10.0986 14.7134 10.1199 14.8619 10.0636L14.8893 10.1465C14.7146 10.2099 14.5082 10.185 14.3522 10.0606Z" fill="#4B87FF"/>
<g opacity="0.1">
<path d="M7.35769 9.8315C7.33775 9.8315 7.32153 9.81528 7.32153 9.79535V9.11727C7.32153 9.09734 7.33775 9.08112 7.35769 9.08112C7.37762 9.08112 7.39385 9.09734 7.39385 9.11727V9.79535C7.39385 9.81528 7.37762 9.8315 7.35769 9.8315Z" fill="#4B87FF"/>
</g>
<g opacity="0.5">
<path d="M7.35769 9.83473C7.33775 9.83473 7.32153 9.81851 7.32153 9.79857V9.36147C7.32153 9.34154 7.33775 9.32532 7.35769 9.32532C7.37762 9.32532 7.39385 9.34154 7.39385 9.36147V9.79857C7.39385 9.81851 7.37762 9.83473 7.35769 9.83473Z" fill="#7C92F1"/>
</g>
<g opacity="0.1">
<path d="M7.50198 9.8315C7.48204 9.8315 7.46582 9.81528 7.46582 9.79535V9.11727C7.46582 9.09734 7.48204 9.08112 7.50198 9.08112C7.52191 9.08112 7.53813 9.09734 7.53813 9.11727V9.79535C7.53813 9.81528 7.52191 9.8315 7.50198 9.8315Z" fill="#4B87FF"/>
</g>
<g opacity="0.5">
<path d="M7.50198 9.83454C7.48204 9.83454 7.46582 9.81831 7.46582 9.79838V9.2236C7.46582 9.20366 7.48204 9.18744 7.50198 9.18744C7.52191 9.18744 7.53813 9.20366 7.53813 9.2236V9.79838C7.53813 9.81831 7.52191 9.83454 7.50198 9.83454Z" fill="#7C92F1"/>
</g>
<path opacity="0.1" d="M7.64651 9.8315C7.62657 9.8315 7.61035 9.81528 7.61035 9.79535V9.11727C7.61035 9.09734 7.62657 9.08112 7.64651 9.08112C7.66644 9.08112 7.68266 9.09734 7.68266 9.11727V9.79535C7.68266 9.81528 7.66644 9.8315 7.64651 9.8315Z" fill="#4B87FF"/>
<path opacity="0.5" d="M7.64651 9.83475C7.62657 9.83475 7.61035 9.81853 7.61035 9.79859V9.46468C7.61035 9.44475 7.62657 9.42853 7.64651 9.42853C7.66644 9.42853 7.68266 9.44475 7.68266 9.46468V9.79859C7.68266 9.81853 7.66644 9.83475 7.64651 9.83475Z" fill="#7C92F1"/>
<g opacity="0.1">
<path d="M7.79079 9.8315C7.77086 9.8315 7.75464 9.81528 7.75464 9.79535V9.11727C7.75464 9.09734 7.77086 9.08112 7.79079 9.08112C7.81073 9.08112 7.82695 9.09734 7.82695 9.11727V9.79535C7.82695 9.81528 7.81073 9.8315 7.79079 9.8315Z" fill="#4B87FF"/>
</g>
<g opacity="0.5">
<path d="M7.79079 9.83454C7.77086 9.83454 7.75464 9.81831 7.75464 9.79838V9.2236C7.75464 9.20366 7.77086 9.18744 7.79079 9.18744C7.81073 9.18744 7.82695 9.20366 7.82695 9.2236V9.79838C7.82695 9.81831 7.81073 9.83454 7.79079 9.83454Z" fill="#7C92F1"/>
</g>
<g opacity="0.1">
<path d="M7.93557 9.8315C7.91564 9.8315 7.89941 9.81528 7.89941 9.79535V9.11727C7.89941 9.09734 7.91564 9.08112 7.93557 9.08112C7.9555 9.08112 7.97173 9.09734 7.97173 9.11727V9.79535C7.97173 9.81528 7.9555 9.8315 7.93557 9.8315Z" fill="#4B87FF"/>
</g>
<g opacity="0.5">
<path d="M7.93557 9.83476C7.91564 9.83476 7.89941 9.81854 7.89941 9.7986V9.33395C7.89941 9.31401 7.91564 9.29779 7.93557 9.29779C7.9555 9.29779 7.97173 9.31401 7.97173 9.33395V9.7986C7.97173 9.81854 7.9555 9.83476 7.93557 9.83476Z" fill="#7C92F1"/>
</g>
<g opacity="0.1">
<path d="M8.07986 9.8315C8.05992 9.8315 8.0437 9.81528 8.0437 9.79535V9.11727C8.0437 9.09734 8.05992 9.08112 8.07986 9.08112C8.09979 9.08112 8.11601 9.09734 8.11601 9.11727V9.79535C8.11601 9.81528 8.09979 9.8315 8.07986 9.8315Z" fill="#4B87FF"/>
</g>
<path opacity="0.5" d="M8.07986 9.83148C8.05992 9.83148 8.0437 9.81525 8.0437 9.79854V9.46464C8.0437 9.44148 8.05992 9.42535 8.07986 9.42535C8.09979 9.42535 8.11601 9.44158 8.11601 9.46151V9.79542C8.11601 9.81535 8.09979 9.83157 8.07986 9.83157V9.83148Z" fill="#7C92F1"/>
<g opacity="0.1">
<path d="M8.22439 9.8315C8.20445 9.8315 8.18823 9.81528 8.18823 9.79535V9.11727C8.18823 9.09734 8.20445 9.08112 8.22439 9.08112C8.24432 9.08112 8.26054 9.09734 8.26054 9.11727V9.79535C8.26054 9.81528 8.24432 9.8315 8.22439 9.8315Z" fill="#4B87FF"/>
</g>
<path opacity="0.5" d="M8.36892 9.8314C8.34899 9.8314 8.33276 9.81518 8.33276 9.79524V9.18606C8.33276 9.16612 8.34899 9.1499 8.36892 9.1499C8.38885 9.1499 8.40508 9.16612 8.40508 9.18606V9.79524C8.40508 9.81518 8.38885 9.8314 8.36892 9.8314Z" fill="#7C92F1"/>
<path opacity="0.1" d="M8.36892 9.8315C8.34899 9.8315 8.33276 9.81528 8.33276 9.79535V9.11727C8.33276 9.09734 8.34899 9.08112 8.36892 9.08112C8.38885 9.08112 8.40508 9.09734 8.40508 9.11727V9.79535C8.40508 9.81528 8.38885 9.8315 8.36892 9.8315Z" fill="#4B87FF"/>
<g opacity="0.5">
<path d="M8.22439 9.83489C8.20445 9.83489 8.18823 9.81866 8.18823 9.79873V9.53371C8.18823 9.51378 8.20445 9.49756 8.22439 9.49756C8.24432 9.49756 8.26054 9.51378 8.26054 9.53371V9.79873C8.26054 9.81866 8.24432 9.83489 8.22439 9.83489Z" fill="#7C92F1"/>
</g>
<path opacity="0.1" d="M8.51345 9.8315C8.49352 9.8315 8.47729 9.81528 8.47729 9.79535V9.11727C8.47729 9.09734 8.49352 9.08112 8.51345 9.08112C8.53339 9.08112 8.54961 9.09734 8.54961 9.11727V9.79535C8.54961 9.81528 8.53339 9.8315 8.51345 9.8315Z" fill="#4B87FF"/>
<g opacity="0.5">
<path d="M8.51345 9.83132C8.49352 9.83132 8.47729 9.8151 8.47729 9.79839V9.70546C8.47729 9.6823 8.49352 9.66608 8.51345 9.66608C8.53339 9.66608 8.54961 9.6823 8.54961 9.70223V9.79516C8.54961 9.8151 8.53339 9.83132 8.51345 9.83132Z" fill="#7C92F1"/>
</g>
<g opacity="0.1">
<path d="M8.65774 9.8315C8.6378 9.8315 8.62158 9.81528 8.62158 9.79535V9.11727C8.62158 9.09734 8.6378 9.08112 8.65774 9.08112C8.67767 9.08112 8.69389 9.09734 8.69389 9.11727V9.79535C8.69389 9.81528 8.67767 9.8315 8.65774 9.8315Z" fill="#4B87FF"/>
</g>
<g opacity="0.5">
<path d="M8.65774 9.83148C8.6378 9.83148 8.62158 9.81525 8.62158 9.79854V9.46464C8.62158 9.44148 8.6378 9.42535 8.65774 9.42535C8.67767 9.42535 8.69389 9.44158 8.69389 9.46151V9.79542C8.69389 9.81535 8.67767 9.83157 8.65774 9.83157V9.83148Z" fill="#7C92F1"/>
</g>
<path d="M7.32837 9.95074H7.40068" stroke="#4B87FF" stroke-width="0.056394" stroke-linecap="round" stroke-linejoin="round"/>
<path d="M7.4729 9.95074H7.54521" stroke="#4B87FF" stroke-width="0.056394" stroke-linecap="round" stroke-linejoin="round"/>
<path d="M7.61743 9.95074H7.68974" stroke="#4B87FF" stroke-width="0.056394" stroke-linecap="round" stroke-linejoin="round"/>
<path d="M7.76196 9.95074H7.83428" stroke="#4B87FF" stroke-width="0.056394" stroke-linecap="round" stroke-linejoin="round"/>
<path d="M7.90625 9.95074H7.97856" stroke="#4B87FF" stroke-width="0.056394" stroke-linecap="round" stroke-linejoin="round"/>
<path d="M8.05078 9.95074H8.12309" stroke="#4B87FF" stroke-width="0.056394" stroke-linecap="round" stroke-linejoin="round"/>
<path d="M8.19531 9.95074H8.26763" stroke="#4B87FF" stroke-width="0.056394" stroke-linecap="round" stroke-linejoin="round"/>
<path d="M8.33984 9.95074H8.41216" stroke="#4B87FF" stroke-width="0.056394" stroke-linecap="round" stroke-linejoin="round"/>
<path d="M8.48413 9.95074H8.55644" stroke="#4B87FF" stroke-width="0.056394" stroke-linecap="round" stroke-linejoin="round"/>
<path d="M8.62891 9.95074H8.70122" stroke="#4B87FF" stroke-width="0.056394" stroke-linecap="round" stroke-linejoin="round"/>
<path d="M18.2664 14.3246L19.3232 12.7228L20.2131 13.7907L21.2144 12.0287L21.8262 12.883L22.7718 11.4948" stroke="#00484A" stroke-width="0.767613"/>
<g clip-path="url(#clip0_3477_5857)">
<path d="M4.11193 10.6232H3V14.3769C3.83256 14.3769 3.79376 13.6228 3.79376 13.6228V11.3551H4.02102C4.28043 11.3551 4.41014 11.5 4.41014 11.7963V13.2016C4.41014 13.4979 4.30261 13.6483 4.02102 13.6483H3.79376C3.79376 14.252 4.11414 14.3504 4.3403 14.3504C5.00768 14.3504 5.20279 13.8407 5.20279 13.2657V11.731C5.20279 11.0212 4.89016 10.6232 4.11193 10.6232Z" fill="#1C4749"/>
<path d="M9.01867 13.321V12.1203H9.49981V11.4469H8.42446C8.85128 11.3341 9.01867 11.0809 9.01867 10.6011H8.24598V11.4469H7.85132V12.1203H8.24598V13.4504C8.24598 14.0375 8.4677 14.3979 9.08852 14.3979C9.25037 14.3979 9.39116 14.3814 9.50978 14.3438V13.6914C9.44992 13.708 9.39116 13.7124 9.32021 13.7124C9.08741 13.7124 9.01757 13.6052 9.01757 13.3188L9.01867 13.321Z" fill="#1C4749"/>
<path d="M6.6474 11.4093C5.97227 11.4093 5.56208 11.8129 5.56208 12.4431V12.4752L6.33478 12.5293V12.4431C6.33478 12.222 6.42679 12.1147 6.60971 12.1147C6.79263 12.1147 6.89019 12.212 6.89019 12.4055V12.6101L6.30706 12.7228C5.73946 12.8301 5.45898 13.1375 5.45898 13.6383C5.45898 14.0906 5.75609 14.3979 6.17181 14.3979C6.56093 14.3979 6.82589 14.1613 6.89019 13.7356C6.89019 13.7356 6.84252 14.3548 7.66288 14.3548V12.421C7.66288 11.7587 7.29039 11.4082 6.6474 11.4082V11.4093ZM6.89019 13.2735C6.89019 13.5156 6.7117 13.6881 6.47446 13.6881C6.32813 13.6881 6.23168 13.6018 6.23168 13.467C6.23168 13.321 6.31815 13.2303 6.48555 13.1972L6.89019 13.1165V13.2724V13.2735Z" fill="#1C4749"/>
<path d="M10.9863 11.4093C10.3111 11.4093 9.90095 11.8129 9.90095 12.4431V12.4752L10.6736 12.5293V12.4431C10.6736 12.222 10.7657 12.1147 10.9486 12.1147C11.1315 12.1147 11.2291 12.212 11.2291 12.4055V12.6101L10.6459 12.7228C10.0783 12.8301 9.79785 13.1375 9.79785 13.6383C9.79785 14.0906 10.095 14.3979 10.5107 14.3979C10.8998 14.3979 11.1648 14.1613 11.2291 13.7356C11.2291 13.7356 11.1814 14.3548 12.0017 14.3548V12.421C12.0017 11.7587 11.6293 11.4082 10.9863 11.4082V11.4093ZM11.2291 13.2735C11.2291 13.5156 11.0506 13.6881 10.8133 13.6881C10.667 13.6881 10.5705 13.6018 10.5705 13.467C10.5705 13.321 10.657 13.2303 10.8244 13.1972L11.2291 13.1165V13.2724V13.2735Z" fill="#1C4749"/>
<path d="M17.3254 11.4093C16.6502 11.4093 16.2401 11.8129 16.2401 12.4431V12.4752L17.0128 12.5293V12.4431C17.0128 12.222 17.1048 12.1147 17.2877 12.1147C17.4706 12.1147 17.5682 12.212 17.5682 12.4055V12.6101L16.985 12.7228C16.4174 12.8301 16.137 13.1375 16.137 13.6383C16.137 14.0906 16.4341 14.3979 16.8498 14.3979C17.2389 14.3979 17.5039 14.1613 17.5682 13.7356C17.5682 13.7356 17.5205 14.3548 18.3409 14.3548V12.421C18.3409 11.7587 17.9684 11.4082 17.3254 11.4082V11.4093ZM17.5682 13.2735C17.5682 13.5156 17.3897 13.6881 17.1524 13.6881C17.0061 13.6881 16.9097 13.6018 16.9097 13.467C16.9097 13.321 16.9961 13.2303 17.1635 13.1972L17.5682 13.1165V13.2724V13.2735Z" fill="#1C4749"/>
<path d="M15.1913 11.4038C14.8021 11.4038 14.5328 11.6835 14.4951 12.1092C14.4463 11.6725 14.209 11.4038 13.8144 11.4038C13.4419 11.4038 13.1714 11.6681 13.1226 12.0827L13.0195 11.4469H12.3555V14.3559H13.1282V12.4597C13.1282 12.2331 13.2313 12.1203 13.4364 12.1203C13.6414 12.1203 13.739 12.2331 13.739 12.4597V14.3559H14.5062V12.4597C14.5062 12.2331 14.6093 12.1203 14.8143 12.1203C15.0194 12.1203 15.117 12.2331 15.117 12.4597V14.3559H15.8897V12.3138C15.8897 11.7532 15.6624 11.4038 15.1935 11.4038H15.1913Z" fill="#1C4749"/>
</g>
<path d="M12.0114 13.5981L11.7208 13.8711L11.1831 13.401C11.3524 13.2956 11.5044 13.1649 11.634 13.0144L12.0114 13.5982V13.5981Z" fill="#005A5A"/>
<path d="M13.7412 15.2806L13.1773 15.7474L11.5049 13.7985L11.546 13.7625L11.9837 13.3634L12.0164 13.3354L13.7412 15.2806Z" fill="#16D0B4"/>
<path d="M9.92943 9C8.56448 9 7.45801 10.1065 7.45801 11.4713C7.45801 12.8362 8.56448 13.9427 9.92943 13.9427C10.4096 13.9427 10.8581 13.8059 11.2379 13.5681C11.4495 13.4364 11.6396 13.2729 11.8016 13.0847C12.1753 12.6522 12.4012 12.0884 12.4012 11.4713C12.4012 10.1064 11.2944 9 9.92943 9ZM9.9305 13.4251C8.85158 13.4251 7.9768 12.5503 7.9768 11.4714C7.9768 10.3925 8.85158 9.51772 9.9305 9.51772C11.0094 9.51772 11.8847 10.3925 11.8847 11.4714C11.8847 12.5503 11.0099 13.4251 9.9305 13.4251Z" fill="#16D0B4"/>
<circle cx="9.92172" cy="11.4762" r="1.95395" fill="#16D0B4" fill-opacity="0.35"/>
<g filter="url(#filter1_dd_3477_5857)">
<path d="M8.20183 11.5441C8.24755 11.9846 8.49936 12.2591 8.88818 12.2591C9.32872 12.2591 9.62042 12.2591 9.62042 12.2591V10.6131C9.62042 10.2086 9.29251 9.88086 8.88818 9.88086C8.5279 9.88086 8.28176 10.1096 8.21301 10.5217L8.20166 11.5443L8.20183 11.5441Z" fill="white"/>
<g style="mix-blend-mode:multiply">
<path d="M6.65747 9.7237C6.65747 9.05654 7.89667 9.05654 7.89667 9.7237H6.65747Z" fill="#16D0B4"/>
</g>
<g style="mix-blend-mode:multiply">
<path d="M8.38135 9.72376C8.51084 9.01621 9.51092 9.05659 9.62055 9.72376H8.38135Z" fill="#16D0B4"/>
</g>
<path d="M6.57487 11.5441C6.6206 11.9846 6.87241 12.2591 7.26122 12.2591C7.70177 12.2591 7.99347 12.2591 7.99347 12.2591V10.6131C7.99347 10.2086 7.66556 9.88086 7.26122 9.88086C6.90094 9.88086 6.65481 10.1096 6.58605 10.5217L6.57471 11.5443L6.57487 11.5441Z" fill="white"/>
<g style="mix-blend-mode:multiply">
<path d="M7.03855 11.604C7.26222 11.604 7.44355 11.4227 7.44355 11.199C7.44355 10.9753 7.26222 10.794 7.03855 10.794C6.81487 10.794 6.63354 10.9753 6.63354 11.199C6.63354 11.4227 6.81487 11.604 7.03855 11.604Z" fill="#00484A"/>
</g>
<g style="mix-blend-mode:multiply">
<path d="M8.67405 11.604C8.89772 11.604 9.07905 11.4227 9.07905 11.199C9.07905 10.9753 8.89772 10.794 8.67405 10.794C8.45037 10.794 8.26904 10.9753 8.26904 11.199C8.26904 11.4227 8.45037 11.604 8.67405 11.604Z" fill="#00484A"/>
</g>
<path d="M8.77344 11.0226C8.82818 11.0226 8.87256 10.9783 8.87256 10.9235C8.87256 10.8688 8.82818 10.8244 8.77344 10.8244C8.7187 10.8244 8.67432 10.8688 8.67432 10.9235C8.67432 10.9783 8.7187 11.0226 8.77344 11.0226Z" fill="white"/>
<path d="M7.15698 11.0226C7.21173 11.0226 7.25611 10.9783 7.25611 10.9235C7.25611 10.8688 7.21173 10.8244 7.15698 10.8244C7.10224 10.8244 7.05786 10.8688 7.05786 10.9235C7.05786 10.9783 7.10224 11.0226 7.15698 11.0226Z" fill="white"/>
</g>
<defs>
<filter id="filter0_d_3477_5857" x="21.2729" y="10.9048" width="2.82746" height="2.84089" filterUnits="userSpaceOnUse" color-interpolation-filters="sRGB">
<feFlood flood-opacity="0" result="BackgroundImageFix"/>
<feColorMatrix in="SourceAlpha" type="matrix" values="0 0 0 0 0 0 0 0 0 0 0 0 0 0 0 0 0 0 127 0" result="hardAlpha"/>
<feOffset dy="0.767613"/>
<feGaussianBlur stdDeviation="0.383807"/>
<feComposite in2="hardAlpha" operator="out"/>
<feColorMatrix type="matrix" values="0 0 0 0 0 0 0 0 0 0 0 0 0 0 0 0 0 0 0.25 0"/>
<feBlend mode="normal" in2="BackgroundImageFix" result="effect1_dropShadow_3477_5857"/>
<feBlend mode="normal" in="SourceGraphic" in2="effect1_dropShadow_3477_5857" result="shape"/>
</filter>
<filter id="filter1_dd_3477_5857" x="0.0499935" y="5.37006" width="16.0953" height="16.1005" filterUnits="userSpaceOnUse" color-interpolation-filters="sRGB">
<feFlood flood-opacity="0" result="BackgroundImageFix"/>
<feColorMatrix in="SourceAlpha" type="matrix" values="0 0 0 0 0 0 0 0 0 0 0 0 0 0 0 0 0 0 127 0" result="hardAlpha"/>
<feOffset dy="2.68665"/>
<feGaussianBlur stdDeviation="3.26236"/>
<feComposite in2="hardAlpha" operator="out"/>
<feColorMatrix type="matrix" values="0 0 0 0 0 0 0 0 0 0.282353 0 0 0 0 0.290196 0 0 0 0.16 0"/>
<feBlend mode="normal" in2="BackgroundImageFix" result="effect1_dropShadow_3477_5857"/>
<feColorMatrix in="SourceAlpha" type="matrix" values="0 0 0 0 0 0 0 0 0 0 0 0 0 0 0 0 0 0 127 0" result="hardAlpha"/>
<feOffset dy="0.767613"/>
<feGaussianBlur stdDeviation="0.767613"/>
<feComposite in2="hardAlpha" operator="out"/>
<feColorMatrix type="matrix" values="0 0 0 0 0 0 0 0 0 0.282353 0 0 0 0 0.290196 0 0 0 0.1 0"/>
<feBlend mode="normal" in2="effect1_dropShadow_3477_5857" result="effect2_dropShadow_3477_5857"/>
<feBlend mode="normal" in="SourceGraphic" in2="effect2_dropShadow_3477_5857" result="shape"/>
</filter>
<clipPath id="clip0_3477_5857">
<rect width="15.3408" height="3.79797" fill="white" transform="translate(3 10.6011)"/>
</clipPath>
</defs>
</svg>
