<svg width="24" height="24" viewBox="0 0 24 24" fill="none" xmlns="http://www.w3.org/2000/svg">
<mask id="mask0_4673_16299" style="mask-type:alpha" maskUnits="userSpaceOnUse" x="0" y="0" width="24" height="24">
<rect width="24" height="24" fill="#D9D9D9"/>
</mask>
<g mask="url(#mask0_4673_16299)">
<path fill-rule="evenodd" clip-rule="evenodd" d="M14.8269 5.5616C14.8269 3.59425 16.3547 2 18.2401 2C20.3295 2 21.6533 3.78035 21.6533 5.83628C21.6533 7.37615 21.3253 8.70311 20.9995 9.64296C20.8362 10.1139 20.6724 10.4908 20.5479 10.7524C20.4857 10.8833 20.4331 10.9857 20.3953 11.0568C20.3763 11.0924 20.3611 11.1202 20.35 11.14C20.3445 11.1498 20.3401 11.1576 20.3368 11.1634L20.3327 11.1705L20.3313 11.1729L20.3308 11.1738L20.3306 11.1742C20.3305 11.1744 20.3304 11.1745 19.8447 10.8656L20.3304 11.1745C20.1669 11.4544 19.8169 11.543 19.5487 11.3724C19.2807 11.202 19.1957 10.8373 19.3585 10.5575C19.3585 10.5575 19.3585 10.5575 19.3585 10.5575L19.3589 10.5569C19.3589 10.5568 19.359 10.5568 19.359 10.5567L19.3597 10.5554C19.3611 10.553 19.3637 10.5485 19.3672 10.5421C19.3744 10.5293 19.3857 10.5087 19.4007 10.4806C19.4306 10.4243 19.4749 10.3382 19.5289 10.2247C19.6369 9.99755 19.7831 9.66215 19.9297 9.23911C20.2238 8.39104 20.5157 7.20335 20.5157 5.83628C20.5157 4.29586 19.5749 3.18707 18.2401 3.18707C16.983 3.18707 15.9645 4.24985 15.9645 5.5616C15.9645 5.87266 16.0473 6.47077 16.1415 7.03612C16.187 7.30904 16.2325 7.5597 16.2668 7.74228C16.2838 7.83347 16.2981 7.90742 16.308 7.95838C16.3129 7.98385 16.3168 8.00356 16.3194 8.01678L16.3224 8.03165L16.3233 8.03625C16.3874 8.35713 16.1902 8.67155 15.8827 8.73852C15.5751 8.80548 15.2738 8.59963 15.2096 8.27874L15.7581 8.15932C15.2096 8.27874 15.2097 8.27878 15.2096 8.27874L15.2084 8.27266L15.2052 8.25621C15.2024 8.24192 15.1983 8.22107 15.1931 8.1944C15.1827 8.14107 15.168 8.0644 15.1503 7.97019C15.115 7.78198 15.0679 7.5228 15.0207 7.23948C14.9295 6.69239 14.8269 5.99256 14.8269 5.5616Z" fill="#16D0B4"/>
<path d="M18.3373 6.7703C18.2039 5.61433 18.1927 5.61665 17.1005 5.47661C16.9159 5.45262 16.7209 5.43018 16.5229 5.40852C16.5184 5.46036 16.5081 5.5091 16.5081 5.56172C16.5081 5.80545 16.5748 6.30374 16.6578 6.81982C17.0634 7.11384 17.3296 7.60284 17.3296 8.15762C17.3296 9.05825 16.6297 9.78866 15.7666 9.78866C14.9035 9.78866 14.2035 9.05825 14.2035 8.15762C14.2035 7.81949 14.3021 7.50613 14.4704 7.24538C14.3748 6.65888 14.2836 5.99192 14.2836 5.56172C14.2836 5.44875 14.3065 5.3443 14.3154 5.23365C12.7079 5.14622 11.2783 5.15241 11.147 5.28936L2.8815 13.9135C2.37283 14.4443 2.37283 15.3054 2.8815 15.8354L8.40791 21.6013C8.91657 22.1329 9.74186 22.1329 10.2498 21.6021L18.5146 12.9772C18.8912 12.5857 18.5635 8.74256 18.3373 6.7703Z" fill="#00484A"/>
<path d="M9.3456 18.3832L7.62789 16.6928L8.46894 15.8381L8.76144 16.126L8.23076 16.6653L8.63761 17.0656L9.09604 16.5998L9.37771 16.877L8.91928 17.3428L9.65596 18.0678L9.3456 18.3832ZM10.3537 17.3588L9.02236 16.0487L9.28533 15.7814L9.61699 16.0367C9.52045 15.9117 9.4749 15.7919 9.48035 15.6772C9.48579 15.5609 9.54269 15.4589 9.65106 15.3713L9.95199 15.6674C9.82483 15.795 9.7677 15.9181 9.78059 16.0366C9.79347 16.1535 9.87695 16.2878 10.031 16.4395L10.6546 17.0531L10.3537 17.3588ZM11.5824 16.1488C11.441 16.2924 11.2887 16.3645 11.1255 16.365C10.9623 16.3655 10.8105 16.2967 10.6701 16.1585L10.2175 15.7131C10.0746 15.5725 10.0034 15.421 10.0036 15.2586C10.0039 15.0946 10.072 14.9436 10.2078 14.8055C10.3531 14.6579 10.5086 14.5834 10.6741 14.5821C10.8397 14.5791 10.9923 14.6464 11.132 14.7838L11.4293 15.0764L10.8026 15.7131L10.9555 15.8636C11.0839 15.9899 11.2034 15.9969 11.3139 15.8846C11.4253 15.7714 11.4176 15.6525 11.2908 15.5277L11.2547 15.4922L11.5484 15.1937L11.593 15.2375C11.735 15.3773 11.8043 15.5284 11.8008 15.6908C11.7973 15.8517 11.7245 16.0043 11.5824 16.1488ZM10.5812 15.4952L10.914 15.1569L10.8382 15.0823C10.713 14.9591 10.5947 14.9541 10.4834 15.0672C10.4305 15.121 10.4063 15.1793 10.4107 15.2422C10.4152 15.3035 10.4467 15.3629 10.5053 15.4206L10.5812 15.4952ZM12.658 15.0558C12.5166 15.1994 12.3643 15.2715 12.2011 15.272C12.0379 15.2725 11.8861 15.2037 11.7457 15.0655L11.2931 14.6201C11.1502 14.4795 11.0789 14.328 11.0792 14.1656C11.0795 14.0016 11.1476 13.8506 11.2834 13.7126C11.4287 13.5649 11.5842 13.4904 11.7497 13.4891C11.9153 13.4862 12.0679 13.5534 12.2075 13.6908L12.5049 13.9834L11.8782 14.6202L12.0311 14.7706C12.1595 14.897 12.279 14.904 12.3895 14.7916C12.5009 14.6785 12.4932 14.5595 12.3664 14.4347L12.3303 14.3992L12.624 14.1007L12.6686 14.1445C12.8106 14.2843 12.8799 14.4354 12.8764 14.5978C12.8729 14.7587 12.8001 14.9113 12.658 15.0558ZM11.6567 14.4022L11.9896 14.064L11.9138 13.9893C11.7886 13.8661 11.6703 13.8611 11.559 13.9743C11.5061 14.028 11.4818 14.0863 11.4863 14.1492C11.4908 14.2105 11.5223 14.2699 11.5809 14.3276L11.6567 14.4022Z" fill="#FEFEFE"/>
</g>
</svg>
