<svg width="24" height="24" viewBox="0 0 24 24" fill="none" xmlns="http://www.w3.org/2000/svg">
<mask id="mask0_3477_6065" style="mask-type:alpha" maskUnits="userSpaceOnUse" x="0" y="0" width="24" height="24">
<rect width="24" height="24" fill="#D9D9D9"/>
</mask>
<g mask="url(#mask0_3477_6065)">
<path d="M20.3607 12.4307L12.2626 11.8277L19.6691 15.1319L19.3873 15.7634L12.2712 11.9316L17.9773 17.6377L17.4882 18.1269L12.1886 11.9743L15.0896 19.5477L14.4439 19.7949L12.1212 12.0535V20.1232H11.43L12.033 12.025L8.72876 19.4315L8.09732 19.1497L11.9291 12.0336L6.22294 17.7397L5.73383 17.2506L11.8864 11.951L4.31298 14.852L4.06581 14.2064L12.0491 11.8111L11.0733 11.7385H11.9139L11.1876 11.3471L11.9376 11.6816L11.4106 11.0696L12.005 11.664L11.7678 10.8736L12.0615 11.6408L12.1212 10.8352V11.6759L12.5126 10.9496L12.1782 11.6996L12.7902 11.1725L12.2242 11.7385H12.2911L12.9861 11.5298L12.4415 11.7385H20.3607V12.4297V12.4307ZM3.73657 11.7394H11.0728L3.73657 11.1934V11.7394ZM12.1212 3.49994V10.8362L12.6678 3.49994H12.1217H12.1212ZM17.9773 5.98583L12.7897 11.1735L18.3635 6.372L17.9773 5.98583ZM15.5014 4.25045L12.5126 10.9505L16 4.47295L15.5014 4.25045ZM9.14339 4.02368L11.7673 10.8746L9.65338 3.8287L9.14339 4.02416V4.02368ZM19.8365 8.90628L12.9856 11.5302L20.032 9.41627L19.8365 8.90628ZM4.48708 8.35882L11.1871 11.3476L4.71006 7.86069L4.48756 8.35929L4.48708 8.35882ZM6.22247 5.88289L11.4101 11.0705L6.60863 5.49672L6.22247 5.88289Z" fill="url(#paint0_radial_3477_6065)"/>
<path d="M15.989 6.81989L13.198 9.41314" stroke="#4B87FF" stroke-width="0.121036" stroke-miterlimit="10"/>
<path d="M19.6808 7.24928L16.9141 6.86554" stroke="#4B87FF" stroke-width="0.121036" stroke-miterlimit="10"/>
<path d="M8.32586 9.46873L6.60229 8.38916" stroke="#4B87FF" stroke-width="0.121036" stroke-miterlimit="10"/>
<path d="M7.97269 11.0177L2.84644 10.5275" stroke="#4B87FF" stroke-width="0.121036" stroke-miterlimit="10"/>
<path d="M8.84321 13.0787L7.06592 14.3062" stroke="#4B87FF" stroke-width="0.121036" stroke-miterlimit="10"/>
<path d="M5.38845 14.3062L2.40063 10.4423" stroke="#4B87FF" stroke-width="0.121036" stroke-miterlimit="10"/>
<path d="M20.8998 10.3816L16.5671 7.40045" stroke="#4B87FF" stroke-width="0.121036" stroke-miterlimit="10"/>
<path d="M20.8999 10.8956L13.5737 11.1122" stroke="#4B87FF" stroke-width="0.121036" stroke-miterlimit="10"/>
<path d="M16.3675 14.7206L12.9338 12.4883" stroke="#4B87FF" stroke-width="0.121036" stroke-miterlimit="10"/>
<path d="M11.4088 14.5272C13.1754 14.5272 14.6074 13.0879 14.6074 11.3124C14.6074 9.53686 13.1754 8.09753 11.4088 8.09753C9.64227 8.09753 8.21021 9.53686 8.21021 11.3124C8.21021 13.0879 9.64227 14.5272 11.4088 14.5272Z" fill="#16D0B4"/>
<path d="M10.8287 11.6772C10.7744 12.2032 10.4753 12.5314 10.0129 12.5314H9.14282V10.5654C9.14282 10.0825 9.53238 9.69098 10.0129 9.69098C10.4412 9.69098 10.7336 9.96412 10.8152 10.4564L10.8287 11.6777V11.6772Z" fill="white"/>
<g style="mix-blend-mode:multiply">
<path d="M12.9128 9.7958C13.2445 9.07193 11.9074 8.45295 11.5752 9.1763L12.9128 9.7958Z" fill="#16D0B4"/>
</g>
<g style="mix-blend-mode:multiply">
<path d="M10.1042 9.2859C9.52455 8.65446 8.546 9.33367 8.85961 10.0773L10.1042 9.2859Z" fill="#16D0B4"/>
</g>
<path d="M12.7623 11.6772C12.708 12.2032 12.4089 12.5314 11.9465 12.5314H11.0764V10.5654C11.0764 10.0825 11.466 9.69098 11.9465 9.69098C12.3748 9.69098 12.6672 9.96412 12.7488 10.4564L12.7623 11.6777V11.6772Z" fill="white"/>
<g style="mix-blend-mode:multiply">
<path d="M12.1205 10.6811C12.3376 10.6811 12.5136 10.5042 12.5136 10.286C12.5136 10.0677 12.3376 9.89081 12.1205 9.89081C11.9033 9.89081 11.7273 10.0677 11.7273 10.286C11.7273 10.5042 11.9033 10.6811 12.1205 10.6811Z" fill="#00484A"/>
</g>
<g style="mix-blend-mode:multiply">
<path d="M10.1385 10.6811C10.3557 10.6811 10.5317 10.5042 10.5317 10.286C10.5317 10.0677 10.3557 9.89081 10.1385 9.89081C9.92139 9.89081 9.74536 10.0677 9.74536 10.286C9.74536 10.5042 9.92139 10.6811 10.1385 10.6811Z" fill="#00484A"/>
</g>
<path d="M10.2938 10.0705C10.3589 10.0705 10.4116 10.0175 10.4116 9.95213C10.4116 9.88675 10.3589 9.83374 10.2938 9.83374C10.2288 9.83374 10.176 9.88675 10.176 9.95213C10.176 10.0175 10.2288 10.0705 10.2938 10.0705Z" fill="white"/>
<path d="M12.2235 10.0373C12.2886 10.0373 12.3413 9.98426 12.3413 9.91887C12.3413 9.85348 12.2886 9.80048 12.2235 9.80048C12.1585 9.80048 12.1057 9.85348 12.1057 9.91887C12.1057 9.98426 12.1585 10.0373 12.2235 10.0373Z" fill="white"/>
<g filter="url(#filter0_d_3477_6065)">
<path d="M5.7661 9.13539C6.6498 9.13539 7.36618 8.41538 7.36618 7.5272C7.36618 6.63902 6.6498 5.91901 5.7661 5.91901C4.8824 5.91901 4.16602 6.63902 4.16602 7.5272C4.16602 8.41538 4.8824 9.13539 5.7661 9.13539Z" fill="#4285F4"/>
</g>
<path d="M5.71607 7.84599H5.8163V7.57129H6.06843V7.47367H5.8163V7.19897H5.71607V7.47367H5.46704V7.57129H5.71607V7.84599Z" fill="white"/>
<path d="M5.25136 8.24274H5.3366V7.99868H5.56135V7.92235H5.3366V7.67517H5.25136V7.92235H5.02661V7.99868H5.25136V8.24274Z" fill="white"/>
<path d="M6.19594 7.36096H6.28118V7.1169H6.50903V7.04368H6.28118V6.79651H6.19594V7.04368H5.97119V7.1169H6.19594V7.36096Z" fill="white"/>
<path d="M5.73124 8.43479H5.80409V8.26084H5.95909V8.19697H5.80409V8.02301H5.73124V8.19697H5.57935V8.26084H5.73124V8.43479Z" fill="white"/>
<path d="M5.25446 7.36096H5.33351V7.11379H5.56135V7.04368H5.33351V6.79651H5.25446V7.04368H5.02661V7.11379H5.25446V7.36096Z" fill="white"/>
<path d="M6.4539 7.72709H6.52675V7.55625H6.68174V7.48926H6.52675V7.31842H6.4539V7.48926H6.302V7.55625H6.4539V7.72709Z" fill="white"/>
<path fill-rule="evenodd" clip-rule="evenodd" d="M6.19594 8.24274H6.28118V7.99868H6.50903V7.92235H6.28118V7.67517H6.19594V7.92235H5.97119V7.99868H6.19594V8.24274Z" fill="white"/>
<path d="M5.94693 6.8391V6.78717H5.79503V6.61945H5.74027V6.78717H5.58837V6.8391H5.74027V7.00682H5.79503V6.8391H5.94693ZM5.00248 7.71511H5.05725V7.54739H5.20914V7.49546H5.05725V7.33085H5.00248V7.49546H4.85059V7.5505L5.00248 7.54739V7.71511Z" fill="white"/>
<g filter="url(#filter1_d_3477_6065)">
<path d="M6.21141 16.4057C7.09511 16.4057 7.81149 15.6857 7.81149 14.7975C7.81149 13.9093 7.09511 13.1893 6.21141 13.1893C5.32771 13.1893 4.61133 13.9093 4.61133 14.7975C4.61133 15.6857 5.32771 16.4057 6.21141 16.4057Z" fill="#4285F4"/>
</g>
<path d="M5.9325 15.2882C5.9325 15.3412 5.88962 15.3889 5.83227 15.3889C5.77492 15.3889 5.73204 15.3458 5.73204 15.2882V14.8567C5.73204 14.8037 5.77492 14.7559 5.83227 14.7559C5.88962 14.7559 5.9325 14.799 5.9325 14.8567V15.2882ZM6.21873 15.4035C6.21873 15.4564 6.17585 15.5042 6.1185 15.5042C6.06115 15.5042 6.02292 15.4611 6.02292 15.4035V14.7466C6.02292 14.6936 6.0658 14.6459 6.12315 14.6459C6.1805 14.6459 6.22338 14.689 6.22338 14.7466V15.4035H6.21873ZM5.64162 15.1926C5.64162 15.2456 5.59874 15.2934 5.54139 15.2934C5.48404 15.2934 5.44116 15.2503 5.44116 15.1926V14.9579C5.44116 14.905 5.48404 14.8572 5.54139 14.8572C5.59874 14.8572 5.64162 14.905 5.64162 14.9579V15.1926ZM6.50496 15.5089C6.50496 15.5619 6.46207 15.6096 6.40473 15.6096C6.35203 15.6096 6.30914 15.5619 6.30914 15.5089V14.6365C6.30914 14.5835 6.35203 14.5358 6.40938 14.5358C6.46207 14.5358 6.50961 14.5789 6.50961 14.6365V15.5089H6.50496Z" fill="white"/>
<path d="M6.81969 15.4652C6.80058 15.4652 6.78611 15.4606 6.76699 15.4559L6.64765 15.4175C6.62853 15.4128 6.61406 15.3889 6.62388 15.3697C6.62853 15.3505 6.6523 15.3359 6.67141 15.3458L6.79541 15.3842C6.81918 15.3936 6.84811 15.3889 6.87187 15.3697C6.89564 15.3552 6.90546 15.3266 6.90546 15.3027V14.502C6.90546 14.4636 6.88169 14.4303 6.84811 14.4205L5.67943 14.0658C5.65567 14.0565 5.62673 14.0611 5.60297 14.0751C5.58385 14.0944 5.56938 14.1182 5.56938 14.1468V14.6983C5.56938 14.7222 5.55027 14.7367 5.53115 14.7367C5.50739 14.7367 5.49292 14.7175 5.49292 14.6983V14.1468C5.49292 14.0938 5.51669 14.0461 5.55957 14.0175C5.60245 13.9838 5.65515 13.9791 5.70268 13.9936L6.86671 14.3483C6.93336 14.3675 6.98141 14.4345 6.98141 14.5067V15.3074C6.98141 15.3604 6.95764 15.4081 6.91476 15.4419C6.88634 15.4512 6.85276 15.4658 6.81918 15.4658" fill="white"/>
<g filter="url(#filter2_d_3477_6065)">
<path d="M15.9889 7.91295C16.5896 7.91295 17.0765 7.42357 17.0765 6.81988C17.0765 6.21619 16.5896 5.72681 15.9889 5.72681C15.3883 5.72681 14.9014 6.21619 14.9014 6.81988C14.9014 7.42357 15.3883 7.91295 15.9889 7.91295Z" fill="#16D0B4"/>
</g>
<g filter="url(#filter3_d_3477_6065)">
<path d="M20.3134 8.13672C20.7716 8.13672 21.1431 7.76335 21.1431 7.30277C21.1431 6.84219 20.7716 6.46881 20.3134 6.46881C19.8551 6.46881 19.4836 6.84219 19.4836 7.30277C19.4836 7.76335 19.8551 8.13672 20.3134 8.13672Z" fill="#F8663C"/>
</g>
<g filter="url(#filter4_d_3477_6065)">
<path d="M2.32975 11.081C2.78801 11.081 3.1595 10.7076 3.1595 10.247C3.1595 9.78646 2.78801 9.41309 2.32975 9.41309C1.87149 9.41309 1.5 9.78646 1.5 10.247C1.5 10.7076 1.87149 11.081 2.32975 11.081Z" fill="#16D0B4"/>
</g>
<g filter="url(#filter5_d_3477_6065)">
<path d="M16.9506 16.3767C17.6671 16.3767 18.248 15.7929 18.248 15.0728C18.248 14.3526 17.6671 13.7689 16.9506 13.7689C16.2342 13.7689 15.6533 14.3526 15.6533 15.0728C15.6533 15.7929 16.2342 16.3767 16.9506 16.3767Z" fill="#F8663C"/>
</g>
<g filter="url(#filter6_d_3477_6065)">
<path d="M20.9001 12.3263C21.7838 12.3263 22.5002 11.6063 22.5002 10.7181C22.5002 9.82994 21.7838 9.10992 20.9001 9.10992C20.0164 9.10992 19.3 9.82994 19.3 10.7181C19.3 11.6063 20.0164 12.3263 20.9001 12.3263Z" fill="#4285F4"/>
</g>
<g opacity="0.85">
<path d="M20.8152 10.1604C20.8152 10.2689 20.7594 10.365 20.6757 10.4201L20.6189 10.2824C20.6514 10.2523 20.6721 10.2087 20.6721 10.1604C20.6721 10.1308 20.6644 10.1028 20.6509 10.0789L20.7548 9.97504C20.793 10.027 20.8157 10.0908 20.8157 10.1604H20.8152Z" fill="white"/>
<path d="M20.3402 10.1603C20.3402 10.2522 20.414 10.3265 20.5055 10.327L20.5623 10.4657C20.5437 10.4693 20.5251 10.4708 20.5055 10.4708C20.335 10.4708 20.1965 10.3317 20.1965 10.1603C20.1965 9.98896 20.335 9.84979 20.5055 9.84979C20.5794 9.84979 20.6471 9.87576 20.7003 9.91938L20.5975 10.0217C20.5711 10.004 20.5396 9.99415 20.506 9.99415C20.4146 9.99415 20.3402 10.0684 20.3402 10.1603Z" fill="white"/>
</g>
<path opacity="0.7" d="M21.1004 9.77252C21.1004 9.88365 21.0105 9.974 20.8999 9.974C20.8586 9.974 20.8204 9.96154 20.7888 9.94025L20.871 9.8582C20.8798 9.86132 20.8896 9.86288 20.8999 9.86288C20.9495 9.86288 20.9898 9.82237 20.9898 9.77252C20.9898 9.72267 20.9495 9.68217 20.8999 9.68217C20.8503 9.68217 20.81 9.72267 20.81 9.77252C20.81 9.78395 20.8121 9.79433 20.8157 9.8042L20.7341 9.88572C20.7124 9.85353 20.6995 9.81458 20.6995 9.77252C20.6995 9.6614 20.7894 9.57104 20.8999 9.57104C21.0105 9.57104 21.1004 9.6614 21.1004 9.77252Z" fill="white"/>
<path d="M21.6034 11.1585C21.6034 11.5484 21.2887 11.8652 20.9002 11.8652C20.5117 11.8652 20.197 11.5489 20.197 11.1585C20.197 10.8812 20.3556 10.6413 20.5871 10.5255L20.6723 10.7332C20.522 10.8147 20.4197 10.9746 20.4197 11.1579C20.4197 11.4243 20.6346 11.6409 20.9002 11.6409C21.1658 11.6409 21.3807 11.4248 21.3807 11.1579C21.3807 10.891 21.1658 10.6755 20.9002 10.6755C20.8609 10.6755 20.8232 10.6802 20.7865 10.689L20.7008 10.4808C20.7638 10.4621 20.831 10.4517 20.9002 10.4517C21.2882 10.4517 21.6034 10.768 21.6034 11.1585Z" fill="white"/>
</g>
<defs>
<filter id="filter0_d_3477_6065" x="3.28886" y="5.04185" width="4.95451" height="4.97068" filterUnits="userSpaceOnUse" color-interpolation-filters="sRGB">
<feFlood flood-opacity="0" result="BackgroundImageFix"/>
<feColorMatrix in="SourceAlpha" type="matrix" values="0 0 0 0 0 0 0 0 0 0 0 0 0 0 0 0 0 0 127 0" result="hardAlpha"/>
<feOffset/>
<feGaussianBlur stdDeviation="0.438578"/>
<feColorMatrix type="matrix" values="0 0 0 0 0.294118 0 0 0 0 0.529412 0 0 0 0 1 0 0 0 0.8 0"/>
<feBlend mode="normal" in2="BackgroundImageFix" result="effect1_dropShadow_3477_6065"/>
<feBlend mode="normal" in="SourceGraphic" in2="effect1_dropShadow_3477_6065" result="shape"/>
</filter>
<filter id="filter1_d_3477_6065" x="3.73417" y="12.3122" width="4.95451" height="4.97068" filterUnits="userSpaceOnUse" color-interpolation-filters="sRGB">
<feFlood flood-opacity="0" result="BackgroundImageFix"/>
<feColorMatrix in="SourceAlpha" type="matrix" values="0 0 0 0 0 0 0 0 0 0 0 0 0 0 0 0 0 0 127 0" result="hardAlpha"/>
<feOffset/>
<feGaussianBlur stdDeviation="0.438578"/>
<feColorMatrix type="matrix" values="0 0 0 0 0.294118 0 0 0 0 0.529412 0 0 0 0 1 0 0 0 0.8 0"/>
<feBlend mode="normal" in2="BackgroundImageFix" result="effect1_dropShadow_3477_6065"/>
<feBlend mode="normal" in="SourceGraphic" in2="effect1_dropShadow_3477_6065" result="shape"/>
</filter>
<filter id="filter2_d_3477_6065" x="12.4693" y="3.29469" width="7.03928" height="7.05039" filterUnits="userSpaceOnUse" color-interpolation-filters="sRGB">
<feFlood flood-opacity="0" result="BackgroundImageFix"/>
<feColorMatrix in="SourceAlpha" type="matrix" values="0 0 0 0 0 0 0 0 0 0 0 0 0 0 0 0 0 0 127 0" result="hardAlpha"/>
<feOffset/>
<feGaussianBlur stdDeviation="1.21606"/>
<feColorMatrix type="matrix" values="0 0 0 0 0.294118 0 0 0 0 0.529412 0 0 0 0 1 0 0 0 0.3 0"/>
<feBlend mode="normal" in2="BackgroundImageFix" result="effect1_dropShadow_3477_6065"/>
<feBlend mode="normal" in="SourceGraphic" in2="effect1_dropShadow_3477_6065" result="shape"/>
</filter>
<filter id="filter3_d_3477_6065" x="17.6268" y="4.61197" width="5.3731" height="5.38158" filterUnits="userSpaceOnUse" color-interpolation-filters="sRGB">
<feFlood flood-opacity="0" result="BackgroundImageFix"/>
<feColorMatrix in="SourceAlpha" type="matrix" values="0 0 0 0 0 0 0 0 0 0 0 0 0 0 0 0 0 0 127 0" result="hardAlpha"/>
<feOffset/>
<feGaussianBlur stdDeviation="0.928419"/>
<feColorMatrix type="matrix" values="0 0 0 0 0.294118 0 0 0 0 0.529412 0 0 0 0 1 0 0 0 0.3 0"/>
<feBlend mode="normal" in2="BackgroundImageFix" result="effect1_dropShadow_3477_6065"/>
<feBlend mode="normal" in="SourceGraphic" in2="effect1_dropShadow_3477_6065" result="shape"/>
</filter>
<filter id="filter4_d_3477_6065" x="-0.356838" y="7.55625" width="5.3731" height="5.38158" filterUnits="userSpaceOnUse" color-interpolation-filters="sRGB">
<feFlood flood-opacity="0" result="BackgroundImageFix"/>
<feColorMatrix in="SourceAlpha" type="matrix" values="0 0 0 0 0 0 0 0 0 0 0 0 0 0 0 0 0 0 127 0" result="hardAlpha"/>
<feOffset/>
<feGaussianBlur stdDeviation="0.928419"/>
<feColorMatrix type="matrix" values="0 0 0 0 0.294118 0 0 0 0 0.529412 0 0 0 0 1 0 0 0 0.3 0"/>
<feBlend mode="normal" in2="BackgroundImageFix" result="effect1_dropShadow_3477_6065"/>
<feBlend mode="normal" in="SourceGraphic" in2="effect1_dropShadow_3477_6065" result="shape"/>
</filter>
<filter id="filter5_d_3477_6065" x="12.7513" y="10.8668" width="8.39877" height="8.41183" filterUnits="userSpaceOnUse" color-interpolation-filters="sRGB">
<feFlood flood-opacity="0" result="BackgroundImageFix"/>
<feColorMatrix in="SourceAlpha" type="matrix" values="0 0 0 0 0 0 0 0 0 0 0 0 0 0 0 0 0 0 127 0" result="hardAlpha"/>
<feOffset/>
<feGaussianBlur stdDeviation="1.45101"/>
<feColorMatrix type="matrix" values="0 0 0 0 0.294118 0 0 0 0 0.529412 0 0 0 0 1 0 0 0 0.3 0"/>
<feBlend mode="normal" in2="BackgroundImageFix" result="effect1_dropShadow_3477_6065"/>
<feBlend mode="normal" in="SourceGraphic" in2="effect1_dropShadow_3477_6065" result="shape"/>
</filter>
<filter id="filter6_d_3477_6065" x="18.4229" y="8.23277" width="4.95451" height="4.97068" filterUnits="userSpaceOnUse" color-interpolation-filters="sRGB">
<feFlood flood-opacity="0" result="BackgroundImageFix"/>
<feColorMatrix in="SourceAlpha" type="matrix" values="0 0 0 0 0 0 0 0 0 0 0 0 0 0 0 0 0 0 127 0" result="hardAlpha"/>
<feOffset/>
<feGaussianBlur stdDeviation="0.438578"/>
<feColorMatrix type="matrix" values="0 0 0 0 0.294118 0 0 0 0 0.529412 0 0 0 0 1 0 0 0 0.8 0"/>
<feBlend mode="normal" in2="BackgroundImageFix" result="effect1_dropShadow_3477_6065"/>
<feBlend mode="normal" in="SourceGraphic" in2="effect1_dropShadow_3477_6065" result="shape"/>
</filter>
<radialGradient id="paint0_radial_3477_6065" cx="0" cy="0" r="1" gradientUnits="userSpaceOnUse" gradientTransform="translate(12.0487 11.812) scale(8.31209)">
<stop stop-color="#16D0B4"/>
<stop offset="1" stop-color="white"/>
</radialGradient>
</defs>
</svg>
