<svg width="24" height="24" viewBox="0 0 24 24" fill="none" xmlns="http://www.w3.org/2000/svg">
<path d="M19.7376 20.3061C19.4861 19.7225 19.1788 19.1649 18.82 18.6415C18.5914 18.2751 18.275 17.9727 17.9002 17.7621L16.2612 16.7253H7.73922L6.09966 17.7621C5.72484 17.9727 5.40853 18.2751 5.17984 18.6415C4.82118 19.1649 4.51393 19.7225 4.26248 20.3061C4.2086 20.4154 4.19607 20.5407 4.22721 20.6586C4.25836 20.7765 4.33106 20.8789 4.43166 20.9466C5.63771 21.6644 8.86157 21.9885 12.0001 21.9885C15.1386 21.9885 18.3615 21.6644 19.5676 20.9466C19.6683 20.879 19.7412 20.7767 19.7725 20.6588C19.8038 20.5409 19.7914 20.4155 19.7376 20.3061Z" fill="#16D0B4"/>
<path d="M17.047 18.5874C17.1078 19.4988 16.6819 21.3101 16.4489 21.81C16.0039 21.8805 15.5362 21.9395 15.0512 21.9887C15.3085 18.9628 14.6722 17.2498 14.1055 15.6729C15.5327 16.1565 15.9795 16.4253 16.2977 16.699C16.8349 17.158 16.9287 17.4908 16.807 17.6711C16.6854 17.8563 16.1064 17.9858 16.1064 17.9858C16.854 18.153 17.0278 18.3169 17.047 18.5874Z" fill="#16D0B4"/>
<path d="M9.89463 15.6729C9.32649 17.2498 8.69059 18.9628 8.94773 21.9887C8.46298 21.9395 7.99561 21.8805 7.55082 21.81C7.31801 21.3101 6.89233 19.4988 6.95314 18.5874C6.97226 18.3169 7.146 18.153 7.8931 17.9858C7.8931 17.9858 7.31627 17.8563 7.19291 17.6727C7.06955 17.4891 7.16685 17.158 7.70198 16.699C8.02167 16.4253 8.46819 16.1565 9.89463 15.6729Z" fill="#16D0B4"/>
<path d="M6.14063 17.7854L7.81617 16.7253C7.30165 17.1979 7.20977 17.5406 7.3267 17.728C7.44364 17.9153 7.99992 18.0504 7.99992 18.0504C7.2816 18.2226 7.11455 18.3914 7.09617 18.6699C7.0377 19.6084 7.44698 21.4736 7.67083 21.9885C6.2442 21.7538 5.06983 21.4196 4.4367 21.0432C4.33401 20.9739 4.25976 20.8693 4.22779 20.7488C4.19583 20.6283 4.20833 20.5001 4.26296 20.3883C4.52038 19.7914 4.83423 19.221 5.20013 18.6851C5.43427 18.3104 5.75763 18.0011 6.14063 17.7854Z" fill="#16D0B4"/>
<path d="M19.7364 20.3883C19.7915 20.5001 19.8042 20.6283 19.7722 20.7489C19.7402 20.8695 19.6657 20.9742 19.5627 21.0432C18.9314 21.4196 17.7571 21.7538 16.329 21.9885C16.5529 21.4736 16.9621 19.6084 16.9036 18.6699C16.8853 18.3914 16.7182 18.2226 16 18.0504C16 18.0504 16.5562 17.917 16.6731 17.7263C16.79 17.5406 16.6999 17.1979 16.1837 16.7253L17.859 17.7854C18.242 18.0011 18.5653 18.3104 18.7994 18.6851C19.1656 19.2208 19.4794 19.7912 19.7364 20.3883Z" fill="#16D0B4"/>
<path d="M14.2091 15.7379C14.7443 17.3087 15.3453 19.0151 15.1023 22.0293C14.0723 22.1421 13.0369 22.1988 12.0008 22.1991C10.964 22.1987 9.92811 22.142 8.8976 22.0293C8.6546 19.0151 9.25553 17.3087 9.79243 15.7379C9.92049 15.2938 10.1356 15.2366 10.2899 15.2546C10.6741 15.3003 11.0567 15.6334 11.9975 15.6334H12.0024C12.9432 15.6334 13.3274 15.3003 13.71 15.2546C13.8643 15.2366 14.081 15.2938 14.2091 15.7379Z" fill="#00484A"/>
<path d="M16.7951 6.83075H7.20498C5.98771 6.86394 5.16454 7.18652 5.27272 7.67704C5.45279 8.49429 8.28459 9.56759 12 9.56759C15.7155 9.56759 18.5473 8.49429 18.7273 7.67704C18.8355 7.18652 18.0123 6.86361 16.7951 6.83075Z" fill="#00484A"/>
<path d="M16.7552 6.88224C16.7948 7.08049 16.8239 7.2807 16.8422 7.48202C16.8422 7.9053 14.65 8.51489 12.0001 8.51489C9.35011 8.51489 7.15796 7.9053 7.15796 7.48202C7.17626 7.2807 7.20528 7.08049 7.24492 6.88224C7.68795 4.5779 9.49779 1.3551 11.4668 2.40267C11.631 2.4896 11.8141 2.53505 12.0001 2.53505C12.186 2.53505 12.3691 2.4896 12.5333 2.40267C14.5023 1.3551 16.3122 4.5779 16.7552 6.88224Z" fill="#16D0B4"/>
<path fill-rule="evenodd" clip-rule="evenodd" d="M8.51753 9.43831L8.52217 9.43758C8.62073 9.46432 8.74067 9.49174 8.88107 9.51857C8.88446 9.51506 8.88787 9.51158 8.8913 9.50811C9.26619 9.5735 9.64305 9.62655 10.0213 9.66716C11.3259 9.77712 13.272 9.77369 15.6755 9.39647L16.0063 9.32204C17.6082 8.93295 18.7126 8.34021 18.8393 7.76928C18.8573 7.68962 18.8568 7.60693 18.838 7.52748C18.8191 7.44804 18.7824 7.37393 18.7306 7.31081C18.4774 6.98587 17.8152 6.77899 16.9004 6.73525C16.5348 4.98984 15.4585 2.84911 14.1219 2.2114C13.8634 2.07868 13.576 2.01208 13.2854 2.01753C12.9949 2.02298 12.7102 2.10032 12.4568 2.24264C12.3159 2.31684 12.1591 2.35562 11.9999 2.35562C11.8406 2.35562 11.6838 2.31684 11.543 2.24264C11.2898 2.10058 11.0053 2.02338 10.715 2.01793C10.4248 2.01248 10.1376 2.07894 9.87928 2.2114C8.54333 2.84911 7.46721 4.9905 7.10165 6.73591C6.18866 6.77834 5.5248 6.98537 5.27123 7.31146C5.21944 7.37462 5.18273 7.44875 5.1639 7.52822C5.14506 7.6077 5.14459 7.69042 5.16253 7.7701C5.30198 8.40041 6.63693 9.05819 8.51784 9.43789C8.51774 9.43803 8.51764 9.43817 8.51753 9.43831ZM5.52973 7.51291C5.6751 7.32659 6.1464 7.11956 7.03867 7.06891C7.01499 7.21461 6.99509 7.358 6.98325 7.4991C6.98325 8.1771 9.68014 8.70283 12.0004 8.70283C14.3207 8.70283 17.0176 8.17661 17.017 7.48495C17.0056 7.3534 16.9859 7.21313 16.9624 7.06875C17.854 7.11972 18.3258 7.32709 18.4712 7.51274C18.493 7.53771 18.5087 7.5675 18.5169 7.59969C18.525 7.63188 18.5254 7.66554 18.518 7.69791C18.4218 8.13188 17.2039 8.79524 15.1364 9.17034C14.4408 9.29525 13.7382 9.37675 13.0325 9.41438C12.3451 9.45121 11.6562 9.45121 10.9687 9.41438C10.2627 9.37668 9.55971 9.29506 8.86384 9.17001C6.79644 8.79508 5.57857 8.13171 5.48237 7.69791C5.47512 7.66551 5.47564 7.63185 5.4839 7.5997C5.49216 7.56754 5.50776 7.5378 5.52973 7.51291Z" fill="#00484A"/>
<path d="M14.2091 15.7379C14.7443 17.3087 15.3453 19.0151 15.1023 22.0293C14.0723 22.1421 13.0369 22.1988 12.0008 22.1991C10.964 22.1987 9.92811 22.142 8.8976 22.0293C8.6546 19.0151 9.25553 17.3087 9.79243 15.7379C9.92049 15.2938 10.1356 15.2366 10.2899 15.2546C10.6741 15.3003 11.0567 15.6334 11.9975 15.6334H12.0024C12.9432 15.6334 13.3274 15.3003 13.71 15.2546C13.8643 15.2366 14.081 15.2938 14.2091 15.7379Z" fill="#00484A"/>
<path fill-rule="evenodd" clip-rule="evenodd" d="M8.51753 9.43831L8.52217 9.43758C8.62073 9.46432 8.74067 9.49174 8.88107 9.51857C8.88446 9.51506 8.88787 9.51158 8.8913 9.50811C9.26619 9.5735 9.64305 9.62655 10.0213 9.66716C11.3259 9.77712 13.272 9.77369 15.6755 9.39647L16.0063 9.32204C17.6082 8.93295 18.7126 8.34021 18.8393 7.76928C18.8573 7.68962 18.8568 7.60693 18.838 7.52748C18.8191 7.44804 18.7824 7.37393 18.7306 7.31081C18.4774 6.98587 17.8152 6.77899 16.9004 6.73525C16.5348 4.98984 15.4585 2.84911 14.1219 2.2114C13.8634 2.07868 13.576 2.01208 13.2854 2.01753C12.9949 2.02298 12.7102 2.10032 12.4568 2.24264C12.3159 2.31684 12.1591 2.35562 11.9999 2.35562C11.8406 2.35562 11.6838 2.31684 11.543 2.24264C11.2898 2.10058 11.0053 2.02338 10.715 2.01793C10.4248 2.01248 10.1376 2.07894 9.87928 2.2114C8.54333 2.84911 7.46721 4.9905 7.10165 6.73591C6.18866 6.77834 5.5248 6.98537 5.27123 7.31146C5.21944 7.37462 5.18273 7.44875 5.1639 7.52822C5.14506 7.6077 5.14459 7.69042 5.16253 7.7701C5.30198 8.40041 6.63693 9.05819 8.51784 9.43789C8.51774 9.43803 8.51764 9.43817 8.51753 9.43831ZM5.52973 7.51291C5.6751 7.32659 6.1464 7.11956 7.03867 7.06891C7.01499 7.21461 6.99509 7.358 6.98325 7.4991C6.98325 8.1771 9.68014 8.70283 12.0004 8.70283C14.3207 8.70283 17.0176 8.17661 17.017 7.48495C17.0056 7.3534 16.9859 7.21313 16.9624 7.06875C17.854 7.11972 18.3258 7.32709 18.4712 7.51274C18.493 7.53771 18.5087 7.5675 18.5169 7.59969C18.525 7.63188 18.5254 7.66554 18.518 7.69791C18.4218 8.13188 17.2039 8.79524 15.1364 9.17034C14.4408 9.29525 13.7382 9.37675 13.0325 9.41438C12.3451 9.45121 11.6562 9.45121 10.9687 9.41438C10.2627 9.37668 9.55971 9.29506 8.86384 9.17001C6.79644 8.79508 5.57857 8.13171 5.48237 7.69791C5.47512 7.66551 5.47564 7.63185 5.4839 7.5997C5.49216 7.56754 5.50776 7.5378 5.52973 7.51291Z" fill="#00484A"/>
</svg>
