<svg width="24" height="24" viewBox="0 0 24 24" fill="none" xmlns="http://www.w3.org/2000/svg">
<mask id="mask0_4673_16300" style="mask-type:alpha" maskUnits="userSpaceOnUse" x="0" y="0" width="24" height="24">
<rect width="24" height="24" fill="#D9D9D9"/>
</mask>
<g mask="url(#mask0_4673_16300)">
<path d="M19.633 6.88273C19.5705 5.94063 18.8465 5.18892 17.9435 5.12697C17.1623 5.07336 16.381 5.03434 15.5998 5.00762C15.2384 4.99531 14.9944 5.39371 15.1563 5.73092C15.1714 5.76217 15.1866 5.79324 15.2024 5.82412C15.3638 6.14201 15.4555 6.50422 15.4555 6.88917C15.4555 8.28801 14.2524 9.39379 12.867 9.14107C11.9549 8.97474 11.2327 8.19708 11.0954 7.24153C11.0164 6.69234 11.1257 6.1744 11.3654 5.74493C11.3667 5.74247 11.3681 5.7402 11.3694 5.73774C11.5535 5.40507 11.3042 4.98868 10.9362 5.00024C10.0851 5.02695 9.234 5.06862 8.3829 5.12697C7.48005 5.18892 6.75567 5.94082 6.69322 6.88273C6.63294 7.79035 6.59119 8.69778 6.56559 9.6054C6.55651 9.92688 6.26276 10.1648 5.96666 10.075C5.70704 9.99622 5.45487 9.88691 5.21341 9.75354C4.90877 9.58513 4.56165 9.48946 4.19274 9.48946C2.852 9.48927 1.79248 10.7447 2.03466 12.1903C2.19406 13.1421 2.93932 13.8957 3.85506 14.0389C4.38137 14.1213 4.87773 14.0073 5.2893 13.7572C5.49953 13.6295 5.72411 13.5337 5.95685 13.4662C6.25986 13.3783 6.56159 13.6028 6.57158 13.9308C6.59736 14.7751 6.63694 15.6194 6.69304 16.464C6.75531 17.4029 7.46571 18.1566 8.36565 18.2186C11.5582 18.4385 14.7507 18.4389 17.9431 18.2197C18.8463 18.1578 19.5703 17.4061 19.6328 16.464C19.8448 13.2702 19.8448 10.0765 19.633 6.88273Z" fill="#00484A"/>
<path d="M19.9439 13.6209L15.9553 13.5026C15.7507 13.4965 15.5521 13.5755 15.403 13.722L14.2103 14.8948C13.8997 15.2002 13.8846 15.7097 14.1765 16.0329L17.125 19.2984C17.4748 19.6858 18.0602 19.7032 18.4324 19.3373L21.5694 16.2526C21.8799 15.9473 21.8951 15.4378 21.6032 15.1145L20.4821 13.873C20.3421 13.7176 20.1484 13.6271 19.9439 13.6209Z" fill="#CFB003"/>
<path d="M13.968 15.4572C13.9618 15.6633 14.031 15.8714 14.1769 16.0329L17.13 19.3037C17.4772 19.6882 18.0582 19.7055 18.4277 19.3422L21.5698 16.2526C21.7249 16.1 21.8064 15.8962 21.8125 15.6903L13.968 15.4572Z" fill="url(#paint0_linear_4673_16300)"/>
<path d="M15.963 15.5164L17.5266 19.4183C17.6176 19.6452 17.9227 19.6543 18.027 19.4332L19.8193 15.631L15.963 15.5164Z" fill="#F2CF12"/>
<path opacity="0.65" d="M15.9605 15.5165L19.8166 15.631L20.247 13.6978C20.1524 13.6514 20.0492 13.6242 19.9424 13.6211L15.954 13.5027C15.8473 13.4995 15.7427 13.5206 15.6454 13.5612L15.9605 15.5165Z" fill="url(#paint1_linear_4673_16300)"/>
<path d="M15.9618 15.5164L17.9497 13.5617L19.8181 15.631L15.9618 15.5164Z" fill="url(#paint2_linear_4673_16300)"/>
</g>
<defs>
<linearGradient id="paint0_linear_4673_16300" x1="19.9895" y1="13.6714" x2="15.6127" y2="17.6233" gradientUnits="userSpaceOnUse">
<stop stop-color="#F8D61F"/>
<stop offset="0.96" stop-color="#D6BF42"/>
</linearGradient>
<linearGradient id="paint1_linear_4673_16300" x1="19.4934" y1="12.8631" x2="16.2274" y2="15.8121" gradientUnits="userSpaceOnUse">
<stop stop-color="#D0B109"/>
<stop offset="1" stop-color="#FFEF98"/>
</linearGradient>
<linearGradient id="paint2_linear_4673_16300" x1="18.8839" y1="14.5963" x2="16.8165" y2="16.463" gradientUnits="userSpaceOnUse">
<stop stop-color="#D0B109"/>
<stop offset="1" stop-color="#F6E16F"/>
</linearGradient>
</defs>
</svg>
