<svg width="24" height="24" viewBox="0 0 24 24" fill="none" xmlns="http://www.w3.org/2000/svg">
<mask id="mask0_3477_6065" style="mask-type:alpha" maskUnits="userSpaceOnUse" x="0" y="0" width="24" height="24">
<rect width="24" height="24" fill="#D9D9D9"/>
</mask>
<g mask="url(#mask0_3477_6065)">
<path d="M20.361 12.4307L12.2629 11.8277L19.6693 15.132L19.3875 15.7634L12.2714 11.9316L17.9776 17.6378L17.4885 18.1269L12.1889 11.9743L15.0899 19.5478L14.4442 19.7949L12.1215 12.0536V20.1232H11.4303L12.0332 12.0251L8.729 19.4315L8.09757 19.1497L11.9294 12.0336L6.22318 17.7398L5.73407 17.2507L11.8867 11.9511L4.31322 14.8521L4.06605 14.2064L12.0494 11.8111L11.0735 11.7386H11.9142L11.1879 11.3472L11.9379 11.6816L11.4108 11.0696L12.0053 11.6641L11.7681 10.8737L12.0617 11.6408L12.1215 10.8353V11.6759L12.5129 10.9496L12.1784 11.6997L12.7904 11.1726L12.2244 11.7386H12.2913L12.9863 11.5298L12.4417 11.7386H20.361V12.4298V12.4307ZM3.73682 11.7395H11.073L3.73682 11.1935V11.7395ZM12.1215 3.5V10.8362L12.668 3.5H12.122H12.1215ZM17.9776 5.98589L12.7899 11.1735L18.3637 6.37206L17.9776 5.98589ZM15.5016 4.25051L12.5129 10.9506L16.0002 4.47301L15.5016 4.25051ZM9.14363 4.02375L11.7676 10.8747L9.65362 3.82876L9.14363 4.02422V4.02375ZM19.8368 8.90634L12.9859 11.5303L20.0322 9.41633L19.8368 8.90634ZM4.48733 8.35888L11.1874 11.3476L4.7103 7.86075L4.4878 8.35935L4.48733 8.35888ZM6.22271 5.88295L11.4104 11.0706L6.60888 5.49678L6.22271 5.88295Z" fill="url(#paint0_radial_3477_6065)"/>
<path d="M15.9892 6.81995L13.1982 9.4132" stroke="#4B87FF" stroke-width="0.121036" stroke-miterlimit="10"/>
<path d="M19.6808 7.24934L16.9141 6.8656" stroke="#4B87FF" stroke-width="0.121036" stroke-miterlimit="10"/>
<path d="M8.3261 9.46873L6.60254 8.38916" stroke="#4B87FF" stroke-width="0.121036" stroke-miterlimit="10"/>
<path d="M7.97294 11.0178L2.84668 10.5276" stroke="#4B87FF" stroke-width="0.121036" stroke-miterlimit="10"/>
<path d="M8.84321 13.0787L7.06592 14.3063" stroke="#4B87FF" stroke-width="0.121036" stroke-miterlimit="10"/>
<path d="M5.3887 14.3063L2.40088 10.4424" stroke="#4B87FF" stroke-width="0.121036" stroke-miterlimit="10"/>
<path d="M20.8996 10.3817L16.5669 7.40051" stroke="#4B87FF" stroke-width="0.121036" stroke-miterlimit="10"/>
<path d="M20.8999 10.8956L13.5737 11.1122" stroke="#4B87FF" stroke-width="0.121036" stroke-miterlimit="10"/>
<path d="M16.3678 14.7206L12.9341 12.4883" stroke="#4B87FF" stroke-width="0.121036" stroke-miterlimit="10"/>
<path d="M11.4086 14.5272C13.1751 14.5272 14.6072 13.0879 14.6072 11.3124C14.6072 9.53686 13.1751 8.09753 11.4086 8.09753C9.64203 8.09753 8.20996 9.53686 8.20996 11.3124C8.20996 13.0879 9.64203 14.5272 11.4086 14.5272Z" fill="#16D0B4"/>
<path d="M10.8289 11.6773C10.7747 12.2033 10.4755 12.5315 10.0131 12.5315H9.14307V10.5655C9.14307 10.0826 9.53262 9.69104 10.0131 9.69104C10.4414 9.69104 10.7338 9.96418 10.8155 10.4565L10.8289 11.6778V11.6773Z" fill="white"/>
<g style="mix-blend-mode:multiply">
<path d="M12.9128 9.79592C13.2445 9.07205 11.9074 8.45308 11.5752 9.17643Z" fill="#16D0B4"/>
</g>
<g style="mix-blend-mode:multiply">
<path d="M10.1045 9.28602C9.52479 8.65458 8.54624 9.33379 8.85985 10.0774Z" fill="#16D0B4"/>
</g>
<path d="M12.762 11.6773C12.7078 12.2033 12.4086 12.5315 11.9462 12.5315H11.0762V10.5655C11.0762 10.0826 11.4657 9.69104 11.9462 9.69104C12.3745 9.69104 12.667 9.96418 12.7486 10.4565L12.762 11.6778V11.6773Z" fill="white"/>
<g style="mix-blend-mode:multiply">
<path d="M12.1202 10.6812C12.3374 10.6812 12.5134 10.5043 12.5134 10.286C12.5134 10.0678 12.3374 9.89087 12.1202 9.89087C11.9031 9.89087 11.7271 10.0678 11.7271 10.286C11.7271 10.5043 11.9031 10.6812 12.1202 10.6812Z" fill="#00484A"/>
</g>
<g style="mix-blend-mode:multiply">
<path d="M10.1388 10.6812C10.3559 10.6812 10.532 10.5043 10.532 10.286C10.532 10.0678 10.3559 9.89087 10.1388 9.89087C9.92164 9.89087 9.74561 10.0678 9.74561 10.286C9.74561 10.5043 9.92164 10.6812 10.1388 10.6812Z" fill="#00484A"/>
</g>
<path d="M10.2941 10.0705C10.3591 10.0705 10.4119 10.0175 10.4119 9.95213C10.4119 9.88675 10.3591 9.83374 10.2941 9.83374C10.229 9.83374 10.1763 9.88675 10.1763 9.95213C10.1763 10.0175 10.229 10.0705 10.2941 10.0705Z" fill="white"/>
<path d="M12.2238 10.0373C12.2888 10.0373 12.3416 9.98432 12.3416 9.91893C12.3416 9.85354 12.2888 9.80054 12.2238 9.80054C12.1587 9.80054 12.106 9.85354 12.106 9.91893C12.106 9.98432 12.1587 10.0373 12.2238 10.0373Z" fill="white"/>
<g filter="url(#filter0_d_3477_6065)">
<path d="M5.7661 9.13545C6.6498 9.13545 7.36618 8.41544 7.36618 7.52726C7.36618 6.63908 6.6498 5.91907 5.7661 5.91907C4.8824 5.91907 4.16602 6.63908 4.16602 7.52726C4.16602 8.41544 4.8824 9.13545 5.7661 9.13545Z" fill="#4285F4"/>
</g>
<path d="M5.71582 7.84611H5.81606V7.57142H6.06818V7.47379H5.81606V7.1991H5.71582V7.47379H5.4668V7.57142H5.71582V7.84611Z" fill="white"/>
<path d="M5.25111 8.24286H5.33636V7.9988H5.56111V7.92247H5.33636V7.67529H5.25111V7.92247H5.02637V7.9988H5.25111V8.24286Z" fill="white"/>
<path d="M6.19594 7.36108H6.28118V7.11702H6.50903V7.04381H6.28118V6.79663H6.19594V7.04381H5.97119V7.11702H6.19594V7.36108Z" fill="white"/>
<path d="M5.73149 8.43486H5.80434V8.2609H5.95933V8.19703H5.80434V8.02307H5.73149V8.19703H5.57959V8.2609H5.73149V8.43486Z" fill="white"/>
<path d="M5.25421 7.36108H5.33326V7.11391H5.56111V7.04381H5.33326V6.79663H5.25421V7.04381H5.02637V7.11391H5.25421V7.36108Z" fill="white"/>
<path d="M6.45414 7.72715H6.52699V7.55631H6.68199V7.48932H6.52699V7.31848H6.45414V7.48932H6.30225V7.55631H6.45414V7.72715Z" fill="white"/>
<path fill-rule="evenodd" clip-rule="evenodd" d="M6.19594 8.24286H6.28118V7.9988H6.50903V7.92247H6.28118V7.67529H6.19594V7.92247H5.97119V7.9988H6.19594V8.24286Z" fill="white"/>
<path d="M5.94693 6.83916V6.78723H5.79503V6.61951H5.74027V6.78723H5.58837V6.83916H5.74027V7.00689H5.79503V6.83916H5.94693ZM5.00248 7.71518H5.05725V7.54745H5.20914V7.49552H5.05725V7.33091H5.00248V7.49552H4.85059V7.55057L5.00248 7.54745V7.71518Z" fill="white"/>
<g filter="url(#filter1_d_3477_6065)">
<path d="M6.21141 16.4057C7.09511 16.4057 7.81149 15.6857 7.81149 14.7975C7.81149 13.9093 7.09511 13.1893 6.21141 13.1893C5.32771 13.1893 4.61133 13.9093 4.61133 14.7975C4.61133 15.6857 5.32771 16.4057 6.21141 16.4057Z" fill="#4285F4"/>
</g>
<path d="M5.93275 15.2882C5.93275 15.3412 5.88986 15.3889 5.83251 15.3889C5.77517 15.3889 5.73228 15.3458 5.73228 15.2882V14.8567C5.73228 14.8037 5.77517 14.7559 5.83251 14.7559C5.88986 14.7559 5.93275 14.799 5.93275 14.8567V15.2882ZM6.21897 15.4035C6.21897 15.4564 6.17609 15.5042 6.11874 15.5042C6.06139 15.5042 6.02316 15.4611 6.02316 15.4035V14.7466C6.02316 14.6936 6.06604 14.6459 6.12339 14.6459C6.18074 14.6459 6.22362 14.689 6.22362 14.7466V15.4035H6.21897ZM5.64187 15.1926C5.64187 15.2456 5.59899 15.2934 5.54164 15.2934C5.48429 15.2934 5.44141 15.2503 5.44141 15.1926V14.9579C5.44141 14.905 5.48429 14.8572 5.54164 14.8572C5.59899 14.8572 5.64187 14.905 5.64187 14.9579V15.1926ZM6.5052 15.5089C6.5052 15.5619 6.46232 15.6096 6.40497 15.6096C6.35227 15.6096 6.30939 15.5619 6.30939 15.5089V14.6365C6.30939 14.5835 6.35227 14.5358 6.40962 14.5358C6.46232 14.5358 6.50985 14.5789 6.50985 14.6365V15.5089H6.5052Z" fill="white"/>
<path d="M6.81945 15.4652C6.80033 15.4652 6.78586 15.4606 6.76675 15.4559L6.6474 15.4175C6.62829 15.4128 6.61382 15.3889 6.62364 15.3697C6.62829 15.3505 6.65205 15.3359 6.67117 15.3458L6.79516 15.3842C6.81893 15.3936 6.84786 15.3889 6.87163 15.3697C6.8954 15.3552 6.90521 15.3266 6.90521 15.3027V14.502C6.90521 14.4636 6.88145 14.4303 6.84786 14.4205L5.67919 14.0658C5.65542 14.0565 5.62649 14.0611 5.60272 14.0751C5.58361 14.0944 5.56914 14.1182 5.56914 14.1468V14.6983C5.56914 14.7222 5.55002 14.7367 5.53091 14.7367C5.50714 14.7367 5.49268 14.7175 5.49268 14.6983V14.1468C5.49268 14.0938 5.51644 14.0461 5.55932 14.0175C5.60221 13.9838 5.65491 13.9791 5.70244 13.9936L6.86646 14.3483C6.93311 14.3675 6.98116 14.4345 6.98116 14.5067V15.3074C6.98116 15.3604 6.95739 15.4081 6.91451 15.4419C6.8861 15.4512 6.85251 15.4658 6.81893 15.4658" fill="white"/>
<g filter="url(#filter2_d_3477_6065)">
<path d="M15.9889 7.91307C16.5896 7.91307 17.0765 7.42369 17.0765 6.82C17.0765 6.21631 16.5896 5.72693 15.9889 5.72693C15.3883 5.72693 14.9014 6.21631 14.9014 6.82C14.9014 7.42369 15.3883 7.91307 15.9889 7.91307Z" fill="#16D0B4"/>
</g>
<g filter="url(#filter3_d_3477_6065)">
<path d="M20.3136 8.13678C20.7719 8.13678 21.1434 7.76341 21.1434 7.30283C21.1434 6.84225 20.7719 6.46887 20.3136 6.46887C19.8554 6.46887 19.4839 6.84225 19.4839 7.30283C19.4839 7.76341 19.8554 8.13678 20.3136 8.13678Z" fill="#F8663C"/>
</g>
<g filter="url(#filter4_d_3477_6065)">
<path d="M2.32975 11.0811C2.78801 11.0811 3.1595 10.7077 3.1595 10.2472C3.1595 9.78658 2.78801 9.41321 2.32975 9.41321C1.87149 9.41321 1.5 9.78658 1.5 10.2472C1.5 10.7077 1.87149 11.0811 2.32975 11.0811Z" fill="#16D0B4"/>
</g>
<g filter="url(#filter5_d_3477_6065)">
<path d="M16.9506 16.3767C17.6671 16.3767 18.248 15.7929 18.248 15.0728C18.248 14.3527 17.6671 13.7689 16.9506 13.7689C16.2342 13.7689 15.6533 14.3527 15.6533 15.0728C15.6533 15.7929 16.2342 16.3767 16.9506 16.3767Z" fill="#F8663C"/>
</g>
<g filter="url(#filter6_d_3477_6065)">
<path d="M20.8999 12.3264C21.7836 12.3264 22.5 11.6064 22.5 10.7182C22.5 9.83 21.7836 9.10999 20.8999 9.10999C20.0162 9.10999 19.2998 9.83 19.2998 10.7182C19.2998 11.6064 20.0162 12.3264 20.8999 12.3264Z" fill="#4285F4"/>
</g>
<g opacity="0.85">
<path d="M20.8155 10.1605C20.8155 10.269 20.7597 10.3651 20.676 10.4201L20.6191 10.2825C20.6517 10.2524 20.6724 10.2088 20.6724 10.1605C20.6724 10.1309 20.6646 10.1028 20.6512 10.079L20.755 9.9751C20.7933 10.027 20.816 10.0909 20.816 10.1605H20.8155Z" fill="white"/>
<path d="M20.3404 10.1604C20.3404 10.2523 20.4143 10.3265 20.5057 10.3271L20.5626 10.4657C20.544 10.4693 20.5254 10.4709 20.5057 10.4709C20.3352 10.4709 20.1968 10.3317 20.1968 10.1604C20.1968 9.98902 20.3352 9.84985 20.5057 9.84985C20.5796 9.84985 20.6473 9.87582 20.7005 9.91944L20.5977 10.0217C20.5714 10.0041 20.5398 9.99421 20.5063 9.99421C20.4148 9.99421 20.3404 10.0685 20.3404 10.1604Z" fill="white"/>
</g>
<path opacity="0.7" d="M21.1001 9.77252C21.1001 9.88365 21.0102 9.974 20.8997 9.974C20.8583 9.974 20.8201 9.96154 20.7886 9.94025L20.8707 9.8582C20.8795 9.86132 20.8893 9.86288 20.8997 9.86288C20.9493 9.86288 20.9896 9.82237 20.9896 9.77252C20.9896 9.72267 20.9493 9.68217 20.8997 9.68217C20.8501 9.68217 20.8098 9.72267 20.8098 9.77252C20.8098 9.78395 20.8118 9.79433 20.8155 9.8042L20.7338 9.88572C20.7121 9.85353 20.6992 9.81458 20.6992 9.77252C20.6992 9.6614 20.7891 9.57104 20.8997 9.57104C21.0102 9.57104 21.1001 9.6614 21.1001 9.77252Z" fill="white"/>
<path d="M21.6031 11.1585C21.6031 11.5485 21.2885 11.8652 20.8999 11.8652C20.5114 11.8652 20.1968 11.549 20.1968 11.1585C20.1968 10.8812 20.3554 10.6413 20.5869 10.5255L20.6721 10.7332C20.5218 10.8148 20.4195 10.9747 20.4195 11.158C20.4195 11.4244 20.6344 11.6409 20.8999 11.6409C21.1655 11.6409 21.3804 11.4249 21.3804 11.158C21.3804 10.8911 21.1655 10.6756 20.8999 10.6756C20.8607 10.6756 20.823 10.6803 20.7863 10.6891L20.7005 10.4809C20.7635 10.4622 20.8307 10.4518 20.8999 10.4518C21.288 10.4518 21.6031 10.768 21.6031 11.1585Z" fill="white"/>
</g>
<defs>
<filter id="filter0_d_3477_6065" x="3.28886" y="5.04191" width="4.95451" height="4.97074" filterUnits="userSpaceOnUse" color-interpolation-filters="sRGB">
<feFlood flood-opacity="0" result="BackgroundImageFix"/>
<feColorMatrix in="SourceAlpha" type="matrix" values="0 0 0 0 0 0 0 0 0 0 0 0 0 0 0 0 0 0 127 0" result="hardAlpha"/>
<feOffset/>
<feGaussianBlur stdDeviation="0.438578"/>
<feColorMatrix type="matrix" values="0 0 0 0 0.294118 0 0 0 0 0.529412 0 0 0 0 1 0 0 0 0.8 0"/>
<feBlend mode="normal" in2="BackgroundImageFix" result="effect1_dropShadow_3477_6065"/>
<feBlend mode="normal" in="SourceGraphic" in2="effect1_dropShadow_3477_6065" result="shape"/>
</filter>
<filter id="filter1_d_3477_6065" x="3.73417" y="12.3122" width="4.95451" height="4.97074" filterUnits="userSpaceOnUse" color-interpolation-filters="sRGB">
<feFlood flood-opacity="0" result="BackgroundImageFix"/>
<feColorMatrix in="SourceAlpha" type="matrix" values="0 0 0 0 0 0 0 0 0 0 0 0 0 0 0 0 0 0 127 0" result="hardAlpha"/>
<feOffset/>
<feGaussianBlur stdDeviation="0.438578"/>
<feColorMatrix type="matrix" values="0 0 0 0 0.294118 0 0 0 0 0.529412 0 0 0 0 1 0 0 0 0.8 0"/>
<feBlend mode="normal" in2="BackgroundImageFix" result="effect1_dropShadow_3477_6065"/>
<feBlend mode="normal" in="SourceGraphic" in2="effect1_dropShadow_3477_6065" result="shape"/>
</filter>
<filter id="filter2_d_3477_6065" x="12.4693" y="3.29481" width="7.03953" height="7.05039" filterUnits="userSpaceOnUse" color-interpolation-filters="sRGB">
<feFlood flood-opacity="0" result="BackgroundImageFix"/>
<feColorMatrix in="SourceAlpha" type="matrix" values="0 0 0 0 0 0 0 0 0 0 0 0 0 0 0 0 0 0 127 0" result="hardAlpha"/>
<feOffset/>
<feGaussianBlur stdDeviation="1.21606"/>
<feColorMatrix type="matrix" values="0 0 0 0 0.294118 0 0 0 0 0.529412 0 0 0 0 1 0 0 0 0.3 0"/>
<feBlend mode="normal" in2="BackgroundImageFix" result="effect1_dropShadow_3477_6065"/>
<feBlend mode="normal" in="SourceGraphic" in2="effect1_dropShadow_3477_6065" result="shape"/>
</filter>
<filter id="filter3_d_3477_6065" x="17.627" y="4.61203" width="5.37334" height="5.38165" filterUnits="userSpaceOnUse" color-interpolation-filters="sRGB">
<feFlood flood-opacity="0" result="BackgroundImageFix"/>
<feColorMatrix in="SourceAlpha" type="matrix" values="0 0 0 0 0 0 0 0 0 0 0 0 0 0 0 0 0 0 127 0" result="hardAlpha"/>
<feOffset/>
<feGaussianBlur stdDeviation="0.928419"/>
<feColorMatrix type="matrix" values="0 0 0 0 0.294118 0 0 0 0 0.529412 0 0 0 0 1 0 0 0 0.3 0"/>
<feBlend mode="normal" in2="BackgroundImageFix" result="effect1_dropShadow_3477_6065"/>
<feBlend mode="normal" in="SourceGraphic" in2="effect1_dropShadow_3477_6065" result="shape"/>
</filter>
<filter id="filter4_d_3477_6065" x="-0.356838" y="7.55637" width="5.37334" height="5.38165" filterUnits="userSpaceOnUse" color-interpolation-filters="sRGB">
<feFlood flood-opacity="0" result="BackgroundImageFix"/>
<feColorMatrix in="SourceAlpha" type="matrix" values="0 0 0 0 0 0 0 0 0 0 0 0 0 0 0 0 0 0 127 0" result="hardAlpha"/>
<feOffset/>
<feGaussianBlur stdDeviation="0.928419"/>
<feColorMatrix type="matrix" values="0 0 0 0 0.294118 0 0 0 0 0.529412 0 0 0 0 1 0 0 0 0.3 0"/>
<feBlend mode="normal" in2="BackgroundImageFix" result="effect1_dropShadow_3477_6065"/>
<feBlend mode="normal" in="SourceGraphic" in2="effect1_dropShadow_3477_6065" result="shape"/>
</filter>
<filter id="filter5_d_3477_6065" x="12.7513" y="10.8669" width="8.39877" height="8.41183" filterUnits="userSpaceOnUse" color-interpolation-filters="sRGB">
<feFlood flood-opacity="0" result="BackgroundImageFix"/>
<feColorMatrix in="SourceAlpha" type="matrix" values="0 0 0 0 0 0 0 0 0 0 0 0 0 0 0 0 0 0 127 0" result="hardAlpha"/>
<feOffset/>
<feGaussianBlur stdDeviation="1.45101"/>
<feColorMatrix type="matrix" values="0 0 0 0 0.294118 0 0 0 0 0.529412 0 0 0 0 1 0 0 0 0.3 0"/>
<feBlend mode="normal" in2="BackgroundImageFix" result="effect1_dropShadow_3477_6065"/>
<feBlend mode="normal" in="SourceGraphic" in2="effect1_dropShadow_3477_6065" result="shape"/>
</filter>
<filter id="filter6_d_3477_6065" x="18.4226" y="8.23283" width="4.95451" height="4.97074" filterUnits="userSpaceOnUse" color-interpolation-filters="sRGB">
<feFlood flood-opacity="0" result="BackgroundImageFix"/>
<feColorMatrix in="SourceAlpha" type="matrix" values="0 0 0 0 0 0 0 0 0 0 0 0 0 0 0 0 0 0 127 0" result="hardAlpha"/>
<feOffset/>
<feGaussianBlur stdDeviation="0.438578"/>
<feColorMatrix type="matrix" values="0 0 0 0 0.294118 0 0 0 0 0.529412 0 0 0 0 1 0 0 0 0.8 0"/>
<feBlend mode="normal" in2="BackgroundImageFix" result="effect1_dropShadow_3477_6065"/>
<feBlend mode="normal" in="SourceGraphic" in2="effect1_dropShadow_3477_6065" result="shape"/>
</filter>
<radialGradient id="paint0_radial_3477_6065" cx="0" cy="0" r="1" gradientUnits="userSpaceOnUse" gradientTransform="translate(12.0489 11.8121) scale(8.31209)">
<stop stop-color="#16D0B4"/>
<stop offset="1" stop-color="white"/>
</radialGradient>
</defs>
</svg>
