<svg width="24" height="24" viewBox="0 0 24 24" fill="none" xmlns="http://www.w3.org/2000/svg">
<mask id="mask0_3477_5872" style="mask-type:alpha" maskUnits="userSpaceOnUse" x="0" y="0" width="24" height="24">
<rect width="24" height="24" fill="#D9D9D9"/>
</mask>
<g mask="url(#mask0_3477_5872)">
<g filter="url(#filter0_d_3477_5872)">
<path opacity="0.5" d="M10.5971 7.2394V8.01158H2V7.2394C2 7.13333 2.08609 7.04724 2.19216 7.04724H10.4049C10.511 7.04724 10.5971 7.13333 10.5971 7.2394Z" fill="#4B87FF"/>
<path d="M10.5971 8.0116V16.3316C10.5971 16.4376 10.511 16.5237 10.4049 16.5237H2.19216C2.08609 16.5237 2 16.4376 2 16.3316V8.0116H10.5971Z" fill="white"/>
<path d="M2.80694 7.67369C2.88126 7.67369 2.94151 7.61344 2.94151 7.53911C2.94151 7.46479 2.88126 7.40454 2.80694 7.40454C2.73261 7.40454 2.67236 7.46479 2.67236 7.53911C2.67236 7.61344 2.73261 7.67369 2.80694 7.67369Z" fill="white"/>
<path d="M3.32988 7.67369C3.40421 7.67369 3.46446 7.61344 3.46446 7.53911C3.46446 7.46479 3.40421 7.40454 3.32988 7.40454C3.25556 7.40454 3.19531 7.46479 3.19531 7.53911C3.19531 7.61344 3.25556 7.67369 3.32988 7.67369Z" fill="white"/>
<path d="M3.85283 7.67369C3.92716 7.67369 3.98741 7.61344 3.98741 7.53911C3.98741 7.46479 3.92716 7.40454 3.85283 7.40454C3.77851 7.40454 3.71826 7.46479 3.71826 7.53911C3.71826 7.61344 3.77851 7.67369 3.85283 7.67369Z" fill="white"/>
</g>
<path d="M3.00254 9.84649C3.00254 9.93933 2.92762 10.0143 2.83477 10.0143C2.74192 10.0143 2.66699 9.93933 2.66699 9.84649C2.66699 9.75364 2.74192 9.67871 2.83477 9.67871H3.00254V9.84649ZM3.08628 9.84649C3.08628 9.75364 3.16121 9.67871 3.25406 9.67871C3.34691 9.67871 3.42183 9.75364 3.42183 9.84649V10.2658C3.42183 10.3586 3.34691 10.4336 3.25406 10.4336C3.16121 10.4336 3.08628 10.3586 3.08628 10.2658V9.84649Z" fill="#16D0B4"/>
<path d="M3.25406 9.17271C3.16121 9.17271 3.08629 9.09778 3.08629 9.00493C3.08629 8.91208 3.16121 8.83716 3.25406 8.83716C3.34691 8.83716 3.42184 8.91208 3.42184 9.00493V9.17271H3.25406ZM3.25406 9.25792C3.34691 9.25792 3.42184 9.33284 3.42184 9.42569C3.42184 9.51854 3.34691 9.59347 3.25406 9.59347H2.8333C2.74045 9.59347 2.66553 9.51854 2.66553 9.42569C2.66553 9.33284 2.74045 9.25792 2.8333 9.25792H3.25406Z" fill="#16D0B4"/>
<path d="M3.92661 9.42569C3.92661 9.33284 4.00154 9.25792 4.09439 9.25792C4.18724 9.25792 4.26216 9.33284 4.26216 9.42569C4.26216 9.51854 4.18724 9.59347 4.09439 9.59347H3.92661V9.42569ZM3.84287 9.42569C3.84287 9.51854 3.76795 9.59347 3.6751 9.59347C3.58225 9.59347 3.50732 9.51854 3.50732 9.42569V9.00493C3.50732 8.91208 3.58225 8.83716 3.6751 8.83716C3.76795 8.83716 3.84287 8.91208 3.84287 9.00493V9.42569Z" fill="#16D0B4"/>
<path d="M3.67461 10.098C3.76746 10.098 3.84239 10.1729 3.84239 10.2658C3.84239 10.3586 3.76746 10.4336 3.67461 10.4336C3.58176 10.4336 3.50684 10.3586 3.50684 10.2658V10.098H3.67461ZM3.67461 10.0143C3.58176 10.0143 3.50684 9.93933 3.50684 9.84649C3.50684 9.75364 3.58176 9.67871 3.67461 9.67871H4.09537C4.18822 9.67871 4.26314 9.75364 4.26314 9.84649C4.26314 9.93933 4.18822 10.0143 4.09537 10.0143H3.67461Z" fill="#16D0B4"/>
<g filter="url(#filter1_d_3477_5872)">
<path d="M13.0489 5.5293H8.78926C8.65944 5.5293 8.5542 5.63454 8.5542 5.76436V8.7987C8.5542 8.92852 8.65944 9.03376 8.78926 9.03376H13.0489C13.1787 9.03376 13.2839 8.92852 13.2839 8.7987V5.76436C13.2839 5.63454 13.1787 5.5293 13.0489 5.5293Z" fill="white"/>
</g>
<path d="M11.9885 8.03325C12.002 8.04912 12.0281 8.03943 12.0281 8.01856L12.0267 7.58223V6.75776C12.0267 6.67137 11.9567 6.60144 11.8704 6.60144H9.9693C9.88292 6.60144 9.81299 6.67137 9.81299 6.75776V7.64247C9.81299 7.72885 9.88292 7.79878 9.9693 7.79878H11.7875L11.9885 8.03355V8.03325Z" fill="#16D0B4"/>
<path d="M10.5464 7.18647C10.5464 7.24142 10.502 7.28637 10.4471 7.28637C10.3921 7.28637 10.3472 7.242 10.3472 7.18706C10.3472 7.13211 10.3915 7.08716 10.4465 7.08716C10.5014 7.08716 10.5464 7.13153 10.5464 7.18647Z" fill="white"/>
<path d="M10.9741 7.18501C10.9741 7.23995 10.9297 7.28491 10.8748 7.28491C10.8199 7.28491 10.7749 7.24054 10.7749 7.18559C10.7749 7.13065 10.8193 7.08569 10.8742 7.08569C10.9292 7.08569 10.9741 7.13006 10.9741 7.18501Z" fill="white"/>
<path d="M11.4014 7.18379C11.4014 7.23873 11.357 7.28369 11.302 7.28369C11.2471 7.28369 11.2021 7.23932 11.2021 7.18437C11.2021 7.12943 11.2465 7.08447 11.3015 7.08447C11.3564 7.08447 11.4014 7.12884 11.4014 7.18379Z" fill="white"/>
<g filter="url(#filter2_d_3477_5872)">
<path d="M19.3346 7.48121V9.09461C19.3346 9.21302 19.2389 9.3091 19.1204 9.3091H16.7787C16.6605 9.3091 16.5645 9.21302 16.5645 9.09461V8.78139H18.3151C18.4335 8.78139 18.5293 8.68531 18.5293 8.5669V7.26025H19.1137C19.2359 7.26025 19.3346 7.35898 19.3346 7.48121Z" fill="white"/>
</g>
<g opacity="0.4">
<path d="M18.5202 6.86837L17.1437 7.8853L15.7671 6.86837C15.7929 6.77934 15.8752 6.71411 15.9728 6.71411H18.3143C18.4118 6.71411 18.4941 6.77905 18.5199 6.86837H18.5202Z" fill="#16D0B4"/>
<path d="M18.529 7.14197V8.56702C18.529 8.68544 18.4332 8.78152 18.3148 8.78152H15.973C15.8546 8.78152 15.7588 8.68544 15.7588 8.56702V7.14197L17.1439 8.16507L18.529 7.14197Z" fill="#16D0B4"/>
</g>
<g filter="url(#filter3_d_3477_5872)">
<path opacity="0.5" d="M22.0002 4.15646V4.78517H13.1133V4.15646C13.1133 4.0701 13.1827 4 13.2681 4H21.8454C21.9308 4 22.0002 4.0701 22.0002 4.15646Z" fill="#4B87FF"/>
<path d="M22.0002 4.78516V11.5593C22.0002 11.6457 21.9308 11.7158 21.8454 11.7158H13.2681C13.1827 11.7158 13.1133 11.6457 13.1133 11.5593V4.78516H22.0002Z" fill="white"/>
<path d="M13.7632 4.51003C13.823 4.51003 13.8715 4.46098 13.8715 4.40046C13.8715 4.33995 13.823 4.29089 13.7632 4.29089C13.7033 4.29089 13.6548 4.33995 13.6548 4.40046C13.6548 4.46098 13.7033 4.51003 13.7632 4.51003Z" fill="white"/>
<path d="M14.1841 4.51003C14.2439 4.51003 14.2924 4.46098 14.2924 4.40046C14.2924 4.33995 14.2439 4.29089 14.1841 4.29089C14.1242 4.29089 14.0757 4.33995 14.0757 4.40046C14.0757 4.46098 14.1242 4.51003 14.1841 4.51003Z" fill="white"/>
<path d="M14.605 4.51003C14.6648 4.51003 14.7133 4.46098 14.7133 4.40046C14.7133 4.33995 14.6648 4.29089 14.605 4.29089C14.5451 4.29089 14.4966 4.33995 14.4966 4.40046C14.4966 4.46098 14.5451 4.51003 14.605 4.51003Z" fill="white"/>
</g>
<path opacity="0.7" d="M9.5641 14.4602C9.5641 14.9137 9.19596 15.2819 8.74239 15.2819C8.57403 15.2819 8.41698 15.2316 8.28631 15.1437L8.62303 14.8082C8.65947 14.8208 8.69967 14.827 8.74113 14.827C8.94467 14.827 9.10927 14.6625 9.10927 14.4589C9.10927 14.2554 8.94467 14.0908 8.74113 14.0908C8.53759 14.0908 8.373 14.2554 8.373 14.4589C8.373 14.5041 8.3818 14.5481 8.39687 14.5883L8.06141 14.92C7.9722 14.7881 7.91943 14.6298 7.91943 14.4589C7.91943 14.0053 8.28756 13.6372 8.74113 13.6372C9.1947 13.6372 9.56284 14.0053 9.56284 14.4589L9.5641 14.4602Z" fill="#4285F4"/>
<path opacity="0.2" d="M13.7344 18.0465H17.21" stroke="#00484A" stroke-width="0.137454" stroke-miterlimit="10"/>
<path d="M16.3521 7.69299H16.4666" stroke="#4B87FF" stroke-width="0.293867" stroke-linecap="round" stroke-linejoin="round"/>
<path d="M16.5811 7.69299H16.6956" stroke="#4B87FF" stroke-width="0.293867" stroke-linecap="round" stroke-linejoin="round"/>
<path d="M16.8101 7.69299H16.9246" stroke="#4B87FF" stroke-width="0.293867" stroke-linecap="round" stroke-linejoin="round"/>
<path d="M17.0391 7.69299H17.1536" stroke="#4B87FF" stroke-width="0.293867" stroke-linecap="round" stroke-linejoin="round"/>
<path d="M17.2676 7.69299H17.3821" stroke="#4B87FF" stroke-width="0.293867" stroke-linecap="round" stroke-linejoin="round"/>
<path d="M17.4966 7.69299H17.6111" stroke="#4B87FF" stroke-width="0.293867" stroke-linecap="round" stroke-linejoin="round"/>
<path d="M17.7256 7.69299H17.8402" stroke="#4B87FF" stroke-width="0.293867" stroke-linecap="round" stroke-linejoin="round"/>
<path d="M17.9546 7.69299H18.0692" stroke="#4B87FF" stroke-width="0.293867" stroke-linecap="round" stroke-linejoin="round"/>
<path d="M18.1836 7.69299H18.2982" stroke="#4B87FF" stroke-width="0.293867" stroke-linecap="round" stroke-linejoin="round"/>
<path d="M18.4126 7.69299H18.5272" stroke="#4B87FF" stroke-width="0.293867" stroke-linecap="round" stroke-linejoin="round"/>
<path d="M18.4475 16.8404L17.9871 17.2729L17.1353 16.5281C17.4034 16.3612 17.6443 16.1541 17.8496 15.9156L18.4475 16.8405V16.8404Z" fill="#005A5A"/>
<path d="M21.188 19.5056L20.2946 20.245L17.645 17.1575L17.7102 17.1004L18.4036 16.4681L18.4555 16.4238L21.188 19.5056Z" fill="url(#paint0_linear_3477_5872)"/>
<path d="M15.1489 9.55542C12.9864 9.55542 11.2334 11.3084 11.2334 13.4707C11.2334 15.6331 12.9864 17.3862 15.1489 17.3862C15.9096 17.3862 16.6202 17.1695 17.2219 16.7926C17.5572 16.5839 17.8583 16.3249 18.115 16.0268C18.707 15.3415 19.0649 14.4484 19.0649 13.4707C19.0649 11.3083 17.3113 9.55542 15.1489 9.55542ZM15.1506 16.5661C13.4412 16.5661 12.0553 15.1802 12.0553 13.4709C12.0553 11.7616 13.4412 10.3756 15.1506 10.3756C16.8599 10.3756 18.2466 11.7616 18.2466 13.4709C18.2466 15.1802 16.8607 16.5661 15.1506 16.5661Z" fill="url(#paint1_linear_3477_5872)"/>
<circle cx="15.1367" cy="13.4783" r="3.09563" fill="#16D0B4" fill-opacity="0.35"/>
<g filter="url(#filter4_dd_3477_5872)">
<path d="M10.8752 14.0596C10.9349 14.6345 11.2635 14.9928 11.7709 14.9928C12.3458 14.9928 12.7264 14.9928 12.7264 14.9928V12.8447C12.7264 12.3169 12.2985 11.8892 11.7709 11.8892C11.3007 11.8892 10.9795 12.1877 10.8898 12.7254L10.875 14.0598L10.8752 14.0596Z" fill="white"/>
<path d="M8.85986 11.6842C8.85986 10.8136 10.477 10.8136 10.477 11.6842Z" fill="#16D0B4"/>
<path d="M11.1094 11.6842C11.2784 10.7609 12.5834 10.8136 12.7265 11.6842Z" fill="#16D0B4"/>
<path d="M8.75217 14.0596C8.81184 14.6345 9.14045 14.9928 9.64784 14.9928C10.2227 14.9928 10.6034 14.9928 10.6034 14.9928V12.8447C10.6034 12.3169 10.1755 11.8892 9.64784 11.8892C9.17768 11.8892 8.85648 12.1877 8.76676 12.7254L8.75195 14.0598L8.75217 14.0596Z" fill="white"/>
<g style="mix-blend-mode:multiply">
<path d="M9.35713 14.1378C9.64902 14.1378 9.88565 13.9012 9.88565 13.6093C9.88565 13.3174 9.64902 13.0808 9.35713 13.0808C9.06524 13.0808 8.82861 13.3174 8.82861 13.6093C8.82861 13.9012 9.06524 14.1378 9.35713 14.1378Z" fill="#00484A"/>
</g>
<g style="mix-blend-mode:multiply">
<path d="M11.4919 14.1378C11.7838 14.1378 12.0204 13.9012 12.0204 13.6093C12.0204 13.3174 11.7838 13.0808 11.4919 13.0808C11.2 13.0808 10.9634 13.3174 10.9634 13.6093C10.9634 13.9012 11.2 14.1378 11.4919 14.1378Z" fill="#00484A"/>
</g>
<path d="M11.6211 13.3791C11.6925 13.3791 11.7504 13.3212 11.7504 13.2497C11.7504 13.1783 11.6925 13.1204 11.6211 13.1204C11.5496 13.1204 11.4917 13.1783 11.4917 13.2497C11.4917 13.3212 11.5496 13.3791 11.6211 13.3791Z" fill="white"/>
<path d="M9.51217 13.3791C9.5836 13.3791 9.64152 13.3212 9.64152 13.2497C9.64152 13.1783 9.5836 13.1204 9.51217 13.1204C9.44073 13.1204 9.38281 13.1783 9.38281 13.2497C9.38281 13.3212 9.44073 13.3791 9.51217 13.3791Z" fill="white"/>
</g>
</g>
<defs>
<filter id="filter0_d_3477_5872" x="-18.7629" y="-13.7157" width="50.123" height="51.0023" filterUnits="userSpaceOnUse" color-interpolation-filters="sRGB">
<feFlood flood-opacity="0" result="BackgroundImageFix"/>
<feColorMatrix in="SourceAlpha" type="matrix" values="0 0 0 0 0 0 0 0 0 0 0 0 0 0 0 0 0 0 127 0" result="hardAlpha"/>
<feOffset/>
<feGaussianBlur stdDeviation="10.3815"/>
<feColorMatrix type="matrix" values="0 0 0 0 0.294118 0 0 0 0 0.529412 0 0 0 0 1 0 0 0 0.2 0"/>
<feBlend mode="normal" in2="BackgroundImageFix" result="effect1_dropShadow_3477_5872"/>
<feBlend mode="normal" in="SourceGraphic" in2="effect1_dropShadow_3477_5872" result="shape"/>
</filter>
<filter id="filter1_d_3477_5872" x="-11.9803" y="-15.0052" width="45.7986" height="44.5736" filterUnits="userSpaceOnUse" color-interpolation-filters="sRGB">
<feFlood flood-opacity="0" result="BackgroundImageFix"/>
<feColorMatrix in="SourceAlpha" type="matrix" values="0 0 0 0 0 0 0 0 0 0 0 0 0 0 0 0 0 0 127 0" result="hardAlpha"/>
<feOffset/>
<feGaussianBlur stdDeviation="10.2673"/>
<feColorMatrix type="matrix" values="0 0 0 0 0.294118 0 0 0 0 0.529412 0 0 0 0 1 0 0 0 0.2 0"/>
<feBlend mode="normal" in2="BackgroundImageFix" result="effect1_dropShadow_3477_5872"/>
<feBlend mode="normal" in="SourceGraphic" in2="effect1_dropShadow_3477_5872" result="shape"/>
</filter>
<filter id="filter2_d_3477_5872" x="-9.7837" y="-19.0879" width="55.4663" height="54.7451" filterUnits="userSpaceOnUse" color-interpolation-filters="sRGB">
<feFlood flood-opacity="0" result="BackgroundImageFix"/>
<feColorMatrix in="SourceAlpha" type="matrix" values="0 0 0 0 0 0 0 0 0 0 0 0 0 0 0 0 0 0 127 0" result="hardAlpha"/>
<feOffset/>
<feGaussianBlur stdDeviation="13.1741"/>
<feColorMatrix type="matrix" values="0 0 0 0 0.294118 0 0 0 0 0.529412 0 0 0 0 1 0 0 0 0.2 0"/>
<feBlend mode="normal" in2="BackgroundImageFix" result="effect1_dropShadow_3477_5872"/>
<feBlend mode="normal" in="SourceGraphic" in2="effect1_dropShadow_3477_5872" result="shape"/>
</filter>
<filter id="filter3_d_3477_5872" x="-7.53545" y="-16.6487" width="50.1842" height="49.0133" filterUnits="userSpaceOnUse" color-interpolation-filters="sRGB">
<feFlood flood-opacity="0" result="BackgroundImageFix"/>
<feColorMatrix in="SourceAlpha" type="matrix" values="0 0 0 0 0 0 0 0 0 0 0 0 0 0 0 0 0 0 127 0" result="hardAlpha"/>
<feOffset/>
<feGaussianBlur stdDeviation="10.3244"/>
<feColorMatrix type="matrix" values="0 0 0 0 0.294118 0 0 0 0 0.529412 0 0 0 0 1 0 0 0 0.2 0"/>
<feBlend mode="normal" in2="BackgroundImageFix" result="effect1_dropShadow_3477_5872"/>
<feBlend mode="normal" in="SourceGraphic" in2="effect1_dropShadow_3477_5872" result="shape"/>
</filter>
<filter id="filter4_dd_3477_5872" x="-25.248" y="-8.98865" width="71.9746" height="71.9814" filterUnits="userSpaceOnUse" color-interpolation-filters="sRGB">
<feFlood flood-opacity="0" result="BackgroundImageFix"/>
<feColorMatrix in="SourceAlpha" type="matrix" values="0 0 0 0 0 0 0 0 0 0 0 0 0 0 0 0 0 0 127 0" result="hardAlpha"/>
<feOffset dy="14"/>
<feGaussianBlur stdDeviation="17"/>
<feComposite in2="hardAlpha" operator="out"/>
<feColorMatrix type="matrix" values="0 0 0 0 0 0 0 0 0 0.282353 0 0 0 0 0.290196 0 0 0 0.16 0"/>
<feBlend mode="normal" in2="BackgroundImageFix" result="effect1_dropShadow_3477_5872"/>
<feColorMatrix in="SourceAlpha" type="matrix" values="0 0 0 0 0 0 0 0 0 0 0 0 0 0 0 0 0 0 127 0" result="hardAlpha"/>
<feOffset dy="4"/>
<feGaussianBlur stdDeviation="4"/>
<feComposite in2="hardAlpha" operator="out"/>
<feColorMatrix type="matrix" values="0 0 0 0 0 0 0 0 0 0.282353 0 0 0 0 0.290196 0 0 0 0.1 0"/>
<feBlend mode="normal" in2="effect1_dropShadow_3477_5872" result="effect2_dropShadow_3477_5872"/>
<feBlend mode="normal" in="SourceGraphic" in2="effect2_dropShadow_3477_5872" result="shape"/>
</filter>
<linearGradient id="paint0_linear_3477_5872" x1="16.6458" y1="18.5403" x2="22.2329" y2="18.1188" gradientUnits="userSpaceOnUse">
<stop stop-color="#16D0B4"/>
<stop offset="1" stop-color="#0A8C78"/>
</linearGradient>
<linearGradient id="paint1_linear_3477_5872" x1="20.8696" y1="8.84682" x2="13.6375" y2="14.6927" gradientUnits="userSpaceOnUse">
<stop stop-color="#16D0B4"/>
<stop offset="1" stop-color="#0A8C8C"/>
</linearGradient>
</defs>
</svg>
