<svg width="44" height="44" viewBox="0 0 44 44" fill="none" xmlns="http://www.w3.org/2000/svg">
<path d="M27.1888 25.1519L27.0021 24.9974C26.648 24.7019 26.1686 24.3815 25.6129 24.0111C23.4483 22.5646 20.4844 20.5851 20.4844 17.2103C20.4844 15.1252 22.1844 13.4287 24.2738 13.4287C25.4091 13.4287 26.4726 13.9332 27.1888 14.7957C27.905 13.9332 28.9686 13.4287 30.1038 13.4287C32.1932 13.4287 33.8933 15.1252 33.8933 17.2103C33.8933 20.5851 30.9293 22.5646 28.7647 24.0111C28.2091 24.3815 27.7297 24.7019 27.3756 24.9974L27.1888 25.1519Z" fill="#16D0B4"/>
<path d="M22.3038 24.5236L22.1821 24.4956C21.9508 24.4414 21.6562 24.4046 21.3149 24.3625C19.9846 24.1967 18.1634 23.9702 17.379 22.4142C16.8943 21.4528 17.2807 20.2771 18.2402 19.7933C18.7616 19.5305 19.3672 19.5169 19.8966 19.7487C20.0251 19.1853 20.3962 18.7065 20.9175 18.4436C21.8771 17.9599 23.0521 18.3485 23.5367 19.3099C24.3212 20.8659 23.4201 22.4647 22.7623 23.6328C22.5933 23.9322 22.4476 24.1909 22.3536 24.4091L22.3038 24.5236Z" fill="#00484A"/>
<path d="M22.3038 24.5236L22.1821 24.4956C21.9508 24.4414 21.6562 24.4046 21.3149 24.3625C19.9846 24.1967 18.1634 23.9702 17.379 22.4142C16.8943 21.4528 17.2807 20.2771 18.2402 19.7933C18.7616 19.5305 19.3672 19.5169 19.8966 19.7487C20.0251 19.1853 20.3962 18.7065 20.9175 18.4436C21.8771 17.9599 23.0521 18.3485 23.5367 19.3099C24.3212 20.8659 23.4201 22.4647 22.7623 23.6328C22.5933 23.9322 22.4476 24.1909 22.3536 24.4091L22.3038 24.5236Z" fill="#00484A"/>
<path d="M22.3038 24.5236L22.1821 24.4956C21.9508 24.4414 21.6562 24.4046 21.3149 24.3625C19.9846 24.1967 18.1634 23.9702 17.379 22.4142C16.8943 21.4528 17.2807 20.2771 18.2402 19.7933C18.7616 19.5305 19.3672 19.5169 19.8966 19.7487C20.0251 19.1853 20.3962 18.7065 20.9175 18.4436C21.8771 17.9599 23.0521 18.3485 23.5367 19.3099C24.3212 20.8659 23.4201 22.4647 22.7623 23.6328C22.5933 23.9322 22.4476 24.1909 22.3536 24.4091L22.3038 24.5236Z" fill="#00484A"/>
<path d="M33.6766 13.8446L33.6694 13.7737C33.6561 13.6388 33.6217 13.4728 33.5816 13.2807C33.4263 12.5316 33.2133 11.5061 33.9094 10.7958C34.3395 10.357 35.0458 10.3493 35.4838 10.7786C35.7217 11.0118 35.8406 11.3365 35.8128 11.6651C36.1408 11.6308 36.4678 11.7431 36.7058 11.9763C37.1438 12.4056 37.1502 13.1119 36.7201 13.5507C36.0239 14.2609 34.9944 14.0686 34.2423 13.9283C34.0494 13.892 33.8828 13.861 33.7476 13.8504L33.6766 13.8446Z" fill="#00484A"/>
<path d="M33.6766 13.8446L33.6694 13.7737C33.6561 13.6388 33.6217 13.4728 33.5816 13.2807C33.4263 12.5316 33.2133 11.5061 33.9094 10.7958C34.3395 10.357 35.0458 10.3493 35.4838 10.7786C35.7217 11.0118 35.8406 11.3365 35.8128 11.6651C36.1408 11.6308 36.4678 11.7431 36.7058 11.9763C37.1438 12.4056 37.1502 13.1119 36.7201 13.5507C36.0239 14.2609 34.9944 14.0686 34.2423 13.9283C34.0494 13.892 33.8828 13.861 33.7476 13.8504L33.6766 13.8446Z" fill="#00484A"/>
<path d="M33.6766 13.8446L33.6694 13.7737C33.6561 13.6388 33.6217 13.4728 33.5816 13.2807C33.4263 12.5316 33.2133 11.5061 33.9094 10.7958C34.3395 10.357 35.0458 10.3493 35.4838 10.7786C35.7217 11.0118 35.8406 11.3365 35.8128 11.6651C36.1408 11.6308 36.4678 11.7431 36.7058 11.9763C37.1438 12.4056 37.1502 13.1119 36.7201 13.5507C36.0239 14.2609 34.9944 14.0686 34.2423 13.9283C34.0494 13.892 33.8828 13.861 33.7476 13.8504L33.6766 13.8446Z" fill="#00484A"/>
<g filter="url(#filter0_dd_3477_5854)">
<path d="M22.1468 16.0901C22.2409 16.9966 22.7591 17.5615 23.5592 17.5615C24.4658 17.5615 25.066 17.5615 25.066 17.5615V14.1743C25.066 13.3419 24.3912 12.6675 23.5592 12.6675C22.8178 12.6675 22.3113 13.1383 22.1698 13.9861L22.1465 16.0904L22.1468 16.0901Z" fill="white"/>
<g style="mix-blend-mode:multiply">
<path d="M18.9692 12.3442C18.9692 10.9714 21.5193 10.9714 21.5193 12.3442Z" fill="#16D0B4"/>
</g>
<g style="mix-blend-mode:multiply">
<path d="M22.5166 12.3443C22.7831 10.8883 24.841 10.9714 25.0666 12.3443Z" fill="#16D0B4"/>
</g>
<path d="M18.7992 16.0901C18.8933 16.9966 19.4114 17.5615 20.2115 17.5615C21.1181 17.5615 21.7184 17.5615 21.7184 17.5615V14.1743C21.7184 13.3419 21.0436 12.6675 20.2115 12.6675C19.4702 12.6675 18.9637 13.1383 18.8222 13.9861L18.7988 16.0904L18.7992 16.0901Z" fill="white"/>
<g style="mix-blend-mode:multiply">
<path d="M20.475 15.8619C20.9353 15.8619 21.3084 15.4888 21.3084 15.0285C21.3084 14.5682 20.9353 14.1951 20.475 14.1951C20.0147 14.1951 19.6416 14.5682 19.6416 15.0285C19.6416 15.4888 20.0147 15.8619 20.475 15.8619Z" fill="#00484A"/>
</g>
<g style="mix-blend-mode:multiply">
<path d="M23.9233 15.8619C24.3835 15.8619 24.7567 15.4888 24.7567 15.0285C24.7567 14.5682 24.3835 14.1951 23.9233 14.1951C23.463 14.1951 23.0898 14.5682 23.0898 15.0285C23.0898 15.4888 23.463 15.8619 23.9233 15.8619Z" fill="#00484A"/>
</g>
<path d="M24.1268 14.6654C24.2395 14.6654 24.3308 14.5741 24.3308 14.4614C24.3308 14.3488 24.2395 14.2574 24.1268 14.2574C24.0142 14.2574 23.9229 14.3488 23.9229 14.4614C23.9229 14.5741 24.0142 14.6654 24.1268 14.6654Z" fill="white"/>
<path d="M20.7191 14.6654C20.8318 14.6654 20.9231 14.5741 20.9231 14.4614C20.9231 14.3488 20.8318 14.2574 20.7191 14.2574C20.6065 14.2574 20.5151 14.3488 20.5151 14.4614C20.5151 14.5741 20.6065 14.6654 20.7191 14.6654Z" fill="white"/>
</g>
<defs>
<filter id="filter0_dd_3477_5854" x="0.58721" y="0.570487" width="42.6908" height="42.7016" filterUnits="userSpaceOnUse" color-interpolation-filters="sRGB">
<feFlood flood-opacity="0" result="BackgroundImageFix"/>
<feColorMatrix in="SourceAlpha" type="matrix" values="0 0 0 0 0 0 0 0 0 0 0 0 0 0 0 0 0 0 127 0" result="hardAlpha"/>
<feOffset dy="7.4989"/>
<feGaussianBlur stdDeviation="9.10581"/>
<feComposite in2="hardAlpha" operator="out"/>
<feColorMatrix type="matrix" values="0 0 0 0 0 0 0 0 0 0.282353 0 0 0 0 0.290196 0 0 0 0.16 0"/>
<feBlend mode="normal" in2="BackgroundImageFix" result="effect1_dropShadow_3477_5854"/>
<feColorMatrix in="SourceAlpha" type="matrix" values="0 0 0 0 0 0 0 0 0 0 0 0 0 0 0 0 0 0 127 0" result="hardAlpha"/>
<feOffset dy="2.14254"/>
<feGaussianBlur stdDeviation="2.14254"/>
<feComposite in2="hardAlpha" operator="out"/>
<feColorMatrix type="matrix" values="0 0 0 0 0 0 0 0 0 0.282353 0 0 0 0 0.290196 0 0 0 0.1 0"/>
<feBlend mode="normal" in2="effect1_dropShadow_3477_5854" result="effect2_dropShadow_3477_5854"/>
<feBlend mode="normal" in="SourceGraphic" in2="effect2_dropShadow_3477_5854" result="shape"/>
</filter>
</defs>
</svg>
