<svg width="25" height="24" viewBox="0 0 25 24" fill="none" xmlns="http://www.w3.org/2000/svg">
<g filter="url(#filter0_d_3477_5857)">
<path d="M22.1763 11.656L22.8018 11.4202L22.9582 12.1276" stroke="#00484A" stroke-width="0.767613"/>
</g>
<path opacity="0.5" d="M13.1798 11.0568H12.9697V11.4106H13.1798V11.0568Z" fill="#7C92F1"/>
<path d="M13.1798 10.9789H12.9697V11.0588H13.1798V10.9789Z" fill="#7C92F1"/>
<path d="M13.1798 10.939H12.9697V10.9789H13.1798V10.939Z" fill="#4B87FF"/>
<path opacity="0.5" d="M13.1798 10.9241H12.9697V10.9391H13.1798V10.9241Z" fill="#4B87FF"/>
<path opacity="0.5" d="M12.9054 11.1313H12.6953V11.4107H12.9054V11.1313Z" fill="#7C92F1"/>
<path d="M12.9054 11.0703H12.6953V11.1334H12.9054V11.0703Z" fill="#7C92F1"/>
<path d="M12.9054 11.0387H12.6953V11.0703H12.9054V11.0387Z" fill="#4B87FF"/>
<path opacity="0.5" d="M12.9054 11.0267H12.6953V11.0387H12.9054V11.0267Z" fill="#4B87FF"/>
<path opacity="0.5" d="M13.9977 11.1001H13.7876V11.4108H13.9977V11.1001Z" fill="#7C92F1"/>
<path d="M13.9977 10.9513H13.7876V11.1019H13.9977V10.9513Z" fill="#7C92F1"/>
<path d="M13.9977 10.8826H13.7876V10.9515H13.9977V10.8826Z" fill="#4B87FF"/>
<path opacity="0.5" d="M13.9977 10.8433H13.7876V10.8824H13.9977V10.8433Z" fill="#4B87FF"/>
<path opacity="0.5" d="M14.2814 11.0004H14.0713V11.4127H14.2814V11.0004Z" fill="#7C92F1"/>
<path d="M14.2814 10.8005H14.0713V11.0004H14.2814V10.8005Z" fill="#7C92F1"/>
<path d="M14.2814 10.7091H14.0713V10.8006H14.2814V10.7091Z" fill="#4B87FF"/>
<path opacity="0.5" d="M14.2814 10.657H14.0713V10.7091H14.2814V10.657Z" fill="#4B87FF"/>
<path opacity="0.5" d="M13.7291 10.8992H13.519V11.4108H13.7291V10.8992Z" fill="#7C92F1"/>
<path d="M13.7291 10.7856H13.519V10.9012H13.7291V10.7856Z" fill="#7C92F1"/>
<path d="M13.7291 10.7278H13.519V10.7855H13.7291V10.7278Z" fill="#4B87FF"/>
<path opacity="0.5" d="M13.7291 10.7059H13.519V10.7277H13.7291V10.7059Z" fill="#4B87FF"/>
<path opacity="0.5" d="M13.4484 10.9817H13.2383V11.4106H13.4484V10.9817Z" fill="#7C92F1"/>
<path d="M13.4484 10.8639H13.2383V10.9838H13.4484V10.8639Z" fill="#7C92F1"/>
<path d="M13.4484 10.7954H13.2383V10.8656H13.4484V10.7954Z" fill="#4B87FF"/>
<path opacity="0.5" d="M13.4484 10.7708H13.2383V10.7955H13.4484V10.7708Z" fill="#4B87FF"/>
<g opacity="0.5">
<path opacity="0.3" d="M7.06201 13.2747L7.23585 13.0233C7.27123 12.9722 7.34159 12.9599 7.39221 12.996L7.41663 13.0135C7.47732 13.0569 7.56263 13.0295 7.58676 12.959L7.67119 12.712C7.70549 12.6116 7.84758 12.6116 7.88188 12.712L7.92272 12.8315C7.95546 12.9274 8.08885 12.9333 8.12989 12.8406L8.16526 12.7607C8.20064 12.681 8.30969 12.671 8.35894 12.743C8.41064 12.8186 8.52653 12.8029 8.55624 12.7162L8.59572 12.6007C8.63197 12.4946 8.7847 12.5026 8.80962 12.612L8.9607 13.2748C8.9607 13.2748 7.06748 13.2695 7.06221 13.2748L7.06201 13.2747Z" fill="#4B87FF"/>
</g>
<g opacity="0.5">
<path d="M7.05713 13.2813L7.19833 12.8681C7.23146 12.7713 7.36778 12.7696 7.40325 12.8656L7.47087 13.0486C7.50019 13.1279 7.60465 13.1449 7.65761 13.0791L7.71243 13.011C7.74888 12.9658 7.81445 12.9571 7.86136 12.9914L7.98898 13.0847C8.00764 13.0983 8.03012 13.1057 8.05318 13.1057H8.21559C8.23865 13.1057 8.26113 13.113 8.27979 13.1267L8.40067 13.2151C8.45021 13.2514 8.51999 13.2395 8.55468 13.1888L8.66813 13.0228C8.66959 13.0207 8.67106 13.0186 8.67262 13.0167C8.71816 12.959 8.80933 12.9712 8.84246 13.0368L8.96383 13.2775C8.96383 13.2775 7.05713 13.2736 7.05713 13.2814V13.2813Z" fill="#4B87FF"/>
</g>
<g opacity="0.5">
<path opacity="0.5" d="M8.96305 13.2773L8.81549 13.1571C8.61312 13.0082 8.51706 13.2917 8.35797 13.0789L8.30315 13.0108C8.2667 12.9656 8.20113 12.9569 8.15423 12.9912L8.09081 13.0376C8.03042 13.0818 7.95762 13.1055 7.88286 13.1055H7.79999C7.77693 13.1055 7.75446 13.1128 7.73579 13.1265L7.61491 13.2149C7.56537 13.2512 7.53078 13.2561 7.45143 13.1894C7.45143 13.1894 7.36534 13.1195 7.36329 13.1169C7.32107 13.0655 7.23283 13.0655 7.19482 13.1169C7.18573 13.1292 7.17615 13.1403 7.1658 13.1516L7.05176 13.2773C7.05176 13.2773 8.96305 13.2695 8.96305 13.2773Z" fill="#7C92F1"/>
</g>
<path opacity="0.2" d="M9.55811 15.3099H11.7519" stroke="#00484A" stroke-width="0.0263779" stroke-miterlimit="10"/>
<path opacity="0.2" d="M9.55811 15.2159H11.7519" stroke="#00484A" stroke-width="0.0263779" stroke-miterlimit="10"/>
<path opacity="0.2" d="M9.55811 15.1222H11.7519" stroke="#00484A" stroke-width="0.0263779" stroke-miterlimit="10"/>
<path opacity="0.2" d="M9.55811 15.0284H11.7519" stroke="#00484A" stroke-width="0.0263779" stroke-miterlimit="10"/>
<path opacity="0.2" d="M9.55811 14.9348H11.7519" stroke="#00484A" stroke-width="0.0263779" stroke-miterlimit="10"/>
<path opacity="0.2" d="M9.55811 14.8411H11.7519" stroke="#00484A" stroke-width="0.0263779" stroke-miterlimit="10"/>
<path opacity="0.2" d="M9.55811 14.7473H11.7519" stroke="#00484A" stroke-width="0.0263779" stroke-miterlimit="10"/>
<path opacity="0.1" d="M9.65918 15.3097L10.0573 15.0641L10.4555 15.1659L10.8536 14.9196L11.2518 14.7809L11.6499 15.0641V15.4035H9.65918V15.3097Z" fill="#4B87FF"/>
<path d="M9.65959 15.3385C9.67546 15.3385 9.68832 15.3256 9.68832 15.3097C9.68832 15.2939 9.67546 15.281 9.65959 15.281C9.64372 15.281 9.63086 15.2939 9.63086 15.3097C9.63086 15.3256 9.64372 15.3385 9.65959 15.3385Z" fill="#4B87FF"/>
<path d="M10.0575 15.0929C10.0734 15.0929 10.0863 15.08 10.0863 15.0641C10.0863 15.0483 10.0734 15.0354 10.0575 15.0354C10.0417 15.0354 10.0288 15.0483 10.0288 15.0641C10.0288 15.08 10.0417 15.0929 10.0575 15.0929Z" fill="#4B87FF"/>
<path d="M10.8539 14.9483C10.8698 14.9483 10.8827 14.9355 10.8827 14.9196C10.8827 14.9037 10.8698 14.8909 10.8539 14.8909C10.8381 14.8909 10.8252 14.9037 10.8252 14.9196C10.8252 14.9355 10.8381 14.9483 10.8539 14.9483Z" fill="#4B87FF"/>
<path d="M11.2519 14.8097C11.2677 14.8097 11.2806 14.7968 11.2806 14.7809C11.2806 14.7651 11.2677 14.7522 11.2519 14.7522C11.236 14.7522 11.2231 14.7651 11.2231 14.7809C11.2231 14.7968 11.236 14.8097 11.2519 14.8097Z" fill="#4B87FF"/>
<path d="M11.6503 15.0929C11.6662 15.0929 11.679 15.08 11.679 15.0641C11.679 15.0483 11.6662 15.0354 11.6503 15.0354C11.6344 15.0354 11.6216 15.0483 11.6216 15.0641C11.6216 15.08 11.6344 15.0929 11.6503 15.0929Z" fill="#4B87FF"/>
<path d="M10.4555 15.1945C10.4714 15.1945 10.4842 15.1817 10.4842 15.1658C10.4842 15.1499 10.4714 15.1371 10.4555 15.1371C10.4396 15.1371 10.4268 15.1499 10.4268 15.1658C10.4268 15.1817 10.4396 15.1945 10.4555 15.1945Z" fill="#4B87FF"/>
<path d="M9.65918 15.3097L10.0573 15.0641L10.4555 15.1659L10.8536 14.9196L11.2518 14.7809L11.6499 15.0641" stroke="#4B87FF" stroke-width="0.105511" stroke-miterlimit="10"/>
<path d="M9.55811 15.4034H11.7519" stroke="#00484A" stroke-width="0.050027" stroke-miterlimit="10"/>
<g opacity="0.3">
<path d="M13.1546 13.4804V13.1588C12.9782 13.1588 12.833 13.304 12.833 13.4804C12.833 13.6568 12.9782 13.802 13.1546 13.802C13.3282 13.802 13.4721 13.6614 13.4761 13.4878L13.1546 13.4804Z" fill="#7C92F1"/>
</g>
<g opacity="0.5">
<path d="M13.2334 13.3936L13.555 13.4008C13.555 13.3171 13.5223 13.2293 13.4639 13.1693C13.4055 13.1093 13.3221 13.0744 13.2384 13.072L13.2334 13.3935V13.3936Z" fill="#4B87FF"/>
</g>
<path opacity="0.5" d="M15.0346 10.0658L14.9811 9.99681C15.0099 9.97453 15.0365 9.94854 15.0602 9.91883C15.2204 9.71802 15.1873 9.42545 14.9866 9.26529C14.9458 9.23275 14.9011 9.20812 14.8545 9.19131L14.8785 9.10718C14.9359 9.12711 14.9908 9.15701 15.0409 9.19698C15.2794 9.38714 15.3186 9.73463 15.1283 9.97317C15.1002 10.0083 15.0686 10.0393 15.0345 10.0657L15.0346 10.0658Z" fill="#4B87FF"/>
<path d="M14.8897 10.1465L14.8623 10.0636C14.9046 10.0475 14.9448 10.0253 14.9814 9.99683L15.0349 10.0658C14.9891 10.1013 14.9426 10.1274 14.8897 10.1465Z" fill="#4B87FF"/>
<path opacity="0.1" d="M14.3525 10.0606C14.114 9.87046 14.0749 9.52287 14.265 9.28444C14.4152 9.09613 14.6635 9.03213 14.8788 9.10727L14.8548 9.19141C14.6724 9.12555 14.4609 9.1789 14.3332 9.33887C14.1731 9.53968 14.2061 9.83225 14.4069 9.99241C14.5401 10.0986 14.7137 10.1199 14.8622 10.0636L14.8895 10.1465C14.7148 10.2099 14.5084 10.185 14.3525 10.0606Z" fill="#4B87FF"/>
<g opacity="0.1">
<path d="M7.35745 9.83144C7.33751 9.83144 7.32129 9.81522 7.32129 9.79528V9.11721C7.32129 9.09728 7.33751 9.08105 7.35745 9.08105C7.37738 9.08105 7.3936 9.09728 7.3936 9.11721V9.79528C7.3936 9.81522 7.37738 9.83144 7.35745 9.83144Z" fill="#4B87FF"/>
</g>
<g opacity="0.5">
<path d="M7.35745 9.83473C7.33751 9.83473 7.32129 9.81851 7.32129 9.79857V9.36147C7.32129 9.34154 7.33751 9.32532 7.35745 9.32532C7.37738 9.32532 7.3936 9.34154 7.3936 9.36147V9.79857C7.3936 9.81851 7.37738 9.83473 7.35745 9.83473Z" fill="#7C92F1"/>
</g>
<g opacity="0.1">
<path d="M7.50198 9.83144C7.48204 9.83144 7.46582 9.81522 7.46582 9.79528V9.11721C7.46582 9.09728 7.48204 9.08105 7.50198 9.08105C7.52191 9.08105 7.53813 9.09728 7.53813 9.11721V9.79528C7.53813 9.81522 7.52191 9.83144 7.50198 9.83144Z" fill="#4B87FF"/>
</g>
<g opacity="0.5">
<path d="M7.50198 9.8346C7.48204 9.8346 7.46582 9.81838 7.46582 9.79844V9.22366C7.46582 9.20372 7.48204 9.1875 7.50198 9.1875C7.52191 9.1875 7.53813 9.20372 7.53813 9.22366V9.79844C7.53813 9.81838 7.52191 9.8346 7.50198 9.8346Z" fill="#7C92F1"/>
</g>
<path opacity="0.1" d="M7.64651 9.83144C7.62657 9.83144 7.61035 9.81522 7.61035 9.79528V9.11721C7.61035 9.09728 7.62657 9.08105 7.64651 9.08105C7.66644 9.08105 7.68266 9.09728 7.68266 9.11721V9.79528C7.68266 9.81522 7.66644 9.83144 7.64651 9.83144Z" fill="#4B87FF"/>
<path opacity="0.5" d="M7.64651 9.83469C7.62657 9.83469 7.61035 9.81846 7.61035 9.79853V9.46462C7.61035 9.44469 7.62657 9.42847 7.64651 9.42847C7.66644 9.42847 7.68266 9.44469 7.68266 9.46462V9.79853C7.68266 9.81846 7.66644 9.83469 7.64651 9.83469Z" fill="#7C92F1"/>
<g opacity="0.1">
<path d="M7.79104 9.83144C7.7711 9.83144 7.75488 9.81522 7.75488 9.79528V9.11721C7.75488 9.09728 7.7711 9.08105 7.79104 9.08105C7.81097 9.08105 7.8272 9.09728 7.8272 9.11721V9.79528C7.8272 9.81522 7.81097 9.83144 7.79104 9.83144Z" fill="#4B87FF"/>
</g>
<g opacity="0.5">
<path d="M7.79104 9.8346C7.7711 9.8346 7.75488 9.81838 7.75488 9.79844V9.22366C7.75488 9.20372 7.7711 9.1875 7.79104 9.1875C7.81097 9.1875 7.8272 9.20372 7.8272 9.22366V9.79844C7.8272 9.81838 7.81097 9.8346 7.79104 9.8346Z" fill="#7C92F1"/>
</g>
<g opacity="0.1">
<path d="M7.93557 9.83144C7.91564 9.83144 7.89941 9.81522 7.89941 9.79528V9.11721C7.89941 9.09728 7.91564 9.08105 7.93557 9.08105C7.9555 9.08105 7.97173 9.09728 7.97173 9.11721V9.79528C7.97173 9.81522 7.9555 9.83144 7.93557 9.83144Z" fill="#4B87FF"/>
</g>
<g opacity="0.5">
<path d="M7.93557 9.83482C7.91564 9.83482 7.89941 9.8186 7.89941 9.79866V9.33401C7.89941 9.31407 7.91564 9.29785 7.93557 9.29785C7.9555 9.29785 7.97173 9.31407 7.97173 9.33401V9.79866C7.97173 9.8186 7.9555 9.83482 7.93557 9.83482Z" fill="#7C92F1"/>
</g>
<g opacity="0.1">
<path d="M8.0801 9.83144C8.06017 9.83144 8.04395 9.81522 8.04395 9.79528V9.11721C8.04395 9.09728 8.06017 9.08105 8.0801 9.08105C8.10004 9.08105 8.11626 9.09728 8.11626 9.11721V9.79528C8.11626 9.81522 8.10004 9.83144 8.0801 9.83144Z" fill="#4B87FF"/>
</g>
<path opacity="0.5" d="M8.0801 9.83141C8.06017 9.83141 8.04395 9.81519 8.04395 9.79848V9.46458C8.04395 9.44142 8.06017 9.42529 8.0801 9.42529C8.10004 9.42529 8.11626 9.44151 8.11626 9.46145V9.79536C8.11626 9.81529 8.10004 9.83151 8.0801 9.83151V9.83141Z" fill="#7C92F1"/>
<g opacity="0.1">
<path d="M8.22463 9.83144C8.2047 9.83144 8.18848 9.81522 8.18848 9.79528V9.11721C8.18848 9.09728 8.2047 9.08105 8.22463 9.08105C8.24457 9.08105 8.26079 9.09728 8.26079 9.11721V9.79528C8.26079 9.81522 8.24457 9.83144 8.22463 9.83144Z" fill="#4B87FF"/>
</g>
<path opacity="0.5" d="M8.36868 9.8314C8.34874 9.8314 8.33252 9.81518 8.33252 9.79524V9.18606C8.33252 9.16612 8.34874 9.1499 8.36868 9.1499C8.38861 9.1499 8.40483 9.16612 8.40483 9.18606V9.79524C8.40483 9.81518 8.38861 9.8314 8.36868 9.8314Z" fill="#7C92F1"/>
<path opacity="0.1" d="M8.36868 9.83144C8.34874 9.83144 8.33252 9.81522 8.33252 9.79528V9.11721C8.33252 9.09728 8.34874 9.08105 8.36868 9.08105C8.38861 9.08105 8.40483 9.09728 8.40483 9.11721V9.79528C8.40483 9.81522 8.38861 9.83144 8.36868 9.83144Z" fill="#4B87FF"/>
<g opacity="0.5">
<path d="M8.22463 9.83489C8.2047 9.83489 8.18848 9.81866 8.18848 9.79873V9.53371C8.18848 9.51378 8.2047 9.49756 8.22463 9.49756C8.24457 9.49756 8.26079 9.51378 8.26079 9.53371V9.79873C8.26079 9.81866 8.24457 9.83489 8.22463 9.83489Z" fill="#7C92F1"/>
</g>
<path opacity="0.1" d="M8.5137 9.83144C8.49376 9.83144 8.47754 9.81522 8.47754 9.79528V9.11721C8.47754 9.09728 8.49376 9.08105 8.5137 9.08105C8.53363 9.08105 8.54985 9.09728 8.54985 9.11721V9.79528C8.54985 9.81522 8.53363 9.83144 8.5137 9.83144Z" fill="#4B87FF"/>
<g opacity="0.5">
<path d="M8.5137 9.83138C8.49376 9.83138 8.47754 9.81516 8.47754 9.79845V9.70552C8.47754 9.68236 8.49376 9.66614 8.5137 9.66614C8.53363 9.66614 8.54985 9.68236 8.54985 9.70229V9.79522C8.54985 9.81516 8.53363 9.83138 8.5137 9.83138Z" fill="#7C92F1"/>
</g>
<g opacity="0.1">
<path d="M8.65774 9.83144C8.6378 9.83144 8.62158 9.81522 8.62158 9.79528V9.11721C8.62158 9.09728 8.6378 9.08105 8.65774 9.08105C8.67767 9.08105 8.69389 9.09728 8.69389 9.11721V9.79528C8.69389 9.81522 8.67767 9.83144 8.65774 9.83144Z" fill="#4B87FF"/>
</g>
<g opacity="0.5">
<path d="M8.65774 9.83141C8.6378 9.83141 8.62158 9.81519 8.62158 9.79848V9.46458C8.62158 9.44142 8.6378 9.42529 8.65774 9.42529C8.67767 9.42529 8.69389 9.44151 8.69389 9.46145V9.79536C8.69389 9.81529 8.67767 9.83151 8.65774 9.83151V9.83141Z" fill="#7C92F1"/>
</g>
<path d="M7.32861 9.95068H7.40093" stroke="#4B87FF" stroke-width="0.056394" stroke-linecap="round" stroke-linejoin="round"/>
<path d="M7.47266 9.95068H7.54497" stroke="#4B87FF" stroke-width="0.056394" stroke-linecap="round" stroke-linejoin="round"/>
<path d="M7.61719 9.95068H7.6895" stroke="#4B87FF" stroke-width="0.056394" stroke-linecap="round" stroke-linejoin="round"/>
<path d="M7.76172 9.95068H7.83403" stroke="#4B87FF" stroke-width="0.056394" stroke-linecap="round" stroke-linejoin="round"/>
<path d="M7.90625 9.95068H7.97856" stroke="#4B87FF" stroke-width="0.056394" stroke-linecap="round" stroke-linejoin="round"/>
<path d="M8.05078 9.95068H8.12309" stroke="#4B87FF" stroke-width="0.056394" stroke-linecap="round" stroke-linejoin="round"/>
<path d="M8.19531 9.95068H8.26763" stroke="#4B87FF" stroke-width="0.056394" stroke-linecap="round" stroke-linejoin="round"/>
<path d="M8.33984 9.95068H8.41216" stroke="#4B87FF" stroke-width="0.056394" stroke-linecap="round" stroke-linejoin="round"/>
<path d="M8.48438 9.95068H8.55669" stroke="#4B87FF" stroke-width="0.056394" stroke-linecap="round" stroke-linejoin="round"/>
<path d="M8.62891 9.95068H8.70122" stroke="#4B87FF" stroke-width="0.056394" stroke-linecap="round" stroke-linejoin="round"/>
<path d="M18.2666 14.3246L19.3234 12.7228L20.2134 13.7907L21.2146 12.0287L21.8264 12.883L22.772 11.4948" stroke="#00484A" stroke-width="0.767613"/>
<g clip-path="url(#clip0_3477_5857)">
<path d="M4.11193 10.6232H3V14.3769C3.83256 14.3769 3.79376 13.6228 3.79376 13.6228V11.3551H4.02102C4.28043 11.3551 4.41014 11.5 4.41014 11.7963V13.2016C4.41014 13.4979 4.30261 13.6483 4.02102 13.6483H3.79376C3.79376 14.252 4.11414 14.3504 4.3403 14.3504C5.00768 14.3504 5.20279 13.8407 5.20279 13.2657V11.731C5.20279 11.0212 4.89016 10.6232 4.11193 10.6232Z" fill="#206E70"/>
<path d="M9.01843 13.321V12.1203H9.49956V11.4469H8.42422C8.85103 11.3341 9.01843 11.0809 9.01843 10.6011H8.24574V11.4469H7.85107V12.1203H8.24574V13.4504C8.24574 14.0375 8.46746 14.3979 9.08827 14.3979C9.25013 14.3979 9.39092 14.3814 9.50954 14.3438V13.6914C9.44968 13.708 9.39092 13.7124 9.31997 13.7124C9.08716 13.7124 9.01732 13.6052 9.01732 13.3188L9.01843 13.321Z" fill="#206E70"/>
<path d="M6.6474 11.4093C5.97227 11.4093 5.56208 11.8129 5.56208 12.4431V12.4752L6.33478 12.5293V12.4431C6.33478 12.222 6.42679 12.1147 6.60971 12.1147C6.79263 12.1147 6.89019 12.212 6.89019 12.4055V12.6101L6.30706 12.7228C5.73946 12.8301 5.45898 13.1375 5.45898 13.6383C5.45898 14.0906 5.75609 14.3979 6.17181 14.3979C6.56093 14.3979 6.82589 14.1613 6.89019 13.7356C6.89019 13.7356 6.84252 14.3548 7.66288 14.3548V12.421C7.66288 11.7587 7.29039 11.4082 6.6474 11.4082V11.4093ZM6.89019 13.2735C6.89019 13.5156 6.7117 13.6881 6.47446 13.6881C6.32813 13.6881 6.23168 13.6018 6.23168 13.467C6.23168 13.321 6.31815 13.2303 6.48555 13.1972L6.89019 13.1165V13.2724V13.2735Z" fill="#206E70"/>
<path d="M10.9863 11.4093C10.3111 11.4093 9.90095 11.8129 9.90095 12.4431V12.4752L10.6736 12.5293V12.4431C10.6736 12.222 10.7657 12.1147 10.9486 12.1147C11.1315 12.1147 11.2291 12.212 11.2291 12.4055V12.6101L10.6459 12.7228C10.0783 12.8301 9.79785 13.1375 9.79785 13.6383C9.79785 14.0906 10.095 14.3979 10.5107 14.3979C10.8998 14.3979 11.1648 14.1613 11.2291 13.7356C11.2291 13.7356 11.1814 14.3548 12.0017 14.3548V12.421C12.0017 11.7587 11.6293 11.4082 10.9863 11.4082V11.4093ZM11.2291 13.2735C11.2291 13.5156 11.0506 13.6881 10.8133 13.6881C10.667 13.6881 10.5705 13.6018 10.5705 13.467C10.5705 13.321 10.657 13.2303 10.8244 13.1972L11.2291 13.1165V13.2724V13.2735Z" fill="#206E70"/>
<path d="M17.3251 11.4093C16.65 11.4093 16.2398 11.8129 16.2398 12.4431V12.4752L17.0125 12.5293V12.4431C17.0125 12.222 17.1045 12.1147 17.2874 12.1147C17.4704 12.1147 17.5679 12.212 17.5679 12.4055V12.6101L16.9848 12.7228C16.4172 12.8301 16.1367 13.1375 16.1367 13.6383C16.1367 14.0906 16.4338 14.3979 16.8495 14.3979C17.2387 14.3979 17.5036 14.1613 17.5679 13.7356C17.5679 13.7356 17.5203 14.3548 18.3406 14.3548V12.421C18.3406 11.7587 17.9681 11.4082 17.3251 11.4082V11.4093ZM17.5679 13.2735C17.5679 13.5156 17.3894 13.6881 17.1522 13.6881C17.0059 13.6881 16.9094 13.6018 16.9094 13.467C16.9094 13.321 16.9959 13.2303 17.1633 13.1972L17.5679 13.1165V13.2724V13.2735Z" fill="#206E70"/>
<path d="M15.1913 11.4038C14.8021 11.4038 14.5328 11.6835 14.4951 12.1092C14.4463 11.6725 14.209 11.4038 13.8144 11.4038C13.4419 11.4038 13.1714 11.6681 13.1226 12.0827L13.0195 11.4469H12.3555V14.3559H13.1282V12.4597C13.1282 12.2331 13.2313 12.1203 13.4364 12.1203C13.6414 12.1203 13.739 12.2331 13.739 12.4597V14.3559H14.5062V12.4597C14.5062 12.2331 14.6093 12.1203 14.8143 12.1203C15.0194 12.1203 15.117 12.2331 15.117 12.4597V14.3559H15.8897V12.3138C15.8897 11.7532 15.6624 11.4038 15.1935 11.4038H15.1913Z" fill="#206E70"/>
</g>
<path d="M12.0114 13.5981L11.7208 13.8711L11.1831 13.401C11.3524 13.2956 11.5044 13.1649 11.634 13.0144L12.0114 13.5982V13.5981Z" fill="#005A5A"/>
<path d="M13.7412 15.2806L13.1773 15.7474L11.5049 13.7985L11.546 13.7625L11.9837 13.3634L12.0164 13.3354L13.7412 15.2806Z" fill="#16D0B4"/>
<path d="M9.92943 9C8.56448 9 7.45801 10.1065 7.45801 11.4713C7.45801 12.8362 8.56448 13.9427 9.92943 13.9427C10.4096 13.9427 10.8581 13.8059 11.2379 13.5681C11.4495 13.4364 11.6396 13.2729 11.8016 13.0847C12.1753 12.6522 12.4012 12.0884 12.4012 11.4713C12.4012 10.1064 11.2944 9 9.92943 9ZM9.9305 13.4251C8.85158 13.4251 7.9768 12.5503 7.9768 11.4714C7.9768 10.3925 8.85158 9.51772 9.9305 9.51772C11.0094 9.51772 11.8847 10.3925 11.8847 11.4714C11.8847 12.5503 11.0099 13.4251 9.9305 13.4251Z" fill="#16D0B4"/>
<circle cx="9.92172" cy="11.4762" r="1.95395" fill="#16D0B4" fill-opacity="0.35"/>
<g filter="url(#filter1_dd_3477_5857)">
<path d="M8.20183 11.5441C8.24755 11.9846 8.49936 12.2591 8.88818 12.2591C9.32872 12.2591 9.62042 12.2591 9.62042 12.2591V10.6131C9.62042 10.2086 9.29251 9.88086 8.88818 9.88086C8.5279 9.88086 8.28176 10.1096 8.21301 10.5217L8.20166 11.5443L8.20183 11.5441Z" fill="white"/>
<g style="mix-blend-mode:multiply">
<path d="M6.65723 9.72376C6.65723 9.0566 7.89643 9.0566 7.89643 9.72376Z" fill="#16D0B4"/>
</g>
<g style="mix-blend-mode:multiply">
<path d="M8.38135 9.72388C8.51084 9.01633 9.51092 9.05672 9.62055 9.72388Z" fill="#16D0B4"/>
</g>
<path d="M6.57487 11.5441C6.6206 11.9846 6.87241 12.2591 7.26122 12.2591C7.70177 12.2591 7.99347 12.2591 7.99347 12.2591V10.6131C7.99347 10.2086 7.66556 9.88086 7.26122 9.88086C6.90094 9.88086 6.65481 10.1096 6.58605 10.5217L6.57471 11.5443L6.57487 11.5441Z" fill="white"/>
<g style="mix-blend-mode:multiply">
<path d="M7.03879 11.6041C7.26247 11.6041 7.44379 11.4227 7.44379 11.1991C7.44379 10.9754 7.26247 10.7941 7.03879 10.7941C6.81511 10.7941 6.63379 10.9754 6.63379 11.1991C6.63379 11.4227 6.81511 11.6041 7.03879 11.6041Z" fill="#00484A"/>
</g>
<g style="mix-blend-mode:multiply">
<path d="M8.67405 11.6041C8.89772 11.6041 9.07905 11.4227 9.07905 11.1991C9.07905 10.9754 8.89772 10.7941 8.67405 10.7941C8.45037 10.7941 8.26904 10.9754 8.26904 11.1991C8.26904 11.4227 8.45037 11.6041 8.67405 11.6041Z" fill="#00484A"/>
</g>
<path d="M8.77344 11.0227C8.82818 11.0227 8.87256 10.9783 8.87256 10.9236C8.87256 10.8688 8.82818 10.8245 8.77344 10.8245C8.7187 10.8245 8.67432 10.8688 8.67432 10.9236C8.67432 10.9783 8.7187 11.0227 8.77344 11.0227Z" fill="white"/>
<path d="M7.15723 11.0227C7.21197 11.0227 7.25635 10.9783 7.25635 10.9236C7.25635 10.8688 7.21197 10.8245 7.15723 10.8245C7.10248 10.8245 7.05811 10.8688 7.05811 10.9236C7.05811 10.9783 7.10248 11.0227 7.15723 11.0227Z" fill="white"/>
</g>
<defs>
<filter id="filter0_d_3477_5857" x="21.2734" y="10.9048" width="2.82722" height="2.84089" filterUnits="userSpaceOnUse" color-interpolation-filters="sRGB">
<feFlood flood-opacity="0" result="BackgroundImageFix"/>
<feColorMatrix in="SourceAlpha" type="matrix" values="0 0 0 0 0 0 0 0 0 0 0 0 0 0 0 0 0 0 127 0" result="hardAlpha"/>
<feOffset dy="0.767613"/>
<feGaussianBlur stdDeviation="0.383807"/>
<feComposite in2="hardAlpha" operator="out"/>
<feColorMatrix type="matrix" values="0 0 0 0 0 0 0 0 0 0 0 0 0 0 0 0 0 0 0.25 0"/>
<feBlend mode="normal" in2="BackgroundImageFix" result="effect1_dropShadow_3477_5857"/>
<feBlend mode="normal" in="SourceGraphic" in2="effect1_dropShadow_3477_5857" result="shape"/>
</filter>
<filter id="filter1_dd_3477_5857" x="0.0499935" y="5.37019" width="16.0953" height="16.1003" filterUnits="userSpaceOnUse" color-interpolation-filters="sRGB">
<feFlood flood-opacity="0" result="BackgroundImageFix"/>
<feColorMatrix in="SourceAlpha" type="matrix" values="0 0 0 0 0 0 0 0 0 0 0 0 0 0 0 0 0 0 127 0" result="hardAlpha"/>
<feOffset dy="2.68665"/>
<feGaussianBlur stdDeviation="3.26236"/>
<feComposite in2="hardAlpha" operator="out"/>
<feColorMatrix type="matrix" values="0 0 0 0 0 0 0 0 0 0.282353 0 0 0 0 0.290196 0 0 0 0.16 0"/>
<feBlend mode="normal" in2="BackgroundImageFix" result="effect1_dropShadow_3477_5857"/>
<feColorMatrix in="SourceAlpha" type="matrix" values="0 0 0 0 0 0 0 0 0 0 0 0 0 0 0 0 0 0 127 0" result="hardAlpha"/>
<feOffset dy="0.767613"/>
<feGaussianBlur stdDeviation="0.767613"/>
<feComposite in2="hardAlpha" operator="out"/>
<feColorMatrix type="matrix" values="0 0 0 0 0 0 0 0 0 0.282353 0 0 0 0 0.290196 0 0 0 0.1 0"/>
<feBlend mode="normal" in2="effect1_dropShadow_3477_5857" result="effect2_dropShadow_3477_5857"/>
<feBlend mode="normal" in="SourceGraphic" in2="effect2_dropShadow_3477_5857" result="shape"/>
</filter>
<clipPath id="clip0_3477_5857">
<rect width="15.3408" height="3.79797" fill="white" transform="translate(3 10.6011)"/>
</clipPath>
</defs>
</svg>
