<?xml version="1.0" encoding="UTF-8"?>
<svg xmlns="http://www.w3.org/2000/svg" viewBox="0 0 24 24">
  <path fill="currentColor" d="M 13.5,2 L 10.5,2 L 10,4.5 C 9.1,4.7 8.3,5.1 7.6,5.6 L 5.3,4.5 L 3.8,7.1 L 5.6,8.9 C 5.4,9.6 5.3,10.3 5.3,11 C 5.3,11.7 5.4,12.4 5.6,13.1 L 3.8,14.9 L 5.3,17.5 L 7.6,16.4 C 8.3,16.9 9.1,17.3 10,17.5 L 10.5,20 L 13.5,20 L 14,17.5 C 14.9,17.3 15.7,16.9 16.4,16.4 L 18.7,17.5 L 20.2,14.9 L 18.4,13.1 C 18.6,12.4 18.7,11.7 18.7,11 C 18.7,10.3 18.6,9.6 18.4,8.9 L 20.2,7.1 L 18.7,4.5 L 16.4,5.6 C 15.7,5.1 14.9,4.7 14,4.5 Z M 12,7.5 C 13.9,7.5 15.5,9.1 15.5,11 C 15.5,12.9 13.9,14.5 12,14.5 C 10.1,14.5 8.5,12.9 8.5,11 C 8.5,9.1 10.1,7.5 12,7.5 Z"/>
</svg>
