<?xml version="1.0" encoding="UTF-8"?>
<svg xmlns="http://www.w3.org/2000/svg" viewBox="0 0 24 24">
  <path fill="currentColor" d="M 4,2 C 2.9,2 2,2.9 2,4 L 2,20 C 2,21.1 2.9,22 4,22 L 20,22 C 21.1,22 22,21.1 22,20 L 22,4 C 22,2.9 21.1,2 20,2 Z M 4,4 L 20,4 L 20,8.5 L 4,8.5 Z M 4,10 L 9.33,10 L 9.33,15 L 4,15 Z M 10.33,10 L 14.67,10 L 14.67,15 L 10.33,15 Z M 15.67,10 L 20,10 L 20,15 L 15.67,15 Z M 4,16 L 9.33,16 L 9.33,20 L 4,20 Z M 10.33,16 L 14.67,16 L 14.67,20 L 10.33,20 Z M 15.67,16 L 20,16 L 20,20 L 15.67,20 Z"/>
</svg>
