<?xml version="1.0" encoding="UTF-8"?>
<svg id="Calque_1" data-name="Calque 1" xmlns="http://www.w3.org/2000/svg" viewBox="0 0 512 512">
  <path d="M139.78,43.28l230.71-.26c32.57,4.71,54.47,29.71,56.56,62.44v341.08c-1.21,16.2-11.77,25.13-28.07,21.99-48.64-31.69-94.63-67.56-142.63-100.33l-138.68,97.97c-14.83,8.55-32.13-1.55-32.7-18.63l.05-344.02c2.3-30.6,24.38-55.5,54.76-60.24ZM384,406V102.5c0-1.18-4.03-8.53-5.15-9.85-4.49-5.28-11.53-7.53-18.3-7.7l-211.04.06c-5.09.88-11.18,2.32-15,6-1.58,1.52-6.51,9.79-6.51,11.49v303.5l114.87-81.63c8.28-6.18,18.72-5.87,26.85.4l114.27,81.23Z"/>
</svg>