<?xml version="1.0" encoding="UTF-8"?>
<svg id="Calque_1" data-name="Calque 1" xmlns="http://www.w3.org/2000/svg" viewBox="0 0 512 512">
  <path d="M133.8,21.3l292.74-.33c11.61.68,20.46,8.82,21.5,20.5v429.08c-.87,9.01-6.07,16.33-14.82,19.18-98.93,2.97-198.53.45-297.71,1.27-38.24-2.72-68.13-31.17-71.55-69.45l.17-332.91c4.29-36.81,32.75-64.17,69.67-67.33ZM405,64H133.5c-9.59,0-26.5,15.82-26.5,25.5v258.5c3.67-1.03,7.07-2.72,10.78-3.72s12.13-3.28,15.72-3.28h271.5V64ZM405,384H133.5c-15.75,0-27.33,20.14-26.54,34.55.68,12.44,13.45,29.45,26.54,29.45h271.5v-64Z"/>
</svg>