<svg width="25" height="25" viewBox="0 0 25 25" fill="none" xmlns="http://www.w3.org/2000/svg">
<mask id="mask0_3525_6727" style="mask-type:alpha" maskUnits="userSpaceOnUse" x="0" y="0" width="25" height="25">
<rect x="0.857178" y="0.425079" width="24" height="24" fill="#D9D9D9"/>
</mask>
<g mask="url(#mask0_3525_6727)">
<path d="M20.1053 19.6069H9.68421C9.16316 19.6069 8.71711 19.42 8.34605 19.0461C7.975 18.6722 7.78947 18.2228 7.78947 17.6978V4.33417C7.78947 3.80917 7.975 3.35974 8.34605 2.98587C8.71711 2.61201 9.16316 2.42508 9.68421 2.42508H15.0665C15.8661 2.42508 16.6326 2.74427 17.1958 3.31178L21.1293 7.27507C21.687 7.83701 22 8.59664 22 9.38837V17.6978C22 18.2228 21.8145 18.6722 21.4434 19.0461C21.0724 19.42 20.6263 19.6069 20.1053 19.6069ZM16.3684 9.1069C15.8161 9.1069 15.3684 8.65918 15.3684 8.1069V4.33417H9.68421V17.6978H20.1053V9.1069H16.3684ZM5.89474 23.4251C5.37368 23.4251 4.92763 23.2381 4.55658 22.8643C4.18553 22.4904 4 22.041 4 21.516V8.15235H5.89474V21.516H16.3158V23.4251H5.89474Z" fill="black"/>
<rect x="10.8569" y="9.42508" width="8" height="1" rx="0.5" fill="black"/>
<rect x="10.8569" y="12.4251" width="8" height="1" rx="0.5" fill="black"/>
<rect x="10.8569" y="15.4251" width="8" height="1" rx="0.5" fill="black"/>
</g>
</svg>
