<?xml version="1.0" encoding="UTF-8"?>
<svg id="Calque_1" data-name="Calque 1" xmlns="http://www.w3.org/2000/svg" viewBox="0 0 512 512">
  <!-- <path fill="#fff;" d="M512,0v512H0V0h512ZM248.79,18.29C62.53,24.69-46.24,233.98,59.18,389.32c95.37,140.52,305.38,138.63,396.84-4.8,100.5-157.61-10.46-360.94-194.53-366.51l-12.7.28Z"/> -->
  <path d="M248.79,18.29l12.7-.28c184.08,5.57,295.03,208.9,194.53,366.51-91.45,143.43-301.47,145.32-396.84,4.8C-46.24,233.98,62.53,24.69,248.79,18.29ZM53,202h69.5c21.41,0,47.2,31.04,45.55,52.45l.11,191.89c1.15,3.36,30.33,12.32,35.41,13.59,26.06,6.52,52.62,7.51,79.33,4.97,2.95-38.51,18.09-75.74,44.59-103.91,18.42-19.58,45.59-29.3,35.23-63.21-17.9-58.61-109.28,2.73-136.25-54.75-6.19-13.2-6.42-55.49-2.41-69.47,7.22-25.18,34.72-38.7,59.48-30.6,19.54,6.39,49.18,35.83,60.46,1.54l-.49-79.51C227.86,9.2,83.13,78.05,53,202ZM371,81v69.5c0,14.76-19.73,32.02-33.24,35.76-28.38,7.84-38.61-9.69-61.49-17.03-10.7-3.44-22.4.43-25.99,11.56-2.23,6.9-2.15,36.58-1.02,44.46,1.29,9,8.03,15.99,17.2,16.8,32.31,2.85,66.94-7.52,95.85,12.15,34.23,23.28,39.48,72.54,11.2,102.83-5.19,5.56-11.93,9.41-17.53,14.47-25.12,22.74-41.32,53.61-44.98,87.51,122.77-32.6,189.31-169.1,138.17-286.67-13.02-29.93-45.53-74.75-74.65-90.35-1.21-.65-1.9-1.35-3.53-.97ZM141,431v-176.5c0-9.52-12.53-25.5-22.5-25.5H47c-8.49,71.47,19.23,143.31,74.53,188.97,4.1,3.38,11.58,9.71,15.95,12.05,1.21.65,1.9,1.35,3.53.97Z"/>
  <!-- <path fill="#fff;" d="M53,202C83.13,78.05,227.86,9.2,343.51,64.99l.49,79.51c-11.28,34.29-40.92,4.85-60.46-1.54-24.76-8.1-52.26,5.41-59.48,30.6-4,13.98-3.78,56.27,2.41,69.47,26.97,57.48,118.34-3.86,136.25,54.75,10.36,33.91-16.82,43.63-35.23,63.21-26.5,28.17-41.64,65.4-44.59,103.91-26.7,2.54-53.27,1.56-79.33-4.97-5.08-1.27-34.27-10.23-35.41-13.59l-.11-191.89c1.65-21.42-24.14-52.45-45.55-52.45H53Z"/>
  <path fill="#fff;" d="M371,81c1.63-.37,2.31.32,3.53.97,29.11,15.6,61.62,60.42,74.65,90.35,51.14,117.57-15.4,254.07-138.17,286.67,3.66-33.9,19.86-64.78,44.98-87.51,5.6-5.07,12.34-8.92,17.53-14.47,28.28-30.28,23.03-79.55-11.2-102.83-28.91-19.67-63.55-9.29-95.85-12.15-9.17-.81-15.91-7.8-17.2-16.8-1.13-7.87-1.21-37.55,1.02-44.46,3.59-11.13,15.29-14.99,25.99-11.56,22.87,7.35,33.1,24.88,61.49,17.03,13.52-3.74,33.24-21,33.24-35.76v-69.5Z"/>
  <path fill="#fff;" d="M141,431c-1.63.37-2.31-.32-3.53-.97-4.37-2.34-11.85-8.67-15.95-12.05-55.29-45.67-83.02-117.5-74.53-188.97h71.5c9.97,0,22.5,15.98,22.5,25.5v176.5Z"/> -->
</svg>