<svg width="24" height="25" viewBox="0 0 24 25" fill="none" xmlns="http://www.w3.org/2000/svg">
<g clip-path="url(#clip0_4673_16304)">
<path d="M8.16 1.38507C6.83437 1.38507 5.76 2.45945 5.76 3.78507C5.76 5.1107 6.83437 6.18507 8.16 6.18507C9.48563 6.18507 10.56 5.1107 10.56 3.78507C10.56 2.45945 9.48563 1.38507 8.16 1.38507ZM15.75 1.38507C14.4244 1.38507 13.35 2.45945 13.35 3.78507C13.35 5.1107 14.4244 6.18507 15.75 6.18507C17.0756 6.18507 18.15 5.1107 18.15 3.78507C18.15 2.45945 17.0756 1.38507 15.75 1.38507ZM8.16 6.66507C7.62563 6.66507 7.13062 6.78882 6.69 7.01007C7.59 7.7132 8.175 8.81195 8.175 10.0401C8.175 11.2419 7.61812 12.3201 6.75 13.0251C7.44937 13.3888 8.06063 13.8932 8.535 14.5251C8.30625 14.0338 8.175 13.4957 8.175 12.9201C8.175 11.0132 9.57562 9.42132 11.4 9.12507C11.0138 7.69632 9.72187 6.66507 8.16 6.66507ZM15.75 6.66507C14.1956 6.66507 12.9019 7.68882 12.51 9.11007C14.3906 9.35757 15.855 10.9719 15.855 12.9201C15.855 13.4582 15.7406 13.9701 15.54 14.4351C16.0087 13.8426 16.5956 13.3551 17.265 13.0101C16.4025 12.3051 15.855 11.2382 15.855 10.0401C15.855 8.83445 16.4081 7.76007 17.28 7.05507C16.8206 6.80945 16.3125 6.66507 15.75 6.66507ZM4.335 7.16007C2.745 7.16007 1.455 8.45007 1.455 10.0401C1.455 11.6301 2.745 12.9201 4.335 12.9201C5.925 12.9201 7.215 11.6301 7.215 10.0401C7.215 8.45007 5.925 7.16007 4.335 7.16007ZM19.695 7.16007C18.105 7.16007 16.815 8.45007 16.815 10.0401C16.815 11.6301 18.105 12.9201 19.695 12.9201C21.285 12.9201 22.575 11.6301 22.575 10.0401C22.575 8.45007 21.285 7.16007 19.695 7.16007ZM12.015 10.0401C10.425 10.0401 9.135 11.3301 9.135 12.9201C9.135 14.5101 10.425 15.8001 12.015 15.8001C13.605 15.8001 14.895 14.5101 14.895 12.9201C14.895 11.3301 13.605 10.0401 12.015 10.0401ZM4.32 13.3851C1.93875 13.3851 0 15.3219 0 17.7051V19.3851C0 19.5351 0.0731251 19.6851 0.195 19.7751C0.305625 19.8594 1.365 20.5851 4.32 20.5851C5.34375 20.5851 6.14062 20.4932 6.75 20.3751C6.81187 18.8994 7.47187 17.5776 8.505 16.6551C8.03625 14.7763 6.34125 13.3851 4.32 13.3851ZM19.68 13.3851C17.6663 13.3851 15.9712 14.7707 15.495 16.6401C16.5431 17.5644 17.22 18.9013 17.28 20.3901C17.8856 20.5063 18.6712 20.5851 19.68 20.5851C22.635 20.5851 23.6944 19.8594 23.805 19.7751C23.9269 19.6851 24 19.5369 24 19.3851V17.7051C24 15.3219 22.0631 13.3851 19.68 13.3851ZM12.015 16.2801C9.63375 16.2801 7.695 18.2169 7.695 20.6001V22.2801C7.695 22.4319 7.76813 22.5651 7.89 22.6551C8.00062 22.7394 9.06 23.4801 12.015 23.4801C14.97 23.4801 16.0294 22.7394 16.14 22.6551C16.2619 22.5651 16.335 22.4301 16.335 22.2801V20.6001C16.335 18.2169 14.3981 16.2801 12.015 16.2801Z" fill="black"/>
</g>
<defs>
<clipPath id="clip0_4673_16304">
<rect width="24" height="24" fill="white" transform="translate(0 0.425079)"/>
</clipPath>
</defs>
</svg>
