<?xml version="1.0" encoding="UTF-8"?>
<svg id="Calque_1" data-name="Calque 1" xmlns="http://www.w3.org/2000/svg" viewBox="0 0 512 512">
  <path d="M246.79,21.29l16.7-.28c175.81,6.52,285.15,198.09,195.68,352.66-88.71,153.26-308.69,156.21-402.59,6.24C-39.2,226.93,68.19,29.12,246.79,21.29ZM243.79,64.29C94.04,73.61,11.85,245.89,100.19,368.31c86.8,120.29,272,100.43,331.67-34.96,58.08-131.77-45.13-277.95-188.06-269.06Z"/>
  <path d="M244.79,128.29c78.25-7.63,129.61,86.03,66.22,141.22-10.57,9.21-42.97,29.18-56.56,29.52-16.75.42-27.19-19.48-18.3-33.37,5.21-8.13,28.38-15.47,38.15-21.85,18.99-12.41,29.5-27.96,17.86-50.48-14.66-28.36-55.48-30.39-73.2-3.85-6.29,9.43-7.14,22-21.47,23.52-17.14,1.83-27.11-10.49-24.05-27.05,5.41-29.3,43.11-54.91,71.34-57.66Z"/>
  <path d="M253.78,341.23c27.64-2.88,32.73,39.07,5.64,42.68-29.21,3.89-33.65-39.75-5.64-42.68Z"/>
</svg>