<?xml version="1.0" encoding="UTF-8"?>
<svg id="Calque_1" data-name="Calque 1" xmlns="http://www.w3.org/2000/svg" viewBox="0 0 512 512">
  <path d="M246.79,21.29l16.7-.28c175.81,6.52,285.15,198.09,195.68,352.66-88.71,153.26-308.69,156.21-402.59,6.24C-39.2,226.93,68.19,29.12,246.79,21.29ZM243.79,64.29C94.04,73.61,11.85,245.89,100.19,368.31c86.8,120.29,272,100.43,331.67-34.96,58.08-131.77-45.13-277.95-188.06-269.06Z"/>
  <path d="M235,165.5c2.87-17.3,28.92-22.11,38.84-6.84.57.88,3.16,6.4,3.16,6.84v68l1.5,1.5h68c.44,0,5.97,2.59,6.84,3.16,12.49,8.14,12.41,27.62,0,35.68-.88.57-6.4,3.16-6.84,3.16h-68l-1.5,1.5v68c0,.44-2.59,5.97-3.16,6.84-8.14,12.49-27.62,12.41-35.68,0-.57-.88-3.16-6.4-3.16-6.84v-68l-1.5-1.5h-68c-.44,0-5.97-2.59-6.84-3.16-12.49-8.14-12.41-27.62,0-35.68.88-.57,6.4-3.16,6.84-3.16h68l1.5-1.5v-68Z"/>
</svg>