<?xml version="1.0" encoding="UTF-8"?>
<svg id="Calque_1" data-name="Calque 1" xmlns="http://www.w3.org/2000/svg" viewBox="0 0 512 512">
  <path d="M235,101.5c2.87-17.3,28.92-22.11,38.84-6.84.57.88,3.16,6.4,3.16,6.84v132l1.5,1.5h132c.44,0,5.97,2.59,6.84,3.16,12.49,8.14,12.41,27.62,0,35.68-.88.57-6.4,3.16-6.84,3.16h-132l-1.5,1.5v132c0,.44-2.59,5.97-3.16,6.84-8.14,12.49-27.62,12.41-35.68,0-.57-.88-3.16-6.4-3.16-6.84v-132l-1.5-1.5H101.5c-.44,0-5.97-2.59-6.84-3.16-12.49-8.14-12.41-27.62,0-35.68.88-.57,6.4-3.16,6.84-3.16h132l1.5-1.5V101.5Z"/>
</svg>