<svg width="25" height="25" viewBox="0 0 25 25" fill="none" xmlns="http://www.w3.org/2000/svg">
<mask id="mask0_3525_6721" style="mask-type:alpha" maskUnits="userSpaceOnUse" x="0" y="0" width="25" height="25">
<rect x="0.857178" y="0.425079" width="24" height="24" fill="#D9D9D9"/>
</mask>
<g mask="url(#mask0_3525_6721)">
<path d="M4.85742 21.4251C4.30742 21.4251 3.83659 21.2292 3.44492 20.8376C3.05326 20.4459 2.85742 19.9751 2.85742 19.4251V7.42508H4.85742V19.4251H19.8574V21.4251H4.85742ZM8.85742 17.4251C8.30742 17.4251 7.83659 17.2292 7.44492 16.8376C7.05326 16.4459 6.85742 15.9751 6.85742 15.4251V3.42508H23.8574V15.4251C23.8574 15.9751 23.6616 16.4459 23.2699 16.8376C22.8783 17.2292 22.4074 17.4251 21.8574 17.4251H8.85742ZM10.8574 12.4251H14.8574V7.42508H10.8574V12.4251ZM15.8574 12.4251H19.8574V10.4251H15.8574V12.4251ZM15.8574 9.42508H19.8574V7.42508H15.8574V9.42508Z" fill="black"/>
</g>
</svg>
