<svg width="25" height="25" viewBox="0 0 25 25" fill="none" xmlns="http://www.w3.org/2000/svg">
<mask id="mask0_3525_6726" style="mask-type:alpha" maskUnits="userSpaceOnUse" x="0" y="0" width="25" height="25">
<rect x="0.857178" y="0.425079" width="24" height="24" fill="#D9D9D9"/>
</mask>
<g mask="url(#mask0_3525_6726)">
<path d="M14.6949 7.18698L14.5517 6.4727C14.4562 6.43302 14.3667 6.39135 14.2832 6.3477C14.1997 6.30405 14.1141 6.25048 14.0266 6.18698L13.3345 6.40127L12.8572 5.59175L13.4061 5.11556C13.3902 5.01238 13.3822 4.90921 13.3822 4.80603C13.3822 4.70286 13.3902 4.59968 13.4061 4.49651L12.8572 4.02032L13.3345 3.21079L14.0266 3.42508C14.1141 3.36159 14.1997 3.30802 14.2832 3.26437C14.3667 3.22071 14.4562 3.17905 14.5517 3.13937L14.6949 2.42508H15.6495L15.7927 3.13937C15.8882 3.17905 15.9777 3.22071 16.0612 3.26437C16.1448 3.30802 16.2303 3.36159 16.3178 3.42508L17.0099 3.21079L17.4872 4.02032L16.9383 4.49651C16.9542 4.59968 16.9622 4.70286 16.9622 4.80603C16.9622 4.90921 16.9542 5.01238 16.9383 5.11556L17.4872 5.59175L17.0099 6.40127L16.3178 6.18698C16.2303 6.25048 16.1448 6.30405 16.0612 6.3477C15.9777 6.39135 15.8882 6.43302 15.7927 6.4727L15.6495 7.18698H14.6949ZM15.1722 5.75841C15.4347 5.75841 15.6595 5.66516 15.8464 5.47865C16.0334 5.29214 16.1269 5.06794 16.1269 4.80603C16.1269 4.54413 16.0334 4.31992 15.8464 4.13341C15.6595 3.9469 15.4347 3.85365 15.1722 3.85365C14.9097 3.85365 14.6849 3.9469 14.498 4.13341C14.311 4.31992 14.2176 4.54413 14.2176 4.80603C14.2176 5.06794 14.311 5.29214 14.498 5.47865C14.6849 5.66516 14.9097 5.75841 15.1722 5.75841ZM18.967 12.4251L18.7522 11.4251C18.6169 11.3775 18.4916 11.3199 18.3763 11.2525C18.2609 11.185 18.1476 11.1076 18.0362 11.0203L17.0815 11.3298L16.4133 10.187L17.177 9.52032C17.1611 9.37746 17.1531 9.2346 17.1531 9.09175C17.1531 8.94889 17.1611 8.80603 17.177 8.66317L16.4133 7.99651L17.0815 6.85365L18.0362 7.16317C18.1476 7.07587 18.2609 6.99849 18.3763 6.93103C18.4916 6.86357 18.6169 6.80603 18.7522 6.75841L18.967 5.75841H20.3035L20.5183 6.75841C20.6535 6.80603 20.7788 6.86357 20.8942 6.93103C21.0095 6.99849 21.1229 7.07587 21.2343 7.16317L22.1889 6.85365L22.8572 7.99651L22.0935 8.66317C22.1094 8.80603 22.1173 8.94889 22.1173 9.09175C22.1173 9.2346 22.1094 9.37746 22.0935 9.52032L22.8572 10.187L22.1889 11.3298L21.2343 11.0203C21.1229 11.1076 21.0095 11.185 20.8942 11.2525C20.7788 11.3199 20.6535 11.3775 20.5183 11.4251L20.3035 12.4251H18.967ZM19.6352 10.5203C20.033 10.5203 20.3711 10.3814 20.6495 10.1037C20.928 9.82587 21.0672 9.48857 21.0672 9.09175C21.0672 8.69492 20.928 8.35762 20.6495 8.07984C20.3711 7.80206 20.033 7.66317 19.6352 7.66317C19.2374 7.66317 18.8993 7.80206 18.6209 8.07984C18.3425 8.35762 18.2032 8.69492 18.2032 9.09175C18.2032 9.48857 18.3425 9.82587 18.6209 10.1037C18.8993 10.3814 19.2374 10.5203 19.6352 10.5203Z" fill="black"/>
<path d="M18.9467 5.42508L18.887 4.94508C18.8547 4.93258 18.8242 4.91758 18.7956 4.90008C18.767 4.88258 18.739 4.86383 18.7117 4.84383L18.2676 5.03133L17.8572 4.31883L18.2415 4.02633C18.239 4.00883 18.2378 3.99195 18.2378 3.9757V3.87445C18.2378 3.8582 18.239 3.84133 18.2415 3.82383L17.8572 3.53133L18.2676 2.81883L18.7117 3.00633C18.739 2.98633 18.7676 2.96758 18.7975 2.95008C18.8273 2.93258 18.8572 2.91758 18.887 2.90508L18.9467 2.42508H19.7676L19.8273 2.90508C19.8597 2.91758 19.8901 2.93258 19.9187 2.95008C19.9474 2.96758 19.9753 2.98633 20.0027 3.00633L20.4467 2.81883L20.8572 3.53133L20.4728 3.82383C20.4753 3.84133 20.4766 3.8582 20.4766 3.87445V3.9757C20.4766 3.99195 20.4741 4.00883 20.4691 4.02633L20.8534 4.31883L20.443 5.03133L20.0027 4.84383C19.9753 4.86383 19.9467 4.88258 19.9169 4.90008C19.887 4.91758 19.8572 4.93258 19.8273 4.94508L19.7676 5.42508H18.9467ZM19.3646 4.45008C19.5089 4.45008 19.6321 4.39883 19.734 4.29633C19.836 4.19383 19.887 4.07008 19.887 3.92508C19.887 3.78008 19.836 3.65633 19.734 3.55383C19.6321 3.45133 19.5089 3.40008 19.3646 3.40008C19.2179 3.40008 19.0941 3.45133 18.9934 3.55383C18.8926 3.65633 18.8423 3.78008 18.8423 3.92508C18.8423 4.07008 18.8926 4.19383 18.9934 4.29633C19.0941 4.39883 19.2179 4.45008 19.3646 4.45008Z" fill="black"/>
<path fill-rule="evenodd" clip-rule="evenodd" d="M0.857178 17.8501V19.4251H5.35718V17.8001C5.35718 17.3667 5.41551 16.9584 5.53218 16.5751C5.64884 16.1917 5.82384 15.8334 6.05718 15.5001C5.87384 15.4667 5.68218 15.4459 5.48218 15.4376C5.28218 15.4292 5.07384 15.4251 4.85718 15.4251C3.67384 15.4251 2.71134 15.6459 1.96968 16.0876C1.22801 16.5292 0.857178 17.1167 0.857178 17.8501ZM6.85718 17.8001V19.4251H18.8572V17.8001C18.8572 16.7167 18.3072 15.8417 17.2072 15.1751C16.1072 14.5084 14.6572 14.1751 12.8572 14.1751C11.0738 14.1751 9.62801 14.5084 8.51968 15.1751C7.41134 15.8417 6.85718 16.7167 6.85718 17.8001ZM20.3572 17.8001V19.4251H24.8572V17.8501C24.8572 17.1167 24.4905 16.5292 23.7572 16.0876C23.0238 15.6459 22.0572 15.4251 20.8572 15.4251C20.6572 15.4251 20.4613 15.4292 20.2697 15.4376C20.078 15.4459 19.8905 15.4667 19.7072 15.5001C19.9238 15.8334 20.0863 16.1917 20.1947 16.5751C20.303 16.9584 20.3572 17.3667 20.3572 17.8001ZM3.44468 13.8376C3.83634 14.2292 4.30718 14.4251 4.85718 14.4251C5.42384 14.4251 5.89884 14.2292 6.28218 13.8376C6.66551 13.4459 6.85718 12.9751 6.85718 12.4251C6.85718 11.8584 6.66551 11.3834 6.28218 11.0001C5.89884 10.6167 5.42384 10.4251 4.85718 10.4251C4.30718 10.4251 3.83634 10.6167 3.44468 11.0001C3.05301 11.3834 2.85718 11.8584 2.85718 12.4251C2.85718 12.9751 3.05301 13.4459 3.44468 13.8376ZM19.4447 13.8376C19.8363 14.2292 20.3072 14.4251 20.8572 14.4251C21.4238 14.4251 21.8988 14.2292 22.2822 13.8376C22.6655 13.4459 22.8572 12.9751 22.8572 12.4251C22.8572 12.0884 22.7895 11.7841 22.6542 11.5121C22.2188 12.6316 21.1307 13.4251 19.8572 13.4251C19.5823 13.4251 19.3161 13.3881 19.0632 13.3189C19.1578 13.505 19.2849 13.6779 19.4447 13.8376ZM10.7322 12.5501C11.3155 13.1334 12.0238 13.4251 12.8572 13.4251C13.7072 13.4251 14.4197 13.1334 14.9947 12.5501C15.5697 11.9667 15.8572 11.2584 15.8572 10.4251C15.8572 9.57508 15.5697 8.86258 14.9947 8.28758C14.4197 7.71258 13.7072 7.42508 12.8572 7.42508C12.0238 7.42508 11.3155 7.71258 10.7322 8.28758C10.1488 8.86258 9.85718 9.57508 9.85718 10.4251C9.85718 11.2584 10.1488 11.9667 10.7322 12.5501Z" fill="black"/>
</g>
</svg>
