<svg width="24" height="25" viewBox="0 0 24 25" fill="none" xmlns="http://www.w3.org/2000/svg">
<mask id="mask0_3525_6712" style="mask-type:alpha" maskUnits="userSpaceOnUse" x="0" y="0" width="24" height="25">
<rect y="0.425079" width="24" height="24" fill="#D9D9D9"/>
</mask>
<g mask="url(#mask0_3525_6712)">
<path d="M14.6318 10.4251L14.4328 8.98508C14.325 8.94758 14.2235 8.90258 14.1281 8.85008C14.0328 8.79758 13.9395 8.74133 13.8483 8.68133L12.3682 9.24383L11 7.10633L12.2811 6.22883C12.2728 6.17633 12.2687 6.1257 12.2687 6.07695V5.7732C12.2687 5.72445 12.2728 5.67383 12.2811 5.62133L11 4.74383L12.3682 2.60633L13.8483 3.16883C13.9395 3.10883 14.0348 3.05258 14.1343 3.00008C14.2338 2.94758 14.3333 2.90258 14.4328 2.86508L14.6318 1.42508H17.3682L17.5672 2.86508C17.675 2.90258 17.7765 2.94758 17.8719 3.00008C17.9672 3.05258 18.0605 3.10883 18.1517 3.16883L19.6318 2.60633L21 4.74383L19.7189 5.62133C19.7272 5.67383 19.7313 5.72445 19.7313 5.7732V6.07695C19.7313 6.1257 19.7231 6.17633 19.7065 6.22883L20.9876 7.10633L19.6194 9.24383L18.1517 8.68133C18.0605 8.74133 17.9652 8.79758 17.8657 8.85008C17.7662 8.90258 17.6667 8.94758 17.5672 8.98508L17.3682 10.4251H14.6318ZM16.0249 7.50008C16.5058 7.50008 16.9163 7.34633 17.2562 7.03883C17.5962 6.73133 17.7662 6.36008 17.7662 5.92508C17.7662 5.49008 17.5962 5.11883 17.2562 4.81133C16.9163 4.50383 16.5058 4.35008 16.0249 4.35008C15.5357 4.35008 15.1231 4.50383 14.7873 4.81133C14.4515 5.11883 14.2836 5.49008 14.2836 5.92508C14.2836 6.36008 14.4515 6.73133 14.7873 7.03883C15.1231 7.34633 15.5357 7.50008 16.0249 7.50008Z" fill="black"/>
<path fill-rule="evenodd" clip-rule="evenodd" d="M16.6974 11.3883C16.4687 11.4126 16.236 11.4251 16.0001 11.4251C12.7595 11.4251 10.1188 9.07 10.004 6.12508H5.5733L4.76505 4.42508H2V6.12508H3.70157L6.7644 12.5851L5.61584 14.6676C5.31807 15.2201 5.33225 15.7761 5.65838 16.3357C5.98451 16.8953 6.46663 17.1751 7.10472 17.1751H17.3141V15.4751H7.10472L8.04058 13.7751H14.3789C14.6909 13.7751 14.978 13.6972 15.2404 13.5413C15.5027 13.3855 15.7118 13.1659 15.8678 12.8826L16.6974 11.3883ZM5.90298 20.9257C6.23621 21.2586 6.63678 21.4251 7.10472 21.4251C7.57265 21.4251 7.97323 21.2586 8.30645 20.9257C8.63968 20.5928 8.80629 20.1926 8.80629 19.7251C8.80629 19.2576 8.63968 18.8574 8.30645 18.5245C7.97323 18.1915 7.57265 18.0251 7.10472 18.0251C6.63678 18.0251 6.23621 18.1915 5.90298 18.5245C5.56976 18.8574 5.40314 19.2576 5.40314 19.7251C5.40314 20.1926 5.56976 20.5928 5.90298 20.9257ZM14.4108 20.9257C14.7441 21.2586 15.1446 21.4251 15.6126 21.4251C16.0805 21.4251 16.4811 21.2586 16.8143 20.9257C17.1475 20.5928 17.3141 20.1926 17.3141 19.7251C17.3141 19.2576 17.1475 18.8574 16.8143 18.5245C16.4811 18.1915 16.0805 18.0251 15.6126 18.0251C15.1446 18.0251 14.7441 18.1915 14.4108 18.5245C14.0776 18.8574 13.911 19.2576 13.911 19.7251C13.911 20.1926 14.0776 20.5928 14.4108 20.9257Z" fill="black"/>
</g>
</svg>
