<svg width="24" height="24" viewBox="0 0 24 24" fill="none" xmlns="http://www.w3.org/2000/svg">
<path d="M21.6649 10.0176C21.5449 9.60239 21.2713 9.29279 20.9521 9.08639C19.8721 8.39279 17.9377 7.73039 16.0489 7.45199C15.2593 5.69279 14.0737 3.98879 13.0969 3.13199C12.8113 2.87999 12.4369 2.70239 12.0049 2.70239C11.5345 2.70239 11.1073 2.93039 10.7857 3.23519C9.75852 4.20719 8.68812 5.86319 7.96572 7.45199C6.07452 7.73039 4.13532 8.39519 3.05292 9.08879C2.73132 9.29519 2.45772 9.60479 2.34012 10.02C2.21052 10.4736 2.31132 10.9464 2.51532 11.34C3.08172 12.4344 4.14012 13.704 5.28252 14.7624C4.90092 16.512 4.85292 18.2856 4.99452 19.8696C5.08332 20.8752 5.87292 21.444 6.74172 21.2688C8.43132 20.928 10.5433 20.0568 12.0049 19.0728C13.4665 20.0592 15.5785 20.9304 17.2681 21.2688C18.1369 21.444 18.9265 20.8728 19.0153 19.8696C19.1569 18.2856 19.1065 16.5096 18.7273 14.7624C19.8697 13.704 20.9281 12.4344 21.4945 11.34C21.6985 10.9464 21.7993 10.4736 21.6697 10.02L21.6649 10.0176Z" fill="#FEC524"/>
<path d="M12.0265 14.5944C12.7249 14.5944 13.2985 14.0688 13.3753 13.392C13.3849 13.3104 13.3249 13.236 13.2409 13.236C12.7705 13.236 11.2801 13.236 10.8097 13.236C10.7257 13.236 10.6657 13.3104 10.6753 13.392C10.7521 14.0688 11.3281 14.5944 12.0241 14.5944H12.0265Z" fill="#FEFEFE"/>
<path d="M15.1009 12.3384C14.9689 12.3384 14.8609 12.2304 14.8609 12.0984C14.8609 11.8032 14.6209 11.5632 14.3257 11.5632C14.0305 11.5632 13.7905 11.8032 13.7905 12.0984C13.7905 12.2304 13.6825 12.3384 13.5505 12.3384C13.4185 12.3384 13.3105 12.2304 13.3105 12.0984C13.3105 11.5392 13.7665 11.0832 14.3257 11.0832C14.8849 11.0832 15.3409 11.5392 15.3409 12.0984C15.3409 12.2304 15.2329 12.3384 15.1009 12.3384Z" fill="#4A254B"/>
<path d="M10.4496 12.3384C10.3176 12.3384 10.2096 12.2304 10.2096 12.0984C10.2096 11.8032 9.96958 11.5632 9.67438 11.5632C9.37918 11.5632 9.13918 11.8032 9.13918 12.0984C9.13918 12.2304 9.03118 12.3384 8.89918 12.3384C8.76718 12.3384 8.65918 12.2304 8.65918 12.0984C8.65918 11.5392 9.11518 11.0832 9.67438 11.0832C10.2336 11.0832 10.6896 11.5392 10.6896 12.0984C10.6896 12.2304 10.5816 12.3384 10.4496 12.3384Z" fill="#4A254B"/>
<path d="M10.8166 19.8936C10.7734 19.8936 10.7326 19.8696 10.711 19.8288C10.6798 19.7712 10.7038 19.6968 10.7614 19.6656C11.503 19.2768 12.1462 18.8568 12.6238 18.4536C12.6742 18.4104 12.751 18.4176 12.7918 18.468C12.835 18.5184 12.8278 18.5952 12.7774 18.636C12.2878 19.0512 11.6278 19.4784 10.8718 19.8768C10.855 19.8864 10.8358 19.8912 10.8166 19.8912V19.8936Z" fill="#1C4749"/>
<path d="M11.2692 11.1605C11.2692 11.5589 11.2692 13.3334 9.07658 13.3334C7.61485 13.3334 6.51855 11.8848 6.51855 11.1605C6.51855 10.4362 6.88399 10.0741 7.61485 10.0741H10.1729C10.5749 10.0741 11.2692 10.4362 11.2692 11.1605ZM12.7309 11.1605C12.7309 11.5589 12.7309 13.3334 14.9235 13.3334C16.3852 13.3334 17.4815 11.8848 17.4815 11.1605C17.4815 10.4362 17.1161 10.0741 16.3852 10.0741H13.8272C13.4252 10.0741 12.7309 10.4362 12.7309 11.1605Z" fill="#1C4749"/>
<rect x="10.9629" y="10.9629" width="2.37037" height="0.592593" fill="#1C4749"/>
</svg>
