<svg width="25" height="25" viewBox="0 0 25 25" fill="none" xmlns="http://www.w3.org/2000/svg">
<mask id="mask0_3525_6725" style="mask-type:alpha" maskUnits="userSpaceOnUse" x="0" y="0" width="25" height="25">
<rect x="0.857178" y="0.425079" width="24" height="24" fill="#D9D9D9"/>
</mask>
<g mask="url(#mask0_3525_6725)">
<path d="M22.8572 17.4251C22.3049 17.4251 21.8572 16.9774 21.8572 16.4251V12.2081C21.8572 11.4494 21.0454 10.9671 20.379 11.3299L13.3358 15.1645C13.0374 15.3269 12.677 15.3268 12.3788 15.1641L3.46665 10.303C2.77179 9.92396 2.77179 8.9262 3.46665 8.54718L12.3783 3.68627C12.6768 3.52347 13.0376 3.52347 13.336 3.68627L23.336 9.14082C23.6573 9.31605 23.8572 9.65277 23.8572 10.0187V16.4251C23.8572 16.9774 23.4095 17.4251 22.8572 17.4251ZM13.3343 21.1661C13.0367 21.3276 12.6776 21.3276 12.3801 21.1661L6.38009 17.9089C6.05784 17.734 5.85718 17.3968 5.85718 17.0301V14.3058C5.85718 13.5476 6.66794 13.0652 7.33427 13.4269L12.3801 16.1661C12.6776 16.3276 13.0367 16.3276 13.3343 16.1661L18.3801 13.4269C19.0464 13.0652 19.8572 13.5476 19.8572 14.3058V17.0301C19.8572 17.3968 19.6565 17.734 19.3343 17.9089L13.3343 21.1661Z" fill="black"/>
</g>
</svg>
