<svg width="25" height="24" viewBox="0 0 25 24" fill="none" xmlns="http://www.w3.org/2000/svg">
<mask id="mask0_3973_6089" style="mask-type:alpha" maskUnits="userSpaceOnUse" x="0" y="0" width="25" height="24">
<rect x="0.425049" width="24" height="24" fill="#D9D9D9"/>
</mask>
<g mask="url(#mask0_3973_6089)">
<path d="M11.3854 4.59434C11.8474 3.80189 13.0027 3.80189 13.4647 4.59434L21.2624 17.967C21.7245 18.7594 21.1469 19.75 20.2227 19.75H4.62737C3.7032 19.75 3.1256 18.7594 3.58768 17.967L11.3854 4.59434Z" fill="black"/>
<path d="M12.0222 15.1754L11.7397 10.3H13.1577L12.8751 15.1754H12.0222ZM12.4251 17.5C12.167 17.5 11.9525 17.4261 11.7815 17.2784C11.6106 17.1275 11.5251 16.9373 11.5251 16.7078C11.5251 16.4784 11.6089 16.2898 11.7763 16.142C11.9472 15.9943 12.1635 15.9204 12.4251 15.9204C12.6868 15.9204 12.9013 15.9943 13.0688 16.142C13.2397 16.2898 13.3251 16.4784 13.3251 16.7078C13.3251 16.9373 13.2397 17.1275 13.0688 17.2784C12.9013 17.4261 12.6868 17.5 12.4251 17.5Z" fill="white"/>
</g>
</svg>
