<svg xmlns="http://www.w3.org/2000/svg" viewBox="0 0 24 24" width="24" height="24">
  <g transform="translate(2.400, 2.400) scale(0.800000)">
    <path d="M21.600,16.609c7.252,7.229,6.484,5.512,5.242,4.271s4.295,7.114,2.400,7.114,3.641,9.892,2.400,11.134,5.242,12.081,5.242,13.976,8.021,12.735,9.262,13.976,10.210,11.134,12.104,11.134,10.863,8.355,12.104,7.114,9.262,6.166,9.262,4.271zM20.352,16.609c7.252,10.674,6.625,12.077,5.608,13.094s4.833,10.768,3.282,10.768,4.299,8.496,3.282,7.479,5.608,6.704,5.608,5.154,7.880,6.170,8.896,5.154,9.671,7.479,11.222,7.479,10.205,9.751,11.222,10.768,8.896,11.543,8.896,13.094zM14.114,14.114v9.747c7.252,9.468,7.532,9.747,7.876,9.747s7.876,8.844,7.876,8.500v4.757c7.252,8.779,6.973,8.500,6.628,8.500s6.628,9.403,6.628,9.747zM14.738,19.729c7.596,9.124,7.876,8.844,7.876,8.500s6.973,8.500,6.628,8.500,6.628,9.403,6.628,9.747,7.532,9.747,7.876,9.747z" fill="currentColor" />
  </g>
</svg>