<svg xmlns="http://www.w3.org/2000/svg" viewBox="0 0 24 24" width="24" height="24">
  <g transform="translate(2.400, 2.400) scale(0.800000)">
    <path d="M17.834,12.847c11.748,10.375,11.810,10.310,11.891,10.261,11.838,10.365,11.986,10.345,12.123,10.379s11.968,10.562,12.045,10.689l16.360,18.210c11.746,10.509,11.773,10.590,11.778,10.682,11.700,10.645,11.643,10.768,11.552,10.860,11.609,10.544,11.473,10.607,11.327,10.609l2.400,10.443c11.624,10.443,11.531,10.421,11.444,10.369,11.577,10.367,11.489,10.246,11.452,10.110s11.687,10.158,11.758,10.034zM16.891,12.282l7.053,18.214c11.476,10.845,11.430,11.295,11.539,11.702s12.082,11.217,12.476,11.444c11.963,10.590,12.244,10.663,12.519,10.664h21.019c12.169,10.438,12.580,10.249,12.875,9.947s12.183,9.727,12.178,9.272c11.705,10.149,11.624,9.869,11.485,9.633l7.051,2.668c11.470,10.051,11.098,9.794,10.689,9.694s10.850,10.399,10.461,10.635c11.472,10.586,11.282,10.781,11.152,11.000zM17.753,15.389v13.906c11.708,10.746,11.954,10.993,12.257,10.993s12.257,10.197,12.257,9.894v9.510c11.708,10.140,11.462,9.894,11.158,9.894s11.158,10.689,11.158,10.993zM18.303,20.335c12.011,10.443,12.257,10.197,12.257,9.894s11.462,9.894,11.158,9.894,11.158,10.689,11.158,10.993,11.954,10.993,12.257,10.993z" fill="currentColor" />
  </g>
</svg>