<svg xmlns="http://www.w3.org/2000/svg" viewBox="0 0 24 24" width="24" height="24">
  <g transform="translate(2.400, 2.400) scale(0.800000)">
    <path d="M21.600,18.262H12.817V12.409c10.264,8.095,10.218,8.049,10.162,8.049h9.549c10.208,8.151,10.162,8.197,10.162,8.253v19.047c10.264,8.207,10.310,8.253,10.366,8.253h19.864c10.320,8.151,10.366,8.105,10.366,8.049v9.549c10.264,8.095,10.218,8.049,10.162,8.049zm2.400,7.334h17.106c10.320,8.151,10.366,8.105,10.366,8.049V13.889c10.264,8.059,10.153,8.014,10.089,8.078L17.821,14.389l8.663,6.568a10.366,8.254,10.264,8.151,10.264,8.007,10.264l7.851,10.571a10.364,8.252,10.264,8.151,10.264,8.122,10.335V19.455c10.264,8.207,10.310,8.253,10.366,8.253z" fill="currentColor" />
  </g>
</svg>