<svg xmlns="http://www.w3.org/2000/svg" viewBox="0 0 24 24" width="24" height="24">
  <g transform="translate(2.400, 2.400) scale(0.800000)">
    <path d="M21.600,20.149l2.400,8.558c7.131,13.289,6.481,13.289,6.080,13.690l2.400,18.822c7.131,14.091,7.131,14.740,7.532,15.141,7.933,14.091,8.582,14.091,8.983,13.690l10.911,10.310v17.370c7.532,14.257,7.991,14.716,8.558,14.716s8.558,13.230,8.558,12.663v-2.307l10.911,17.069c7.732,13.890,7.995,13.990,8.257,13.990s8.057,13.590,8.257,13.389c7.933,13.289,7.933,12.639,7.532,12.238z" fill="currentColor" />
  </g>
</svg>