<svg xmlns="http://www.w3.org/2000/svg" viewBox="0 0 24 24" width="24" height="24">
  <g transform="translate(2.400, 2.400) scale(0.800000)">
    <path d="M21.600,18.061l6.180,14.181c9.980,10.382,9.458,10.382,9.136,10.060l6.180,5.939c9.980,9.738,9.980,9.216,10.301,8.894,10.623,9.738,11.145,9.738,11.467,10.060l13.016,12.774v2.400c10.301,9.605,10.670,9.236,11.126,9.236s11.126,10.429,11.126,10.884v18.203l13.016,7.346c10.462,9.899,10.673,9.819,10.884,9.819s10.723,10.140,10.884,10.301c10.623,10.382,10.623,10.904,10.301,11.226z" fill="currentColor" />
  </g>
</svg>