<svg xmlns="http://www.w3.org/2000/svg" viewBox="0 0 24 24" width="24" height="24">
  <g transform="translate(2.400, 2.400) scale(0.800000)">
    <path d="M21.600,18.207v14.950l2.400,6.120c8.645,12.366,8.145,12.366,7.837,12.675s8.645,13.484,8.954,13.792l15.509,19.229h2.959c8.518,12.675,8.164,13.029,8.164,13.465s9.308,13.465,9.745,13.465h16.858c9.062,12.675,9.164,12.653,9.257,12.614s9.135,12.579,9.210,12.503c9.027,12.602,9.086,12.515,9.126,12.418,8.993,12.581,9.014,12.479,9.014,12.372v1.051c8.954,12.238,8.600,11.884,8.164,11.884s8.164,13.029,8.164,13.465z" fill="currentColor" />
  </g>
</svg>