<svg xmlns="http://www.w3.org/2000/svg" viewBox="0 0 24 24" width="24" height="24">
  <g transform="translate(2.400, 2.400) scale(0.800000)">
    <path d="M20.243,21.292h20.858l4.192,21.600c12.485,13.306,12.485,13.971,12.896,14.380s13.971,13.306,14.380,12.896l21.600,4.192v20.858c12.896,13.475,13.366,13.945,13.945,13.945s13.945,12.426,13.945,11.846v2.400c12.896,12.753,12.867,12.618,12.816,12.494s12.769,12.657,12.669,12.557c12.895,12.895,12.895,12.895,12.894,12.894,12.799,12.799,12.684,12.722,12.557,12.669,12.772,12.844,12.637,12.816,12.494,12.816h2.400c12.316,12.896,11.846,13.366,11.846,13.945s13.366,13.945,13.945,13.945z" fill="currentColor" />
  </g>
</svg>