<svg xmlns="http://www.w3.org/2000/svg" viewBox="0 0 24 24" width="24" height="24">
  <g transform="translate(2.400, 2.400) scale(0.800000)">
    <path d="M21.600,21.309l16.916,2.691c12.328,7.279,12.328,6.649,11.940,6.260l6.964,2.691c11.551,7.279,10.921,7.279,10.532,7.667,11.551,8.056,11.551,8.686,11.940,9.075l15.217,10.944h2.400c11.390,7.667,10.944,8.113,10.944,8.663s12.385,8.663,12.935,8.663h21.479l8.663,10.944c11.745,7.862,11.648,8.116,11.648,8.371s12.037,8.177,12.231,8.371c12.328,8.056,12.958,8.056,13.347,7.667z" fill="currentColor" />
  </g>
</svg>