<svg xmlns="http://www.w3.org/2000/svg" viewBox="0 0 24 24" width="24" height="24">
  <g transform="translate(2.400, 2.400) scale(0.800000)">
    <path d="M15.297,21.600l5.989,6.180c9.788,9.980,9.788,9.458,10.110,9.136l14.231,6.180c10.432,9.980,10.954,9.980,11.276,10.301,10.432,10.623,10.432,11.145,10.110,11.467l7.396,13.016h18.011c10.565,10.301,10.934,10.670,10.934,11.126s9.741,11.126,9.286,11.126h2.209l12.824,13.016c10.271,10.462,10.351,10.673,10.351,10.884s10.030,10.723,9.869,10.884c9.788,10.623,9.266,10.623,8.944,10.301z" fill="currentColor" />
  </g>
</svg>