<svg xmlns="http://www.w3.org/2000/svg" viewBox="0 0 24 24" width="24" height="24">
  <g transform="translate(2.400, 2.400) scale(0.800000)">
    <path d="M20.234,12.175l8.714,13.571h14.997zM13.252,12.175l8.714,13.571h14.997zM17.730,11.127c10.705,10.025,10.465,10.265,10.170,10.369v17.850h14.125c10.906,9.731,10.983,9.807,10.983,9.905v11.157c10.808,9.829,10.732,9.905,10.634,9.905h3.477c10.710,9.731,10.634,9.655,10.634,9.556v10.459c10.808,9.633,10.885,9.556,10.983,9.556h14.125v3.766c10.514,9.627,10.274,9.387,10.170,9.093h8.130c10.710,9.731,10.634,9.655,10.634,9.556v10.459c10.808,9.633,10.885,9.556,10.983,9.556h13.486c10.955,9.322,11.337,9.033,11.795,9.033s11.648,10.020,11.795,10.429h13.486c10.906,9.731,10.983,9.807,10.983,9.905v11.157c10.808,9.829,10.732,9.905,10.634,9.905h8.130zM16.743,11.215c11.048,9.731,11.245,9.535,11.245,9.295s10.612,9.295,10.372,9.295,10.372,9.927,10.372,10.167,11.005,10.167,11.245,10.167zM22.677,16.015c10.808,10.855,9.254,11.302,8.365,11.302s8.365,9.284,8.365,8.160v10.808c10.808,9.518,12.712,6.147,12.946,5.722,10.868,9.622,10.988,9.551,11.114,9.551s11.054,9.802,11.114,9.911c11.043,10.156,12.946,13.527,12.946,13.740v10.808zM15.695,16.015c10.808,10.855,9.254,11.302,8.365,11.302s8.365,9.284,8.365,8.160v10.808c10.808,9.518,12.712,6.147,12.946,5.722,10.868,9.622,10.988,9.551,11.114,9.551s11.054,9.802,11.114,9.911c11.043,10.156,12.946,13.527,12.946,13.740z" fill="currentColor" />
  </g>
</svg>