<svg xmlns="http://www.w3.org/2000/svg" viewBox="0 0 24 24" width="24" height="24">
  <g transform="translate(2.400, 2.400) scale(0.800000)">
    <path d="M11.818,21.600h6.618c8.798,11.200,8.618,11.020,8.618,10.800v0.218c9.018,10.980,9.198,10.800,9.418,10.800h11.418c9.238,11.200,9.418,11.380,9.418,11.600v17.818c9.018,11.420,8.838,11.600,8.618,11.600zM11.418,19.200h7.418v9.818h10.618v8.218zM15.818,21.600h6.618c8.798,11.200,8.618,11.020,8.618,10.800v0.218c9.018,10.980,9.198,10.800,9.418,10.800h11.418c9.238,11.200,9.418,11.380,9.418,11.600v17.818c9.018,11.420,8.838,11.600,8.618,11.600zM15.418,19.200h7.418v9.818h10.618v8.218zM18.582,20.981l6.875,10.120c8.822,11.101,8.742,10.859,8.841,10.663l12.618,4.056c9.117,11.004,9.359,10.924,9.555,11.023l11.161,12.280c9.215,11.299,9.294,11.541,9.195,11.737l5.418,18.344c8.919,11.396,8.677,11.476,8.481,11.377z" fill="currentColor" />
  </g>
</svg>