<svg xmlns="http://www.w3.org/2000/svg" viewBox="0 0 24 24" width="24" height="24">
  <g transform="translate(2.400, 2.400) scale(0.800000)">
    <path d="M8.544,15.456H16.992V13.920H8.544V15.456ZM8.544,13.152H19.296V11.616H8.544V13.152ZM8.544,10.848H19.296V9.312H8.544V10.848ZM13.271,2.400,21.600V7.776C13.271,2.400,7.354,6.390,6.992,6.691,6.691C6.992,6.390,7.354,3.896,2.400,7.776,3.896,2.400H20.064C20.486,3.896,2.400,20.848,6.390,21.149,6.691C21.450,6.992,21.600,7.354,21.600,7.776V16.992C21.600,17.414,21.450,17.776,21.149,18.077C20.848,18.377,20.486,18.528,20.064,18.528H11.221C9.999,18.528,8.827,19.013,7.962,19.878L13.271,2.400,21.600Z" fill="currentColor" />
  </g>
</svg>