<svg xmlns="http://www.w3.org/2000/svg" viewBox="0 0 24 24" width="24" height="24">
  <g transform="translate(2.400, 2.400) scale(0.800000)">
    <path d="M20.130,21.600l20.130,18.660,3.870,18.660c11.399,11.131,11.399,12.103,12.000,12.702s13.573,11.131,14.172,10.530l20.130,2.400,20.130,18.660c12.601,11.131,13.573,11.131,14.172,10.530s12.601,8.957,12.000,8.358l3.870,2.400,20.130,2.400c12.601,9.929,12.601,8.957,12.000,8.358s10.427,9.929,9.828,10.530l3.870,18.660,3.870,2.400c11.399,9.929,10.427,9.929,9.828,10.530s11.399,12.103,12.000,12.702z" fill="currentColor" />
  </g>
</svg>