<svg xmlns="http://www.w3.org/2000/svg" viewBox="0 0 24 24" width="24" height="24">
  <g transform="translate(2.400, 2.400) scale(0.800000)">
    <path d="M21.600,15.693l4.421,8.867c5.915,8.955,5.822,8.734,5.719,8.520l6.886,7.845c6.266,8.775,6.212,8.232,5.866,7.887l5.006,8.194c5.796,8.983,5.533,8.881,5.267,8.881,5.798,9.182,5.599,9.239,5.426,9.355l4.657,10.073c5.780,9.078,5.559,8.986,5.332,8.907l5.679,7.608c5.899,8.702,5.477,8.357,4.987,8.357h4.598c5.505,9.182,5.084,9.528,4.987,10.008l5.679,10.756c5.767,9.261,5.546,9.354,5.333,9.457l4.658,8.291c5.820,9.066,5.622,9.010,5.425,9.010,5.729,9.182,5.467,9.284,5.268,9.483l5.007,10.170c5.648,9.528,5.594,10.071,5.866,10.478l6.885,10.519c5.891,9.396,5.798,9.617,5.719,9.845l4.420,9.497c5.514,9.278,5.169,9.700,5.169,10.189v7.391c5.994,9.672,6.340,10.094,6.820,10.189l7.568,9.498c6.074,9.410,6.166,9.630,6.270,9.844l5.104,10.519c5.723,9.589,5.777,10.132,6.123,10.478l6.982,10.170c6.193,9.381,6.456,9.483,6.721,9.483,6.192,9.182,6.390,9.125,6.563,9.010l7.332,8.291c6.209,9.286,6.429,9.379,6.657,9.458l6.309,10.756c6.090,9.663,6.512,10.008,7.001,10.008h7.391c6.484,9.182,6.906,8.836,7.001,8.356l6.310,7.609c6.222,9.103,6.443,9.010,6.656,8.906l7.332,10.074c6.168,9.298,6.367,9.355,6.563,9.355,6.260,9.182,6.523,9.080,6.722,8.881l6.982,8.194c6.341,8.836,6.394,8.294,6.123,7.887l5.103,7.845c6.099,8.968,6.191,8.747,6.270,8.519l7.568,8.867c6.475,9.087,6.821,8.665,6.821,8.175v4.598c5.994,8.693,5.648,8.271,5.168,8.175zM19.825,18.412c5.638,9.254,5.345,9.508,5.226,9.852,5.928,9.372,5.851,9.556,5.765,9.734,5.835,9.510,5.862,9.898,6.064,10.200l6.886,10.519,5.006,10.170,4.657,8.291c5.823,9.068,5.624,9.010,5.425,9.010,5.842,9.182,5.688,9.216,5.547,9.284,5.816,9.268,5.632,9.347,5.442,9.413,5.651,9.301,5.397,9.594,5.325,9.950l5.679,10.757h4.598l5.680,7.608c5.923,8.825,5.668,8.533,5.325,8.414,5.805,9.116,5.621,9.039,5.442,8.953,5.853,9.113,5.700,9.079,5.547,9.079,5.795,9.182,5.596,9.240,5.425,9.355l4.657,10.074,5.006,8.194,6.885,7.845c6.196,8.879,6.222,8.492,6.065,8.165,5.908,9.004,5.831,8.820,5.764,8.630,5.875,8.839,5.583,8.585,5.226,8.513l4.421,8.866,5.993,7.785,7.569,8.867c6.351,9.111,6.644,8.856,6.763,8.513,6.061,8.993,6.137,8.808,6.224,8.630,6.154,8.855,6.127,8.467,5.925,8.165l5.104,7.845,6.982,8.194,7.332,10.073c6.166,9.297,6.365,9.355,6.564,9.355,6.147,9.182,6.300,9.148,6.442,9.080,6.173,9.096,6.356,9.018,6.546,8.952,6.338,9.063,6.593,8.770,6.664,8.414l6.310,7.608,7.391,9.182,6.309,10.757c6.066,9.539,6.321,9.831,6.665,9.950,6.184,9.248,6.368,9.325,6.546,9.412,6.137,9.251,6.289,9.285,6.443,9.285,6.194,9.182,6.392,9.124,6.564,9.010l7.332,8.291,6.982,10.170,5.103,10.519c5.793,9.485,5.767,9.872,5.924,10.199,6.081,9.360,6.159,9.544,6.225,9.734,6.114,9.526,6.406,9.780,6.763,9.852l7.568,9.497,5.996,10.579,4.420,9.497zM14.210,13.804c4.010,9.182,2.400,10.792,2.400,12.777,5.994,11.167,7.604,12.777,9.589,12.777s9.589,7.572,9.589,5.588c5.994,7.198,4.385,5.588,2.400,5.588zM14.210,20.544c4.258,9.182,2.849,7.773,2.849,6.037,5.994,7.446,7.403,6.037,9.140,6.037,7.731,9.182,9.140,10.591,9.140,12.327,5.994,10.918,4.585,12.327,2.849,12.327zM14.210,15.345c4.860,9.182,3.940,10.101,3.940,11.236,5.994,10.317,6.914,11.236,8.048,11.236,7.129,9.182,8.048,8.263,8.048,7.128s5.075,7.128,3.940,7.128zM14.210,18.940c5.144,9.182,4.454,8.492,4.454,7.642s6.685,7.642,7.535,7.642,7.535,9.872,7.535,10.723c5.994,10.033,5.304,10.723,4.454,10.723z" fill="currentColor" />
  </g>
</svg>