<svg xmlns="http://www.w3.org/2000/svg" viewBox="0 0 24 24" width="24" height="24">
  <g transform="translate(2.400, 2.400) scale(0.800000)">
    <path d="M8.994,13.811c8.994,11.811,9.123,11.657,9.281,11.657h10.143c9.153,12.000,9.281,12.154,9.281,12.343v17.340c8.994,12.189,8.866,12.343,8.707,12.343h7.846c8.836,12.000,8.707,11.847,8.707,11.657v0.648zM11.390,13.811c8.994,11.811,9.123,11.657,9.281,11.657h10.143c9.153,12.000,9.281,12.154,9.281,12.343v10.462c8.994,12.189,8.866,12.343,8.707,12.343h7.846c8.836,12.000,8.707,11.846,8.707,11.657v7.526zM13.758,12.557c8.994,11.811,9.123,11.657,9.282,11.657h10.143c9.153,12.000,9.281,12.153,9.281,12.343v11.716c8.994,12.189,8.866,12.343,8.707,12.343h7.846c8.835,12.000,8.707,11.847,8.707,11.657v6.273zM16.154,12.557c8.994,11.811,9.123,11.657,9.281,11.657h10.143c9.153,12.000,9.281,12.153,9.281,12.343v18.594c8.994,12.189,8.866,12.343,8.707,12.343h7.846c8.835,12.000,8.707,11.847,8.707,11.657v-0.606z" fill="currentColor" />
  </g>
</svg>