<svg xmlns="http://www.w3.org/2000/svg" viewBox="0 0 24 24" width="24" height="24">
  <g transform="translate(2.400, 2.400) scale(0.800000)">
    <path d="M14.479,21.600c11.102,9.576,10.693,9.412,10.325,9.167,11.046,9.360,10.727,9.081,10.124,8.474l10.800,8.986,11.641,9.382,11.738,9.942c12.457,10.693,13.051,11.150,13.642,11.320,11.599,9.659,11.657,9.665,11.867,9.658,11.729,9.595,11.853,9.541,12.090,9.312,11.716,9.317,11.994,8.924,12.562,7.988,12.137,8.418,12.468,7.983,12.855,7.715,11.590,9.486,11.739,9.438,11.901,9.449,11.587,9.619,11.732,9.693,11.911,9.859,11.690,9.862,11.899,10.181,12.379,11.075,12.072,10.829,12.239,11.102,12.468,11.332,11.709,9.899,11.853,9.832,12.143,9.268,11.958,8.551,12.497,6.370,13.198,2.400,11.615,8.479,11.926,6.646,11.926,6.599,11.416,9.585,11.373,9.546,11.314,9.514,10.984,9.377,10.958,8.761,11.369,8.478,11.764,9.367,12.217,9.474,12.439,9.849,11.493,9.737,11.511,9.963,11.457,10.125,11.346,9.816,11.127,10.013,10.913,10.057l11.331,9.624,11.344,10.023c11.376,9.835,11.261,10.505,11.161,11.094,10.650,14.095,10.090,16.519,9.521,17.800,11.125,10.261,10.884,10.531,10.585,10.534,11.242,9.608,11.104,9.536,10.903,9.339,11.166,9.360,10.949,9.017,10.448,8.073,10.791,8.430,10.522,8.023,10.255,7.854,11.243,9.497,11.074,9.530,10.834,9.720,11.146,9.820,10.842,10.245,10.158,11.358,10.937,10.386,10.715,10.716,10.477,11.004,10.983,10.130,10.620,10.301,10.060,10.247z" fill="currentColor" />
  </g>
</svg>