<svg xmlns="http://www.w3.org/2000/svg" viewBox="0 0 24 24" width="24" height="24">
  <g transform="translate(2.400, 2.400) scale(0.800000)">
    <path d="M21.600,15.743c6.390,7.430,4.601,5.672,2.400,5.672,5.157,9.619,4.009,10.223,3.268,11.163,6.030,9.082,5.379,8.736,4.648,8.736,5.190,9.619,4.173,10.638,4.173,11.894,6.446,9.729,6.454,9.836,6.469,9.942,6.255,9.585,6.058,9.566,5.858,9.566,4.626,9.619,3.151,11.095,3.151,12.916,6.446,11.440,7.921,12.916,9.741,12.916h8.006l10.298,13.608,10.298,5.631,8.342,9.619c8.081,9.616,9.405,8.289,9.405,6.652,6.446,8.223,5.482,7.053,4.184,6.737zM15.154,23.770l3.180,6.354h8.623v3.180h8.623v9.711h8.623l3.180,12.885z" fill="currentColor" />
  </g>
</svg>