<svg xmlns="http://www.w3.org/2000/svg" viewBox="0 0 24 24" width="24" height="24">
  <g transform="translate(2.400, 2.400) scale(0.800000)">
    <path d="M9.576,14.027L10.442,12.122L18.300,4.255L19.781,5.727L11.924,13.585L9.952,14.412C9.730,14.498,9.480,14.248,9.576,14.027ZM20.474,5.024L21.206,4.274C21.571,3.889,21.600,3.360,21.235,2.995L20.984,2.735C20.657,2.408,20.109,2.456,19.753,2.812L19.008,3.548L20.474,5.024ZM17.506,9.690L19.098,8.098V16.710C19.098,20.521,18.027,21.592,16.710,21.592H4.788C3.471,21.592,2.400,20.521,2.400,19.204V4.788C2.400,5.965,3.471,4.894,4.788,4.894H15.974L14.384,6.486H4.788C4.349,6.486,3.992,6.843,3.992,7.282V16.710C3.992,19.643,4.349,20.000,4.788,20.000H16.711C17.150,20.000,17.507,19.643,17.507,19.204L17.506,9.690Z" fill="currentColor" />
  </g>
</svg>