<svg xmlns="http://www.w3.org/2000/svg" viewBox="0 0 24 24" width="24" height="24">
  <g transform="translate(2.400, 2.400) scale(0.800000)">
    <path d="M20.615,13.829l8.522,15.572c11.476,12.079,11.435,12.182,11.435,12.295v14.707l10.629,11.543v8.836c11.543,11.896,11.508,11.791,11.435,11.705l8.522,8.428zM21.600,12.914h2.400c11.291,12.000,11.086,12.205,11.086,12.457,11.543,12.113,11.584,12.216,11.651,12.295l15.092,16.197v14.365c11.543,12.178,11.644,12.332,11.796,12.409l13.371,12.914c11.769,12.113,12.043,12.021,12.156,11.796,11.576,11.933,11.591,11.862,11.591,11.796v7.806l15.092,7.803c11.706,11.807,11.682,11.519,11.489,11.356,11.456,11.927,11.351,11.891,11.248,11.892z" fill="currentColor" />
  </g>
</svg>