<svg xmlns="http://www.w3.org/2000/svg" viewBox="0 0 24 24" width="24" height="24">
  <g transform="translate(2.400, 2.400) scale(0.800000)">
    <path d="M15.883,4.762C14.697,4.654,13.650,5.528,13.542,6.725L13.273,9.843,16.315,9.843,16.315,12.000,13.079,12.000,12.604,17.469C12.399,19.842,10.307,21.600,7.933,21.384,6.520,21.266,5.334,20.478,4.633,19.367L6.251,17.749C6.510,18.547,7.222,19.162,8.117,19.238,9.303,19.346,10.350,18.472,10.458,17.275L10.921,12.000,7.685,12.000,7.685,9.843,11.105,9.843,11.396,6.531C11.601,4.158,13.693,2.400,16.067,2.616,17.480,2.734,18.666,3.522,19.367,4.633L17.749,6.251C17.490,5.453,16.778,4.838,15.883,4.762Z" fill="currentColor" />
  </g>
</svg>