<svg xmlns="http://www.w3.org/2000/svg" viewBox="0 0 24 24" width="24" height="24">
  <g transform="translate(2.400, 2.400) scale(0.800000)">
    <path d="M7.003,18.303c6.257,10.341,6.257,9.457,5.676,9.457s5.095,11.226,5.676,11.226zM17.184,17.902c5.130,9.629,4.598,8.904,3.976,8.254l4.812,11.309c4.916,11.205,3.554,11.184,2.815,10.300,5.151,9.705,5.151,8.793,5.690,8.164l6.899,8.917c5.248,10.120,4.729,10.196,4.266,10.196,5.268,10.341,4.874,10.507,4.584,10.797l4.584,11.433h4.605v9.436c5.980,10.341,6.257,10.300,6.498,10.535l7.729,12.359c6.098,10.749,6.644,11.108,7.245,11.108,5.987,10.341,6.319,10.238,6.540,10.016,6.194,10.521,6.796,10.231,6.955,9.698,6.008,10.369,6.312,10.265,6.554,10.037,5.835,10.196,6.042,9.906,6.022,9.678,5.738,10.403,5.890,10.410,5.973,10.410,6.498,10.341,6.927,9.477,6.422,8.828zM18.283,18.303h6.340v2.137h5.033l4.591,9.097c5.386,10.009,4.950,9.816,4.508,9.816h4.522c5.289,10.341,4.916,10.514,4.667,10.804l4.232,12.021c5.420,10.645,5.420,11.074,5.669,11.378,6.070,10.811,6.796,10.818,7.203,10.362l7.010,8.835c5.994,9.989,6.575,10.321,6.429,10.770,5.939,10.645,6.222,10.943,6.478,11.247,6.022,10.770,6.353,11.219,6.692,11.654,5.890,10.618,6.049,10.949,6.091,11.309zM20.273,18.303c6.257,10.341,6.257,9.457,5.676,9.457s5.095,11.226,5.676,11.226zM21.600,14.322v10.099c5.676,10.583,5.476,10.784,5.234,10.784h2.676c5.427,10.943,4.881,11.343,4.245,11.433,5.379,10.777,4.923,11.108,4.411,11.219,5.296,10.825,4.681,11.115,4.066,11.074,4.536,10.984,3.250,10.424,2.400,9.588l3.692,8.392h3.202c5.434,10.341,5.234,10.141,5.234,9.899v1.032c5.676,10.099,5.876,9.899,6.118,9.899h8.586c6.478,9.540,7.031,8.793,8.233,8.793h6.485c6.125,10.341,6.561,10.479,6.927,10.728,6.042,10.092,6.478,9.954,6.927,9.954h6.830c6.989,10.341,7.535,11.198,8.330,12.111h8.130c5.918,10.341,6.118,10.542,6.118,10.784z" fill="currentColor" />
  </g>
</svg>