<svg xmlns="http://www.w3.org/2000/svg" viewBox="0 0 24 24" width="24" height="24">
  <g transform="translate(2.400, 2.400) scale(0.800000)">
    <path d="M21.600,16.298c7.252,6.917,6.484,5.200,5.242,3.960s4.295,6.802,2.400,6.802,3.641,9.580,2.400,10.822,5.242,11.769,5.242,13.664,8.021,12.423,9.262,13.664,10.210,10.822,12.104,10.822,10.863,8.043,12.104,6.802,9.262,5.854,9.262,3.960zM20.352,16.298c7.252,10.362,6.625,11.765,5.608,12.782s4.833,10.456,3.282,10.456,4.299,8.184,3.282,7.167,5.608,6.392,5.608,4.842,7.880,5.858,8.896,4.842,9.671,7.167,11.222,7.167,10.205,9.439,11.222,10.456,8.896,11.231,8.896,12.782zM13.511,14.633c7.366,8.487,7.601,8.239,7.890,8.100s7.880,8.645,8.205,8.760c7.538,8.912,7.763,9.105,7.907,9.348,7.366,9.003,7.429,9.226,7.431,9.459,7.252,8.908,7.228,9.004,7.179,9.101,7.202,8.911,7.125,9.014,7.023,9.117,6.810,9.254,6.110,9.493,6.110,9.493,6.925,8.921,6.749,9.274,6.858,9.601s7.714,9.315,8.041,9.206c7.252,8.812,8.215,8.496,8.882,7.829,7.426,8.638,7.592,8.429,7.716,8.182,7.377,8.562,7.457,8.276,7.457,7.958,7.250,8.356,7.125,7.915,6.898,7.533,6.963,8.326,6.510,7.937,5.939,7.736,6.602,8.583,5.920,8.640,5.345,8.916s6.205,9.584,5.977,10.234c7.137,9.137,7.308,9.493,7.633,9.607s7.933,8.755,8.047,8.430zM14.738,20.040c7.596,8.812,7.876,8.532,7.876,8.188s6.973,8.188,6.628,8.188,6.628,9.091,6.628,9.435,7.532,9.435,7.876,9.435z" fill="currentColor" />
  </g>
</svg>