<svg xmlns="http://www.w3.org/2000/svg" viewBox="0 0 24 24" width="24" height="24">
  <g transform="translate(2.400, 2.400) scale(0.800000)">
    <path d="M8.160,15.360C6.560,15.360,5.200,14.800,4.080,13.680C2.960,12.560,2.400,11.200,2.400,9.600C2.400,8.000,2.960,6.640,4.080,5.520C5.200,4.400,6.560,3.840,8.160,3.840C9.456,3.840,10.588,4.204,11.556,4.932C12.524,5.660,13.200,6.576,13.584,7.680H21.600C22.660,7.680,23.520,8.540,23.520,9.600C23.520,10.660,22.660,11.520,21.600,11.520V16.800C21.600,14.500,20.740,15.360,19.680,15.360C18.620,15.360,17.760,14.500,17.760,13.440V14.880H13.584C13.200,12.624,12.524,13.540,11.556,14.268C10.588,14.996,9.456,15.360,8.160,15.360ZM8.160,11.520C8.688,11.520,9.140,11.332,9.516,10.956C9.892,10.580,10.080,10.128,10.080,9.600C10.080,9.072,9.892,8.620,9.516,8.244C9.140,7.868,8.688,7.680,8.160,7.680C7.632,7.680,7.180,7.868,6.804,8.244C6.428,8.620,6.240,9.072,6.240,9.600C6.240,10.128,6.428,10.580,6.804,10.956C7.180,11.332,7.632,11.520,8.160,11.520Z" fill="currentColor" />
  </g>
</svg>