<svg xmlns="http://www.w3.org/2000/svg" viewBox="0 0 24 24" width="24" height="24">
  <g transform="translate(2.400, 2.400) scale(0.800000)">
    <path d="M16.013,20.918c7.828,8.679,9.262,9.476,10.776,9.694s9.954,7.214,11.277,6.225c7.077,7.177,7.303,6.982,7.492,6.789l9.826,4.369c7.999,6.155,8.556,4.612,8.530,3.082s6.202,4.303,5.013,3.156c5.670,6.227,4.158,5.668,2.651,5.677,5.351,7.364,3.863,7.925,2.713,9.034l5.113,9.072c6.448,7.744,6.446,8.376,6.835,8.766s7.859,7.749,8.249,7.360l8.543,5.661c7.607,6.616,8.597,6.242,9.592,6.236,7.845,7.350,8.850,7.722,9.629,8.475,7.632,8.122,8.039,9.134,8.057,10.156s6.485,9.404,5.732,10.184l3.842,10.352c6.725,7.471,6.577,7.602,6.412,7.725,5.956,8.016,4.892,8.255,3.880,8.110s4.873,6.679,4.214,5.797c6.509,6.915,5.885,6.824,5.443,7.154s6.307,8.310,6.638,8.752zM21.600,17.728c5.850,6.032,4.416,5.235,2.902,5.017s3.723,7.497,2.400,8.487c6.601,7.534,6.376,7.730,6.186,7.922l3.852,10.342c5.679,8.556,5.122,10.099,5.148,11.629s7.476,10.408,8.665,11.555c8.008,8.485,9.520,9.043,11.027,9.034,8.327,7.348,9.815,6.786,10.965,5.677l8.557,5.637c7.229,6.966,7.229,6.334,6.839,5.945s5.818,6.966,5.429,7.356l5.148,9.049c6.071,8.096,5.081,8.470,4.086,8.476,5.833,7.362,4.828,6.990,4.049,6.237,6.046,6.590,5.639,5.577,5.621,4.555s7.193,5.307,7.946,4.527l9.836,4.359c6.953,7.240,7.101,7.109,7.266,6.987,7.722,6.695,8.786,6.456,9.798,6.602s8.805,8.032,9.464,8.914c7.169,7.796,7.793,7.887,8.235,7.557s7.371,6.401,7.040,5.959z" fill="currentColor" />
  </g>
</svg>