<svg xmlns="http://www.w3.org/2000/svg" viewBox="0 0 24 24" width="24" height="24">
  <g transform="translate(2.400, 2.400) scale(0.800000)">
    <path d="M13.800,17.700h19.200c10.966,10.500,11.115,10.567,11.224,10.676s10.976,10.759,10.976,10.924v15.000c10.800,10.666,10.733,10.815,10.624,10.924s10.541,10.676,10.376,10.676h2.400c10.634,10.500,10.485,10.433,10.376,10.324s10.624,10.241,10.624,10.076v6.600c10.800,10.334,10.867,10.185,10.976,10.076s11.059,10.324,11.224,10.324zM21.600,16.500v9.000c10.800,9.506,10.396,8.605,9.746,7.954s9.248,9.446,8.254,9.446,8.905,10.904,8.254,11.554,9.746,12.052,9.746,13.046v12.600h10.200c10.303,10.500,9.852,10.702,9.527,11.027s10.273,11.276,10.273,11.773v15.000c10.800,10.997,11.002,11.448,11.327,11.773s11.576,11.027,12.073,11.027h19.200c11.297,10.500,11.748,10.298,12.073,9.973s11.327,9.724,11.327,9.227v6.600c10.800,10.003,10.598,9.552,10.273,9.227s10.024,9.973,9.527,9.973zM15.600,16.500v9.000c10.800,9.837,11.068,9.238,11.503,8.803s11.834,9.797,12.497,9.797,12.062,10.768,12.497,11.203,11.503,11.534,11.503,12.197v12.600z" fill="currentColor" />
  </g>
</svg>