<svg xmlns="http://www.w3.org/2000/svg" viewBox="0 0 24 24" width="24" height="24">
  <g transform="translate(2.400, 2.400) scale(0.800000)">
    <path d="M20.556,14.954l2.922,15.909c6.542,12.289,6.542,12.756,6.831,13.044s7.587,12.289,7.875,12.000l10.739,8.091v9.479c6.831,12.408,7.162,12.738,7.569,12.738s7.569,11.669,7.569,11.262v2.400c6.831,11.900,6.811,11.804,6.775,11.717s6.741,11.832,6.671,11.761c6.830,11.999,6.830,11.999,6.829,11.999,6.763,11.932,6.682,11.877,6.592,11.840,6.744,11.964,6.648,11.944,6.548,11.944h2.400c6.423,12.000,6.092,12.331,6.092,12.738s7.162,12.738,7.569,12.738zM10.829,26.769l10.739,8.091c7.120,11.711,7.120,11.244,6.831,10.956s6.075,11.711,5.787,12.000l2.922,15.909v4.183c6.831,11.592,6.500,11.262,6.092,11.262s6.092,12.331,6.092,12.738v11.262c6.831,12.408,7.162,12.738,7.569,12.738h11.262c7.238,12.000,7.569,11.669,7.569,11.262s6.500,11.262,6.092,11.262z" fill="currentColor" />
  </g>
</svg>