<svg xmlns="http://www.w3.org/2000/svg" viewBox="0 0 24 24" width="24" height="24">
  <g transform="translate(2.400, 2.400) scale(0.800000)">
    <path d="M15.604,17.745c3.611,6.993,3.419,6.564,3.109,6.255s2.873,6.964,2.400,6.964,2.709,7.659,2.400,7.968,3.109,8.204,3.109,8.677,3.804,8.368,4.113,8.677,4.350,7.968,4.822,7.968,4.513,7.273,4.822,6.964,4.113,6.728,4.113,6.255zM21.600,17.745c3.611,6.993,3.419,6.564,3.109,6.255s2.873,6.964,2.400,6.964,2.709,7.659,2.400,7.968,3.109,8.204,3.109,8.677,3.804,8.368,4.113,8.677,4.350,7.968,4.822,7.968,4.513,7.273,4.822,6.964,4.113,6.728,4.113,6.255zM9.608,17.745c3.611,6.993,3.419,6.564,3.109,6.255s2.873,6.964,2.400,6.964,2.709,7.659,2.400,7.968,3.109,8.204,3.109,8.677,3.804,8.368,4.113,8.677,4.350,7.968,4.822,7.968,4.513,7.273,4.822,6.964,4.113,6.728,4.113,6.255z" fill="currentColor" />
  </g>
</svg>