<svg xmlns="http://www.w3.org/2000/svg" viewBox="0 0 24 24" width="24" height="24">
  <g transform="translate(2.400, 2.400) scale(0.800000)">
    <path d="M19.249,15.016c6.081,3.211,5.870,2.740,5.530,2.400s5.271,3.179,4.751,3.179,5.091,3.942,4.751,4.281,5.530,4.541,5.530,5.060,6.293,4.720,6.632,5.060,6.892,4.281,7.411,4.281,7.072,3.518,7.411,3.179,6.632,2.919,6.632,2.400zM19.249,8.433c6.081,3.211,5.870,2.740,5.530,2.400s5.271,3.179,4.751,3.179,5.091,3.942,4.751,4.281,5.530,4.541,5.530,5.060,6.293,4.720,6.632,5.060,6.892,4.281,7.411,4.281,7.072,3.518,7.411,3.179,6.632,2.919,6.632,2.400zM19.249,21.600c6.081,3.211,5.870,2.740,5.530,2.400s5.271,3.179,4.751,3.179,5.091,3.942,4.751,4.281,5.530,4.541,5.530,5.060,6.293,4.720,6.632,5.060,6.892,4.281,7.411,4.281,7.072,3.518,7.411,3.179,6.632,2.919,6.632,2.400z" fill="currentColor" />
  </g>
</svg>