<svg xmlns="http://www.w3.org/2000/svg" viewBox="0 0 24 24" width="24" height="24">
  <g transform="translate(2.400, 2.400) scale(0.800000)">
    <path d="M21.600,13.309h5.891v11.127h9.382v8.945h15.491v7.636h9.818v11.564c10.255,7.877,10.059,8.073,9.818,8.073h2.400c10.013,7.636,9.818,7.441,9.818,7.200v8.509c10.255,7.395,10.450,7.200,10.691,7.200h18.109c10.495,7.636,10.691,7.831,10.691,8.073h11.127v13.745h9.818zM20.291,9.818h3.273v10.691h17.236v9.818zM17.673,18.982c10.255,8.118,9.864,8.509,9.382,8.509s9.382,7.245,9.382,6.764v5.891h12.000v14.618zM16.800,18.363c10.013,7.636,9.818,7.832,9.818,8.073,10.255,7.878,10.450,8.073,10.691,8.073,10.495,7.636,10.691,7.441,10.691,7.200,10.255,7.395,10.059,7.200,9.818,7.200z" fill="currentColor" />
  </g>
</svg>