<svg xmlns="http://www.w3.org/2000/svg" viewBox="0 0 24 24" width="24" height="24">
  <g transform="translate(2.400, 2.400) scale(0.800000)">
    <path d="M18.450,15.275c7.971,9.855,8.281,9.914,8.557,10.048,8.465,10.216,8.842,10.877,8.842,11.749v9.143c7.661,10.383,7.594,10.911,7.468,11.414l6.949,12.695c7.426,10.810,6.572,11.481,5.583,11.481h2.065c6.480,9.855,5.516,8.892,5.516,7.711v4.302l5.659,4.595c7.569,9.613,7.518,9.353,7.518,9.093,7.661,8.674,8.624,7.711,9.805,7.711,8.549,9.855,9.353,10.408,9.663,11.238l7.803,10.224v6.714c7.661,8.674,8.624,7.711,9.805,7.711s9.805,10.819,9.805,12.000v9.847c7.795,9.830,7.929,9.814,8.063,9.814,8.431,9.855,9.135,10.299,9.470,10.986zM16.641,15.217c7.292,9.855,6.957,10.073,6.806,10.408l7.041,11.221,7.066,11.154h8.121c8.222,9.855,8.716,10.249,8.834,10.794l8.951,7.024c7.719,9.738,7.744,9.604,7.744,9.470,7.661,9.336,7.242,8.917,6.723,8.917zM18.492,16.348c7.024,9.855,6.823,10.366,6.597,10.869l6.555,12.285c7.602,9.973,7.577,10.107,7.577,10.241,7.661,10.375,8.080,10.794,8.599,10.794,8.029,9.855,8.364,9.638,8.515,9.303l9.001,6.907c7.703,9.772,7.736,9.638,7.736,9.537,7.661,9.294,7.259,8.909,6.706,8.909zM8.733,13.340c7.661,9.990,7.686,10.115,7.728,10.241l9.738,15.301v8.239l8.515,8.926c7.887,9.613,8.214,9.470,8.549,9.470h9.319l8.549,7.904v3.179c7.661,9.261,7.183,8.783,6.588,8.783s6.588,10.333,6.588,10.928v13.022h7.125l5.985,5.449c7.502,9.445,7.099,9.169,6.656,9.169,7.066,9.855,6.588,10.341,6.588,10.928zM17.546,23.795c8.155,9.855,8.582,9.520,8.699,9.043l8.373,7.016c7.770,9.437,7.820,8.993,7.820,8.557v6.898l6.480,12.452c7.468,10.283,7.032,10.559,6.563,10.559,7.074,9.855,6.563,9.428,6.471,8.842,7.435,10.149,7.083,10.333,6.706,10.333h5.918v7.393h9.403c8.172,9.855,8.632,9.437,8.632,8.917,7.661,9.344,7.275,8.917,6.756,8.917h5.181c7.401,9.855,7.150,9.964,6.974,10.157l6.605,10.995v10.241c7.661,10.450,8.138,10.928,8.733,10.928h13.257z" fill="currentColor" />
  </g>
</svg>