<svg xmlns="http://www.w3.org/2000/svg" viewBox="0 0 24 24" width="24" height="24">
  <g transform="translate(2.400, 2.400) scale(0.800000)">
    <path d="M12.170,14.735c11.797,13.438,11.799,14.547,11.802,14.573l11.802,12.156h16.662v11.378h7.338v7.284h11.378l11.797,14.526zM13.916,13.183c21.289,8.738,21.079,8.823,20.869,8.907l2.089,15.559c11.642,12.169,11.578,12.198,11.585,12.204,11.809,12.120,12.957,12.831,12.960,12.828,11.798,12.107,11.807,12.018,11.817,11.911s11.816,11.910,11.817,11.907c11.800,12.098,11.979,12.174,12.102,12.236,12.224,12.326,12.572,12.673,12.775,13.085,11.829,12.174,11.857,12.242,11.858,12.259l11.799,12.140,11.637,12.114c11.709,12.111,11.622,12.115,11.603,12.117l11.763,12.110,12.129,12.713c11.979,12.440,12.130,12.714,12.131,12.715s11.927,11.827,12.083,11.481c11.953,11.762,12.079,11.477,12.077,11.475s11.699,12.108,11.585,12.113,11.586,12.115,11.583,12.113c11.793,12.106,11.788,12.076,11.784,12.041,11.785,11.990,11.669,11.745,11.524,11.533,11.544,11.739,11.191,11.432,10.781,11.226,11.683,12.051,11.510,11.978,11.428,11.954l11.732,12.088,11.800,12.074c11.804,12.038,11.827,11.771,11.827,11.752,11.797,12.097,11.793,12.089,11.790,12.089s11.603,12.182,11.376,12.272z" fill="currentColor" />
  </g>
</svg>