<svg xmlns="http://www.w3.org/2000/svg" viewBox="0 0 24 24" width="24" height="24">
  <g transform="translate(2.400, 2.400) scale(0.800000)">
    <path d="M14.145,21.600c12.767,10.963,14.344,12.624,16.272,13.547s16.210,9.899,18.387,9.132,15.837,6.443,16.760,4.515,13.111,4.577,12.345,2.400,9.656,4.951,7.728,4.027,7.790,7.676,5.613,8.442c10.768,9.222,9.698,9.917,8.867,10.761l9.554,11.085v8.917c12.000,8.326,11.626,7.951,11.164,7.951s11.164,9.162,11.164,9.623v17.012c12.000,8.800,12.000,8.812,12.001,8.824,12.004,8.883,12.024,8.975,12.058,9.060,12.033,8.872,12.082,8.953,12.145,9.025,12.010,8.798,12.020,8.810,12.030,8.820,12.076,8.867,12.168,8.931,12.271,8.975,12.099,8.830,12.208,8.854,12.323,8.856,12.003,8.787,12.006,8.787,12.009,8.787h17.014c12.461,8.787,12.836,8.413,12.836,7.951s11.626,7.952,11.164,7.952h9.095l14.364,6.565c12.651,8.125,13.504,7.568,14.496,7.219,13.742,8.174,15.565,8.323,17.109,9.063s14.805,10.854,15.418,12.595,12.464,12.352,11.724,13.897,9.933,11.592,8.192,12.205,8.435,9.251,6.891,8.511,9.195,6.721,8.582,4.979c11.846,8.352,11.369,8.124,10.934,8.277s11.336,9.418,11.489,9.853z" fill="currentColor" />
  </g>
</svg>