<svg xmlns="http://www.w3.org/2000/svg" viewBox="0 0 24 24" width="24" height="24">
  <g transform="translate(2.400, 2.400) scale(0.800000)">
    <path d="M21.600,19.513c7.278,10.275,6.212,11.395,4.907,12.019s4.951,9.553,3.480,9.033,5.206,7.219,4.583,5.913,7.048,5.957,7.568,4.487,9.383,6.212,10.688,5.589,10.644,8.055,12.115,8.574c8.636,9.100,9.357,9.572,9.907,10.133l9.792,10.681h5.340c7.408,8.804,7.091,9.120,7.091,9.510s8.114,9.510,8.504,9.510h12.032c7.800,8.804,7.804,8.804,7.807,8.804,7.894,8.803,7.986,8.783,8.070,8.746,7.882,8.768,7.959,8.715,8.026,8.645,7.806,8.795,7.814,8.786,7.822,8.777,7.851,8.742,7.892,8.674,7.921,8.601,7.826,8.732,7.843,8.653,7.846,8.572,7.799,8.794,7.799,8.784,7.799,8.774v3.562c7.798,8.414,7.481,8.098,7.091,8.098s7.091,9.120,7.091,9.510v10.400l5.739,6.865c7.096,8.089,6.192,7.500,5.151,7.133,5.959,8.153,4.030,8.311,2.400,9.090s4.834,10.984,4.184,12.823,7.306,12.571,8.084,14.201,9.978,11.767,11.817,12.417,11.565,9.296,13.194,8.517,10.761,6.623,11.411,4.785c7.927,8.436,7.735,8.033,7.367,7.903s7.026,8.867,6.897,9.235z" fill="currentColor" />
  </g>
</svg>