<svg xmlns="http://www.w3.org/2000/svg" viewBox="0 0 24 24" width="24" height="24">
  <g transform="translate(2.400, 2.400) scale(0.800000)">
    <path d="M21.600,19.337c7.278,10.451,6.212,11.572,4.907,12.195s4.951,9.729,3.480,9.210,5.206,7.395,4.583,6.089,7.048,6.134,7.568,4.663,9.383,6.389,10.688,5.765,10.644,8.231,12.115,8.751c8.636,9.277,9.357,9.749,9.907,10.309l9.792,10.858h5.340c7.408,8.980,7.091,9.297,7.091,9.686s8.114,9.686,8.504,9.686h12.032c7.800,8.980,7.804,8.980,7.807,8.980,7.894,8.980,7.986,8.959,8.070,8.922,7.882,8.944,7.959,8.891,8.026,8.821,7.806,8.972,7.814,8.963,7.822,8.953,7.851,8.919,7.892,8.850,7.921,8.778,7.826,8.908,7.843,8.830,7.846,8.749,7.799,8.970,7.799,8.961,7.799,8.951v3.562c7.798,8.591,7.481,8.274,7.091,8.274s7.091,9.297,7.091,9.686v10.400l5.739,7.042c7.096,8.266,6.192,7.677,5.151,7.310,5.959,8.330,4.030,8.487,2.400,9.266s4.834,11.161,4.184,13.000,7.306,12.747,8.084,14.377,9.978,11.944,11.817,12.593,11.565,9.472,13.194,8.694,10.761,6.800,11.411,4.961c7.927,8.612,7.735,8.209,7.367,8.079s7.026,9.043,6.897,9.411z" fill="currentColor" />
  </g>
</svg>