<svg xmlns="http://www.w3.org/2000/svg" viewBox="0 0 24 24" width="24" height="24">
  <g transform="translate(2.400, 2.400) scale(0.800000)">
    <path d="M14.100,21.600c12.751,10.781,14.294,12.406,16.181,13.310s16.121,9.739,18.251,8.989,15.755,6.357,16.659,4.470,13.088,4.531,12.338,2.400,9.706,4.896,7.819,3.992,7.879,7.563,5.749,8.313c10.794,9.076,9.747,9.757,8.934,10.583l9.606,10.900v8.983c12.000,8.200,11.634,7.833,11.182,7.833s11.182,9.018,11.182,9.469v16.906c12.000,8.663,12.000,8.676,12.001,8.687,12.004,8.745,12.024,8.835,12.056,8.918,12.033,8.735,12.080,8.813,12.141,8.884,12.010,8.662,12.020,8.673,12.029,8.683,12.074,8.729,12.164,8.792,12.265,8.835,12.097,8.693,12.204,8.717,12.316,8.718,12.003,8.651,12.006,8.651,12.009,8.651h16.907c12.451,8.651,12.818,8.285,12.818,7.833s11.634,7.834,11.182,7.834h9.157l14.314,6.476c12.637,8.003,13.472,7.458,14.443,7.116,13.704,8.051,15.489,8.197,17.001,8.921s14.745,10.674,15.345,12.378,12.454,12.140,11.730,13.652,9.977,11.396,8.273,11.996,8.511,9.105,6.999,8.381,9.255,6.628,8.655,4.924c11.850,8.225,11.382,8.002,10.957,8.151s11.351,9.269,11.500,9.694z" fill="currentColor" />
  </g>
</svg>