<svg xmlns="http://www.w3.org/2000/svg" viewBox="0 0 24 24" width="24" height="24">
  <g transform="translate(2.400, 2.400) scale(0.800000)">
    <path d="M14.773,21.600h17.333v9.653h7.093v14.773zM20.747,21.600h13.067v6.240c12.213,11.233,12.100,10.960,12.013,10.873l10.340,9.487c12.120,11.267,11.860,11.160,11.727,11.160v14.987c12.213,11.713,11.927,12.000,11.573,12.000h8.373c11.860,11.360,11.573,11.073,11.573,10.720v9.440h11.360v20.747h13.067v9.440c12.213,11.007,12.500,10.720,12.853,10.720h17.760c12.567,11.360,12.853,11.647,12.853,12.000v14.987zM18.187,15.413v10.080c12.213,11.247,12.113,11.147,12.000,11.147h10.933c12.100,11.360,12.000,11.460,12.000,11.573v14.347c12.213,11.473,12.313,11.573,12.427,11.573h13.493c12.327,11.360,12.427,11.260,12.427,11.147zM22.453,15.627v18.400c12.213,11.713,11.927,12.000,11.573,12.000h3.253c11.860,11.360,11.573,11.073,11.573,10.720v3.253c12.213,11.007,12.500,10.720,12.853,10.720h18.400c12.567,11.360,13.053,11.560,13.307,11.813l14.080,13.227c12.467,11.613,12.667,12.100,12.667,12.453z" fill="currentColor" />
  </g>
</svg>