<svg xmlns="http://www.w3.org/2000/svg" viewBox="0 0 24 24" width="24" height="24">
  <g transform="translate(2.400, 2.400) scale(0.800000)">
    <path d="M16.174,11.583v10.122c10.330,9.569,10.049,9.287,9.704,9.287h8.243c9.986,9.913,9.704,10.195,9.704,10.539v10.539h7.826v12.000h12.835v10.539c10.330,10.257,10.612,10.539,10.957,10.539h12.417c10.675,9.913,10.957,9.631,10.957,9.287v10.122h17.843v8.661h2.817zM13.670,13.252v8.661h12.000v12.000h8.661zM21.183,15.548c10.330,9.569,10.049,9.287,9.704,9.287h8.243c9.986,9.913,9.704,10.195,9.704,10.539v10.539h2.817v12.000h17.843v10.539c10.330,10.257,10.612,10.539,10.957,10.539h12.417c10.675,9.913,10.957,9.631,10.957,9.287v10.122h12.835v8.661h7.826v10.122zM18.678,17.426v8.661h12.000v12.000h8.661zM16.174,19.722c10.330,9.569,10.049,9.287,9.704,9.287h8.243c9.986,9.913,9.704,10.195,9.704,10.539v10.539h7.826v12.000h12.835v10.539c10.330,10.257,10.612,10.539,10.957,10.539h12.417c10.675,9.913,10.957,9.631,10.957,9.287v10.122h17.843v8.661h2.817v10.122zM13.670,21.600v8.661h12.000v12.000h8.661z" fill="currentColor" />
  </g>
</svg>