<svg xmlns="http://www.w3.org/2000/svg" viewBox="0 0 24 24" width="24" height="24">
  <g transform="translate(2.400, 2.400) scale(0.800000)">
    <path d="M21.523,21.415c7.141,5.308,7.162,5.278,7.181,5.245,7.137,5.306,7.153,5.274,7.167,5.242,7.184,5.241,7.258,5.152,7.339,5.070,7.441,5.015,7.884,4.817,8.375,4.817s8.053,5.535,8.375,5.858,7.640,6.102,7.640,6.593,6.921,6.271,6.598,6.593,6.354,5.858,5.863,5.858,6.185,5.139,5.863,4.817,6.598,4.572,6.598,4.081c7.119,5.049,7.187,4.777,7.309,4.536zM21.600,10.717c7.111,5.322,7.103,5.307,7.094,5.292s7.101,5.307,7.091,5.293c6.982,5.086,6.904,4.797,6.904,4.489,7.119,4.846,7.317,4.404,7.640,4.081s7.884,4.817,8.375,4.817,8.053,5.535,8.375,5.858,7.640,6.102,7.640,6.593,6.921,6.271,6.598,6.593,6.354,5.858,5.863,5.858,6.185,5.139,5.863,4.817c7.023,5.241,6.938,5.135,6.866,5.019zM13.958,15.059c7.127,5.352,7.135,5.368,7.144,5.383s7.137,5.368,7.146,5.382c7.256,5.589,7.334,5.877,7.334,6.186s7.041,5.934,6.903,6.187c7.109,5.352,7.100,5.367,7.091,5.382s7.102,5.367,7.095,5.382c7.047,5.453,6.962,5.559,6.866,5.655,6.796,5.660,6.354,5.858,5.863,5.858s6.185,5.139,5.863,4.817,6.598,4.572,6.598,4.081,7.317,4.404,7.640,4.081,7.884,4.817,8.375,4.817,8.053,5.535,8.375,5.858c7.215,5.433,7.300,5.540,7.372,5.655zM19.689,10.746l2.404,8.089c7.115,5.333,7.111,5.329,7.107,5.325,6.478,4.696,5.587,4.297,4.607,4.297s5.248,5.736,4.607,6.378,6.078,6.869,6.078,7.850,7.518,7.208,8.160,7.850,8.650,6.378,9.631,6.378,8.990,4.938,9.631,4.296c7.123,5.333,7.127,5.329,7.131,5.325l11.835,8.086c7.032,5.646,6.985,5.972,6.985,6.307,7.119,6.318,7.518,7.208,8.160,7.850s8.650,6.378,9.631,6.378,8.990,4.938,9.631,4.296,8.160,3.806,8.160,2.825,6.720,3.466,6.078,2.825,5.587,4.296,4.607,4.296,5.248,5.736,4.607,6.378c7.116,5.340,7.113,5.344,7.110,5.346l2.400,2.588c7.206,5.030,7.252,4.707,7.252,4.372s7.073,4.678,6.986,4.371l11.834,2.585c7.122,5.342,7.127,5.345,7.131,5.350,7.760,5.980,8.650,6.378,9.631,6.378s8.990,4.938,9.631,4.296,8.160,3.806,8.160,2.825,6.720,3.466,6.078,2.825,5.587,4.296,4.607,4.296,5.248,5.736,4.607,6.378,6.078,6.869,6.078,7.850c7.119,5.672,7.165,5.997,7.252,6.304z" fill="currentColor" />
  </g>
</svg>