<svg xmlns="http://www.w3.org/2000/svg" viewBox="0 0 24 24" width="24" height="24">
  <g transform="translate(2.400, 2.400) scale(0.800000)">
    <path d="M5.891,4.145C4.927,4.145,4.145,4.927,4.145,5.891V18.109C4.145,19.073,4.927,19.855,5.891,19.855H18.109C19.073,19.855,19.855,19.073,19.855,18.109V5.891C19.855,4.927,19.073,4.145,18.109,4.145H5.891ZM5.891,2.400H18.109C20.037,2.400,21.600,3.963,21.600,5.891V18.109C21.600,20.037,20.037,21.600,18.109,21.600H5.891C3.963,21.600,2.400,20.037,2.400,18.109V5.891C2.400,3.963,3.963,2.400,5.891,2.400ZM2.400,9.382H21.600V11.127H2.400V9.382ZM9.382,2.400H11.127V21.600H9.382V2.400Z" fill="currentColor" />
  </g>
</svg>