<svg xmlns="http://www.w3.org/2000/svg" viewBox="0 0 24 24" width="24" height="24">
  <g transform="translate(2.400, 2.400) scale(0.800000)">
    <path d="M21.600,14.477v18.503c10.452,10.003,10.383,10.157,10.270,10.270s10.185,10.014,10.014,10.014h4.258c10.281,9.832,10.126,9.764,10.014,9.651s10.270,9.565,10.270,9.394v2.400zM20.981,13.239v9.832c10.452,9.319,10.243,8.854,9.907,8.519s9.651,9.288,9.138,9.288h7.974c9.939,9.832,9.473,10.041,9.138,10.377s9.907,10.633,9.907,11.146v11.071h7.974c10.110,9.832,9.832,10.110,9.832,10.452s10.729,10.452,11.071,10.452h11.071v18.503c10.452,10.345,10.660,10.811,10.996,11.146s11.252,10.377,11.765,10.377h16.645c10.964,9.832,11.430,9.624,11.765,9.288s10.996,9.031,10.996,8.519v2.400h11.071c10.793,9.832,11.071,9.555,11.071,9.213s10.174,9.213,9.832,9.213zM16.026,13.239v9.832c10.452,9.661,10.520,9.507,10.633,9.394s10.719,9.651,10.889,9.651h12.929c10.623,9.832,10.777,9.901,10.889,10.014s10.633,10.099,10.633,10.270v11.071zM16.026,16.955v14.168c10.452,10.174,10.729,10.452,11.071,10.452s11.071,9.555,11.071,9.213v6.735c10.452,9.490,10.174,9.213,9.832,9.213s9.832,10.110,9.832,10.452zM18.503,16.955v14.168c10.452,10.174,10.729,10.452,11.071,10.452s11.071,9.555,11.071,9.213v6.735c10.452,9.490,10.174,9.213,9.832,9.213s9.832,10.110,9.832,10.452z" fill="currentColor" />
  </g>
</svg>