<svg xmlns="http://www.w3.org/2000/svg" viewBox="0 0 24 24" width="24" height="24">
  <g transform="translate(2.400, 2.400) scale(0.800000)">
    <path d="M21.600,18.031h6.338v3.385c6.585,5.265,5.812,4.492,4.862,4.492h2.400v4.615h6.831c6.991,6.215,7.323,5.883,7.323,5.477v4.123c6.585,5.809,6.252,5.477,5.846,5.477h4.123c6.178,6.215,5.846,6.548,5.846,6.954v9.046c6.585,6.622,6.917,6.954,7.323,6.954h6.831v8.554h2.400c5.635,6.215,4.862,6.988,4.862,7.938v9.785h6.338c6.178,6.215,5.846,6.548,5.846,6.954v9.046c6.585,6.622,6.917,6.954,7.323,6.954h9.046c6.991,6.215,7.323,5.883,7.323,5.477v4.123c6.585,5.809,6.252,5.477,5.846,5.477h6.338v3.631h10.523v9.538h6.338c6.178,6.215,5.846,6.548,5.846,6.954v9.046c6.585,6.622,6.917,6.954,7.323,6.954h9.046c6.991,6.215,7.323,5.883,7.323,5.477v4.123c6.585,5.809,6.252,5.477,5.846,5.477h6.338v3.631h10.523v9.538h6.338c6.178,6.215,5.846,6.548,5.846,6.954v9.046c6.585,6.622,6.917,6.954,7.323,6.954h9.046c6.991,6.215,7.323,5.883,7.323,5.477v4.123c6.585,5.809,6.252,5.477,5.846,5.477zM9.538,20.985h4.615v4.615h8.554v8.554zM15.446,20.985h4.615v4.615h8.554v8.554zM13.477,10.154v4.615h8.554v8.554h4.615zM21.354,20.985h4.615v4.615h8.554v8.554z" fill="currentColor" />
  </g>
</svg>