<svg xmlns="http://www.w3.org/2000/svg" viewBox="0 0 24 24" width="24" height="24">
  <g transform="translate(2.400, 2.400) scale(0.800000)">
    <path d="M20.469,21.600l20.469,19.338,3.531,19.338c11.374,11.494,11.374,12.507,12.000,13.131s13.638,11.494,14.262,10.869l20.469,2.400,20.469,19.338c12.626,11.494,13.638,11.494,14.262,10.869s12.626,9.230,12.000,8.606l3.531,2.400,20.469,2.400c12.626,10.243,12.626,9.230,12.000,8.606s10.362,10.243,9.738,10.869l3.531,19.338,3.531,2.400c11.374,10.243,10.362,10.243,9.738,10.869s11.374,12.507,12.000,13.131z" fill="currentColor" />
  </g>
</svg>