<svg width="25" height="24" viewBox="0 0 25 24" fill="none" xmlns="http://www.w3.org/2000/svg">
<mask id="mask0_3373_2707" style="mask-type:alpha" maskUnits="userSpaceOnUse" x="0" y="0" width="25" height="24">
<rect x="0.857147" width="24" height="24" fill="#D9D9D9"/>
</mask>
<g mask="url(#mask0_3373_2707)">
<path d="M6.18215 21V19.3636H18.7821V21H6.18215ZM6.18215 4.63636V3H18.7821V4.63636H6.18215ZM12.4821 12.8182C13.1384 12.8182 13.6962 12.5795 14.1556 12.1023C14.615 11.625 14.8446 11.0455 14.8446 10.3636C14.8446 9.68182 14.615 9.10227 14.1556 8.625C13.6962 8.14773 13.1384 7.90909 12.4821 7.90909C11.8259 7.90909 11.2681 8.14773 10.8087 8.625C10.3493 9.10227 10.1196 9.68182 10.1196 10.3636C10.1196 11.0455 10.3493 11.625 10.8087 12.1023C11.2681 12.5795 11.8259 12.8182 12.4821 12.8182ZM6.18215 18.5455C5.74902 18.5455 5.37824 18.3852 5.0698 18.0648C4.76137 17.7443 4.60715 17.3591 4.60715 16.9091V7.09091C4.60715 6.64091 4.76137 6.25568 5.0698 5.93523C5.37824 5.61477 5.74902 5.45455 6.18215 5.45455H18.7821C19.2153 5.45455 19.5861 5.61477 19.8945 5.93523C20.2029 6.25568 20.3571 6.64091 20.3571 7.09091V16.9091C20.3571 17.3591 20.2029 17.7443 19.8945 18.0648C19.5861 18.3852 19.2153 18.5455 18.7821 18.5455H6.18215ZM7.56027 16.9091H17.404C16.8134 16.1455 16.0981 15.5455 15.2581 15.1091C14.4181 14.6727 13.4928 14.4545 12.4821 14.4545C11.4715 14.4545 10.5462 14.6727 9.70621 15.1091C8.86621 15.5455 8.1509 16.1455 7.56027 16.9091Z" fill="black"/>
</g>
</svg>
