<svg width="25" height="24" viewBox="0 0 25 24" fill="none" xmlns="http://www.w3.org/2000/svg">
<mask id="mask0_3373_2709" style="mask-type:alpha" maskUnits="userSpaceOnUse" x="0" y="0" width="25" height="24">
<rect x="0.857147" width="24" height="24" fill="#D9D9D9"/>
</mask>
<g mask="url(#mask0_3373_2709)">
<path d="M6.69925 19.1413H19.8571C20.9617 19.1413 21.8571 18.2459 21.8571 17.1413V4.25C21.8571 3.14543 20.9617 2.25 19.8571 2.25H6.69925C5.13202 2.25 3.85715 3.47869 3.85715 4.98913V20.7017C3.85715 22.1069 5.13202 23.25 6.69925 23.25H21.4006C21.6528 23.25 21.8571 23.0456 21.8571 22.7935C21.8571 22.5413 21.6528 22.337 21.4006 22.337H6.69925C5.67232 22.337 4.80452 21.588 4.80452 20.7017C4.80452 19.8261 5.63716 19.1413 6.69925 19.1413ZM7.64662 6.13043C7.64662 6.00382 7.75209 5.90217 7.88346 5.90217H18.3045C18.4359 5.90217 18.5414 6.00382 18.5414 6.13043V8.41304C18.5414 8.53966 18.4359 8.6413 18.3045 8.6413H7.88346C7.75209 8.6413 7.64662 8.53966 7.64662 8.41304V6.13043Z" fill="black"/>
</g>
</svg>
