<svg width="25" height="24" viewBox="0 0 25 24" fill="none" xmlns="http://www.w3.org/2000/svg">
<mask id="mask0_3373_2712" style="mask-type:alpha" maskUnits="userSpaceOnUse" x="0" y="0" width="25" height="24">
<rect x="0.857178" width="24" height="24" fill="#D9D9D9"/>
</mask>
<g mask="url(#mask0_3373_2712)">
<path d="M20.1053 19.1818H9.68424C9.16319 19.1818 8.71714 18.9949 8.34608 18.621C7.97503 18.2472 7.7895 17.7977 7.7895 17.2727V3.90909C7.7895 3.38409 7.97503 2.93466 8.34608 2.5608C8.71714 2.18693 9.16319 2 9.68424 2H15.0665C15.8661 2 16.6326 2.31919 17.1959 2.8867L21.1293 6.84999C21.6871 7.41193 22 8.17156 22 8.96329V17.2727C22 17.7977 21.8145 18.2472 21.4435 18.621C21.0724 18.9949 20.6263 19.1818 20.1053 19.1818ZM16.3685 8.68182C15.8162 8.68182 15.3685 8.2341 15.3685 7.68182V3.90909H9.68424V17.2727H20.1053V8.68182H16.3685ZM5.89477 23C5.37371 23 4.92766 22.8131 4.55661 22.4392C4.18556 22.0653 4.00003 21.6159 4.00003 21.0909V7.72727H5.89477V21.0909H16.3158V23H5.89477Z" fill="black"/>
<rect x="10.8571" y="9" width="8" height="1" rx="0.5" fill="black"/>
<rect x="10.8571" y="12" width="8" height="1" rx="0.5" fill="black"/>
<rect x="10.8571" y="15" width="8" height="1" rx="0.5" fill="black"/>
</g>
</svg>
