<svg width="24" height="24" viewBox="0 0 24 24" fill="none" xmlns="http://www.w3.org/2000/svg">
<mask id="mask0_3373_2717" style="mask-type:alpha" maskUnits="userSpaceOnUse" x="0" y="0" width="24" height="24">
<rect width="24" height="24" fill="#D9D9D9"/>
</mask>
<g mask="url(#mask0_3373_2717)">
<path d="M4.00011 20C3.45011 20 2.97927 19.8042 2.58761 19.4125C2.19594 19.0208 2.00011 18.55 2.00011 18V5.99999C2.00011 5.44999 2.19594 4.97916 2.58761 4.58749C2.97927 4.19583 3.45011 3.99999 4.00011 3.99999H9.58589C9.85111 3.99999 10.1055 4.10535 10.293 4.29289L12.0001 5.99999H20.0001C20.5501 5.99999 21.0209 6.19583 21.4126 6.58749C21.5535 6.72836 21.669 6.87948 21.7592 7.04083C22.0287 7.5229 21.5524 7.99999 21.0001 7.99999H5.00011C4.44782 7.99999 4.00011 8.44771 4.00011 8.99999V18L6.18631 10.7126C6.31321 10.2897 6.70253 9.99999 7.14414 9.99999H22.1557C22.8257 9.99999 23.3061 10.6459 23.1135 11.2876L20.9251 18.575C20.7918 19.0083 20.5459 19.3542 20.1876 19.6125C19.8293 19.8708 19.4334 20 19.0001 20H4.00011Z" fill="black"/>
</g>
</svg>
