<svg width="24" height="24" viewBox="0 0 24 24" fill="none" xmlns="http://www.w3.org/2000/svg">
<g clip-path="url(#clip0_3373_2713)">
<mask id="mask0_3373_2713" style="mask-type:alpha" maskUnits="userSpaceOnUse" x="-1" y="-2" width="26" height="28">
<rect x="-0.4" y="-1.6" width="24.8" height="27.2" fill="#D9D9D9"/>
</mask>
<g mask="url(#mask0_3373_2713)">
<path d="M-0.4 19.9333V18.1483C-0.4 17.3172 -0.0168051 16.6514 0.749584 16.1508C1.51597 15.6503 2.51056 15.4 3.73333 15.4C3.95722 15.4 4.1725 15.4047 4.37917 15.4142C4.58583 15.4236 4.78389 15.4472 4.97333 15.485C4.73222 15.8628 4.55139 16.2689 4.43083 16.7033C4.31028 17.1378 4.25 17.6006 4.25 18.0917V19.9333H-0.4ZM5.8 19.9333V18.0917C5.8 16.8639 6.37264 15.8722 7.51792 15.1167C8.66319 14.3611 10.1572 13.9833 12 13.9833C13.86 13.9833 15.3583 14.3611 16.495 15.1167C17.6317 15.8722 18.2 16.8639 18.2 18.0917V19.9333H5.8ZM19.75 19.9333V18.0917C19.75 17.6006 19.694 17.1378 19.5821 16.7033C19.4701 16.2689 19.3022 15.8628 19.0783 15.485C19.2678 15.4472 19.4615 15.4236 19.6596 15.4142C19.8576 15.4047 20.06 15.4 20.2667 15.4C21.5067 15.4 22.5056 15.6503 23.2633 16.1508C24.0211 16.6514 24.4 17.3172 24.4 18.1483V19.9333H19.75ZM3.73333 14.2667C3.165 14.2667 2.67847 14.0447 2.27375 13.6008C1.86903 13.1569 1.66667 12.6233 1.66667 12C1.66667 11.3578 1.86903 10.8194 2.27375 10.385C2.67847 9.95055 3.165 9.73333 3.73333 9.73333C4.31889 9.73333 4.80972 9.95055 5.20583 10.385C5.60194 10.8194 5.8 11.3578 5.8 12C5.8 12.6233 5.60194 13.1569 5.20583 13.6008C4.80972 14.0447 4.31889 14.2667 3.73333 14.2667ZM20.2667 14.2667C19.6983 14.2667 19.2118 14.0447 18.8071 13.6008C18.4024 13.1569 18.2 12.6233 18.2 12C18.2 11.3578 18.4024 10.8194 18.8071 10.385C19.2118 9.95055 19.6983 9.73333 20.2667 9.73333C20.8522 9.73333 21.3431 9.95055 21.7392 10.385C22.1353 10.8194 22.3333 11.3578 22.3333 12C22.3333 12.6233 22.1353 13.1569 21.7392 13.6008C21.3431 14.0447 20.8522 14.2667 20.2667 14.2667ZM12 13.1333C11.1389 13.1333 10.4069 12.8028 9.80417 12.1417C9.20139 11.4806 8.9 10.6778 8.9 9.73333C8.9 8.77 9.20139 7.9625 9.80417 7.31083C10.4069 6.65917 11.1389 6.33333 12 6.33333C12.8783 6.33333 13.6146 6.65917 14.2087 7.31083C14.8029 7.9625 15.1 8.77 15.1 9.73333C15.1 10.6778 14.8029 11.4806 14.2087 12.1417C13.6146 12.8028 12.8783 13.1333 12 13.1333Z" fill="black"/>
</g>
</g>
<defs>
<clipPath id="clip0_3373_2713">
<rect width="24" height="24" fill="white"/>
</clipPath>
</defs>
</svg>
