<svg width="23" height="23" viewBox="0 0 23 23" fill="none" xmlns="http://www.w3.org/2000/svg">
<g clip-path="url(#clip0_3365_12546)">
<path d="M7.77143 0.914286C6.50893 0.914286 5.48571 1.9375 5.48571 3.2C5.48571 4.4625 6.50893 5.48571 7.77143 5.48571C9.03393 5.48571 10.0571 4.4625 10.0571 3.2C10.0571 1.9375 9.03393 0.914286 7.77143 0.914286ZM15 0.914286C13.7375 0.914286 12.7143 1.9375 12.7143 3.2C12.7143 4.4625 13.7375 5.48571 15 5.48571C16.2625 5.48571 17.2857 4.4625 17.2857 3.2C17.2857 1.9375 16.2625 0.914286 15 0.914286ZM7.77143 5.94286C7.2625 5.94286 6.79107 6.06071 6.37143 6.27143C7.22857 6.94107 7.78571 7.9875 7.78571 9.15714C7.78571 10.3018 7.25536 11.3286 6.42857 12C7.09464 12.3464 7.67679 12.8268 8.12857 13.4286C7.91071 12.9607 7.78571 12.4482 7.78571 11.9C7.78571 10.0839 9.11964 8.56786 10.8571 8.28571C10.4893 6.925 9.25893 5.94286 7.77143 5.94286ZM15 5.94286C13.5196 5.94286 12.2875 6.91786 11.9143 8.27143C13.7054 8.50714 15.1 10.0446 15.1 11.9C15.1 12.4125 14.9911 12.9 14.8 13.3429C15.2464 12.7786 15.8054 12.3143 16.4429 11.9857C15.6214 11.3143 15.1 10.2982 15.1 9.15714C15.1 8.00893 15.6268 6.98571 16.4571 6.31429C16.0196 6.08036 15.5357 5.94286 15 5.94286ZM4.12857 6.41429C2.61429 6.41429 1.38571 7.64286 1.38571 9.15714C1.38571 10.6714 2.61429 11.9 4.12857 11.9C5.64286 11.9 6.87143 10.6714 6.87143 9.15714C6.87143 7.64286 5.64286 6.41429 4.12857 6.41429ZM18.7571 6.41429C17.2429 6.41429 16.0143 7.64286 16.0143 9.15714C16.0143 10.6714 17.2429 11.9 18.7571 11.9C20.2714 11.9 21.5 10.6714 21.5 9.15714C21.5 7.64286 20.2714 6.41429 18.7571 6.41429ZM11.4429 9.15714C9.92857 9.15714 8.7 10.3857 8.7 11.9C8.7 13.4143 9.92857 14.6429 11.4429 14.6429C12.9571 14.6429 14.1857 13.4143 14.1857 11.9C14.1857 10.3857 12.9571 9.15714 11.4429 9.15714ZM4.11429 12.3429C1.84643 12.3429 0 14.1875 0 16.4571V18.0571C0 18.2 0.069643 18.3429 0.185714 18.4286C0.291072 18.5089 1.3 19.2 4.11429 19.2C5.08929 19.2 5.84821 19.1125 6.42857 19C6.4875 17.5946 7.11607 16.3357 8.1 15.4571C7.65357 13.6679 6.03929 12.3429 4.11429 12.3429ZM18.7429 12.3429C16.825 12.3429 15.2107 13.6625 14.7571 15.4429C15.7554 16.3232 16.4 17.5964 16.4571 19.0143C17.0339 19.125 17.7821 19.2 18.7429 19.2C21.5571 19.2 22.5661 18.5089 22.6714 18.4286C22.7875 18.3429 22.8571 18.2018 22.8571 18.0571V16.4571C22.8571 14.1875 21.0125 12.3429 18.7429 12.3429ZM11.4429 15.1C9.175 15.1 7.32857 16.9446 7.32857 19.2143V20.8143C7.32857 20.9589 7.39821 21.0857 7.51429 21.1714C7.61964 21.2518 8.62857 21.9571 11.4429 21.9571C14.2571 21.9571 15.2661 21.2518 15.3714 21.1714C15.4875 21.0857 15.5571 20.9571 15.5571 20.8143V19.2143C15.5571 16.9446 13.7125 15.1 11.4429 15.1Z" fill="black"/>
</g>
<defs>
<clipPath id="clip0_3365_12546">
<rect width="22.8571" height="22.8571" fill="white"/>
</clipPath>
</defs>
</svg>
