<svg width="24" height="24" viewBox="0 0 24 24" fill="none" xmlns="http://www.w3.org/2000/svg">
<mask id="mask0_3373_2719" style="mask-type:alpha" maskUnits="userSpaceOnUse" x="0" y="0" width="24" height="24">
<rect width="24" height="24" fill="#D9D9D9"/>
</mask>
<g mask="url(#mask0_3373_2719)">
<path d="M20.6806 21H15.9306C15.2017 21 14.6111 20.4548 14.6111 19.7821V15.3974C14.6111 14.8591 14.1388 14.4231 13.5556 14.4231H11.4444C10.8613 14.4231 10.3889 14.8591 10.3889 15.3974V19.7821C10.3889 20.4548 9.79831 21 9.06944 21H4.31944C3.59058 21 3 20.4548 3 19.7821V10.4833C3 9.36323 3.55628 8.30508 4.50892 7.61231L12.0097 2.15638C12.2973 1.94787 12.7027 1.94787 12.9898 2.15638L20.4916 7.61231C21.4443 8.30508 22 9.36274 22 10.4823V19.7821C22 20.4548 21.4094 21 20.6806 21Z" fill="#1F1F1F"/>
</g>
</svg>
