<svg width="24" height="24" viewBox="0 0 24 24" fill="none" xmlns="http://www.w3.org/2000/svg">
<mask id="mask0_3373_2714" style="mask-type:alpha" maskUnits="userSpaceOnUse" x="0" y="0" width="24" height="24">
<rect width="24" height="24" fill="#D9D9D9"/>
</mask>
<g mask="url(#mask0_3373_2714)">
<path d="M8.45455 17C6.93939 17 5.65152 16.4653 4.59091 15.3958C3.5303 14.3264 3 13.0278 3 11.5C3 9.97222 3.5303 8.67361 4.59091 7.60417C5.65152 6.53472 6.93939 6 8.45455 6C9.68182 6 10.7538 6.34757 11.6705 7.04271C12.5871 7.73785 13.2273 8.6125 13.5909 9.66667H21.1667C22.1792 9.66667 23 10.4951 23 11.5076C23 12.5118 22.186 13.3333 21.1818 13.3333V15.1818C21.1818 16.186 20.3678 17 19.3636 17C18.3595 17 17.5455 16.186 17.5455 15.1818V13.3333H13.5909C13.2273 14.3875 12.5871 15.2622 11.6705 15.9573C10.7538 16.6524 9.68182 17 8.45455 17ZM8.45455 13.3333C8.95455 13.3333 9.38258 13.1538 9.73864 12.7948C10.0947 12.4358 10.2727 12.0042 10.2727 11.5C10.2727 10.9958 10.0947 10.5642 9.73864 10.2052C9.38258 9.84618 8.95455 9.66667 8.45455 9.66667C7.95455 9.66667 7.52652 9.84618 7.17045 10.2052C6.81439 10.5642 6.63636 10.9958 6.63636 11.5C6.63636 12.0042 6.81439 12.4358 7.17045 12.7948C7.52652 13.1538 7.95455 13.3333 8.45455 13.3333Z" fill="black"/>
</g>
</svg>
