<svg width="25" height="24" viewBox="0 0 25 24" fill="none" xmlns="http://www.w3.org/2000/svg">
<mask id="mask0_3371_1446" style="mask-type:alpha" maskUnits="userSpaceOnUse" x="0" y="0" width="25" height="24">
<rect x="0.857178" width="24" height="24" fill="#D9D9D9"/>
</mask>
<g mask="url(#mask0_3371_1446)">
<path d="M5.85718 21C5.30718 21 4.83634 20.8042 4.44468 20.4125C4.05301 20.0208 3.85718 19.55 3.85718 19V5C3.85718 4.45 4.05301 3.97917 4.44468 3.5875C4.83634 3.19583 5.30718 3 5.85718 3H12.8572V5H5.85718V19H19.8572V12H21.8572V19C21.8572 19.55 21.6613 20.0208 21.2697 20.4125C20.878 20.8042 20.4072 21 19.8572 21H5.85718ZM10.5572 15.7L9.15718 14.3L17.4572 6L15.6172 5.29232C15.1593 5.11621 14.8572 4.67628 14.8572 4.18568V4.18568C14.8572 3.53085 15.388 3 16.0429 3H20.9822C21.4654 3 21.8572 3.39175 21.8572 3.875V8.81432C21.8572 9.46915 21.3263 10 20.6715 10V10C20.1809 10 19.741 9.69786 19.5649 9.23996L18.8572 7.4L10.5572 15.7Z" fill="#1F1F1F"/>
</g>
</svg>
