<svg width="24" height="24" viewBox="0 0 24 24" fill="none" xmlns="http://www.w3.org/2000/svg">
<mask id="mask0_3365_12075" style="mask-type:alpha" maskUnits="userSpaceOnUse" x="0" y="0" width="24" height="24">
<rect width="24" height="24" fill="#D9D9D9"/>
</mask>
<g mask="url(#mask0_3365_12075)">
<path d="M13.8377 6.7619L13.6945 6.04762C13.599 6.00794 13.5095 5.96627 13.426 5.92262C13.3425 5.87897 13.257 5.8254 13.1695 5.7619L12.4773 5.97619L12 5.16667L12.5489 4.69048C12.533 4.5873 12.5251 4.48413 12.5251 4.38095C12.5251 4.27778 12.533 4.1746 12.5489 4.07143L12 3.59524L12.4773 2.78571L13.1695 3C13.257 2.93651 13.3425 2.88294 13.426 2.83929C13.5095 2.79563 13.599 2.75397 13.6945 2.71429L13.8377 2H14.7924L14.9356 2.71429C15.031 2.75397 15.1205 2.79563 15.2041 2.83929C15.2876 2.88294 15.3731 2.93651 15.4606 3L16.1527 2.78571L16.6301 3.59524L16.0811 4.07143C16.0971 4.1746 16.105 4.27778 16.105 4.38095C16.105 4.48413 16.0971 4.5873 16.0811 4.69048L16.6301 5.16667L16.1527 5.97619L15.4606 5.7619C15.3731 5.8254 15.2876 5.87897 15.2041 5.92262C15.1205 5.96627 15.031 6.00794 14.9356 6.04762L14.7924 6.7619H13.8377ZM14.315 5.33333C14.5776 5.33333 14.8023 5.24008 14.9893 5.05357C15.1762 4.86706 15.2697 4.64286 15.2697 4.38095C15.2697 4.11905 15.1762 3.89484 14.9893 3.70833C14.8023 3.52183 14.5776 3.42857 14.315 3.42857C14.0525 3.42857 13.8278 3.52183 13.6408 3.70833C13.4539 3.89484 13.3604 4.11905 13.3604 4.38095C13.3604 4.64286 13.4539 4.86706 13.6408 5.05357C13.8278 5.24008 14.0525 5.33333 14.315 5.33333ZM18.1098 12L17.895 11C17.7597 10.9524 17.6344 10.8948 17.5191 10.8274C17.4037 10.7599 17.2904 10.6825 17.179 10.5952L16.2243 10.9048L15.5561 9.76191L16.3198 9.09524C16.3039 8.95238 16.2959 8.80952 16.2959 8.66667C16.2959 8.52381 16.3039 8.38095 16.3198 8.2381L15.5561 7.57143L16.2243 6.42857L17.179 6.7381C17.2904 6.65079 17.4037 6.57341 17.5191 6.50595C17.6344 6.43849 17.7597 6.38095 17.895 6.33333L18.1098 5.33333H19.4463L19.6611 6.33333C19.7963 6.38095 19.9216 6.43849 20.037 6.50595C20.1523 6.57341 20.2657 6.65079 20.3771 6.7381L21.3317 6.42857L22 7.57143L21.2363 8.2381C21.2522 8.38095 21.2601 8.52381 21.2601 8.66667C21.2601 8.80952 21.2522 8.95238 21.2363 9.09524L22 9.76191L21.3317 10.9048L20.3771 10.5952C20.2657 10.6825 20.1523 10.7599 20.037 10.8274C19.9216 10.8948 19.7963 10.9524 19.6611 11L19.4463 12H18.1098ZM18.778 10.0952C19.1758 10.0952 19.5139 9.95635 19.7924 9.67857C20.0708 9.40079 20.21 9.06349 20.21 8.66667C20.21 8.26984 20.0708 7.93254 19.7924 7.65476C19.5139 7.37698 19.1758 7.2381 18.778 7.2381C18.3803 7.2381 18.0422 7.37698 17.7637 7.65476C17.4853 7.93254 17.3461 8.26984 17.3461 8.66667C17.3461 9.06349 17.4853 9.40079 17.7637 9.67857C18.0422 9.95635 18.3803 10.0952 18.778 10.0952Z" fill="#1F1F1F"/>
<path d="M18.0896 5L18.0299 4.52C17.9975 4.5075 17.967 4.4925 17.9384 4.475C17.9098 4.4575 17.8818 4.43875 17.8545 4.41875L17.4104 4.60625L17 3.89375L17.3843 3.60125C17.3818 3.58375 17.3806 3.56688 17.3806 3.55063V3.44938C17.3806 3.43313 17.3818 3.41625 17.3843 3.39875L17 3.10625L17.4104 2.39375L17.8545 2.58125C17.8818 2.56125 17.9104 2.5425 17.9403 2.525C17.9701 2.5075 18 2.4925 18.0299 2.48L18.0896 2H18.9104L18.9701 2.48C19.0025 2.4925 19.033 2.5075 19.0616 2.525C19.0902 2.5425 19.1182 2.56125 19.1455 2.58125L19.5896 2.39375L20 3.10625L19.6157 3.39875C19.6182 3.41625 19.6194 3.43313 19.6194 3.44938V3.55063C19.6194 3.56688 19.6169 3.58375 19.6119 3.60125L19.9963 3.89375L19.5858 4.60625L19.1455 4.41875C19.1182 4.43875 19.0896 4.4575 19.0597 4.475C19.0299 4.4925 19 4.5075 18.9701 4.52L18.9104 5H18.0896ZM18.5075 4.025C18.6517 4.025 18.7749 3.97375 18.8769 3.87125C18.9789 3.76875 19.0299 3.645 19.0299 3.5C19.0299 3.355 18.9789 3.23125 18.8769 3.12875C18.7749 3.02625 18.6517 2.975 18.5075 2.975C18.3607 2.975 18.2369 3.02625 18.1362 3.12875C18.0354 3.23125 17.9851 3.355 17.9851 3.5C17.9851 3.645 18.0354 3.76875 18.1362 3.87125C18.2369 3.97375 18.3607 4.025 18.5075 4.025Z" fill="black"/>
<path fill-rule="evenodd" clip-rule="evenodd" d="M0 17.425V19H4.5V17.375C4.5 16.9417 4.55833 16.5333 4.675 16.15C4.79167 15.7667 4.96667 15.4083 5.2 15.075C5.01667 15.0417 4.825 15.0208 4.625 15.0125C4.425 15.0042 4.21667 15 4 15C2.81667 15 1.85417 15.2208 1.1125 15.6625C0.370833 16.1042 0 16.6917 0 17.425ZM6 17.375V19H18V17.375C18 16.2917 17.45 15.4167 16.35 14.75C15.25 14.0833 13.8 13.75 12 13.75C10.2167 13.75 8.77083 14.0833 7.6625 14.75C6.55417 15.4167 6 16.2917 6 17.375ZM19.5 17.375V19H24V17.425C24 16.6917 23.6333 16.1042 22.9 15.6625C22.1667 15.2208 21.2 15 20 15C19.8 15 19.6042 15.0042 19.4125 15.0125C19.2208 15.0208 19.0333 15.0417 18.85 15.075C19.0667 15.4083 19.2292 15.7667 19.3375 16.15C19.4458 16.5333 19.5 16.9417 19.5 17.375ZM2.5875 13.4125C2.97917 13.8042 3.45 14 4 14C4.56667 14 5.04167 13.8042 5.425 13.4125C5.80833 13.0208 6 12.55 6 12C6 11.4333 5.80833 10.9583 5.425 10.575C5.04167 10.1917 4.56667 10 4 10C3.45 10 2.97917 10.1917 2.5875 10.575C2.19583 10.9583 2 11.4333 2 12C2 12.55 2.19583 13.0208 2.5875 13.4125ZM18.5875 13.4125C18.9792 13.8042 19.45 14 20 14C20.5667 14 21.0417 13.8042 21.425 13.4125C21.8083 13.0208 22 12.55 22 12C22 11.6633 21.9323 11.359 21.797 11.087C21.3616 12.2065 20.2735 13 19 13C18.7251 13 18.4589 12.963 18.206 12.8938C18.3006 13.0799 18.4278 13.2528 18.5875 13.4125ZM9.875 12.125C10.4583 12.7083 11.1667 13 12 13C12.85 13 13.5625 12.7083 14.1375 12.125C14.7125 11.5417 15 10.8333 15 10C15 9.15 14.7125 8.4375 14.1375 7.8625C13.5625 7.2875 12.85 7 12 7C11.1667 7 10.4583 7.2875 9.875 7.8625C9.29167 8.4375 9 9.15 9 10C9 10.8333 9.29167 11.5417 9.875 12.125Z" fill="black"/>
</g>
</svg>
