<svg width="24" height="24" viewBox="0 0 24 24" fill="none" xmlns="http://www.w3.org/2000/svg">
<mask id="mask0_3365_12074" style="mask-type:alpha" maskUnits="userSpaceOnUse" x="0" y="0" width="24" height="24">
<rect width="24" height="24" fill="#D9D9D9"/>
</mask>
<g mask="url(#mask0_3365_12074)">
<path d="M14.6318 10L14.4328 8.56C14.325 8.5225 14.2235 8.4775 14.1281 8.425C14.0328 8.3725 13.9395 8.31625 13.8483 8.25625L12.3682 8.81875L11 6.68125L12.2811 5.80375C12.2728 5.75125 12.2687 5.70062 12.2687 5.65188V5.34812C12.2687 5.29938 12.2728 5.24875 12.2811 5.19625L11 4.31875L12.3682 2.18125L13.8483 2.74375C13.9395 2.68375 14.0348 2.6275 14.1343 2.575C14.2338 2.5225 14.3333 2.4775 14.4328 2.44L14.6318 1H17.3682L17.5672 2.44C17.675 2.4775 17.7765 2.5225 17.8719 2.575C17.9672 2.6275 18.0605 2.68375 18.1517 2.74375L19.6318 2.18125L21 4.31875L19.7189 5.19625C19.7272 5.24875 19.7313 5.29938 19.7313 5.34812V5.65188C19.7313 5.70062 19.7231 5.75125 19.7065 5.80375L20.9876 6.68125L19.6194 8.81875L18.1517 8.25625C18.0605 8.31625 17.9652 8.3725 17.8657 8.425C17.7662 8.4775 17.6667 8.5225 17.5672 8.56L17.3682 10H14.6318ZM16.0249 7.075C16.5058 7.075 16.9163 6.92125 17.2562 6.61375C17.5962 6.30625 17.7662 5.935 17.7662 5.5C17.7662 5.065 17.5962 4.69375 17.2562 4.38625C16.9163 4.07875 16.5058 3.925 16.0249 3.925C15.5357 3.925 15.1231 4.07875 14.7873 4.38625C14.4515 4.69375 14.2836 5.065 14.2836 5.5C14.2836 5.935 14.4515 6.30625 14.7873 6.61375C15.1231 6.92125 15.5357 7.075 16.0249 7.075Z" fill="black"/>
<path fill-rule="evenodd" clip-rule="evenodd" d="M16.6974 10.9632C16.4686 10.9875 16.2359 11 16 11C12.7593 11 10.1187 8.64492 10.0039 5.7H5.5733L4.76505 4H2V5.7H3.70157L6.7644 12.16L5.61584 14.2425C5.31807 14.795 5.33225 15.351 5.65838 15.9106C5.98451 16.4702 6.46663 16.75 7.10472 16.75H17.3141V15.05H7.10472L8.04058 13.35H14.3789C14.6909 13.35 14.978 13.2721 15.2404 13.1163C15.5027 12.9604 15.7118 12.7408 15.8678 12.4575L16.6974 10.9632ZM5.90298 20.5006C6.23621 20.8335 6.63678 21 7.10472 21C7.57265 21 7.97323 20.8335 8.30645 20.5006C8.63968 20.1677 8.80629 19.7675 8.80629 19.3C8.80629 18.8325 8.63968 18.4323 8.30645 18.0994C7.97323 17.7665 7.57265 17.6 7.10472 17.6C6.63678 17.6 6.23621 17.7665 5.90298 18.0994C5.56976 18.4323 5.40314 18.8325 5.40314 19.3C5.40314 19.7675 5.56976 20.1677 5.90298 20.5006ZM14.4108 20.5006C14.7441 20.8335 15.1446 21 15.6126 21C16.0805 21 16.4811 20.8335 16.8143 20.5006C17.1475 20.1677 17.3141 19.7675 17.3141 19.3C17.3141 18.8325 17.1475 18.4323 16.8143 18.0994C16.4811 17.7665 16.0805 17.6 15.6126 17.6C15.1446 17.6 14.7441 17.7665 14.4108 18.0994C14.0776 18.4323 13.911 18.8325 13.911 19.3C13.911 19.7675 14.0776 20.1677 14.4108 20.5006Z" fill="black"/>
</g>
</svg>
