<svg width="24" height="24" viewBox="0 0 24 24" fill="none" xmlns="http://www.w3.org/2000/svg">
<mask id="mask0_3373_2718" style="mask-type:alpha" maskUnits="userSpaceOnUse" x="0" y="0" width="24" height="24">
<rect width="24" height="24" fill="#D9D9D9"/>
</mask>
<g mask="url(#mask0_3373_2718)">
<path d="M9.99995 12C8.89995 12 7.95829 11.6083 7.17495 10.825C6.39162 10.0416 5.99995 9.09998 5.99995 7.99998C5.99995 6.89998 6.39162 5.95832 7.17495 5.17498C7.95829 4.39165 8.89995 3.99998 9.99995 3.99998C11.1 3.99998 12.0416 4.39165 12.825 5.17498C13.6083 5.95832 14 6.89998 14 7.99998C14 9.09998 13.6083 10.0416 12.825 10.825C12.0416 11.6083 11.1 12 9.99995 12ZM1.99995 20V17.2C1.99995 16.6333 2.14579 16.1125 2.43745 15.6375C2.72912 15.1625 3.11662 14.8 3.59995 14.55C4.63329 14.0333 5.68329 13.6458 6.74995 13.3875C7.81662 13.1291 8.89995 13 9.99995 13C11.1 13 12.1833 13.1291 13.25 13.3875C14.3166 13.6458 15.3666 14.0333 16.4 14.55C16.8833 14.8 17.2708 15.1625 17.5625 15.6375C17.8541 16.1125 18 16.6333 18 17.2V20H1.99995Z" fill="black"/>
<mask id="mask1_3373_2718" style="mask-type:alpha" maskUnits="userSpaceOnUse" x="14" y="1" width="7" height="7">
<rect x="14" y="0.999983" width="7" height="7" fill="#D9D9D9"/>
</mask>
<g mask="url(#mask1_3373_2718)">
<path d="M17.4999 3.04161C17.5825 3.04161 17.6518 3.01366 17.7077 2.95776C17.7636 2.90185 17.7916 2.83258 17.7916 2.74994C17.7916 2.66731 17.7636 2.59803 17.7077 2.54213C17.6518 2.48623 17.5825 2.45828 17.4999 2.45828C17.4172 2.45828 17.348 2.48623 17.2921 2.54213C17.2362 2.59803 17.2082 2.66731 17.2082 2.74994C17.2082 2.83258 17.2362 2.90185 17.2921 2.95776C17.348 3.01366 17.4172 3.04161 17.4999 3.04161ZM17.2082 5.37494H17.7916V3.62494H17.2082V5.37494ZM14.5832 7.41661V2.16661C14.5832 2.00619 14.6403 1.86887 14.7546 1.75463C14.8688 1.6404 15.0061 1.58328 15.1666 1.58328H19.8332C19.9936 1.58328 20.131 1.6404 20.2452 1.75463C20.3594 1.86887 20.4166 2.00619 20.4166 2.16661V5.66661C20.4166 5.82703 20.3594 5.96435 20.2452 6.07859C20.131 6.19283 19.9936 6.24994 19.8332 6.24994H15.7499L14.5832 7.41661Z" fill="black"/>
</g>
</g>
</svg>
