<svg width="25" height="24" viewBox="0 0 25 24" fill="none" xmlns="http://www.w3.org/2000/svg">
<path d="M12.3571 3C7.6626 3 3.85715 6.81499 3.85715 11.5213C3.85715 15.9396 7.2121 19.5722 11.5071 20V14.0777H10.3171C10.0426 14.0777 9.7944 13.9115 9.689 13.6567C9.58445 13.4011 9.64225 13.1088 9.83605 12.9137L11.876 10.8686C12.1421 10.6019 12.5722 10.6019 12.8374 10.8686L14.8774 12.9137C15.0074 13.0441 15.0763 13.2187 15.0763 13.396C15.0763 13.4838 15.0593 13.5724 15.0244 13.6567C14.9199 13.9115 14.6717 14.0777 14.3971 14.0777H13.2071V20C17.5022 19.5722 20.8571 15.9405 20.8571 11.5213C20.8571 6.81499 17.0517 3 12.3571 3Z" fill="black"/>
<mask id="mask0_3373_2708" style="mask-type:alpha" maskUnits="userSpaceOnUse" x="0" y="0" width="25" height="24">
<rect x="0.857147" width="24" height="24" fill="#D9D9D9"/>
</mask>
<g mask="url(#mask0_3373_2708)">
</g>
</svg>
