<svg width="25" height="24" viewBox="0 0 25 24" fill="none" xmlns="http://www.w3.org/2000/svg">
<mask id="mask0_3373_2706" style="mask-type:alpha" maskUnits="userSpaceOnUse" x="0" y="0" width="25" height="24">
<rect x="0.857147" width="24" height="24" fill="#D9D9D9"/>
</mask>
<g mask="url(#mask0_3373_2706)">
<path d="M4.85739 21C4.30739 21 3.83656 20.8042 3.44489 20.4125C3.05322 20.0208 2.85739 19.55 2.85739 19V7H4.85739V19H19.8574V21H4.85739ZM8.85739 17C8.30739 17 7.83656 16.8042 7.44489 16.4125C7.05322 16.0208 6.85739 15.55 6.85739 15V3H23.8574V15C23.8574 15.55 23.6616 16.0208 23.2699 16.4125C22.8782 16.8042 22.4074 17 21.8574 17H8.85739ZM10.8574 12H14.8574V7H10.8574V12ZM15.8574 12H19.8574V10H15.8574V12ZM15.8574 9H19.8574V7H15.8574V9Z" fill="black"/>
</g>
</svg>
