<svg width="25" height="24" viewBox="0 0 25 24" fill="none" xmlns="http://www.w3.org/2000/svg">
<mask id="mask0_3373_2711" style="mask-type:alpha" maskUnits="userSpaceOnUse" x="0" y="0" width="25" height="24">
<rect x="0.857178" width="24" height="24" fill="#D9D9D9"/>
</mask>
<g mask="url(#mask0_3373_2711)">
<path d="M14.6949 6.76191L14.5517 6.04763C14.4562 6.00794 14.3667 5.96628 14.2832 5.92263C14.1997 5.87898 14.1141 5.8254 14.0266 5.76191L13.3345 5.9762L12.8572 5.16667L13.4061 4.69048C13.3902 4.58731 13.3822 4.48413 13.3822 4.38096C13.3822 4.27779 13.3902 4.17461 13.4061 4.07144L12.8572 3.59525L13.3345 2.78572L14.0266 3.00001C14.1141 2.93652 14.1997 2.88294 14.2832 2.83929C14.3667 2.79564 14.4562 2.75398 14.5517 2.71429L14.6949 2.00001H15.6495L15.7927 2.71429C15.8882 2.75398 15.9777 2.79564 16.0612 2.83929C16.1448 2.88294 16.2303 2.93652 16.3178 3.00001L17.0099 2.78572L17.4872 3.59525L16.9383 4.07144C16.9542 4.17461 16.9622 4.27779 16.9622 4.38096C16.9622 4.48413 16.9542 4.58731 16.9383 4.69048L17.4872 5.16667L17.0099 5.9762L16.3178 5.76191C16.2303 5.8254 16.1448 5.87898 16.0612 5.92263C15.9777 5.96628 15.8882 6.00794 15.7927 6.04763L15.6495 6.76191H14.6949ZM15.1722 5.33334C15.4347 5.33334 15.6595 5.24009 15.8464 5.05358C16.0334 4.86707 16.1269 4.64286 16.1269 4.38096C16.1269 4.11906 16.0334 3.89485 15.8464 3.70834C15.6595 3.52183 15.4347 3.42858 15.1722 3.42858C14.9097 3.42858 14.6849 3.52183 14.498 3.70834C14.311 3.89485 14.2176 4.11906 14.2176 4.38096C14.2176 4.64286 14.311 4.86707 14.498 5.05358C14.6849 5.24009 14.9097 5.33334 15.1722 5.33334ZM18.967 12L18.7522 11C18.6169 10.9524 18.4916 10.8948 18.3763 10.8274C18.2609 10.7599 18.1476 10.6825 18.0362 10.5952L17.0815 10.9048L16.4133 9.76191L17.177 9.09525C17.1611 8.95239 17.1531 8.80953 17.1531 8.66667C17.1531 8.52382 17.1611 8.38096 17.177 8.2381L16.4133 7.57144L17.0815 6.42858L18.0362 6.7381C18.1476 6.6508 18.2609 6.57342 18.3763 6.50596C18.4916 6.4385 18.6169 6.38096 18.7522 6.33334L18.967 5.33334H20.3035L20.5183 6.33334C20.6535 6.38096 20.7788 6.4385 20.8942 6.50596C21.0095 6.57342 21.1229 6.6508 21.2343 6.7381L22.1889 6.42858L22.8572 7.57144L22.0935 8.2381C22.1094 8.38096 22.1173 8.52382 22.1173 8.66667C22.1173 8.80953 22.1094 8.95239 22.0935 9.09525L22.8572 9.76191L22.1889 10.9048L21.2343 10.5952C21.1229 10.6825 21.0095 10.7599 20.8942 10.8274C20.7788 10.8948 20.6535 10.9524 20.5183 11L20.3035 12H18.967ZM19.6352 10.0952C20.033 10.0952 20.3711 9.95636 20.6495 9.67858C20.928 9.4008 21.0672 9.0635 21.0672 8.66667C21.0672 8.26985 20.928 7.93255 20.6495 7.65477C20.3711 7.37699 20.033 7.2381 19.6352 7.2381C19.2374 7.2381 18.8993 7.37699 18.6209 7.65477C18.3425 7.93255 18.2032 8.26985 18.2032 8.66667C18.2032 9.0635 18.3425 9.4008 18.6209 9.67858C18.8993 9.95636 19.2374 10.0952 19.6352 10.0952Z" fill="black"/>
<path d="M18.9467 5.00001L18.887 4.52001C18.8547 4.50751 18.8242 4.49251 18.7956 4.47501C18.767 4.45751 18.739 4.43876 18.7117 4.41876L18.2676 4.60626L17.8572 3.89376L18.2415 3.60126C18.239 3.58376 18.2378 3.56689 18.2378 3.55064V3.44939C18.2378 3.43314 18.239 3.41626 18.2415 3.39876L17.8572 3.10626L18.2676 2.39376L18.7117 2.58126C18.739 2.56126 18.7676 2.54251 18.7975 2.52501C18.8273 2.50751 18.8572 2.49251 18.887 2.48001L18.9467 2.00001H19.7676L19.8273 2.48001C19.8597 2.49251 19.8901 2.50751 19.9187 2.52501C19.9474 2.54251 19.9753 2.56126 20.0027 2.58126L20.4467 2.39376L20.8572 3.10626L20.4728 3.39876C20.4753 3.41626 20.4766 3.43314 20.4766 3.44939V3.55064C20.4766 3.56689 20.4741 3.58376 20.4691 3.60126L20.8534 3.89376L20.443 4.60626L20.0027 4.41876C19.9753 4.43876 19.9467 4.45751 19.9169 4.47501C19.887 4.49251 19.8572 4.50751 19.8273 4.52001L19.7676 5.00001H18.9467ZM19.3646 4.02501C19.5089 4.02501 19.6321 3.97376 19.734 3.87126C19.836 3.76876 19.887 3.64501 19.887 3.50001C19.887 3.35501 19.836 3.23126 19.734 3.12876C19.6321 3.02626 19.5089 2.97501 19.3646 2.97501C19.2179 2.97501 19.0941 3.02626 18.9934 3.12876C18.8926 3.23126 18.8423 3.35501 18.8423 3.50001C18.8423 3.64501 18.8926 3.76876 18.9934 3.87126C19.0941 3.97376 19.2179 4.02501 19.3646 4.02501Z" fill="black"/>
<path fill-rule="evenodd" clip-rule="evenodd" d="M0.857178 17.425V19H5.35718V17.375C5.35718 16.9417 5.41551 16.5333 5.53218 16.15C5.64884 15.7667 5.82384 15.4083 6.05718 15.075C5.87384 15.0417 5.68218 15.0208 5.48218 15.0125C5.28218 15.0042 5.07384 15 4.85718 15C3.67384 15 2.71134 15.2208 1.96968 15.6625C1.22801 16.1042 0.857178 16.6917 0.857178 17.425ZM6.85718 17.375V19H18.8572V17.375C18.8572 16.2917 18.3072 15.4167 17.2072 14.75C16.1072 14.0833 14.6572 13.75 12.8572 13.75C11.0738 13.75 9.62801 14.0833 8.51968 14.75C7.41134 15.4167 6.85718 16.2917 6.85718 17.375ZM20.3572 17.375V19H24.8572V17.425C24.8572 16.6917 24.4905 16.1042 23.7572 15.6625C23.0238 15.2208 22.0572 15 20.8572 15C20.6572 15 20.4613 15.0042 20.2697 15.0125C20.078 15.0208 19.8905 15.0417 19.7072 15.075C19.9238 15.4083 20.0863 15.7667 20.1947 16.15C20.303 16.5333 20.3572 16.9417 20.3572 17.375ZM3.44468 13.4125C3.83634 13.8042 4.30718 14 4.85718 14C5.42384 14 5.89884 13.8042 6.28218 13.4125C6.66551 13.0208 6.85718 12.55 6.85718 12C6.85718 11.4333 6.66551 10.9583 6.28218 10.575C5.89884 10.1917 5.42384 10 4.85718 10C4.30718 10 3.83634 10.1917 3.44468 10.575C3.05301 10.9583 2.85718 11.4333 2.85718 12C2.85718 12.55 3.05301 13.0208 3.44468 13.4125ZM19.4447 13.4125C19.8363 13.8042 20.3072 14 20.8572 14C21.4238 14 21.8988 13.8042 22.2822 13.4125C22.6655 13.0208 22.8572 12.55 22.8572 12C22.8572 11.6633 22.7895 11.359 22.6542 11.087C22.2188 12.2065 21.1307 13 19.8572 13C19.5823 13 19.3161 12.963 19.0632 12.8938C19.1578 13.0799 19.2849 13.2528 19.4447 13.4125ZM10.7322 12.125C11.3155 12.7083 12.0238 13 12.8572 13C13.7072 13 14.4197 12.7083 14.9947 12.125C15.5697 11.5417 15.8572 10.8333 15.8572 10C15.8572 9.15001 15.5697 8.43751 14.9947 7.86251C14.4197 7.28751 13.7072 7.00001 12.8572 7.00001C12.0238 7.00001 11.3155 7.28751 10.7322 7.86251C10.1488 8.43751 9.85718 9.15001 9.85718 10C9.85718 10.8333 10.1488 11.5417 10.7322 12.125Z" fill="black"/>
</g>
</svg>
