<svg width="24" height="24" viewBox="0 0 24 24" fill="none" xmlns="http://www.w3.org/2000/svg">
<mask id="mask0_3373_2720" style="mask-type:alpha" maskUnits="userSpaceOnUse" x="0" y="0" width="24" height="24">
<rect width="24" height="24" fill="#D9D9D9"/>
</mask>
<g mask="url(#mask0_3373_2720)">
<path d="M14.6318 10L14.4328 8.56001C14.325 8.52251 14.2235 8.47751 14.1281 8.42501C14.0328 8.37251 13.9395 8.31626 13.8483 8.25626L12.3682 8.81876L11 6.68126L12.2811 5.80376C12.2728 5.75126 12.2687 5.70063 12.2687 5.65188V5.34813C12.2687 5.29938 12.2728 5.24876 12.2811 5.19626L11 4.31876L12.3682 2.18126L13.8483 2.74376C13.9395 2.68376 14.0348 2.62751 14.1343 2.57501C14.2338 2.52251 14.3333 2.47751 14.4328 2.44001L14.6318 1.00001H17.3682L17.5672 2.44001C17.675 2.47751 17.7765 2.52251 17.8719 2.57501C17.9672 2.62751 18.0605 2.68376 18.1517 2.74376L19.6318 2.18126L21 4.31876L19.7189 5.19626C19.7272 5.24876 19.7313 5.29938 19.7313 5.34813V5.65188C19.7313 5.70063 19.7231 5.75126 19.7065 5.80376L20.9876 6.68126L19.6194 8.81876L18.1517 8.25626C18.0605 8.31626 17.9652 8.37251 17.8657 8.42501C17.7662 8.47751 17.6667 8.52251 17.5672 8.56001L17.3682 10H14.6318ZM16.0249 7.07501C16.5058 7.07501 16.9163 6.92126 17.2562 6.61376C17.5962 6.30626 17.7662 5.93501 17.7662 5.50001C17.7662 5.06501 17.5962 4.69376 17.2562 4.38626C16.9163 4.07876 16.5058 3.92501 16.0249 3.92501C15.5357 3.92501 15.1231 4.07876 14.7873 4.38626C14.4515 4.69376 14.2836 5.06501 14.2836 5.50001C14.2836 5.93501 14.4515 6.30626 14.7873 6.61376C15.1231 6.92126 15.5357 7.07501 16.0249 7.07501Z" fill="black"/>
<path fill-rule="evenodd" clip-rule="evenodd" d="M16.6974 10.9633C16.4687 10.9875 16.236 11 16.0001 11C12.7595 11 10.1188 8.64493 10.004 5.70001H5.5733L4.76505 4.00001H2V5.70001H3.70157L6.7644 12.16L5.61584 14.2425C5.31807 14.795 5.33225 15.351 5.65838 15.9106C5.98451 16.4702 6.46663 16.75 7.10472 16.75H17.3141V15.05H7.10472L8.04058 13.35H14.3789C14.6909 13.35 14.978 13.2721 15.2404 13.1163C15.5027 12.9604 15.7118 12.7408 15.8678 12.4575L16.6974 10.9633ZM5.90298 20.5006C6.23621 20.8335 6.63678 21 7.10472 21C7.57265 21 7.97323 20.8335 8.30645 20.5006C8.63968 20.1677 8.80629 19.7675 8.80629 19.3C8.80629 18.8325 8.63968 18.4323 8.30645 18.0994C7.97323 17.7665 7.57265 17.6 7.10472 17.6C6.63678 17.6 6.23621 17.7665 5.90298 18.0994C5.56976 18.4323 5.40314 18.8325 5.40314 19.3C5.40314 19.7675 5.56976 20.1677 5.90298 20.5006ZM14.4108 20.5006C14.7441 20.8335 15.1446 21 15.6126 21C16.0805 21 16.4811 20.8335 16.8143 20.5006C17.1475 20.1677 17.3141 19.7675 17.3141 19.3C17.3141 18.8325 17.1475 18.4323 16.8143 18.0994C16.4811 17.7665 16.0805 17.6 15.6126 17.6C15.1446 17.6 14.7441 17.7665 14.4108 18.0994C14.0776 18.4323 13.911 18.8325 13.911 19.3C13.911 19.7675 14.0776 20.1677 14.4108 20.5006Z" fill="black"/>
</g>
</svg>
