<svg width="25" height="24" viewBox="0 0 25 24" fill="none" xmlns="http://www.w3.org/2000/svg">
<mask id="mask0_3373_2710" style="mask-type:alpha" maskUnits="userSpaceOnUse" x="0" y="0" width="25" height="24">
<rect x="0.857147" width="24" height="24" fill="#D9D9D9"/>
</mask>
<g mask="url(#mask0_3373_2710)">
<path d="M22.8571 17C22.3049 17 21.8571 16.5523 21.8571 16V11.7831C21.8571 11.0243 21.0453 10.542 20.379 10.9048L13.3358 14.7394C13.0374 14.9019 12.677 14.9017 12.3787 14.739L3.46662 9.8779C2.77176 9.49888 2.77176 8.50112 3.46662 8.1221L12.3783 3.26119C12.6768 3.09839 13.0375 3.09839 13.336 3.26119L23.336 8.71574C23.6573 8.89097 23.8571 9.22769 23.8571 9.59363V16C23.8571 16.5523 23.4094 17 22.8571 17ZM13.3342 20.741C13.0367 20.9025 12.6776 20.9025 12.3801 20.741L6.38006 17.4839C6.05781 17.3089 5.85715 16.9717 5.85715 16.605V13.8807C5.85715 13.1225 6.66791 12.6401 7.33424 13.0019L12.3801 15.741C12.6776 15.9025 13.0367 15.9025 13.3342 15.741L18.3801 13.0019C19.0464 12.6401 19.8571 13.1225 19.8571 13.8807V16.605C19.8571 16.9717 19.6565 17.3089 19.3342 17.4839L13.3342 20.741Z" fill="black"/>
</g>
</svg>
