<svg width="24" height="24" viewBox="0 0 24 24" fill="none" xmlns="http://www.w3.org/2000/svg">
<mask id="mask0_3973_6081" style="mask-type:alpha" maskUnits="userSpaceOnUse" x="0" y="0" width="24" height="24">
<rect width="24" height="24" fill="#D9D9D9"/>
</mask>
<g mask="url(#mask0_3973_6081)">
<path fill-rule="evenodd" clip-rule="evenodd" d="M2.5875 19.4125C2.97917 19.8042 3.45 20 4 20H20C20.55 20 21.0208 19.8042 21.4125 19.4125C21.8042 19.0208 22 18.55 22 18V8C22 7.45 21.8042 6.97917 21.4125 6.5875C21.0208 6.19583 20.55 6 20 6H12L10.2929 4.29289C10.1054 4.10536 9.851 4 9.58579 4H4C3.45 4 2.97917 4.19583 2.5875 4.5875C2.19583 4.97917 2 5.45 2 6V18C2 18.55 2.19583 19.0208 2.5875 19.4125ZM12.7083 9.5C12.7083 9.22386 12.4845 9 12.2083 9C11.9322 9 11.7083 9.22386 11.7083 9.5V12.2083H9C8.72386 12.2083 8.5 12.4322 8.5 12.7083C8.5 12.9845 8.72386 13.2083 9 13.2083H11.7083V15.9167C11.7083 16.1928 11.9322 16.4167 12.2083 16.4167C12.4845 16.4167 12.7083 16.1928 12.7083 15.9167V13.2083H15.4167C15.6928 13.2083 15.9167 12.9845 15.9167 12.7083C15.9167 12.4322 15.6928 12.2083 15.4167 12.2083H12.7083V9.5Z" fill="black"/>
</g>
</svg>
