<svg width="25" height="24" viewBox="0 0 25 24" fill="none" xmlns="http://www.w3.org/2000/svg">
<path d="M22.853 3.00501L15.853 4.03101C15.607 4.06801 15.425 4.28001 15.425 4.52901V11H17.425V9.75001C17.425 9.44701 17.608 9.17301 17.888 9.05701C18.169 8.94201 18.491 9.005 18.706 9.21901L21.206 11.468C21.352 11.615 21.425 11.807 21.425 12C21.425 12.191 21.351 12.382 21.206 12.528L18.706 14.78C18.561 14.924 18.37 15 18.175 15C18.078 15 17.981 14.981 17.888 14.943C17.608 14.827 17.425 14.553 17.425 14.25V13H15.425V19.471C15.425 19.721 15.607 19.932 15.853 19.968L22.853 20.994C23.154 21.039 23.425 20.804 23.425 20.497V3.50301C23.425 3.19601 23.154 2.96101 22.853 3.00501Z" fill="black"/>
<path d="M10.675 7.5C11.6415 7.5 12.425 6.7165 12.425 5.75C12.425 4.7835 11.6415 4 10.675 4C9.70855 4 8.92505 4.7835 8.92505 5.75C8.92505 6.7165 9.70855 7.5 10.675 7.5Z" fill="black"/>
<path d="M3.42505 8.71101L4.61405 8.16201C4.86305 8.05501 5.12805 8.00101 5.39305 8.00001C5.65905 7.99901 5.92505 8.05101 6.17505 8.15601L8.63705 9.25901C8.98805 9.41601 9.28605 9.67201 9.49605 9.99401L10.208 11.09C10.577 11.658 11.208 12 11.885 12H12.425" stroke="black" stroke-width="2.66667" stroke-miterlimit="10" stroke-linecap="round"/>
<path d="M4.30405 15.289C4.26605 15.251 4.23805 15.205 4.20205 15.165L3.77705 15.67C3.58805 15.88 3.31805 16 3.03405 16H2.42505C1.87305 16 1.42505 16.448 1.42505 17C1.42505 17.552 1.87305 18 2.42505 18H3.03405C3.88405 18 4.69705 17.638 5.28505 16.982L5.72905 16.455L4.30405 15.289Z" fill="black"/>
<path d="M8.73409 15.025L7.53409 13.844L9.32809 10.537L6.43109 8.966L4.62609 12.294C4.49209 12.569 4.42309 12.875 4.42509 13.179C4.42809 13.709 4.63609 14.207 5.01109 14.582L7.35209 16.49L6.49709 18.629C6.29209 19.142 6.54109 19.724 7.05409 19.929C7.17509 19.978 7.30109 20 7.42509 20C7.82209 20 8.19709 19.763 8.35409 19.371L9.35409 16.871C9.40709 16.739 9.42709 16.603 9.42309 16.469C9.42309 16.467 9.42509 16.465 9.42509 16.463C9.40409 15.93 9.17809 15.436 8.73409 15.025Z" fill="black"/>
</svg>
