<!-- Generated by IcoMoon.io -->
<svg version="1.1" xmlns="http://www.w3.org/2000/svg" width="192" height="448" viewBox="0 0 192 448">
<g id="icomoon-ignore">
</g>
<path fill="#000" d="M176 80c0 8.75-7.25 16-16 16h-32v256h32c8.75 0 16 7.25 16 16 0 4.25-1.75 8.25-4.75 11.25l-64 64c-3 3-7 4.75-11.25 4.75s-8.25-1.75-11.25-4.75l-64-64c-3-3-4.75-7-4.75-11.25 0-8.75 7.25-16 16-16h32v-256h-32c-8.75 0-16-7.25-16-16 0-4.25 1.75-8.25 4.75-11.25l64-64c3-3 7-4.75 11.25-4.75s8.25 1.75 11.25 4.75l64 64c3 3 4.75 7 4.75 11.25z"></path>
</svg>
