<svg width="25" height="25" viewBox="0 0 25 25" fill="none" xmlns="http://www.w3.org/2000/svg">
<path d="M12.3826 3.42606C12.0058 3.42731 11.6439 3.46566 11.2469 3.53641C10.9514 3.58841 10.7216 3.82389 10.6766 4.12039L10.5457 4.97977C10.4817 5.40227 10.2326 5.76674 9.86214 5.98074C9.49264 6.19424 9.05215 6.22904 8.65315 6.07254L7.84944 5.75906C7.56944 5.65006 7.24947 5.73117 7.05647 5.96317C6.55047 6.57167 6.15426 7.25816 5.87776 8.00516C5.77326 8.28816 5.86199 8.60572 6.09749 8.79422L6.77034 9.33328C7.10384 9.59978 7.29573 9.99856 7.29573 10.4261C7.29573 10.8541 7.10384 11.2514 6.77034 11.5179L6.09749 12.0569C5.86199 12.2454 5.77326 12.563 5.87776 12.846C6.15376 13.593 6.55047 14.2795 7.05647 14.888C7.24897 15.12 7.56944 15.203 7.84944 15.0931L8.65315 14.7786C9.05165 14.6226 9.49264 14.6574 9.86214 14.8704C10.2326 15.0844 10.4812 15.4489 10.5457 15.8714L10.6766 16.7317C10.7216 17.0282 10.9519 17.2637 11.2469 17.3157C11.6564 17.3902 12.0425 17.4251 12.4285 17.4251C12.8145 17.4251 13.2012 17.3897 13.6102 17.3167C13.9057 17.2647 14.1345 17.0302 14.1795 16.7337L14.3104 15.8723H14.3114C14.3754 15.4498 14.6245 15.0854 14.995 14.8714C15.3654 14.6584 15.8059 14.6245 16.2039 14.7805L17.0076 15.094C17.2876 15.2035 17.6076 15.1219 17.8006 14.8899C18.3066 14.2814 18.7028 13.5949 18.9793 12.8479C19.0838 12.5644 18.9951 12.2464 18.7596 12.0579L18.0858 11.5188C17.7523 11.2523 17.5614 10.8545 17.5614 10.427C17.5614 9.99903 17.7527 9.60028 18.0867 9.33328L18.7596 8.7952C18.9951 8.6072 19.0833 8.28816 18.9783 8.00516C18.7023 7.26066 18.3047 6.57414 17.7977 5.96414C17.6052 5.73214 17.2852 5.65202 17.0047 5.76102L16.2039 6.07352C15.8059 6.23002 15.3654 6.19522 14.995 5.98172C14.6245 5.76772 14.3749 5.40374 14.3104 4.98074L14.1795 4.12332C14.1345 3.82532 13.9033 3.59034 13.6063 3.53934C13.151 3.46109 12.7595 3.42481 12.3826 3.42606ZM12.4285 7.92508C13.809 7.92508 14.9285 9.04458 14.9285 10.4251C14.9285 11.8056 13.809 12.9251 12.4285 12.9251C11.048 12.9251 9.92854 11.8056 9.92854 10.4251C9.92854 9.04458 11.048 7.92508 12.4285 7.92508ZM4.16683 16.4143C3.96808 16.4174 3.7787 16.4993 3.64027 16.6419C3.50184 16.7846 3.42569 16.9763 3.42854 17.1751V18.6751C3.42854 20.185 4.66866 21.4251 6.17854 21.4251H18.6785C20.1884 21.4251 21.4285 20.185 21.4285 18.6751V17.1751C21.43 17.0757 21.4116 16.977 21.3745 16.8848C21.3375 16.7926 21.2824 16.7086 21.2127 16.6379C21.1429 16.5671 21.0597 16.5109 20.968 16.4725C20.8763 16.4342 20.7779 16.4144 20.6785 16.4144C20.5792 16.4144 20.4807 16.4342 20.3891 16.4725C20.2974 16.5109 20.2142 16.5671 20.1444 16.6379C20.0746 16.7086 20.0196 16.7926 19.9826 16.8848C19.9455 16.977 19.9271 17.0757 19.9285 17.1751V18.6751C19.9285 19.3742 19.3777 19.9251 18.6785 19.9251H6.17854C5.47943 19.9251 4.92854 19.3742 4.92854 18.6751V17.1751C4.92998 17.0747 4.91126 16.975 4.87348 16.882C4.83569 16.789 4.77962 16.7045 4.70859 16.6336C4.63755 16.5627 4.553 16.5067 4.45994 16.469C4.36688 16.4314 4.26721 16.4128 4.16683 16.4143Z" fill="black"/>
</svg>
