<?xml version="1.0" encoding="UTF-8"?>
<svg id="Calque_1" data-name="Calque 1" xmlns="http://www.w3.org/2000/svg" viewBox="0 0 512 512">
  <path d="M359.36,297.36c12.58-12.47,34.08-3.85,35.68,14.1s1.35,48.84,0,66.08c-2.08,26.59-22.16,45.56-48.5,47.5-55.22,4.07-115.35-3.16-171.09,0-23.04-2.98-41.86,4.07-60.92-13.08-22.97-20.67-16.24-55.31-16.49-83.51-.04-4.52-1.39-8.66-1.02-13.95,1.82-26.61,30.79-32.42,41.51-8.54,2.85,21.17-2.24,46.79.56,67.44.83,6.14,3.91,9.7,10.37,9.63l198.6-.48c3-.98,4.61-5.09,4.96-8.04,2.11-17.69-4.06-56.94,2.08-70.92.69-1.58,3.05-5.06,4.25-6.25Z"/>
  <path d="M225,183l-34.96,37.54c-18.4,17-49.75-5.86-28.55-31.55s48.19-48.18,68.97-74.03c9.86-8.84,21.94-8.43,31.53.54,21,25.4,46.2,47.45,67.52,72.48,3.01,3.54,7.09,8.39,8.04,12.96,4.38,21-19.48,33.63-35.2,19.71l-35.35-37.65v134.5c0,2.42-5.11,9.06-7.25,10.75-11.09,8.8-27.19,5.29-32.62-7.88-.43-1.05-2.13-5.34-2.13-5.87v-131.5Z"/>
</svg>