<?xml version="1.0" encoding="UTF-8"?>
<svg id="Calque_1" data-name="Calque 1" xmlns="http://www.w3.org/2000/svg" viewBox="0 0 512 512">
  <path fill="#ffffff" d="M512,0v512H0V0h512ZM225,183v131.5c0,.53,1.7,4.82,2.13,5.87,5.44,13.17,21.54,16.69,32.62,7.88,2.14-1.7,7.25-8.33,7.25-10.75v-134.5l35.35,37.65c15.72,13.92,39.58,1.29,35.2-19.71-.95-4.57-5.03-9.42-8.04-12.96-21.33-25.03-46.52-47.08-67.52-72.48-9.59-8.98-21.67-9.39-31.53-.54-20.79,25.84-48.06,48.68-68.97,74.03s10.15,48.55,28.55,31.55l34.96-37.54ZM359.36,297.36c-1.2,1.19-3.56,4.67-4.25,6.25-6.14,13.98.03,53.23-2.08,70.92-.35,2.95-1.96,7.05-4.96,8.04l-198.6.48c-6.46.08-9.54-3.48-10.37-9.63-2.8-20.65,2.29-46.27-.56-67.44-10.72-23.88-39.69-18.07-41.51,8.54-.36,5.28.98,9.42,1.02,13.95.25,28.2-6.48,62.84,16.49,83.51,19.06,17.15,37.88,10.1,60.92,13.08,55.74-3.17,115.86,4.06,171.09,0,26.34-1.94,46.41-20.91,48.5-47.5,1.35-17.24,1.53-48.97,0-66.08-1.6-17.95-23.11-26.58-35.68-14.1Z"/>
  <path d="M359.36,297.36c12.58-12.47,34.08-3.85,35.68,14.1s1.35,48.84,0,66.08c-2.08,26.59-22.16,45.56-48.5,47.5-55.22,4.07-115.35-3.16-171.09,0-23.04-2.98-41.86,4.07-60.92-13.08-22.97-20.67-16.24-55.31-16.49-83.51-.04-4.52-1.39-8.66-1.02-13.95,1.82-26.61,30.79-32.42,41.51-8.54,2.85,21.17-2.24,46.79.56,67.44.83,6.14,3.91,9.7,10.37,9.63l198.6-.48c3-.98,4.61-5.09,4.96-8.04,2.11-17.69-4.06-56.94,2.08-70.92.69-1.58,3.05-5.06,4.25-6.25Z"/>
  <path d="M225,183l-34.96,37.54c-18.4,17-49.75-5.86-28.55-31.55s48.19-48.18,68.97-74.03c9.86-8.84,21.94-8.43,31.53.54,21,25.4,46.2,47.45,67.52,72.48,3.01,3.54,7.09,8.39,8.04,12.96,4.38,21-19.48,33.63-35.2,19.71l-35.35-37.65v134.5c0,2.42-5.11,9.06-7.25,10.75-11.09,8.8-27.19,5.29-32.62-7.88-.43-1.05-2.13-5.34-2.13-5.87v-131.5Z"/>
</svg>