<?xml version="1.0" encoding="UTF-8"?>
<svg id="Calque_1" data-name="Calque 1" xmlns="http://www.w3.org/2000/svg" viewBox="0 0 512 512">
    <path d="M79.65,305.34c2.03,2.28,5,8.12,5.37,11.13,3.36,27.58-3.15,62.02.08,89.92,1.36,11.71,9.61,19.57,21.35,20.65h299.08c11.17-.58,19.73-8.82,21.21-19.8,3.7-27.45-2.26-61.64.22-89.78,2.05-23.29,36.84-25.3,41.98-1.9-4.42,55.76,21.76,138.72-54.54,153.33l-312.94.15c-79.62-10.35-54.51-95.22-58.5-151.59,1.36-17.38,24.99-25.3,36.69-12.12Z"/>
  <path d="M277,116v209.5c0,1.85-4.51,8.37-6.11,9.89-8.31,7.87-22.35,7.89-30.28-.5-1.2-1.27-5.61-8.32-5.61-9.39V116l-69.99,69.51c-10.32,9.86-27.71,8.47-34.41-4.61-5.68-11.1-1.92-18.77,5.37-27.43,30.2-35.85,72.25-67.87,103.5-103.5,12.36-10.18,21.61-9.62,33.54.51,36.03,30.59,68.26,72.35,103.96,104.04,19.86,21.13-6.36,49.55-28.88,31.88l-71.09-70.41Z"/>
</svg>