<svg width="24" height="24" viewBox="0 0 24 24" fill="none" xmlns="http://www.w3.org/2000/svg">
<mask id="mask0_210_53" style="mask-type:alpha" maskUnits="userSpaceOnUse" x="0" y="0" width="24" height="24">
<rect width="24" height="24" fill="#D9D9D9"/>
</mask>
<g mask="url(#mask0_210_53)">
<path d="M14.6318 10L14.4328 8.56C14.325 8.5225 14.2235 8.4775 14.1281 8.425C14.0328 8.3725 13.9395 8.31625 13.8483 8.25625L12.3682 8.81875L11 6.68125L12.2811 5.80375C12.2728 5.75125 12.2687 5.70063 12.2687 5.65188V5.34812C12.2687 5.29937 12.2728 5.24875 12.2811 5.19625L11 4.31875L12.3682 2.18125L13.8483 2.74375C13.9395 2.68375 14.0348 2.6275 14.1343 2.575C14.2338 2.5225 14.3333 2.4775 14.4328 2.44L14.6318 1H17.3682L17.5672 2.44C17.675 2.4775 17.7765 2.5225 17.8719 2.575C17.9672 2.6275 18.0605 2.68375 18.1517 2.74375L19.6318 2.18125L21 4.31875L19.7189 5.19625C19.7272 5.24875 19.7313 5.29937 19.7313 5.34812V5.65188C19.7313 5.70063 19.7231 5.75125 19.7065 5.80375L20.9876 6.68125L19.6194 8.81875L18.1517 8.25625C18.0605 8.31625 17.9652 8.3725 17.8657 8.425C17.7662 8.4775 17.6667 8.5225 17.5672 8.56L17.3682 10H14.6318ZM16.0249 7.075C16.5058 7.075 16.9163 6.92125 17.2562 6.61375C17.5962 6.30625 17.7662 5.935 17.7662 5.5C17.7662 5.065 17.5962 4.69375 17.2562 4.38625C16.9163 4.07875 16.5058 3.925 16.0249 3.925C15.5357 3.925 15.1231 4.07875 14.7873 4.38625C14.4515 4.69375 14.2836 5.065 14.2836 5.5C14.2836 5.935 14.4515 6.30625 14.7873 6.61375C15.1231 6.92125 15.5357 7.075 16.0249 7.075Z" fill="black"/>
<path d="M7.10449 17.5996C7.57242 17.5996 7.97342 17.7667 8.30664 18.0996C8.63968 18.4324 8.80659 18.8325 8.80664 19.2998C8.80664 19.7673 8.63987 20.1681 8.30664 20.501C7.97343 20.8338 7.57239 21 7.10449 21C6.63682 20.9999 6.23642 20.8336 5.90332 20.501C5.5701 20.1681 5.40332 19.7673 5.40332 19.2998C5.40337 18.8324 5.57014 18.4325 5.90332 18.0996C6.23648 17.7668 6.63668 17.5997 7.10449 17.5996ZM15.6123 17.5996C16.0802 17.5996 16.4812 17.7667 16.8145 18.0996C17.1475 18.4324 17.3144 18.8325 17.3145 19.2998C17.3145 19.7673 17.1477 20.1681 16.8145 20.501C16.4812 20.8338 16.0802 21 15.6123 21C15.1446 20.9999 14.7442 20.8336 14.4111 20.501C14.0779 20.1681 13.9111 19.7673 13.9111 19.2998C13.9112 18.8324 14.078 18.4325 14.4111 18.0996C14.7443 17.7668 15.1445 17.5997 15.6123 17.5996ZM5.57324 5.7002H10.0059C10.1208 8.64499 12.7594 11 16 11C16.2359 11 16.4684 10.9852 16.6973 10.9609L15.8682 12.457C15.7122 12.7404 15.5026 12.9604 15.2402 13.1162C14.9779 13.272 14.6908 13.3496 14.3789 13.3496H8.04102L7.10449 15.0498H17.3145V16.75H7.10449C6.46651 16.7499 5.9843 16.4697 5.6582 15.9102C5.33231 15.3507 5.31851 14.7945 5.61621 14.2422L6.76465 12.1602L3.70117 5.7002H2V4H4.76465L5.57324 5.7002Z" fill="black"/>
</g>
</svg>
