<svg width="24" height="24" viewBox="0 0 24 24" fill="none" xmlns="http://www.w3.org/2000/svg">
<mask id="mask0_210_54" style="mask-type:alpha" maskUnits="userSpaceOnUse" x="0" y="0" width="24" height="24">
<rect width="24" height="24" fill="#D9D9D9"/>
</mask>
<g mask="url(#mask0_210_54)">
<path d="M13.8377 6.7619L13.6945 6.04762C13.599 6.00794 13.5095 5.96627 13.426 5.92262C13.3425 5.87897 13.257 5.8254 13.1695 5.7619L12.4773 5.97619L12 5.16667L12.5489 4.69048C12.533 4.5873 12.5251 4.48413 12.5251 4.38095C12.5251 4.27778 12.533 4.1746 12.5489 4.07143L12 3.59524L12.4773 2.78571L13.1695 3C13.257 2.93651 13.3425 2.88294 13.426 2.83929C13.5095 2.79563 13.599 2.75397 13.6945 2.71429L13.8377 2H14.7924L14.9356 2.71429C15.031 2.75397 15.1205 2.79563 15.2041 2.83929C15.2876 2.88294 15.3731 2.93651 15.4606 3L16.1527 2.78571L16.6301 3.59524L16.0811 4.07143C16.0971 4.1746 16.105 4.27778 16.105 4.38095C16.105 4.48413 16.0971 4.5873 16.0811 4.69048L16.6301 5.16667L16.1527 5.97619L15.4606 5.7619C15.3731 5.8254 15.2876 5.87897 15.2041 5.92262C15.1205 5.96627 15.031 6.00794 14.9356 6.04762L14.7924 6.7619H13.8377ZM14.315 5.33333C14.5776 5.33333 14.8023 5.24008 14.9893 5.05357C15.1762 4.86706 15.2697 4.64286 15.2697 4.38095C15.2697 4.11905 15.1762 3.89484 14.9893 3.70833C14.8023 3.52183 14.5776 3.42857 14.315 3.42857C14.0525 3.42857 13.8278 3.52183 13.6408 3.70833C13.4539 3.89484 13.3604 4.11905 13.3604 4.38095C13.3604 4.64286 13.4539 4.86706 13.6408 5.05357C13.8278 5.24008 14.0525 5.33333 14.315 5.33333ZM18.1098 12L17.895 11C17.7597 10.9524 17.6344 10.8948 17.5191 10.8274C17.4037 10.7599 17.2904 10.6825 17.179 10.5952L16.2243 10.9048L15.5561 9.76191L16.3198 9.09524C16.3039 8.95238 16.2959 8.80952 16.2959 8.66667C16.2959 8.52381 16.3039 8.38095 16.3198 8.2381L15.5561 7.57143L16.2243 6.42857L17.179 6.7381C17.2904 6.65079 17.4037 6.57341 17.5191 6.50595C17.6344 6.43849 17.7597 6.38095 17.895 6.33333L18.1098 5.33333H19.4463L19.6611 6.33333C19.7963 6.38095 19.9216 6.43849 20.037 6.50595C20.1523 6.57341 20.2657 6.65079 20.3771 6.7381L21.3317 6.42857L22 7.57143L21.2363 8.2381C21.2522 8.38095 21.2601 8.52381 21.2601 8.66667C21.2601 8.80952 21.2522 8.95238 21.2363 9.09524L22 9.76191L21.3317 10.9048L20.3771 10.5952C20.2657 10.6825 20.1523 10.7599 20.037 10.8274C19.9216 10.8948 19.7963 10.9524 19.6611 11L19.4463 12H18.1098ZM18.778 10.0952C19.1758 10.0952 19.5139 9.95635 19.7924 9.67857C20.0708 9.40079 20.21 9.06349 20.21 8.66667C20.21 8.26984 20.0708 7.93254 19.7924 7.65476C19.5139 7.37698 19.1758 7.2381 18.778 7.2381C18.3803 7.2381 18.0422 7.37698 17.7637 7.65476C17.4853 7.93254 17.3461 8.26984 17.3461 8.66667C17.3461 9.06349 17.4853 9.40079 17.7637 9.67857C18.0422 9.95635 18.3803 10.0952 18.778 10.0952Z" fill="#1F1F1F"/>
<path d="M18.0896 5L18.0299 4.52C17.9975 4.5075 17.967 4.4925 17.9384 4.475C17.9098 4.4575 17.8818 4.43875 17.8545 4.41875L17.4104 4.60625L17 3.89375L17.3843 3.60125C17.3818 3.58375 17.3806 3.56688 17.3806 3.55063V3.44938C17.3806 3.43313 17.3818 3.41625 17.3843 3.39875L17 3.10625L17.4104 2.39375L17.8545 2.58125C17.8818 2.56125 17.9104 2.5425 17.9403 2.525C17.9701 2.5075 18 2.4925 18.0299 2.48L18.0896 2H18.9104L18.9701 2.48C19.0025 2.4925 19.033 2.5075 19.0616 2.525C19.0902 2.5425 19.1182 2.56125 19.1455 2.58125L19.5896 2.39375L20 3.10625L19.6157 3.39875C19.6182 3.41625 19.6194 3.43313 19.6194 3.44938V3.55063C19.6194 3.56688 19.6169 3.58375 19.6119 3.60125L19.9963 3.89375L19.5858 4.60625L19.1455 4.41875C19.1182 4.43875 19.0896 4.4575 19.0597 4.475C19.0299 4.4925 19 4.5075 18.9701 4.52L18.9104 5H18.0896ZM18.5075 4.025C18.6517 4.025 18.7749 3.97375 18.8769 3.87125C18.9789 3.76875 19.0299 3.645 19.0299 3.5C19.0299 3.355 18.9789 3.23125 18.8769 3.12875C18.7749 3.02625 18.6517 2.975 18.5075 2.975C18.3607 2.975 18.2369 3.02625 18.1362 3.12875C18.0354 3.23125 17.9851 3.355 17.9851 3.5C17.9851 3.645 18.0354 3.76875 18.1362 3.87125C18.2369 3.97375 18.3607 4.025 18.5075 4.025Z" fill="black"/>
<path d="M4.625 15.0127C4.825 15.021 5.01686 15.0419 5.2002 15.0752C4.96688 15.4085 4.79147 15.7671 4.6748 16.1504C4.55822 16.5336 4.5 16.9418 4.5 17.375V19H0V17.4248C6.62251e-05 16.6916 0.370704 16.1037 1.1123 15.6621C1.85397 15.2205 2.81668 15 4 15C4.21667 15 4.425 15.0044 4.625 15.0127ZM12 13.75C13.7998 13.75 15.2496 14.0834 16.3496 14.75C17.4496 15.4167 18 16.2917 18 17.375V19H6V17.375C6 16.2918 6.55397 15.4166 7.66211 14.75C8.77044 14.0833 10.2167 13.75 12 13.75ZM20 15C21.2 15 22.1671 15.2204 22.9004 15.6621C23.6336 16.1037 23.9999 16.6916 24 17.4248V19H19.5V17.375C19.5 16.9418 19.4461 16.5336 19.3379 16.1504C19.2296 15.7671 19.0663 15.4085 18.8496 15.0752C19.0328 15.0419 19.2206 15.021 19.4121 15.0127C19.6038 15.0044 19.8 15 20 15ZM4 10C4.56667 10 5.04147 10.1919 5.4248 10.5752C5.80814 10.9585 6 11.4333 6 12C6 12.55 5.80807 13.0205 5.4248 13.4121C5.04147 13.8038 4.56667 14 4 14C3.45 14 2.97956 13.8038 2.58789 13.4121C2.19622 13.0204 2 12.55 2 12C2 11.4333 2.19622 10.9585 2.58789 10.5752C2.97954 10.1919 3.45005 10 4 10ZM21.7939 11.0859C21.93 11.3584 22 11.6624 22 12C22 12.55 21.8081 13.0205 21.4248 13.4121C21.0415 13.8038 20.5667 14 20 14C19.45 14 18.9796 13.8038 18.5879 13.4121C18.4274 13.2517 18.3008 13.0776 18.2061 12.8906C18.4592 12.96 18.7249 13 19 13C20.2734 13 21.3585 12.2054 21.7939 11.0859ZM12 7C12.85 7 13.5627 7.2873 14.1377 7.8623C14.7127 8.4373 15 9.15 15 10C15 10.8333 14.7126 11.5417 14.1377 12.125C13.5627 12.7083 12.85 13 12 13C11.1667 13 10.4583 12.7083 9.875 12.125C9.29167 11.5417 9 10.8333 9 10C9 9.15 9.29167 8.4373 9.875 7.8623C10.4583 7.28737 11.1667 7 12 7Z" fill="black"/>
</g>
</svg>
